<?xml version="1.0" encoding="UTF-8" standalone="no"?><svg xmlns="http://www.w3.org/2000/svg" xmlns:xlink="http://www.w3.org/1999/xlink" contentStyleType="text/css" height="259px" preserveAspectRatio="none" style="width:1524px;height:259px;background:#FFFFFF;" version="1.1" viewBox="0 0 1524 259" width="1524px" zoomAndPan="magnify"><defs/><g><g id="elem_AltaPDI"><ellipse cx="127.796" cy="207.2582" fill="#F1F1F1" rx="121.796" ry="45.7582" style="stroke:#181818;stroke-width:0.5;"/><text fill="#000000" font-family="sans-serif" font-size="14" lengthAdjust="spacing" textLength="153" x="50.296" y="189.3774">Dar alta estudiantes PDI</text><line style="stroke:#181818;stroke-width:1.0;" x1="13.5509" x2="242.0412" y1="192.4535" y2="192.4535"/><text fill="#000000" font-family="sans-serif" font-size="14" lengthAdjust="spacing" textLength="102" x="75.796" y="210.9867">extension points</text><text fill="#000000" font-family="sans-serif" font-size="14" lengthAdjust="spacing" textLength="157" x="48.296" y="228.5961">Buscar en listas de clase</text></g><!--MD5=[7d61a013d1ed55ec04421f31c55a24ee]
entity Estudiante--><g id="elem_Estudiante"><ellipse cx="589" cy="177" fill="#F1F1F1" rx="8" ry="8" style="stroke:#181818;stroke-width:0.5;"/><path d="M589,185 L589,212 M576,193 L602,193 M589,212 L576,227 M589,212 L602,227 " fill="none" style="stroke:#181818;stroke-width:0.5;"/><text fill="#000000" font-family="sans-serif" font-size="14" lengthAdjust="spacing" textLength="67" x="555.5" y="243.0332">Estudiante</text></g><g id="elem_Consultar horarios"><ellipse cx="739.097" cy="207.6194" fill="#F1F1F1" rx="81.097" ry="18.6194" style="stroke:#181818;stroke-width:0.5;"/><text fill="#000000" font-family="sans-serif" font-size="14" lengthAdjust="spacing" textLength="117" x="680.0843" y="211.4982">Consultar horarios</text></g><!--MD5=[28056073c90ee5f93a56aa104aa5a368]
entity PersonalPDI--><g id="elem_PersonalPDI"><ellipse cx="403" cy="14" fill="#F1F1F1" rx="8" ry="8" style="stroke:#181818;stroke-width:0.5;"/><path d="M403,22 L403,49 M390,30 L416,30 M403,49 L390,64 M403,49 L416,64 " fill="none" style="stroke:#181818;stroke-width:0.5;"/><text fill="#000000" font-family="sans-serif" font-size="14" lengthAdjust="spacing" textLength="78" x="364" y="80.0332">PersonalPDI</text></g><g id="elem_Proponer cambios en el horario"><ellipse cx="402.8167" cy="207.3633" fill="#F1F1F1" rx="117.3167" ry="25.8633" style="stroke:#181818;stroke-width:0.5;"/><text fill="#000000" font-family="sans-serif" font-size="14" lengthAdjust="spacing" textLength="199" x="303.3167" y="211.0919">Proponer cambios en el horario</text></g><!--MD5=[1854919a769ae9fc3739244181800768]
entity PersonalPAS--><g id="elem_PersonalPAS"><ellipse cx="935" cy="14" fill="#F1F1F1" rx="8" ry="8" style="stroke:#181818;stroke-width:0.5;"/><path d="M935,22 L935,49 M922,30 L948,30 M935,49 L922,64 M935,49 L948,64 " fill="none" style="stroke:#181818;stroke-width:0.5;"/><text fill="#000000" font-family="sans-serif" font-size="14" lengthAdjust="spacing" textLength="83" x="893.5" y="80.0332">PersonalPAS</text></g><g id="elem_Modificar horarios"><ellipse cx="934.9775" cy="207.2955" fill="#F1F1F1" rx="79.4775" ry="18.2955" style="stroke:#181818;stroke-width:0.5;"/><text fill="#000000" font-family="sans-serif" font-size="14" lengthAdjust="spacing" textLength="113" x="877.256" y="211.3709">Modificar horarios</text></g><g id="elem_Dar alta estudiantes"><ellipse cx="1134.7698" cy="207.454" fill="#F1F1F1" rx="85.2698" ry="19.454" style="stroke:#181818;stroke-width:0.5;"/><text fill="#000000" font-family="sans-serif" font-size="14" lengthAdjust="spacing" textLength="127" x="1071.2698" y="211.1825">Dar alta estudiantes</text></g><g id="elem_Dar alta estudiantes PDI"><ellipse cx="1135.011" cy="44.7022" fill="#F1F1F1" rx="96.511" ry="21.7022" style="stroke:#181818;stroke-width:0.5;"/><text fill="#000000" font-family="sans-serif" font-size="14" lengthAdjust="spacing" textLength="153" x="1058.511" y="48.4307">Dar alta estudiantes PDI</text></g><g id="elem_Verificar datos estudiantes"><ellipse cx="1415.1901" cy="207.538" fill="#F1F1F1" rx="103.1901" ry="23.038" style="stroke:#181818;stroke-width:0.5;"/><text fill="#000000" font-family="sans-serif" font-size="14" lengthAdjust="spacing" textLength="168" x="1331.1901" y="211.2665">Verificar datos estudiantes</text></g><g id="elem_Buscar en listas de clase"><ellipse cx="127.7802" cy="44.556" fill="#F1F1F1" rx="98.2802" ry="22.056" style="stroke:#181818;stroke-width:0.5;"/><text fill="#000000" font-family="sans-serif" font-size="14" lengthAdjust="spacing" textLength="157" x="49.2802" y="48.2846">Buscar en listas de clase</text></g><!--MD5=[9a537460b9fb397400611ae931fd4ba8]
link Estudiante to Consultar horarios--><g id="link_Estudiante_Consultar horarios"><path d="M622.69,207.5 C634.35,207.5 646.01,207.5 657.67,207.5 " fill="none" id="Estudiante-Consultar horarios" style="stroke:#181818;stroke-width:1.0;"/></g><!--MD5=[1da1dce2a00a4f2beebe16684f74f48a]
link PersonalPDI to Proponer cambios en el horario--><g id="link_PersonalPDI_Proponer cambios en el horario"><path d="M403,83.65 C403,113.78 403,154.97 403,181.16 " fill="none" id="PersonalPDI-Proponer cambios en el horario" style="stroke:#181818;stroke-width:1.0;"/></g><!--MD5=[5ce2f1315bebd5c5cfaeb1f4284142a9]
link PersonalPDI to AltaPDI--><g id="link_PersonalPDI_AltaPDI"><path d="M363.89,68.4 C319.41,94.44 246.06,137.38 192.96,168.47 " fill="none" id="PersonalPDI-AltaPDI" style="stroke:#181818;stroke-width:1.0;"/></g><!--MD5=[adb76de2928ac0a35058e5cf021d6436]
link PersonalPAS to Modificar horarios--><g id="link_PersonalPAS_Modificar horarios"><path d="M935,83.65 C935,116.94 935,163.74 935,188.88 " fill="none" id="PersonalPAS-Modificar horarios" style="stroke:#181818;stroke-width:1.0;"/></g><!--MD5=[4c911e1922758d8bea030622f7412a2c]
link PersonalPAS to Dar alta estudiantes--><g id="link_PersonalPAS_Dar alta estudiantes"><path d="M976.93,79.25 C1018.28,112.54 1079.9,162.15 1112.65,188.51 " fill="none" id="PersonalPAS-Dar alta estudiantes" style="stroke:#181818;stroke-width:1.0;"/></g><!--MD5=[e219c0a176ce47ae39fd25d003a855e5]
link Dar alta estudiantes PDI to Dar alta estudiantes--><g id="link_Dar alta estudiantes PDI_Dar alta estudiantes"><path d="M1135,66.22 C1135,91.76 1135,135.71 1135,167.62 " fill="none" id="Dar alta estudiantes PDI-to-Dar alta estudiantes" style="stroke:#181818;stroke-width:1.0;"/><polygon fill="none" points="1142,167.86,1135,187.86,1128,167.86,1142,167.86" style="stroke:#181818;stroke-width:1.0;"/></g><!--MD5=[24cccbbdaa8a41a6c892d169b3304c9c]
link Dar alta estudiantes to Verificar datos estudiantes--><g id="link_Dar alta estudiantes_Verificar datos estudiantes"><path d="M1220.53,207.5 C1247.63,207.5 1277.96,207.5 1306.45,207.5 " fill="none" id="Dar alta estudiantes-to-Verificar datos estudiantes" style="stroke:#181818;stroke-width:1.0;stroke-dasharray:7.0,7.0;"/><polygon fill="#181818" points="1311.75,207.5,1302.75,203.5,1306.75,207.5,1302.75,211.5,1311.75,207.5" style="stroke:#181818;stroke-width:1.0;"/><text fill="#000000" font-family="sans-serif" font-size="13" lengthAdjust="spacing" textLength="55" x="1238.75" y="200.9951">«include»</text></g><!--MD5=[e9ea02f4920212337111eeb9ef39f136]
link Buscar en listas de clase to AltaPDI--><g id="link_Buscar en listas de clase_AltaPDI"><path d="M128,66.55 C128,89.19 128,126.01 128,156.2 " fill="none" id="Buscar en listas de clase-to-AltaPDI" style="stroke:#181818;stroke-width:1.0;stroke-dasharray:7.0,7.0;"/><polygon fill="#181818" points="128,161.37,132,152.37,128,156.37,124,152.37,128,161.37" style="stroke:#181818;stroke-width:1.0;"/><text fill="#000000" font-family="sans-serif" font-size="13" lengthAdjust="spacing" textLength="60" x="129" y="127.9951">«extends»</text></g><!--MD5=[2b05f4afa5075432514dba4c80908943]
link PersonalPDI to Estudiante--><g id="link_PersonalPDI_Estudiante"><path d="M442.11,78.87 C469.12,101.98 505.84,133.5 538,161.5 C538.7,162.11 539.41,162.73 540.12,163.35 " fill="none" id="PersonalPDI-to-Estudiante" style="stroke:#181818;stroke-width:1.0;"/><polygon fill="none" points="544.89,158.22,555.31,176.66,535.66,168.74,544.89,158.22" style="stroke:#181818;stroke-width:1.0;"/></g><!--MD5=[1f68abdd139ae37fd3c76594a76a16f4]
link PersonalPAS to Estudiante--><g id="link_PersonalPAS_Estudiante"><path d="M893.3,56.87 C834.17,74.08 723.81,110.25 640,161.5 C639.63,161.73 639.26,161.96 638.89,162.19 " fill="none" id="PersonalPAS-to-Estudiante" style="stroke:#181818;stroke-width:1.0;"/><polygon fill="none" points="642.86,167.95,622.56,174.03,634.65,156.62,642.86,167.95" style="stroke:#181818;stroke-width:1.0;"/></g><!--MD5=[c54b722d4fce57816ed9ed603b71ab2b]
@startuml

usecase AltaPDI as "Dar alta estudiantes PDI
- -
extension points
Buscar en listas de clase
"
Estudiante-(Consultar horarios)
PersonalPDI- -(Proponer cambios en el horario)
PersonalPDI- -(AltaPDI)
PersonalPAS- -(Modificar horarios)
PersonalPAS- -(Dar alta estudiantes)

(Dar alta estudiantes PDI)- -|>(Dar alta estudiantes)

(Dar alta estudiantes).>(Verificar datos estudiantes): <<include>>
(Buscar en listas de clase)..>(AltaPDI): <<extends>>


PersonalPDI- -|>Estudiante
PersonalPAS- -|>Estudiante
@enduml

PlantUML version 1.2022.7(Mon Aug 22 19:01:30 CEST 2022)
(GPL source distribution)
Java Runtime: OpenJDK Runtime Environment
JVM: OpenJDK 64-Bit Server VM
Default Encoding: Cp1252
Language: es
Country: ES
--></g></svg>