<?xml version="1.0" encoding="UTF-8" standalone="no"?><svg xmlns="http://www.w3.org/2000/svg" xmlns:xlink="http://www.w3.org/1999/xlink" contentStyleType="text/css" height="760px" preserveAspectRatio="none" style="width:2308px;height:760px;background:#FFFFFF;" version="1.1" viewBox="0 0 2308 760" width="2308px" zoomAndPan="magnify"><defs/><g><!--MD5=[9a762eefa6a5e3fba0376d4fc87b4ea8]
entity OA--><g id="elem_OA"><ellipse cx="1409" cy="202" fill="#F1F1F1" rx="8" ry="8" style="stroke:#181818;stroke-width:0.5;"/><path d="M1409,210 L1409,237 M1396,218 L1422,218 M1409,237 L1396,252 M1409,237 L1422,252 " fill="none" style="stroke:#181818;stroke-width:0.5;"/><text fill="#000000" font-family="sans-serif" font-size="14" lengthAdjust="spacing" textLength="146" x="1336" y="268.0332">Operador adjudicatario</text></g><!--MD5=[9544e8f9a50b6f5806c8e28b91970f7d]
entity Operador--><g id="elem_Operador"><ellipse cx="552" cy="202" fill="#F1F1F1" rx="8" ry="8" style="stroke:#181818;stroke-width:0.5;"/><path d="M552,210 L552,237 M539,218 L565,218 M552,237 L539,252 M552,237 L565,252 " fill="none" style="stroke:#181818;stroke-width:0.5;"/><text fill="#000000" font-family="sans-serif" font-size="14" lengthAdjust="spacing" textLength="61" x="521.5" y="268.0332">Operador</text></g><!--MD5=[6b408a1975284960d5de2ef41f0ce8fc]
entity UR--><g id="elem_UR"><ellipse cx="309" cy="202" fill="#F1F1F1" rx="8" ry="8" style="stroke:#181818;stroke-width:0.5;"/><path d="M309,210 L309,237 M296,218 L322,218 M309,237 L296,252 M309,237 L322,252 " fill="none" style="stroke:#181818;stroke-width:0.5;"/><text fill="#000000" font-family="sans-serif" font-size="14" lengthAdjust="spacing" textLength="111" x="253.5" y="268.0332">Usuario logueado</text></g><!--MD5=[2ef883c7bda54365519191918ae31df7]
entity UNR--><g id="elem_UNR"><ellipse cx="824" cy="14" fill="#F1F1F1" rx="8" ry="8" style="stroke:#181818;stroke-width:0.5;"/><path d="M824,22 L824,49 M811,30 L837,30 M824,49 L811,64 M824,49 L837,64 " fill="none" style="stroke:#181818;stroke-width:0.5;"/><text fill="#000000" font-family="sans-serif" font-size="14" lengthAdjust="spacing" textLength="131" x="758.5" y="80.0332">Usuario no logueado</text></g><g id="elem_VisualAct"><ellipse cx="1086.9752" cy="232.3008" fill="#F1F1F1" rx="107.4752" ry="70.8008" style="stroke:#181818;stroke-width:0.5;"/><text fill="#000000" font-family="sans-serif" font-size="14" lengthAdjust="spacing" textLength="135" x="1019.2252" y="196.8105">Visualizar la actividad</text><text fill="#000000" font-family="sans-serif" font-size="14" lengthAdjust="spacing" textLength="115" x="1027.2252" y="214.4199">de los operadores</text><text fill="#000000" font-family="sans-serif" font-size="14" lengthAdjust="spacing" textLength="103" x="1035.2252" y="232.0293">en la cartografía</text><line style="stroke:#181818;stroke-width:1.0;" x1="980.5844" x2="1193.366" y1="235.1055" y2="235.1055"/><text fill="#000000" font-family="sans-serif" font-size="14" lengthAdjust="spacing" textLength="102" x="1035.7252" y="253.6387">extension points</text><text fill="#000000" font-family="sans-serif" font-size="14" lengthAdjust="spacing" textLength="136" x="1018.7252" y="271.248">Introducir operadores</text></g><g id="elem_Registrar situaciones puntuales"><ellipse cx="1354.8167" cy="44.3633" fill="#F1F1F1" rx="117.3167" ry="25.8633" style="stroke:#181818;stroke-width:0.5;"/><text fill="#000000" font-family="sans-serif" font-size="14" lengthAdjust="spacing" textLength="199" x="1255.3167" y="48.0919">Registrar situaciones puntuales</text></g><g id="elem_Registrar periodos continuos"><ellipse cx="1617.0226" cy="44.3045" fill="#F1F1F1" rx="109.5226" ry="24.3045" style="stroke:#181818;stroke-width:0.5;"/><text fill="#000000" font-family="sans-serif" font-size="14" lengthAdjust="spacing" textLength="182" x="1526.0226" y="48.033">Registrar periodos continuos</text></g><g id="elem_Visualizar alarmas UR"><ellipse cx="309.0017" cy="427.0003" fill="#F1F1F1" rx="93.0017" ry="21.0003" style="stroke:#181818;stroke-width:0.5;"/><text fill="#000000" font-family="sans-serif" font-size="14" lengthAdjust="spacing" textLength="145" x="236.5017" y="430.7289">Visualizar alarmas (UL)</text></g><g id="elem_Visualizar alarmas OA"><ellipse cx="1156.813" cy="426.7626" fill="#F1F1F1" rx="94.313" ry="21.2626" style="stroke:#181818;stroke-width:0.5;"/><text fill="#000000" font-family="sans-serif" font-size="14" lengthAdjust="spacing" textLength="148" x="1082.813" y="430.4911">Visualizar alarmas (OA)</text></g><g id="elem_Visualizar alarmas O"><ellipse cx="679.8974" cy="426.9795" fill="#F1F1F1" rx="90.3974" ry="20.4795" style="stroke:#181818;stroke-width:0.5;"/><text fill="#000000" font-family="sans-serif" font-size="14" lengthAdjust="spacing" textLength="139" x="610.3974" y="430.708">Visualizar alarmas (O)</text></g><g id="elem_VA"><ellipse cx="788.1987" cy="595.8377" fill="#F1F1F1" rx="90.6987" ry="45.3377" style="stroke:#181818;stroke-width:0.5;"/><text fill="#000000" font-family="sans-serif" font-size="14" lengthAdjust="spacing" textLength="114" x="732.4597" y="578.3023">Visualizar alarmas</text><line style="stroke:#181818;stroke-width:1.0;" x1="703.2362" x2="873.1611" y1="581.3784" y2="581.3784"/><text fill="#000000" font-family="sans-serif" font-size="14" lengthAdjust="spacing" textLength="102" x="736.4597" y="599.9116">extension points</text><text fill="#000000" font-family="sans-serif" font-size="14" lengthAdjust="spacing" textLength="105" x="736.9597" y="617.521">Mostrar mensaje</text></g><g id="elem_DE"><ellipse cx="1898.8824" cy="426.8569" fill="#F1F1F1" rx="82.3824" ry="45.3569" style="stroke:#181818;stroke-width:0.5;"/><text fill="#000000" font-family="sans-serif" font-size="14" lengthAdjust="spacing" textLength="95" x="1849.6324" y="408.976">Definir eventos</text><line style="stroke:#181818;stroke-width:1.0;" x1="1822.0121" x2="1975.7527" y1="412.0522" y2="412.0522"/><text fill="#000000" font-family="sans-serif" font-size="14" lengthAdjust="spacing" textLength="102" x="1846.1324" y="430.5854">extension points</text><text fill="#000000" font-family="sans-serif" font-size="14" lengthAdjust="spacing" textLength="97" x="1848.6324" y="448.1947">Generar avisos</text></g><g id="elem_GA"><ellipse cx="1898.876" cy="596.0752" fill="#F1F1F1" rx="73.376" ry="17.0752" style="stroke:#181818;stroke-width:0.5;"/><text fill="#000000" font-family="sans-serif" font-size="14" lengthAdjust="spacing" textLength="97" x="1847.376" y="600.5918">Generar avisos</text></g><g id="elem_EX"><ellipse cx="952.1249" cy="426.8551" fill="#F1F1F1" rx="75.1249" ry="40.3551" style="stroke:#181818;stroke-width:0.5;"/><text fill="#000000" font-family="sans-serif" font-size="14" lengthAdjust="spacing" textLength="58" x="923.1249" y="412.9743">Examinar</text><text fill="#000000" font-family="sans-serif" font-size="14" lengthAdjust="spacing" textLength="86" x="909.1249" y="430.5836">la explotación</text><text fill="#000000" font-family="sans-serif" font-size="14" lengthAdjust="spacing" textLength="90" x="907.1249" y="448.193">en tiempo real</text></g><g id="elem_Ver avisos"><ellipse cx="496.1908" cy="427.0728" fill="#F1F1F1" rx="58.6908" ry="15.5728" style="stroke:#181818;stroke-width:0.5;"/><text fill="#000000" font-family="sans-serif" font-size="14" lengthAdjust="spacing" textLength="66" x="460.1908" y="431.5894">Ver avisos</text></g><g id="elem_introducir variables"><ellipse cx="1866.8351" cy="232.367" fill="#F1F1F1" rx="82.3351" ry="18.867" style="stroke:#181818;stroke-width:0.5;"/><text fill="#000000" font-family="sans-serif" font-size="14" lengthAdjust="spacing" textLength="120" x="1806.8351" y="236.0955">introducir variables</text></g><g id="elem_Introducir condiciones"><ellipse cx="2074.9659" cy="232.3932" fill="#F1F1F1" rx="89.9659" ry="20.3932" style="stroke:#181818;stroke-width:0.5;"/><text fill="#000000" font-family="sans-serif" font-size="14" lengthAdjust="spacing" textLength="138" x="2005.9659" y="236.1217">Introducir condiciones</text></g><g id="elem_Introducir operador/es"><ellipse cx="1086.8297" cy="44.5659" fill="#F1F1F1" rx="90.8297" ry="20.5659" style="stroke:#181818;stroke-width:0.5;"/><text fill="#000000" font-family="sans-serif" font-size="14" lengthAdjust="spacing" textLength="140" x="1016.8297" y="48.2945">Introducir operador/es</text></g><g id="elem_Disparar alarmas"><ellipse cx="2225.0069" cy="44.4014" fill="#F1F1F1" rx="77.5069" ry="17.9014" style="stroke:#181818;stroke-width:0.5;"/><text fill="#000000" font-family="sans-serif" font-size="14" lengthAdjust="spacing" textLength="108" x="2168.8567" y="48.716">Disparar alarmas</text></g><!--MD5=[52ec6a8b74b13041fc2aa09119826c6e]
entity Sistema--><g id="elem_Sistema"><ellipse cx="2225" cy="202" fill="#F1F1F1" rx="8" ry="8" style="stroke:#181818;stroke-width:0.5;"/><path d="M2225,210 L2225,237 M2212,218 L2238,218 M2225,237 L2212,252 M2225,237 L2238,252 " fill="none" style="stroke:#181818;stroke-width:0.5;"/><text fill="#000000" font-family="sans-serif" font-size="14" lengthAdjust="spacing" textLength="50" x="2200" y="268.0332">Sistema</text></g><g id="elem_Suministrar datos al sistema"><ellipse cx="1673.7512" cy="426.8502" fill="#F1F1F1" rx="107.2512" ry="23.8502" style="stroke:#181818;stroke-width:0.5;"/><text fill="#000000" font-family="sans-serif" font-size="14" lengthAdjust="spacing" textLength="177" x="1585.2512" y="430.5788">Suministrar datos al sistema</text></g><g id="elem_PO"><ellipse cx="94.7698" cy="426.954" fill="#F1F1F1" rx="85.2698" ry="19.454" style="stroke:#181818;stroke-width:0.5;"/><text fill="#000000" font-family="sans-serif" font-size="14" lengthAdjust="spacing" textLength="127" x="31.2698" y="430.6825">Puntuar operadores</text></g><g id="elem_Seleccionar operador"><ellipse cx="95.105" cy="596.221" fill="#F1F1F1" rx="89.105" ry="20.221" style="stroke:#181818;stroke-width:0.5;"/><text fill="#000000" font-family="sans-serif" font-size="14" lengthAdjust="spacing" textLength="136" x="27.105" y="599.9495">Seleccionar operador</text></g><g id="elem_Medir rendimiento de operadores"><ellipse cx="1408.9113" cy="426.8823" fill="#F1F1F1" rx="122.4113" ry="26.8823" style="stroke:#181818;stroke-width:0.5;"/><text fill="#000000" font-family="sans-serif" font-size="14" lengthAdjust="spacing" textLength="210" x="1303.9113" y="430.6108">Medir rendimiento de operadores</text></g><g id="elem_Mostrar mensaje"><ellipse cx="787.855" cy="737.171" fill="#F1F1F1" rx="76.355" ry="17.671" style="stroke:#181818;stroke-width:0.5;"/><text fill="#000000" font-family="sans-serif" font-size="14" lengthAdjust="spacing" textLength="105" x="732.6233" y="741.6255">Mostrar mensaje</text></g><!--MD5=[260e7e814f431ac5615ed6e43f2a9db0]
link VisualAct to OA--><g id="link_VisualAct_OA"><path d="M1194.54,232.5 C1241.6,232.5 1288.65,232.5 1335.7,232.5 " fill="none" id="VisualAct-OA" style="stroke:#181818;stroke-width:1.0;"/></g><!--MD5=[a0e5069f17870d0582954ed7c14b808e]
link Registrar situaciones puntuales to OA--><g id="link_Registrar situaciones puntuales_OA"><path d="M1362.28,70.58 C1371.44,102.12 1387.24,156.56 1397.9,193.28 " fill="none" id="Registrar situaciones puntuales-OA" style="stroke:#181818;stroke-width:1.0;"/></g><!--MD5=[d417c132185dcc9c6c78856f9707cf67]
link Registrar periodos continuos to OA--><g id="link_Registrar periodos continuos_OA"><path d="M1591.08,68.68 C1556.12,99.94 1493.43,156 1451.52,193.48 " fill="none" id="Registrar periodos continuos-OA" style="stroke:#181818;stroke-width:1.0;"/></g><!--MD5=[9a007773c35f4f55793a41069109f331]
link OA to Visualizar alarmas OA--><g id="link_OA_Visualizar alarmas OA"><path d="M1359.21,271.53 C1306.14,312.07 1224.17,374.69 1182.79,406.3 " fill="none" id="OA-Visualizar alarmas OA" style="stroke:#181818;stroke-width:1.0;"/></g><!--MD5=[4a5c5d3f9c34f66880069dae14e220f6]
link UR to Visualizar alarmas UR--><g id="link_UR_Visualizar alarmas UR"><path d="M309,271.53 C309,311.85 309,374.01 309,405.79 " fill="none" id="UR-Visualizar alarmas UR" style="stroke:#181818;stroke-width:1.0;"/></g><!--MD5=[d3ac7a8bfb85201f8b2f7fe96c006231]
link Operador to Visualizar alarmas O--><g id="link_Operador_Visualizar alarmas O"><path d="M577.29,271.53 C604.32,312.18 646.11,375.03 667.07,406.56 " fill="none" id="Operador-Visualizar alarmas O" style="stroke:#181818;stroke-width:1.0;"/></g><!--MD5=[370aa71ad46c4599212fed7995d86fe9]
link Visualizar alarmas O to VA--><g id="link_Visualizar alarmas O_VA"><path d="M692.6,447.48 C706.48,468.95 729.48,504.51 749.42,535.34 " fill="none" id="Visualizar alarmas O-to-VA" style="stroke:#181818;stroke-width:1.0;"/><polygon fill="none" points="755.42,531.73,760.4,552.33,743.66,539.34,755.42,531.73" style="stroke:#181818;stroke-width:1.0;"/></g><!--MD5=[2cc2a75a1278177fc50acc3d74ae4201]
link Visualizar alarmas OA to VA--><g id="link_Visualizar alarmas OA_VA"><path d="M1116.1,446.51 C1057.72,472.93 949.13,522.08 872.92,556.57 " fill="none" id="Visualizar alarmas OA-to-VA" style="stroke:#181818;stroke-width:1.0;"/><polygon fill="none" points="875.39,563.13,854.29,565,869.62,550.38,875.39,563.13" style="stroke:#181818;stroke-width:1.0;"/></g><!--MD5=[81f38d759daf9c9818c308d9abc1086b]
link Visualizar alarmas UR to VA--><g id="link_Visualizar alarmas UR_VA"><path d="M351.46,445.72 C372.05,454.13 397.19,464.14 420,472.5 C511.84,506.16 617.95,541.07 692.56,564.96 " fill="none" id="Visualizar alarmas UR-to-VA" style="stroke:#181818;stroke-width:1.0;"/><polygon fill="none" points="694.85,558.35,711.77,571.1,690.59,571.68,694.85,558.35" style="stroke:#181818;stroke-width:1.0;"/></g><!--MD5=[d308f576aa8b1e757bc048a69e5d0f6f]
link Operador to Ver avisos--><g id="link_Operador_Ver avisos"><path d="M540.94,271.53 C528.5,314.26 508.94,381.52 500.32,411.15 " fill="none" id="Operador-Ver avisos" style="stroke:#181818;stroke-width:1.0;"/></g><!--MD5=[9117ca9b0ea7d215f4d664cbd2c5ef15]
link OA to DE--><g id="link_OA_DE"><path d="M1482.07,259.84 C1560.8,288.54 1689.52,336.41 1799,381.5 C1811.04,386.46 1823.79,391.95 1836.02,397.33 " fill="none" id="OA-DE" style="stroke:#181818;stroke-width:1.0;"/></g><!--MD5=[df2c957083bf9c340cb636337ab0db7f]
reverse link introducir variables to DE--><g id="link_introducir variables_DE"><path d="M1870.86,256.71 C1875.98,287.51 1885.13,342.56 1891.6,381.51 " fill="none" id="introducir variables-backto-DE" style="stroke:#181818;stroke-width:1.0;stroke-dasharray:7.0,7.0;"/><polygon fill="#181818" points="1870.01,251.61,1867.5261,261.1405,1870.8227,256.5435,1875.4197,259.8401,1870.01,251.61" style="stroke:#181818;stroke-width:1.0;"/><text fill="#000000" font-family="sans-serif" font-size="13" lengthAdjust="spacing" textLength="55" x="1887" y="347.9951">«include»</text></g><!--MD5=[3b04c7cc4fc8d53a15e1c6456e80a960]
reverse link Introducir condiciones to DE--><g id="link_Introducir condiciones_DE"><path d="M2054.04,256.42 C2024.86,288.34 1971.53,346.68 1935.67,385.89 " fill="none" id="Introducir condiciones-backto-DE" style="stroke:#181818;stroke-width:1.0;stroke-dasharray:7.0,7.0;"/><polygon fill="#181818" points="2057.48,252.66,2048.454,256.601,2054.1053,256.3493,2054.3569,262.0006,2057.48,252.66" style="stroke:#181818;stroke-width:1.0;"/><text fill="#000000" font-family="sans-serif" font-size="13" lengthAdjust="spacing" textLength="55" x="1983" y="347.9951">«include»</text></g><!--MD5=[f7d570dad64aa7fce3bed4b5046e62f6]
reverse link DE to GA--><g id="link_DE_GA"><path d="M1899,478.17 C1899,512.41 1899,555.59 1899,578.68 " fill="none" id="DE-backto-GA" style="stroke:#181818;stroke-width:1.0;stroke-dasharray:7.0,7.0;"/><polygon fill="#181818" points="1899,472.75,1895,481.75,1899,477.75,1903,481.75,1899,472.75" style="stroke:#181818;stroke-width:1.0;"/><text fill="#000000" font-family="sans-serif" font-size="13" lengthAdjust="spacing" textLength="53" x="1900" y="516.9951">«extend»</text></g><!--MD5=[113b891baac7e9a087b19bbedef6bfb3]
link UNR to EX--><g id="link_UNR_EX"><path d="M839.05,83.86 C842.72,93.5 846.58,103.85 850,113.5 C884.58,211.14 921.4,327.41 939.9,386.81 " fill="none" id="UNR-EX" style="stroke:#181818;stroke-width:1.0;"/></g><!--MD5=[98e3886ff93aed22158ac06aa902bc7e]
link VisualAct to EX--><g id="link_VisualAct_EX"><path d="M1042.23,297.33 C1025.21,321.61 1006,349 989.69,372.25 " fill="none" id="VisualAct-to-EX" style="stroke:#181818;stroke-width:1.0;"/><polygon fill="none" points="995.36,376.37,978.14,388.72,983.89,368.33,995.36,376.37" style="stroke:#181818;stroke-width:1.0;"/></g><!--MD5=[94d84245ae002314593466131180dc60]
link Introducir operador/es to VisualAct--><g id="link_Introducir operador/es_VisualAct"><path d="M1087,65.05 C1087,86.66 1087,122.77 1087,155.86 " fill="none" id="Introducir operador/es-to-VisualAct" style="stroke:#181818;stroke-width:1.0;stroke-dasharray:7.0,7.0;"/><polygon fill="#181818" points="1087,161.14,1091,152.14,1087,156.14,1083,152.14,1087,161.14" style="stroke:#181818;stroke-width:1.0;"/><text fill="#000000" font-family="sans-serif" font-size="13" lengthAdjust="spacing" textLength="53" x="1088" y="127.9951">«extend»</text></g><!--MD5=[3dbe856b03c741b2e2f63ec0b9edc1d3]
link UNR to VA--><g id="link_UNR_VA"><path d="M821.5,83.7 C815.04,182.28 797.84,444.82 790.93,550.26 " fill="none" id="UNR-VA" style="stroke:#181818;stroke-width:1.0;"/></g><!--MD5=[9201554961a300be6767a805f274963a]
reverse link UNR to UR--><g id="link_UNR_UR"><path d="M739.34,76.08 C633.3,114.37 454.64,178.9 364.53,211.45 " fill="none" id="UNR-backto-UR" style="stroke:#181818;stroke-width:1.0;"/><polygon fill="none" points="737.06,69.46,758.25,69.25,741.82,82.62,737.06,69.46" style="stroke:#181818;stroke-width:1.0;"/></g><!--MD5=[2032aa920d49b72f94966c9bdd90bd49]
link Disparar alarmas to Sistema--><g id="link_Disparar alarmas_Sistema"><path d="M2225,62.67 C2225,92.16 2225,153.16 2225,193.19 " fill="none" id="Disparar alarmas-Sistema" style="stroke:#181818;stroke-width:1.0;"/></g><!--MD5=[737c5a98fd0e45717991e8efa3fd9f21]
link OA to Suministrar datos al sistema--><g id="link_OA_Suministrar datos al sistema"><path d="M1461.36,271.53 C1515.81,311.09 1599.19,371.65 1643.63,403.94 " fill="none" id="OA-Suministrar datos al sistema" style="stroke:#181818;stroke-width:1.0;"/></g><!--MD5=[4689cd6f59ecc41fd67997279e4d8c2b]
link UR to PO--><g id="link_UR_PO"><path d="M266.72,271.53 C220.92,312.73 149.78,376.72 115.22,407.81 " fill="none" id="UR-PO" style="stroke:#181818;stroke-width:1.0;"/></g><!--MD5=[552094b8c957f449d7aa6d296f0569d0]
link PO to Seleccionar operador--><g id="link_PO_Seleccionar operador"><path d="M95,446.51 C95,476.82 95,537.03 95,570.72 " fill="none" id="PO-to-Seleccionar operador" style="stroke:#181818;stroke-width:1.0;stroke-dasharray:7.0,7.0;"/><polygon fill="#181818" points="95,575.89,99,566.89,95,570.89,91,566.89,95,575.89" style="stroke:#181818;stroke-width:1.0;"/><text fill="#000000" font-family="sans-serif" font-size="13" lengthAdjust="spacing" textLength="55" x="96" y="516.9951">«include»</text></g><!--MD5=[88b3f717c4ecba2380b97377806c0913]
link OA to Medir rendimiento de operadores--><g id="link_OA_Medir rendimiento de operadores"><path d="M1409,271.53 C1409,309.44 1409,366.66 1409,399.77 " fill="none" id="OA-Medir rendimiento de operadores" style="stroke:#181818;stroke-width:1.0;"/></g><!--MD5=[8493603031cb0f20b69cf20aa1985a23]
reverse link VA to Mostrar mensaje--><g id="link_VA_Mostrar mensaje"><path d="M788,646.78 C788,672.21 788,701.48 788,719.36 " fill="none" id="VA-backto-Mostrar mensaje" style="stroke:#181818;stroke-width:1.0;stroke-dasharray:7.0,7.0;"/><polygon fill="#181818" points="788,641.75,784,650.75,788,646.75,792,650.75,788,641.75" style="stroke:#181818;stroke-width:1.0;"/><text fill="#000000" font-family="sans-serif" font-size="13" lengthAdjust="spacing" textLength="53" x="789" y="685.9951">«extend»</text></g><!--MD5=[3d7023164308fc16107932490b4adab0]
@startuml Sistema de informacion
actor OA as "Operador adjudicatario"
actor Operador
actor UR as "Usuario logueado"
actor UNR as "Usuario no logueado"
usecase VisualAct as "Visualizar la actividad 
de los operadores 
en la cartografía
- -
extension points
Introducir operadores
"
OA-left-VisualAct
(Registrar situaciones puntuales)- -OA 
(Registrar periodos continuos)- -OA
usecase (Visualizar alarmas UR) as "Visualizar alarmas (UL)"
usecase (Visualizar alarmas OA) as "Visualizar alarmas (OA)"
usecase (Visualizar alarmas O) as "Visualizar alarmas (O)"
usecase VA as "Visualizar alarmas 
- -
extension points 
Mostrar mensaje"

usecase DE as "Definir eventos 
- -
extension points
Generar avisos"

usecase (Generar avisos) as GA
usecase EX as "Examinar 
la explotación
en tiempo real"
OA- -(Visualizar alarmas OA)
UR- -(Visualizar alarmas UR)
Operador- -(Visualizar alarmas O)
(Visualizar alarmas O)- -|>VA
(Visualizar alarmas OA)- -|>VA
(Visualizar alarmas UR)- -|>VA
Operador- -(Ver avisos)
OA- -DE
(introducir variables)<..DE : <<include>> 
(Introducir condiciones)<..DE : <<include>>
DE<..GA : <<extend>>
UNR- -EX
VisualAct- -|>EX
(Introducir operador/es)..>VisualAct : <<extend>>
UNR-right-VA
UNR<|- -UR
(Disparar alarmas)- -Sistema
OA- -(Suministrar datos al sistema)
usecase PO as "Puntuar operadores"
UR- -PO
(Seleccionar operador)<.up.PO : <<include>>
OA- -(Medir rendimiento de operadores)
(Mostrar mensaje).up.>VA : <<extend>>
@enduml

PlantUML version 1.2022.7(Mon Aug 22 19:01:30 CEST 2022)
(GPL source distribution)
Java Runtime: OpenJDK Runtime Environment
JVM: OpenJDK 64-Bit Server VM
Default Encoding: Cp1252
Language: es
Country: ES
--></g></svg>