<?xml version="1.0" encoding="UTF-8" standalone="no"?><svg xmlns="http://www.w3.org/2000/svg" xmlns:xlink="http://www.w3.org/1999/xlink" contentStyleType="text/css" height="699px" preserveAspectRatio="none" style="width:2045px;height:699px;background:#FFFFFF;" version="1.1" viewBox="0 0 2045 699" width="2045px" zoomAndPan="magnify"><defs/><g><!--MD5=[9a762eefa6a5e3fba0376d4fc87b4ea8]
entity OA--><g id="elem_OA"><ellipse cx="1035.54" cy="171.5" fill="#F1F1F1" rx="8" ry="8" style="stroke:#181818;stroke-width:0.5;"/><path d="M1035.54,179.5 L1035.54,206.5 M1022.54,187.5 L1048.54,187.5 M1035.54,206.5 L1022.54,221.5 M1035.54,206.5 L1048.54,221.5 " fill="none" style="stroke:#181818;stroke-width:0.5;"/><text fill="#000000" font-family="sans-serif" font-size="14" lengthAdjust="spacing" textLength="146" x="962.54" y="237.5332">Operador adjudicatario</text></g><!--MD5=[9544e8f9a50b6f5806c8e28b91970f7d]
entity Operador--><g id="elem_Operador"><ellipse cx="1870.54" cy="171.5" fill="#F1F1F1" rx="8" ry="8" style="stroke:#181818;stroke-width:0.5;"/><path d="M1870.54,179.5 L1870.54,206.5 M1857.54,187.5 L1883.54,187.5 M1870.54,206.5 L1857.54,221.5 M1870.54,206.5 L1883.54,221.5 " fill="none" style="stroke:#181818;stroke-width:0.5;"/><text fill="#000000" font-family="sans-serif" font-size="14" lengthAdjust="spacing" textLength="61" x="1840.04" y="237.5332">Operador</text></g><!--MD5=[6b408a1975284960d5de2ef41f0ce8fc]
entity UR--><g id="elem_UR"><ellipse cx="207.54" cy="171.5" fill="#F1F1F1" rx="8" ry="8" style="stroke:#181818;stroke-width:0.5;"/><path d="M207.54,179.5 L207.54,206.5 M194.54,187.5 L220.54,187.5 M207.54,206.5 L194.54,221.5 M207.54,206.5 L220.54,221.5 " fill="none" style="stroke:#181818;stroke-width:0.5;"/><text fill="#000000" font-family="sans-serif" font-size="14" lengthAdjust="spacing" textLength="111" x="152.04" y="237.5332">Usuario logueado</text></g><!--MD5=[2ef883c7bda54365519191918ae31df7]
entity UNR--><g id="elem_UNR"><ellipse cx="207.54" cy="14" fill="#F1F1F1" rx="8" ry="8" style="stroke:#181818;stroke-width:0.5;"/><path d="M207.54,22 L207.54,49 M194.54,30 L220.54,30 M207.54,49 L194.54,64 M207.54,49 L220.54,64 " fill="none" style="stroke:#181818;stroke-width:0.5;"/><text fill="#000000" font-family="sans-serif" font-size="14" lengthAdjust="spacing" textLength="131" x="142.04" y="80.0332">Usuario no logueado</text></g><g id="elem_VisualAct"><ellipse cx="717.704" cy="201.8551" fill="#F1F1F1" rx="148.664" ry="40.3551" style="stroke:#181818;stroke-width:0.5;"/><text fill="#000000" font-family="sans-serif" font-size="14" lengthAdjust="spacing" textLength="60" x="685.704" y="187.9743">Visualizar</text><text fill="#000000" font-family="sans-serif" font-size="14" lengthAdjust="spacing" textLength="190" x="620.704" y="205.5836">la actividad de los operadores</text><text fill="#000000" font-family="sans-serif" font-size="14" lengthAdjust="spacing" textLength="103" x="666.204" y="223.193">en la cartografía</text></g><g id="elem_Registrar situaciones puntuales"><ellipse cx="455.3567" cy="44.3633" fill="#F1F1F1" rx="117.3167" ry="25.8633" style="stroke:#181818;stroke-width:0.5;"/><text fill="#000000" font-family="sans-serif" font-size="14" lengthAdjust="spacing" textLength="199" x="355.8567" y="48.0919">Registrar situaciones puntuales</text></g><g id="elem_Registrar periodos continuos"><ellipse cx="717.5626" cy="44.3045" fill="#F1F1F1" rx="109.5226" ry="24.3045" style="stroke:#181818;stroke-width:0.5;"/><text fill="#000000" font-family="sans-serif" font-size="14" lengthAdjust="spacing" textLength="182" x="626.5626" y="48.033">Registrar periodos continuos</text></g><g id="elem_Visualizar alarmas UR"><ellipse cx="390.5417" cy="366.0003" fill="#F1F1F1" rx="93.0017" ry="21.0003" style="stroke:#181818;stroke-width:0.5;"/><text fill="#000000" font-family="sans-serif" font-size="14" lengthAdjust="spacing" textLength="145" x="318.0417" y="369.7289">Visualizar alarmas (UL)</text></g><g id="elem_Visualizar alarmas OA"><ellipse cx="798.353" cy="365.7626" fill="#F1F1F1" rx="94.313" ry="21.2626" style="stroke:#181818;stroke-width:0.5;"/><text fill="#000000" font-family="sans-serif" font-size="14" lengthAdjust="spacing" textLength="148" x="724.353" y="369.4911">Visualizar alarmas (OA)</text></g><g id="elem_Visualizar alarmas O"><ellipse cx="1748.4374" cy="365.9795" fill="#F1F1F1" rx="90.3974" ry="20.4795" style="stroke:#181818;stroke-width:0.5;"/><text fill="#000000" font-family="sans-serif" font-size="14" lengthAdjust="spacing" textLength="139" x="1678.9374" y="369.708">Visualizar alarmas (O)</text></g><g id="elem_VA"><ellipse cx="549.7387" cy="534.8377" fill="#F1F1F1" rx="90.6987" ry="45.3377" style="stroke:#181818;stroke-width:0.5;"/><text fill="#000000" font-family="sans-serif" font-size="14" lengthAdjust="spacing" textLength="114" x="493.9997" y="517.3023">Visualizar alarmas</text><line style="stroke:#181818;stroke-width:1.0;" x1="464.7762" x2="634.7011" y1="520.3784" y2="520.3784"/><text fill="#000000" font-family="sans-serif" font-size="14" lengthAdjust="spacing" textLength="102" x="497.9997" y="538.9116">extension points</text><text fill="#000000" font-family="sans-serif" font-size="14" lengthAdjust="spacing" textLength="105" x="498.4997" y="556.521">Mostrar mensaje</text></g><g id="elem_Recibir avisos"><ellipse cx="1464.6931" cy="44.4306" fill="#F1F1F1" rx="70.1531" ry="16.4306" style="stroke:#181818;stroke-width:0.5;"/><text fill="#000000" font-family="sans-serif" font-size="14" lengthAdjust="spacing" textLength="88" x="1417.6931" y="48.9472">Recibir avisos</text></g><g id="elem_DE"><ellipse cx="1540.4224" cy="365.8569" fill="#F1F1F1" rx="82.3824" ry="45.3569" style="stroke:#181818;stroke-width:0.5;"/><text fill="#000000" font-family="sans-serif" font-size="14" lengthAdjust="spacing" textLength="95" x="1491.1724" y="347.976">Definir eventos</text><line style="stroke:#181818;stroke-width:1.0;" x1="1463.5521" x2="1617.2927" y1="351.0522" y2="351.0522"/><text fill="#000000" font-family="sans-serif" font-size="14" lengthAdjust="spacing" textLength="102" x="1487.6724" y="369.5854">extension points</text><text fill="#000000" font-family="sans-serif" font-size="14" lengthAdjust="spacing" textLength="97" x="1490.1724" y="387.1947">Generar avisos</text></g><g id="elem_GA"><ellipse cx="1540.416" cy="535.0752" fill="#F1F1F1" rx="73.376" ry="17.0752" style="stroke:#181818;stroke-width:0.5;"/><text fill="#000000" font-family="sans-serif" font-size="14" lengthAdjust="spacing" textLength="97" x="1488.916" y="539.5918">Generar avisos</text></g><g id="elem_EX"><ellipse cx="593.6649" cy="365.8551" fill="#F1F1F1" rx="75.1249" ry="40.3551" style="stroke:#181818;stroke-width:0.5;"/><text fill="#000000" font-family="sans-serif" font-size="14" lengthAdjust="spacing" textLength="58" x="564.6649" y="351.9743">Examinar</text><text fill="#000000" font-family="sans-serif" font-size="14" lengthAdjust="spacing" textLength="86" x="550.6649" y="369.5836">la explotación</text><text fill="#000000" font-family="sans-serif" font-size="14" lengthAdjust="spacing" textLength="90" x="548.6649" y="387.193">en tiempo real</text></g><g id="elem_Ver avisos"><ellipse cx="1932.7308" cy="366.0728" fill="#F1F1F1" rx="58.6908" ry="15.5728" style="stroke:#181818;stroke-width:0.5;"/><text fill="#000000" font-family="sans-serif" font-size="14" lengthAdjust="spacing" textLength="66" x="1896.7308" y="370.5894">Ver avisos</text></g><g id="elem_introducir variables"><ellipse cx="1444.3751" cy="201.867" fill="#F1F1F1" rx="82.3351" ry="18.867" style="stroke:#181818;stroke-width:0.5;"/><text fill="#000000" font-family="sans-serif" font-size="14" lengthAdjust="spacing" textLength="120" x="1384.3751" y="205.5955">introducir variables</text></g><g id="elem_Introducir condiciones"><ellipse cx="1652.5059" cy="201.8932" fill="#F1F1F1" rx="89.9659" ry="20.3932" style="stroke:#181818;stroke-width:0.5;"/><text fill="#000000" font-family="sans-serif" font-size="14" lengthAdjust="spacing" textLength="138" x="1583.5059" y="205.6217">Introducir condiciones</text></g><g id="elem_Introducir operador/es"><ellipse cx="953.3697" cy="44.5659" fill="#F1F1F1" rx="90.8297" ry="20.5659" style="stroke:#181818;stroke-width:0.5;"/><text fill="#000000" font-family="sans-serif" font-size="14" lengthAdjust="spacing" textLength="140" x="883.3697" y="48.2945">Introducir operador/es</text></g><g id="elem_Disparar alarmas"><ellipse cx="1961.5469" cy="44.4014" fill="#F1F1F1" rx="77.5069" ry="17.9014" style="stroke:#181818;stroke-width:0.5;"/><text fill="#000000" font-family="sans-serif" font-size="14" lengthAdjust="spacing" textLength="108" x="1905.3967" y="48.716">Disparar alarmas</text></g><!--MD5=[52ec6a8b74b13041fc2aa09119826c6e]
entity Sistema--><g id="elem_Sistema"><ellipse cx="1961.54" cy="171.5" fill="#F1F1F1" rx="8" ry="8" style="stroke:#181818;stroke-width:0.5;"/><path d="M1961.54,179.5 L1961.54,206.5 M1948.54,187.5 L1974.54,187.5 M1961.54,206.5 L1948.54,221.5 M1961.54,206.5 L1974.54,221.5 " fill="none" style="stroke:#181818;stroke-width:0.5;"/><text fill="#000000" font-family="sans-serif" font-size="14" lengthAdjust="spacing" textLength="50" x="1936.54" y="237.5332">Sistema</text></g><g id="elem_Suministrar datos al sistema"><ellipse cx="1035.2912" cy="365.8502" fill="#F1F1F1" rx="107.2512" ry="23.8502" style="stroke:#181818;stroke-width:0.5;"/><text fill="#000000" font-family="sans-serif" font-size="14" lengthAdjust="spacing" textLength="177" x="946.7912" y="369.5788">Suministrar datos al sistema</text></g><g id="elem_PO"><ellipse cx="176.3098" cy="365.954" fill="#F1F1F1" rx="85.2698" ry="19.454" style="stroke:#181818;stroke-width:0.5;"/><text fill="#000000" font-family="sans-serif" font-size="14" lengthAdjust="spacing" textLength="127" x="112.8098" y="369.6825">Puntuar operadores</text></g><g id="elem_Seleccionar operador"><ellipse cx="176.645" cy="535.221" fill="#F1F1F1" rx="89.105" ry="20.221" style="stroke:#181818;stroke-width:0.5;"/><text fill="#000000" font-family="sans-serif" font-size="14" lengthAdjust="spacing" textLength="136" x="108.645" y="538.9495">Seleccionar operador</text></g><g id="elem_Medir rendimiento de operadores"><ellipse cx="1300.4513" cy="365.8823" fill="#F1F1F1" rx="122.4113" ry="26.8823" style="stroke:#181818;stroke-width:0.5;"/><text fill="#000000" font-family="sans-serif" font-size="14" lengthAdjust="spacing" textLength="210" x="1195.4513" y="369.6108">Medir rendimiento de operadores</text></g><g id="elem_Mostrar mensaje"><ellipse cx="549.395" cy="676.171" fill="#F1F1F1" rx="76.355" ry="17.671" style="stroke:#181818;stroke-width:0.5;"/><text fill="#000000" font-family="sans-serif" font-size="14" lengthAdjust="spacing" textLength="105" x="494.1633" y="680.6255">Mostrar mensaje</text></g><!--MD5=[260e7e814f431ac5615ed6e43f2a9db0]
link VisualAct to OA--><g id="link_VisualAct_OA"><path d="M866.29,202 C898.36,202 930.42,202 962.49,202 " fill="none" id="VisualAct-OA" style="stroke:#181818;stroke-width:1.0;"/></g><!--MD5=[c93b629413035d1103819b04fe6c727b]
reverse link Registrar situaciones puntuales to VisualAct--><g id="link_Registrar situaciones puntuales_VisualAct"><path d="M499.7,71.71 C542.83,97.31 608.84,136.48 656.89,165 " fill="none" id="Registrar situaciones puntuales-backto-VisualAct" style="stroke:#181818;stroke-width:1.0;stroke-dasharray:7.0,7.0;"/><polygon fill="#181818" points="495.33,69.12,501.021,77.1582,499.6275,71.6757,505.11,70.2822,495.33,69.12" style="stroke:#181818;stroke-width:1.0;"/><text fill="#000000" font-family="sans-serif" font-size="13" lengthAdjust="spacing" textLength="55" x="595.54" y="127.9951">«include»</text></g><!--MD5=[22debd13126979c91c880d2068f54ad0]
reverse link Registrar periodos continuos to VisualAct--><g id="link_Registrar periodos continuos_VisualAct"><path d="M717.54,74.17 C717.54,98.68 717.54,134.19 717.54,161.41 " fill="none" id="Registrar periodos continuos-backto-VisualAct" style="stroke:#181818;stroke-width:1.0;stroke-dasharray:7.0,7.0;"/><polygon fill="#181818" points="717.54,69.12,713.54,78.12,717.54,74.12,721.54,78.12,717.54,69.12" style="stroke:#181818;stroke-width:1.0;"/><text fill="#000000" font-family="sans-serif" font-size="13" lengthAdjust="spacing" textLength="55" x="718.54" y="127.9951">«include»</text></g><!--MD5=[9a007773c35f4f55793a41069109f331]
link OA to Visualizar alarmas OA--><g id="link_OA_Visualizar alarmas OA"><path d="M979.68,241.19 C931.78,273.93 864.72,319.76 827.08,345.49 " fill="none" id="OA-Visualizar alarmas OA" style="stroke:#181818;stroke-width:1.0;"/></g><!--MD5=[4a5c5d3f9c34f66880069dae14e220f6]
link UR to Visualizar alarmas UR--><g id="link_UR_Visualizar alarmas UR"><path d="M250.91,241.39 C287.9,274.14 339.57,319.88 368.56,345.54 " fill="none" id="UR-Visualizar alarmas UR" style="stroke:#181818;stroke-width:1.0;"/></g><!--MD5=[d3ac7a8bfb85201f8b2f7fe96c006231]
link Operador to Visualizar alarmas O--><g id="link_Operador_Visualizar alarmas O"><path d="M1841.63,241.39 C1816.97,274.14 1782.52,319.88 1763.2,345.54 " fill="none" id="Operador-Visualizar alarmas O" style="stroke:#181818;stroke-width:1.0;"/></g><!--MD5=[370aa71ad46c4599212fed7995d86fe9]
link Visualizar alarmas O to VA--><g id="link_Visualizar alarmas O_VA"><path d="M1726.76,385.91 C1699.87,408.01 1651.74,443.57 1603.54,459.5 C1515.72,488.53 912.08,518.06 659.89,529.28 " fill="none" id="Visualizar alarmas O-to-VA" style="stroke:#181818;stroke-width:1.0;"/><polygon fill="none" points="660.12,536.28,639.83,530.17,659.5,522.29,660.12,536.28" style="stroke:#181818;stroke-width:1.0;"/></g><!--MD5=[2cc2a75a1278177fc50acc3d74ae4201]
link Visualizar alarmas OA to VA--><g id="link_Visualizar alarmas OA_VA"><path d="M769.49,386.48 C733.11,410.88 669.56,453.5 620.1,486.68 " fill="none" id="Visualizar alarmas OA-to-VA" style="stroke:#181818;stroke-width:1.0;"/><polygon fill="none" points="623.77,492.65,603.26,497.97,615.97,481.02,623.77,492.65" style="stroke:#181818;stroke-width:1.0;"/></g><!--MD5=[81f38d759daf9c9818c308d9abc1086b]
link Visualizar alarmas UR to VA--><g id="link_Visualizar alarmas UR_VA"><path d="M409.41,386.81 C430.92,409.41 467.03,447.34 497.2,479.03 " fill="none" id="Visualizar alarmas UR-to-VA" style="stroke:#181818;stroke-width:1.0;"/><polygon fill="none" points="502.29,474.22,511.01,493.53,492.15,483.87,502.29,474.22" style="stroke:#181818;stroke-width:1.0;"/></g><!--MD5=[d308f576aa8b1e757bc048a69e5d0f6f]
link Operador to Ver avisos--><g id="link_Operador_Ver avisos"><path d="M1885.24,241.39 C1898.63,276.39 1917.7,326.21 1927,350.53 " fill="none" id="Operador-Ver avisos" style="stroke:#181818;stroke-width:1.0;"/></g><!--MD5=[9117ca9b0ea7d215f4d664cbd2c5ef15]
link OA to DE--><g id="link_OA_DE"><path d="M1108.56,220.98 C1190.41,241.86 1326.57,278.83 1440.54,320.5 C1453.03,325.07 1466.17,330.46 1478.67,335.9 " fill="none" id="OA-DE" style="stroke:#181818;stroke-width:1.0;"/></g><!--MD5=[df2c957083bf9c340cb636337ab0db7f]
reverse link introducir variables to DE--><g id="link_introducir variables_DE"><path d="M1457.83,225.43 C1472.62,250.39 1496.87,291.31 1515.3,322.4 " fill="none" id="introducir variables-backto-DE" style="stroke:#181818;stroke-width:1.0;stroke-dasharray:7.0,7.0;"/><polygon fill="#181818" points="1455.18,220.96,1456.3181,230.7429,1457.7251,225.2638,1463.2042,226.6707,1455.18,220.96" style="stroke:#181818;stroke-width:1.0;"/><text fill="#000000" font-family="sans-serif" font-size="13" lengthAdjust="spacing" textLength="55" x="1496.54" y="286.9951">«include»</text></g><!--MD5=[3b04c7cc4fc8d53a15e1c6456e80a960]
reverse link Introducir condiciones to DE--><g id="link_Introducir condiciones_DE"><path d="M1636.1,226.78 C1618.6,252.09 1590.56,292.65 1569.37,323.3 " fill="none" id="Introducir condiciones-backto-DE" style="stroke:#181818;stroke-width:1.0;stroke-dasharray:7.0,7.0;"/><polygon fill="#181818" points="1639.03,222.54,1630.623,227.6705,1636.1877,226.6535,1637.2046,232.2182,1639.03,222.54" style="stroke:#181818;stroke-width:1.0;"/><text fill="#000000" font-family="sans-serif" font-size="13" lengthAdjust="spacing" textLength="55" x="1604.54" y="286.9951">«include»</text></g><!--MD5=[f7d570dad64aa7fce3bed4b5046e62f6]
reverse link DE to GA--><g id="link_DE_GA"><path d="M1540.54,417.17 C1540.54,451.41 1540.54,494.59 1540.54,517.68 " fill="none" id="DE-backto-GA" style="stroke:#181818;stroke-width:1.0;stroke-dasharray:7.0,7.0;"/><polygon fill="#181818" points="1540.54,411.75,1536.54,420.75,1540.54,416.75,1544.54,420.75,1540.54,411.75" style="stroke:#181818;stroke-width:1.0;"/><text fill="#000000" font-family="sans-serif" font-size="13" lengthAdjust="spacing" textLength="53" x="1541.54" y="455.9951">«extend»</text></g><!--MD5=[113b891baac7e9a087b19bbedef6bfb3]
link UNR to EX--><g id="link_UNR_EX"><path d="M253.72,83.72 C329.96,146.83 480.91,271.77 553.16,331.58 " fill="none" id="UNR-EX" style="stroke:#181818;stroke-width:1.0;"/></g><!--MD5=[98e3886ff93aed22158ac06aa902bc7e]
link VisualAct to EX--><g id="link_VisualAct_EX"><path d="M687.84,241.8 C671.7,262.89 651.5,289.28 633.94,312.22 " fill="none" id="VisualAct-to-EX" style="stroke:#181818;stroke-width:1.0;"/><polygon fill="none" points="639.44,316.56,621.72,328.18,628.32,308.05,639.44,316.56" style="stroke:#181818;stroke-width:1.0;"/></g><!--MD5=[0d319a6504d5f29e797699545fb9c822]
reverse link Introducir operador/es to VisualAct--><g id="link_Introducir operador/es_VisualAct"><path d="M920.55,67.24 C882.37,92.39 818.9,134.22 773.08,164.41 " fill="none" id="Introducir operador/es-backto-VisualAct" style="stroke:#181818;stroke-width:1.0;stroke-dasharray:7.0,7.0;"/><polygon fill="#181818" points="925.07,64.26,915.3524,65.8624,920.8922,67.007,919.7476,72.5469,925.07,64.26" style="stroke:#181818;stroke-width:1.0;"/><text fill="#000000" font-family="sans-serif" font-size="13" lengthAdjust="spacing" textLength="55" x="851.54" y="127.9951">«include»</text></g><!--MD5=[3dbe856b03c741b2e2f63ec0b9edc1d3]
link UNR to VA--><g id="link_UNR_VA"><path d="M172.45,83.56 C113.18,152.65 6,301.71 73.54,411.5 C98.33,451.79 123.8,444.15 168.54,459.5 C222.01,477.84 369,504.14 463.99,520.08 " fill="none" id="UNR-VA" style="stroke:#181818;stroke-width:1.0;"/></g><!--MD5=[9201554961a300be6767a805f274963a]
reverse link UNR to UR--><g id="link_UNR_UR"><path d="M207.54,103.64 C207.54,123.42 207.54,145 207.54,162.81 " fill="none" id="UNR-backto-UR" style="stroke:#181818;stroke-width:1.0;"/><polygon fill="none" points="200.54,103.54,207.54,83.54,214.54,103.54,200.54,103.54" style="stroke:#181818;stroke-width:1.0;"/></g><!--MD5=[2032aa920d49b72f94966c9bdd90bd49]
link Disparar alarmas to Sistema--><g id="link_Disparar alarmas_Sistema"><path d="M1961.54,62.74 C1961.54,86.77 1961.54,131.01 1961.54,162.99 " fill="none" id="Disparar alarmas-Sistema" style="stroke:#181818;stroke-width:1.0;"/></g><!--MD5=[737c5a98fd0e45717991e8efa3fd9f21]
link OA to Suministrar datos al sistema--><g id="link_OA_Suministrar datos al sistema"><path d="M1035.54,241.39 C1035.54,272.64 1035.54,315.72 1035.54,341.9 " fill="none" id="OA-Suministrar datos al sistema" style="stroke:#181818;stroke-width:1.0;"/></g><!--MD5=[4689cd6f59ecc41fd67997279e4d8c2b]
link UR to PO--><g id="link_UR_PO"><path d="M200.2,241.39 C193.86,274.51 184.98,320.92 180.1,346.41 " fill="none" id="UR-PO" style="stroke:#181818;stroke-width:1.0;"/></g><!--MD5=[552094b8c957f449d7aa6d296f0569d0]
link PO to Seleccionar operador--><g id="link_PO_Seleccionar operador"><path d="M176.54,385.51 C176.54,415.82 176.54,476.03 176.54,509.72 " fill="none" id="PO-to-Seleccionar operador" style="stroke:#181818;stroke-width:1.0;stroke-dasharray:7.0,7.0;"/><polygon fill="#181818" points="176.54,514.89,180.54,505.89,176.54,509.89,172.54,505.89,176.54,514.89" style="stroke:#181818;stroke-width:1.0;"/><text fill="#000000" font-family="sans-serif" font-size="13" lengthAdjust="spacing" textLength="55" x="177.54" y="455.9951">«include»</text></g><!--MD5=[88b3f717c4ecba2380b97377806c0913]
link OA to Medir rendimiento de operadores--><g id="link_OA_Medir rendimiento de operadores"><path d="M1098.01,241.19 C1148.2,271.87 1217.2,314.05 1260.32,340.41 " fill="none" id="OA-Medir rendimiento de operadores" style="stroke:#181818;stroke-width:1.0;"/></g><!--MD5=[8493603031cb0f20b69cf20aa1985a23]
reverse link VA to Mostrar mensaje--><g id="link_VA_Mostrar mensaje"><path d="M549.54,585.78 C549.54,611.21 549.54,640.48 549.54,658.36 " fill="none" id="VA-backto-Mostrar mensaje" style="stroke:#181818;stroke-width:1.0;stroke-dasharray:7.0,7.0;"/><polygon fill="#181818" points="549.54,580.75,545.54,589.75,549.54,585.75,553.54,589.75,549.54,580.75" style="stroke:#181818;stroke-width:1.0;"/><text fill="#000000" font-family="sans-serif" font-size="13" lengthAdjust="spacing" textLength="53" x="550.54" y="624.9951">«extend»</text></g><!--MD5=[ee4103257af91b37978b4455787e8251]
@startuml Sistema de informacion
actor OA as "Operador adjudicatario"
actor Operador
actor UR as "Usuario logueado"
actor UNR as "Usuario no logueado"
usecase (Visualizar \nla actividad de los operadores \nen la cartografía) as VisualAct
OA-left-VisualAct
(Registrar situaciones puntuales)<..VisualAct : <<include>>
(Registrar periodos continuos)<..VisualAct : <<include>>
usecase (Visualizar alarmas UR) as "Visualizar alarmas (UL)"
usecase (Visualizar alarmas OA) as "Visualizar alarmas (OA)"
usecase (Visualizar alarmas O) as "Visualizar alarmas (O)"
usecase VA as "Visualizar alarmas 
- -
extension points 
Mostrar mensaje"
usecase (Recibir avisos)
usecase DE as "Definir eventos 
- -
extension points
Generar avisos"

usecase (Generar avisos) as GA
usecase EX as "Examinar 
la explotación
en tiempo real"
OA- -(Visualizar alarmas OA)
UR- -(Visualizar alarmas UR)
Operador- -(Visualizar alarmas O)
(Visualizar alarmas O)- -|>VA
(Visualizar alarmas OA)- -|>VA
(Visualizar alarmas UR)- -|>VA
Operador- -(Ver avisos)
OA- -DE
(introducir variables)<..DE : <<include>> 
(Introducir condiciones)<..DE : <<include>>
DE<..GA : <<extend>>
UNR- -EX
VisualAct- -|>EX
(Introducir operador/es)<..VisualAct : <<include>>
UNR-right-VA
UNR<|- -UR
(Disparar alarmas)- -Sistema
OA- -(Suministrar datos al sistema)
usecase PO as "Puntuar operadores"
UR- -PO
(Seleccionar operador)<.up.PO : <<include>>
OA- -(Medir rendimiento de operadores)
(Mostrar mensaje).up.>VA : <<extend>>
@enduml

PlantUML version 1.2022.7(Mon Aug 22 19:01:30 CEST 2022)
(GPL source distribution)
Java Runtime: OpenJDK Runtime Environment
JVM: OpenJDK 64-Bit Server VM
Default Encoding: Cp1252
Language: es
Country: ES
--></g></svg>