<?xml version="1.0" encoding="UTF-8" standalone="no"?><svg xmlns="http://www.w3.org/2000/svg" xmlns:xlink="http://www.w3.org/1999/xlink" contentStyleType="text/css" height="1103px" preserveAspectRatio="none" style="width:1483px;height:1103px;background:#FFFFFF;" version="1.1" viewBox="0 0 1483 1103" width="1483px" zoomAndPan="magnify"><defs/><g><!--MD5=[c42ed81cef7fdd2e33758127945b9a5b]
entity UI--><g id="elem_UI"><ellipse cx="492" cy="14" fill="#F1F1F1" rx="8" ry="8" style="stroke:#181818;stroke-width:0.5;"/><path d="M492,22 L492,49 M479,30 L505,30 M492,49 L479,64 M492,49 L505,64 " fill="none" style="stroke:#181818;stroke-width:0.5;"/><text fill="#000000" font-family="sans-serif" font-size="14" lengthAdjust="spacing" textLength="101" x="441.5" y="80.0332">Usuario invitado</text></g><!--MD5=[c9884a940ca17747de6480392133742b]
entity UL--><g id="elem_UL"><ellipse cx="636" cy="14" fill="#F1F1F1" rx="8" ry="8" style="stroke:#181818;stroke-width:0.5;"/><path d="M636,22 L636,49 M623,30 L649,30 M636,49 L623,64 M636,49 L649,64 " fill="none" style="stroke:#181818;stroke-width:0.5;"/><text fill="#000000" font-family="sans-serif" font-size="14" lengthAdjust="spacing" textLength="116" x="578" y="80.0332">Usuario Logueado</text></g><!--MD5=[128f0757cf0ea77f14e95a88885fd9f7]
entity Usuario--><g id="elem_Usuario"><ellipse cx="564" cy="153" fill="#F1F1F1" rx="8" ry="8" style="stroke:#181818;stroke-width:0.5;"/><path d="M564,161 L564,188 M551,169 L577,169 M564,188 L551,203 M564,188 L577,203 " fill="none" style="stroke:#181818;stroke-width:0.5;"/><text fill="#000000" font-family="sans-serif" font-size="14" lengthAdjust="spacing" textLength="48" x="540" y="219.0332">Usuario</text></g><!--MD5=[edaad4393c221d383c5a8c3e381e0fe4]
entity Subcontratado--><g id="elem_Subcontratado"><ellipse cx="355" cy="153" fill="#F1F1F1" rx="8" ry="8" style="stroke:#181818;stroke-width:0.5;"/><path d="M355,161 L355,188 M342,169 L368,169 M355,188 L342,203 M355,188 L368,203 " fill="none" style="stroke:#181818;stroke-width:0.5;"/><text fill="#000000" font-family="sans-serif" font-size="14" lengthAdjust="spacing" textLength="93" x="308.5" y="219.0332">Subcontratado</text></g><!--MD5=[2e903384ba6a94be9c906ea46910cc3f]
entity Administrador--><g id="elem_Administrador"><ellipse cx="1146" cy="153" fill="#F1F1F1" rx="8" ry="8" style="stroke:#181818;stroke-width:0.5;"/><path d="M1146,161 L1146,188 M1133,169 L1159,169 M1146,188 L1133,203 M1146,188 L1159,203 " fill="none" style="stroke:#181818;stroke-width:0.5;"/><text fill="#000000" font-family="sans-serif" font-size="14" lengthAdjust="spacing" textLength="87" x="1102.5" y="219.0332">Administrador</text></g><g id="elem_Modificar"><ellipse cx="1146.0109" cy="328.0022" fill="#F1F1F1" rx="73.0109" ry="17.0022" style="stroke:#181818;stroke-width:0.5;"/><text fill="#000000" font-family="sans-serif" font-size="14" lengthAdjust="spacing" textLength="96" x="1095.0109" y="332.5188">Modificar datos</text></g><g id="elem_Introducir"><ellipse cx="1365.847" cy="328.1694" fill="#F1F1F1" rx="111.347" ry="24.6694" style="stroke:#181818;stroke-width:0.5;"/><text fill="#000000" font-family="sans-serif" font-size="14" lengthAdjust="spacing" textLength="186" x="1272.847" y="331.8979">Introduccion manual de datos</text></g><g id="elem_Ayuda"><ellipse cx="354.7514" cy="327.8503" fill="#F1F1F1" rx="94.7514" ry="21.3503" style="stroke:#181818;stroke-width:0.5;"/><text fill="#000000" font-family="sans-serif" font-size="14" lengthAdjust="spacing" textLength="149" x="280.2514" y="331.5788">Obtener ayuda en linea</text></g><g id="elem_Consulta"><ellipse cx="564.1819" cy="328.1364" fill="#F1F1F1" rx="78.6819" ry="18.1364" style="stroke:#181818;stroke-width:0.5;"/><text fill="#000000" font-family="sans-serif" font-size="14" lengthAdjust="spacing" textLength="111" x="507.0947" y="332.3083">Realizar Consulta</text></g><g id="elem_Horarios"><ellipse cx="867.1851" cy="328.1325" fill="#F1F1F1" rx="170.6851" ry="44.6325" style="stroke:#181818;stroke-width:0.5;"/><text fill="#000000" font-family="sans-serif" font-size="14" lengthAdjust="spacing" textLength="233" x="750.6851" y="312.2978">Visualizar listado de horarios y lineas</text><line style="stroke:#181818;stroke-width:1.0;" x1="704.6223" x2="1029.748" y1="315.374" y2="315.374"/><text fill="#000000" font-family="sans-serif" font-size="14" lengthAdjust="spacing" textLength="102" x="816.1851" y="333.9072">extension points</text><text fill="#000000" font-family="sans-serif" font-size="14" lengthAdjust="spacing" textLength="198" x="768.1851" y="351.5166">Visualizar Informacion Adicional</text></g><g id="elem_Potenciar"><ellipse cx="128.8762" cy="706.4752" fill="#F1F1F1" rx="122.8762" ry="26.9752" style="stroke:#181818;stroke-width:0.5;"/><text fill="#000000" font-family="sans-serif" font-size="14" lengthAdjust="spacing" textLength="211" x="23.3762" y="710.2038">Introducir Parametros a potenciar</text></g><g id="elem_Origen"><ellipse cx="719.8975" cy="706.6795" fill="#F1F1F1" rx="101.3975" ry="22.6795" style="stroke:#181818;stroke-width:0.5;"/><text fill="#000000" font-family="sans-serif" font-size="14" lengthAdjust="spacing" textLength="164" x="637.8975" y="710.408">Introducir origen y destino</text></g><g id="elem_Parametros"><ellipse cx="484.036" cy="495.7132" fill="#F1F1F1" rx="114.036" ry="45.2132" style="stroke:#181818;stroke-width:0.5;"/><text fill="#000000" font-family="sans-serif" font-size="14" lengthAdjust="spacing" textLength="136" x="413.036" y="477.8324">Introducir Parámetros</text><line style="stroke:#181818;stroke-width:1.0;" x1="377.2866" x2="590.7854" y1="480.9085" y2="480.9085"/><text fill="#000000" font-family="sans-serif" font-size="14" lengthAdjust="spacing" textLength="102" x="430.036" y="499.4417">extension points</text><text fill="#000000" font-family="sans-serif" font-size="14" lengthAdjust="spacing" textLength="148" x="407.036" y="517.0511">Parametros a potenciar</text></g><g id="elem_Solucion"><ellipse cx="434.8294" cy="706.451" fill="#F1F1F1" rx="147.8294" ry="44.951" style="stroke:#181818;stroke-width:0.5;"/><text fill="#000000" font-family="sans-serif" font-size="14" lengthAdjust="spacing" textLength="177" x="340.5725" y="688.7096">Visualizar recorrido solución</text><line style="stroke:#181818;stroke-width:1.0;" x1="296.0886" x2="573.5701" y1="691.7858" y2="691.7858"/><text fill="#000000" font-family="sans-serif" font-size="14" lengthAdjust="spacing" textLength="102" x="378.0725" y="710.319">extension points</text><text fill="#000000" font-family="sans-serif" font-size="14" lengthAdjust="spacing" textLength="198" x="330.0725" y="727.9283">Visualizar Informacion Adicional</text></g><g id="elem_MostrarInfoList"><ellipse cx="874.7518" cy="600.9504" fill="#F1F1F1" rx="140.2518" ry="30.4504" style="stroke:#181818;stroke-width:0.5;"/><text fill="#000000" font-family="sans-serif" font-size="14" lengthAdjust="spacing" textLength="248" x="750.7518" y="604.6789">Visualizar Informacion Adicional Listado</text></g><g id="elem_MostrarInfoConsulta"><ellipse cx="582.9967" cy="860.8993" fill="#F1F1F1" rx="144.9967" ry="31.3993" style="stroke:#181818;stroke-width:0.5;"/><text fill="#000000" font-family="sans-serif" font-size="14" lengthAdjust="spacing" textLength="258" x="453.9967" y="864.6279">Visualizar Informacion Adicional Consulta</text></g><g id="elem_MostrarInfo"><ellipse cx="844.8554" cy="979.2711" fill="#F1F1F1" rx="116.8554" ry="25.7711" style="stroke:#181818;stroke-width:0.5;"/><text fill="#000000" font-family="sans-serif" font-size="14" lengthAdjust="spacing" textLength="198" x="745.8554" y="982.9996">Visualizar Informacion Adicional</text></g><g id="elem_Paradas"><ellipse cx="785.0928" cy="1081.9872" fill="#F1F1F1" rx="49.0928" ry="15.4872" style="stroke:#181818;stroke-width:0.5;"/><text fill="#000000" font-family="sans-serif" font-size="14" lengthAdjust="spacing" textLength="53" x="756.1382" y="1086.3807">Paradas</text></g><g id="elem_Linea"><ellipse cx="905.234" cy="1081.9517" fill="#F1F1F1" rx="36.234" ry="15.4517" style="stroke:#181818;stroke-width:0.5;"/><text fill="#000000" font-family="sans-serif" font-size="14" lengthAdjust="spacing" textLength="35" x="887.734" y="1085.6802">Linea</text></g><g id="elem_Itinerario"><ellipse cx="583.0646" cy="979.5012" fill="#F1F1F1" rx="50.5646" ry="15.5012" style="stroke:#181818;stroke-width:0.5;"/><text fill="#000000" font-family="sans-serif" font-size="14" lengthAdjust="spacing" textLength="55" x="552.5737" y="984.0158">Itinerario</text></g><!--MD5=[ead2315695d9b848afe791b34d995778]
link UI to Usuario--><g id="link_UI_Usuario"><path d="M512.06,83.66 C518.94,96.76 526.8,111.72 534.29,125.97 " fill="none" id="UI-to-Usuario" style="stroke:#181818;stroke-width:1.0;"/><polygon fill="none" points="540.69,123.11,543.8,144.07,528.3,129.62,540.69,123.11" style="stroke:#181818;stroke-width:1.0;"/></g><!--MD5=[97fc12aa3738993530ac75da8ba13789]
link UL to Usuario--><g id="link_UL_Usuario"><path d="M615.94,83.66 C609.06,96.76 601.2,111.72 593.71,125.97 " fill="none" id="UL-to-Usuario" style="stroke:#181818;stroke-width:1.0;"/><polygon fill="none" points="599.7,129.62,584.2,144.07,587.31,123.11,599.7,129.62" style="stroke:#181818;stroke-width:1.0;"/></g><!--MD5=[f5e8cf6860c587de35498c325648cb53]
link Administrador to Modificar--><g id="link_Administrador_Modificar"><path d="M1146,222.69 C1146,251.54 1146,289.69 1146,310.95 " fill="none" id="Administrador-Modificar" style="stroke:#181818;stroke-width:1.0;"/></g><!--MD5=[e2dfd70658acf804faa49e5758d44c25]
link Administrador to Introducir--><g id="link_Administrador_Introducir"><path d="M1189.73,212.82 C1231.33,239.77 1293.1,279.78 1331.38,304.58 " fill="none" id="Administrador-Introducir" style="stroke:#181818;stroke-width:1.0;"/></g><!--MD5=[2401466f019859bccf78095c00a783c6]
link Administrador to Horarios--><g id="link_Administrador_Horarios"><path d="M1102.41,206.77 C1059.88,228.49 994.3,261.98 943.15,288.11 " fill="none" id="Administrador-Horarios" style="stroke:#181818;stroke-width:1.0;"/></g><!--MD5=[5e8b575bfca38a67008029b373a025f8]
link Usuario to Horarios--><g id="link_Usuario_Horarios"><path d="M588.03,195.8 C630.23,215.65 719.47,257.62 785.71,288.77 " fill="none" id="Usuario-Horarios" style="stroke:#181818;stroke-width:1.0;"/></g><!--MD5=[c853f3741e9e2431065e53beab75eafb]
link Usuario to Consulta--><g id="link_Usuario_Consulta"><path d="M564,222.69 C564,251.05 564,288.39 564,309.84 " fill="none" id="Usuario-Consulta" style="stroke:#181818;stroke-width:1.0;"/></g><!--MD5=[4710737f3ff30db965c7c626cf3fec73]
link Usuario to Ayuda--><g id="link_Usuario_Ayuda"><path d="M539.62,201.13 C500.85,227.56 425.33,279.05 383.9,307.29 " fill="none" id="Usuario-Ayuda" style="stroke:#181818;stroke-width:1.0;"/></g><!--MD5=[b34435f2e5eae71824c98807260ca75b]
link Subcontratado to Ayuda--><g id="link_Subcontratado_Ayuda"><path d="M355,222.69 C355,249.56 355,284.5 355,306.34 " fill="none" id="Subcontratado-Ayuda" style="stroke:#181818;stroke-width:1.0;"/></g><!--MD5=[c77cd8fc6dd71b652add793ad25417d1]
link Consulta to Parametros--><g id="link_Consulta_Parametros"><path d="M555.74,346.09 C544.44,369.47 523.7,412.36 507.42,446.04 " fill="none" id="Consulta-to-Parametros" style="stroke:#181818;stroke-width:1.0;stroke-dasharray:7.0,7.0;"/><polygon fill="#181818" points="505.05,450.94,512.5559,444.5634,507.2174,446.4342,505.3466,441.0956,505.05,450.94" style="stroke:#181818;stroke-width:1.0;"/><text fill="#000000" font-family="sans-serif" font-size="13" lengthAdjust="spacing" textLength="55" x="528" y="416.9951">«include»</text></g><!--MD5=[fc26830778756c9c294a1e2c0998e5ba]
link Parametros to Origen--><g id="link_Parametros_Origen"><path d="M529.5,536.8 C577.77,579.54 652.47,645.69 692.47,681.12 " fill="none" id="Parametros-to-Origen" style="stroke:#181818;stroke-width:1.0;stroke-dasharray:7.0,7.0;"/><polygon fill="#181818" points="696.24,684.46,692.1538,675.4988,692.4967,681.1453,686.8502,681.4882,696.24,684.46" style="stroke:#181818;stroke-width:1.0;"/><text fill="#000000" font-family="sans-serif" font-size="13" lengthAdjust="spacing" textLength="55" x="632" y="606.4951">«include»</text></g><!--MD5=[d4cd6cdbc2a4212c5f67ad5dbbfaa822]
reverse link Parametros to Potenciar--><g id="link_Parametros_Potenciar"><path d="M416.63,536.16 C344.1,578.86 231.01,645.44 170.51,681.06 " fill="none" id="Parametros-backto-Potenciar" style="stroke:#181818;stroke-width:1.0;stroke-dasharray:7.0,7.0;"/><polygon fill="#181818" points="421.35,533.38,411.5655,534.5039,417.0425,535.9188,415.6276,541.3959,421.35,533.38" style="stroke:#181818;stroke-width:1.0;"/><text fill="#000000" font-family="sans-serif" font-size="13" lengthAdjust="spacing" textLength="60" x="350" y="606.4951">«extends»</text></g><!--MD5=[5eed65a5bea0e48fa04e5bedcbad571d]
link Parametros to Solucion--><g id="link_Parametros_Solucion"><path d="M473.67,540.57 C465.72,574.47 454.74,621.3 446.51,656.4 " fill="none" id="Parametros-to-Solucion" style="stroke:#181818;stroke-width:1.0;stroke-dasharray:7.0,7.0;"/><polygon fill="#181818" points="445.32,661.49,451.275,653.6454,446.4652,656.6229,443.4877,651.8131,445.32,661.49" style="stroke:#181818;stroke-width:1.0;"/><text fill="#000000" font-family="sans-serif" font-size="13" lengthAdjust="spacing" textLength="55" x="467" y="606.4951">«include»</text></g><!--MD5=[428179f9c0ff752b1b9505e181bcb897]
reverse link Solucion to MostrarInfoConsulta--><g id="link_Solucion_MostrarInfoConsulta"><path d="M479.73,753.59 C503.72,778.31 532.6,808.07 553.72,829.83 " fill="none" id="Solucion-backto-MostrarInfoConsulta" style="stroke:#181818;stroke-width:1.0;stroke-dasharray:7.0,7.0;"/><polygon fill="#181818" points="476.23,749.98,479.6352,759.2215,479.7152,753.5652,485.3715,753.6452,476.23,749.98" style="stroke:#181818;stroke-width:1.0;"/><text fill="#000000" font-family="sans-serif" font-size="13" lengthAdjust="spacing" textLength="60" x="524" y="795.9951">«extends»</text></g><!--MD5=[7300e2c1c8d32cc61e4e9c45fe4a6501]
reverse link Horarios to MostrarInfoList--><g id="link_Horarios_MostrarInfoList"><path d="M868.44,377.86 C870.1,433.91 872.76,524.04 874.13,570.38 " fill="none" id="Horarios-backto-MostrarInfoList" style="stroke:#181818;stroke-width:1.0;stroke-dasharray:7.0,7.0;"/><polygon fill="#181818" points="868.29,372.54,864.5487,381.6506,868.4328,377.538,872.5454,381.4221,868.29,372.54" style="stroke:#181818;stroke-width:1.0;"/><text fill="#000000" font-family="sans-serif" font-size="13" lengthAdjust="spacing" textLength="60" x="870" y="416.9951">«extends»</text></g><!--MD5=[664ef18b8c7e7cc7ed70c6a4ed1dcdf4]
link MostrarInfoList to MostrarInfo--><g id="link_MostrarInfoList_MostrarInfo"><path d="M872.65,631.54 C867.42,697.07 854.84,854.97 848.62,933.12 " fill="none" id="MostrarInfoList-to-MostrarInfo" style="stroke:#181818;stroke-width:1.0;"/><polygon fill="none" points="855.59,933.74,847.02,953.12,841.63,932.63,855.59,933.74" style="stroke:#181818;stroke-width:1.0;"/></g><!--MD5=[ab3aee5703323a3f6982d93043ae8c0e]
link MostrarInfoConsulta to MostrarInfo--><g id="link_MostrarInfoConsulta_MostrarInfo"><path d="M645.09,889.61 C684.41,907.09 735.31,929.73 775.91,947.78 " fill="none" id="MostrarInfoConsulta-to-MostrarInfo" style="stroke:#181818;stroke-width:1.0;"/><polygon fill="none" points="778.91,941.45,794.34,955.97,773.22,954.24,778.91,941.45" style="stroke:#181818;stroke-width:1.0;"/></g><!--MD5=[b7ea65b410061b9b3e3f6a166b9b099e]
reverse link MostrarInfo to Paradas--><g id="link_MostrarInfo_Paradas"><path d="M819.86,1022.6 C810.47,1038.33 800.43,1055.15 793.55,1066.68 " fill="none" id="MostrarInfo-backto-Paradas" style="stroke:#181818;stroke-width:1.0;"/><polygon fill="none" points="813.91,1018.93,830.17,1005.34,825.93,1026.1,813.91,1018.93" style="stroke:#181818;stroke-width:1.0;"/></g><!--MD5=[25ab5520e51599044e2785e24b3b8364]
reverse link MostrarInfo to Linea--><g id="link_MostrarInfo_Linea"><path d="M870.14,1022.6 C879.53,1038.33 889.57,1055.15 896.45,1066.68 " fill="none" id="MostrarInfo-backto-Linea" style="stroke:#181818;stroke-width:1.0;"/><polygon fill="none" points="864.07,1026.1,859.83,1005.34,876.09,1018.93,864.07,1026.1" style="stroke:#181818;stroke-width:1.0;"/></g><!--MD5=[e443775cb77a4357668a0b302f821dd1]
reverse link MostrarInfoConsulta to Itinerario--><g id="link_MostrarInfoConsulta_Itinerario"><path d="M583,912.67 C583,931.19 583,950.75 583,963.69 " fill="none" id="MostrarInfoConsulta-backto-Itinerario" style="stroke:#181818;stroke-width:1.0;"/><polygon fill="none" points="576,912.61,583,892.61,590,912.61,576,912.61" style="stroke:#181818;stroke-width:1.0;"/></g><!--MD5=[f492e527cd975ff65cf382a50168cb3b]
@startuml SIIT
actor UI as "Usuario invitado"
actor UL as "Usuario Logueado"
actor Usuario
actor Subcontratado
actor Administrador


usecase (Modificar) as "Modificar datos"
usecase (Introducir) as "Introduccion manual de datos"




UI- -|>Usuario
UL- -|>Usuario

usecase (Ayuda) as  "Obtener ayuda en linea"
usecase (Consulta) as "Realizar Consulta"
usecase Horarios as "Visualizar listado de horarios y lineas
- -
extension points
Visualizar Informacion Adicional"
usecase (Potenciar) as "Introducir Parametros a potenciar"
usecase (Origen) as "Introducir origen y destino"


Administrador- -Modificar
Administrador- -Introducir
Administrador- -Horarios


usecase Parametros as "Introducir Parámetros
- -
extension points
Parametros a potenciar
"

Usuario- -Horarios
Usuario- -Consulta
Usuario- -Ayuda
Subcontratado- -Ayuda

(Consulta)..>(Parametros) : <<include>> 
(Parametros)..>(Origen) : <<include>> 
(Parametros)<..(Potenciar) : <<extends>>



usecase Solucion as "Visualizar recorrido solución
- -
extension points
Visualizar Informacion Adicional"

usecase (MostrarInfoList) as "Visualizar Informacion Adicional Listado"
usecase (MostrarInfoConsulta) as "Visualizar Informacion Adicional Consulta"
usecase (MostrarInfo) as "Visualizar Informacion Adicional"


(Parametros)..>(Solucion) : <<include>> 
(Solucion)<..(MostrarInfoConsulta) : <<extends>>
(Horarios)<..(MostrarInfoList) : <<extends>>

(MostrarInfoList)- -|>(MostrarInfo)
(MostrarInfoConsulta)- -|>(MostrarInfo)

(MostrarInfo)<|- -(Paradas)
(MostrarInfo)<|- -(Linea)
(MostrarInfoConsulta)<|- -(Itinerario)


@enduml

PlantUML version 1.2022.7(Mon Aug 22 19:01:30 CEST 2022)
(GPL source distribution)
Java Runtime: OpenJDK Runtime Environment
JVM: OpenJDK 64-Bit Server VM
Default Encoding: Cp1252
Language: es
Country: ES
--></g></svg>