<?xml version="1.0" encoding="UTF-8" standalone="no"?><svg xmlns="http://www.w3.org/2000/svg" xmlns:xlink="http://www.w3.org/1999/xlink" contentStyleType="text/css" height="1406px" preserveAspectRatio="none" style="width:1778px;height:1406px;background:#FFFFFF;" version="1.1" viewBox="0 0 1778 1406" width="1778px" zoomAndPan="magnify"><defs/><g><!--MD5=[c42ed81cef7fdd2e33758127945b9a5b]
entity UI--><g id="elem_UI"><ellipse cx="732.5" cy="14" fill="#F1F1F1" rx="8" ry="8" style="stroke:#181818;stroke-width:0.5;"/><path d="M732.5,22 L732.5,49 M719.5,30 L745.5,30 M732.5,49 L719.5,64 M732.5,49 L745.5,64 " fill="none" style="stroke:#181818;stroke-width:0.5;"/><text fill="#000000" font-family="sans-serif" font-size="14" lengthAdjust="spacing" textLength="101" x="682" y="80.0332">Usuario invitado</text></g><!--MD5=[c9884a940ca17747de6480392133742b]
entity UL--><g id="elem_UL"><ellipse cx="876.5" cy="14" fill="#F1F1F1" rx="8" ry="8" style="stroke:#181818;stroke-width:0.5;"/><path d="M876.5,22 L876.5,49 M863.5,30 L889.5,30 M876.5,49 L863.5,64 M876.5,49 L889.5,64 " fill="none" style="stroke:#181818;stroke-width:0.5;"/><text fill="#000000" font-family="sans-serif" font-size="14" lengthAdjust="spacing" textLength="116" x="818.5" y="80.0332">Usuario Logueado</text></g><!--MD5=[128f0757cf0ea77f14e95a88885fd9f7]
entity Usuario--><g id="elem_Usuario"><ellipse cx="804.5" cy="158.5" fill="#F1F1F1" rx="8" ry="8" style="stroke:#181818;stroke-width:0.5;"/><path d="M804.5,166.5 L804.5,193.5 M791.5,174.5 L817.5,174.5 M804.5,193.5 L791.5,208.5 M804.5,193.5 L817.5,208.5 " fill="none" style="stroke:#181818;stroke-width:0.5;"/><text fill="#000000" font-family="sans-serif" font-size="14" lengthAdjust="spacing" textLength="48" x="780.5" y="224.5332">Usuario</text></g><!--MD5=[edaad4393c221d383c5a8c3e381e0fe4]
entity Subcontratado--><g id="elem_Subcontratado"><ellipse cx="910.5" cy="158.5" fill="#F1F1F1" rx="8" ry="8" style="stroke:#181818;stroke-width:0.5;"/><path d="M910.5,166.5 L910.5,193.5 M897.5,174.5 L923.5,174.5 M910.5,193.5 L897.5,208.5 M910.5,193.5 L923.5,208.5 " fill="none" style="stroke:#181818;stroke-width:0.5;"/><text fill="#000000" font-family="sans-serif" font-size="14" lengthAdjust="spacing" textLength="93" x="864" y="224.5332">Subcontratado</text></g><!--MD5=[2e903384ba6a94be9c906ea46910cc3f]
entity Administrador--><g id="elem_Administrador"><ellipse cx="1479.5" cy="14" fill="#F1F1F1" rx="8" ry="8" style="stroke:#181818;stroke-width:0.5;"/><path d="M1479.5,22 L1479.5,49 M1466.5,30 L1492.5,30 M1479.5,49 L1466.5,64 M1479.5,49 L1492.5,64 " fill="none" style="stroke:#181818;stroke-width:0.5;"/><text fill="#000000" font-family="sans-serif" font-size="14" lengthAdjust="spacing" textLength="87" x="1436" y="80.0332">Administrador</text></g><g id="elem_Modificar"><ellipse cx="1699.5109" cy="189.0022" fill="#F1F1F1" rx="73.0109" ry="17.0022" style="stroke:#181818;stroke-width:0.5;"/><text fill="#000000" font-family="sans-serif" font-size="14" lengthAdjust="spacing" textLength="96" x="1648.5109" y="193.5188">Modificar datos</text></g><g id="elem_Introducir"><ellipse cx="1479.347" cy="189.1694" fill="#F1F1F1" rx="111.347" ry="24.6694" style="stroke:#181818;stroke-width:0.5;"/><text fill="#000000" font-family="sans-serif" font-size="14" lengthAdjust="spacing" textLength="186" x="1386.347" y="192.8979">Introduccion manual de datos</text></g><g id="elem_Ayuda"><ellipse cx="956.2514" cy="321.3503" fill="#F1F1F1" rx="94.7514" ry="21.3503" style="stroke:#181818;stroke-width:0.5;"/><text fill="#000000" font-family="sans-serif" font-size="14" lengthAdjust="spacing" textLength="149" x="881.7514" y="325.0788">Obtener ayuda en linea</text></g><g id="elem_Consulta"><ellipse cx="747.6819" cy="321.6364" fill="#F1F1F1" rx="78.6819" ry="18.1364" style="stroke:#181818;stroke-width:0.5;"/><text fill="#000000" font-family="sans-serif" font-size="14" lengthAdjust="spacing" textLength="111" x="690.5947" y="325.8083">Realizar Consulta</text></g><g id="elem_Horarios"><ellipse cx="1162.6851" cy="189.1325" fill="#F1F1F1" rx="170.6851" ry="44.6325" style="stroke:#181818;stroke-width:0.5;"/><text fill="#000000" font-family="sans-serif" font-size="14" lengthAdjust="spacing" textLength="233" x="1046.1851" y="173.2978">Visualizar listado de horarios y lineas</text><line style="stroke:#181818;stroke-width:1.0;" x1="1000.1223" x2="1325.248" y1="176.374" y2="176.374"/><text fill="#000000" font-family="sans-serif" font-size="14" lengthAdjust="spacing" textLength="102" x="1111.6851" y="194.9072">extension points</text><text fill="#000000" font-family="sans-serif" font-size="14" lengthAdjust="spacing" textLength="198" x="1063.6851" y="212.5166">Visualizar Informacion Adicional</text></g><g id="elem_Potenciar"><ellipse cx="510.3762" cy="321.4752" fill="#F1F1F1" rx="122.8762" ry="26.9752" style="stroke:#181818;stroke-width:0.5;"/><text fill="#000000" font-family="sans-serif" font-size="14" lengthAdjust="spacing" textLength="211" x="404.8762" y="325.2038">Introducir Parametros a potenciar</text></g><g id="elem_Origen"><ellipse cx="648.3465" cy="754.5286" fill="#F1F1F1" rx="118.3465" ry="89.0286" style="stroke:#181818;stroke-width:0.5;"/><text fill="#000000" font-family="sans-serif" font-size="14" lengthAdjust="spacing" textLength="164" x="568.3773" y="709.7052">Introducir origen y destino</text><line style="stroke:#181818;stroke-width:1.0;" x1="544.818" x2="751.8749" y1="712.7814" y2="712.7814"/><text fill="#000000" font-family="sans-serif" font-size="14" lengthAdjust="spacing" textLength="102" x="599.3773" y="731.3146">extension points</text><text fill="#000000" font-family="sans-serif" font-size="14" lengthAdjust="spacing" textLength="80" x="610.3773" y="748.9239">Utilizar mapa</text><text fill="#000000" font-family="sans-serif" font-size="14" lengthAdjust="spacing" textLength="59" x="620.8773" y="766.5333">Direccion</text><text fill="#000000" font-family="sans-serif" font-size="14" lengthAdjust="spacing" textLength="38" x="631.3773" y="784.1427">Barrio</text><text fill="#000000" font-family="sans-serif" font-size="14" lengthAdjust="spacing" textLength="101" x="599.8773" y="801.7521">Detalle Paradas</text><text fill="#000000" font-family="sans-serif" font-size="14" lengthAdjust="spacing" textLength="97" x="601.8773" y="819.3614">Evento Cultural</text></g><g id="elem_Direccion"><ellipse cx="797.5193" cy="939.0298" fill="#F1F1F1" rx="53.5193" ry="15.5298" style="stroke:#181818;stroke-width:0.5;"/><text fill="#000000" font-family="sans-serif" font-size="14" lengthAdjust="spacing" textLength="59" x="765.0193" y="943.5464">Direccion</text></g><g id="elem_Barrio"><ellipse cx="924.3553" cy="938.9517" fill="#F1F1F1" rx="38.3553" ry="15.4517" style="stroke:#181818;stroke-width:0.5;"/><text fill="#000000" font-family="sans-serif" font-size="14" lengthAdjust="spacing" textLength="38" x="905.3553" y="942.6802">Barrio</text></g><g id="elem_Detalle"><ellipse cx="323.3525" cy="938.8705" fill="#F1F1F1" rx="74.8525" ry="17.3705" style="stroke:#181818;stroke-width:0.5;"/><text fill="#000000" font-family="sans-serif" font-size="14" lengthAdjust="spacing" textLength="101" x="269.8525" y="943.3871">Detalle Paradas</text></g><g id="elem_Evento"><ellipse cx="507.376" cy="939.0752" fill="#F1F1F1" rx="73.376" ry="17.0752" style="stroke:#181818;stroke-width:0.5;"/><text fill="#000000" font-family="sans-serif" font-size="14" lengthAdjust="spacing" textLength="97" x="455.876" y="943.5918">Evento Cultural</text></g><g id="elem_Mapa"><ellipse cx="315.3658" cy="506.9926" fill="#F1F1F1" rx="99.8658" ry="80.4926" style="stroke:#181818;stroke-width:0.5;"/><text fill="#000000" font-family="sans-serif" font-size="14" lengthAdjust="spacing" textLength="80" x="269.8658" y="453.893">Utilizar Mapa</text><line style="stroke:#181818;stroke-width:1.0;" x1="238.1268" x2="392.6047" y1="456.9692" y2="456.9692"/><text fill="#000000" font-family="sans-serif" font-size="14" lengthAdjust="spacing" textLength="102" x="258.8658" y="475.5024">extension points</text><text fill="#000000" font-family="sans-serif" font-size="14" lengthAdjust="spacing" textLength="49" x="285.3658" y="493.1118">Acercar</text><text fill="#000000" font-family="sans-serif" font-size="14" lengthAdjust="spacing" textLength="36" x="291.8658" y="510.7211">Alejar</text><text fill="#000000" font-family="sans-serif" font-size="14" lengthAdjust="spacing" textLength="63" x="278.3658" y="528.3305">Desplazar</text><text fill="#000000" font-family="sans-serif" font-size="14" lengthAdjust="spacing" textLength="94" x="262.8658" y="545.9399">Ir a mapa base</text><text fill="#000000" font-family="sans-serif" font-size="14" lengthAdjust="spacing" textLength="48" x="285.8658" y="563.5493">Centrar</text></g><g id="elem_Acercar"><ellipse cx="379.6812" cy="754.4655" fill="#F1F1F1" rx="46.1812" ry="15.4655" style="stroke:#181818;stroke-width:0.5;"/><text fill="#000000" font-family="sans-serif" font-size="14" lengthAdjust="spacing" textLength="49" x="353.7471" y="758.608">Acercar</text></g><g id="elem_Alejar"><ellipse cx="315.4411" cy="321.4517" fill="#F1F1F1" rx="36.9411" ry="15.4517" style="stroke:#181818;stroke-width:0.5;"/><text fill="#000000" font-family="sans-serif" font-size="14" lengthAdjust="spacing" textLength="36" x="297.4411" y="325.1802">Alejar</text></g><g id="elem_Desplazar"><ellipse cx="62.4744" cy="507.0553" fill="#F1F1F1" rx="56.4744" ry="15.5553" style="stroke:#181818;stroke-width:0.5;"/><text fill="#000000" font-family="sans-serif" font-size="14" lengthAdjust="spacing" textLength="63" x="27.9744" y="511.5719">Desplazar</text></g><g id="elem_MapaB"><ellipse cx="170.2859" cy="321.3572" fill="#F1F1F1" rx="72.2859" ry="16.8572" style="stroke:#181818;stroke-width:0.5;"/><text fill="#000000" font-family="sans-serif" font-size="14" lengthAdjust="spacing" textLength="94" x="120.2859" y="325.8738">Ir a mapa base</text></g><g id="elem_Centrar"><ellipse cx="252.4598" cy="754.4615" fill="#F1F1F1" rx="45.4598" ry="15.4615" style="stroke:#181818;stroke-width:0.5;"/><text fill="#000000" font-family="sans-serif" font-size="14" lengthAdjust="spacing" textLength="48" x="227.2695" y="758.5394">Centrar</text></g><g id="elem_Parametros"><ellipse cx="648.536" cy="507.2132" fill="#F1F1F1" rx="114.036" ry="45.2132" style="stroke:#181818;stroke-width:0.5;"/><text fill="#000000" font-family="sans-serif" font-size="14" lengthAdjust="spacing" textLength="136" x="577.536" y="489.3324">Introducir Parámetros</text><line style="stroke:#181818;stroke-width:1.0;" x1="541.7866" x2="755.2854" y1="492.4085" y2="492.4085"/><text fill="#000000" font-family="sans-serif" font-size="14" lengthAdjust="spacing" textLength="102" x="594.536" y="510.9417">extension points</text><text fill="#000000" font-family="sans-serif" font-size="14" lengthAdjust="spacing" textLength="148" x="571.536" y="528.5511">Parametros a potenciar</text></g><g id="elem_Solucion"><ellipse cx="662.3294" cy="1062.451" fill="#F1F1F1" rx="147.8294" ry="44.951" style="stroke:#181818;stroke-width:0.5;"/><text fill="#000000" font-family="sans-serif" font-size="14" lengthAdjust="spacing" textLength="177" x="568.0725" y="1044.7096">Visualizar recorrido solución</text><line style="stroke:#181818;stroke-width:1.0;" x1="523.5886" x2="801.0701" y1="1047.7858" y2="1047.7858"/><text fill="#000000" font-family="sans-serif" font-size="14" lengthAdjust="spacing" textLength="102" x="605.5725" y="1066.319">extension points</text><text fill="#000000" font-family="sans-serif" font-size="14" lengthAdjust="spacing" textLength="198" x="557.5725" y="1083.9283">Visualizar Informacion Adicional</text></g><g id="elem_MostrarInfoList"><ellipse cx="1114.5602" cy="1238.5975" fill="#F1F1F1" rx="169.0602" ry="53.0975" style="stroke:#181818;stroke-width:0.5;"/><text fill="#000000" font-family="sans-serif" font-size="14" lengthAdjust="spacing" textLength="248" x="991.3606" y="1219.658">Visualizar Informacion Adicional Listado</text><line style="stroke:#181818;stroke-width:1.0;" x1="954.2212" x2="1274.8992" y1="1222.7342" y2="1222.7342"/><text fill="#000000" font-family="sans-serif" font-size="14" lengthAdjust="spacing" textLength="102" x="1064.3606" y="1241.2674">extension points</text><text fill="#000000" font-family="sans-serif" font-size="14" lengthAdjust="spacing" textLength="46" x="1092.3606" y="1258.8768">Parada</text><text fill="#000000" font-family="sans-serif" font-size="14" lengthAdjust="spacing" textLength="35" x="1097.8606" y="1276.4861">Linea</text></g><g id="elem_MostrarInfoConsulta"><ellipse cx="728.3877" cy="1238.4498" fill="#F1F1F1" rx="175.8877" ry="41.9498" style="stroke:#181818;stroke-width:0.5;"/><text fill="#000000" font-family="sans-serif" font-size="14" lengthAdjust="spacing" textLength="258" x="599.4313" y="1226.6382">Visualizar Informacion Adicional Consulta</text><line style="stroke:#181818;stroke-width:1.0;" x1="557.3556" x2="899.4197" y1="1229.7144" y2="1229.7144"/><text fill="#000000" font-family="sans-serif" font-size="14" lengthAdjust="spacing" textLength="109" x="673.9313" y="1248.2476">extensions points</text><text fill="#000000" font-family="sans-serif" font-size="14" lengthAdjust="spacing" textLength="55" x="700.9313" y="1265.857">Itinerario</text></g><g id="elem_Parada"><ellipse cx="1056.5247" cy="1384.9555" fill="#F1F1F1" rx="44.0247" ry="15.4555" style="stroke:#181818;stroke-width:0.5;"/><text fill="#000000" font-family="sans-serif" font-size="14" lengthAdjust="spacing" textLength="46" x="1032.8075" y="1388.9018">Parada</text></g><g id="elem_Linea"><ellipse cx="1171.734" cy="1384.9517" fill="#F1F1F1" rx="36.234" ry="15.4517" style="stroke:#181818;stroke-width:0.5;"/><text fill="#000000" font-family="sans-serif" font-size="14" lengthAdjust="spacing" textLength="35" x="1154.234" y="1388.6802">Linea</text></g><g id="elem_Itinerario"><ellipse cx="728.5646" cy="1385.0012" fill="#F1F1F1" rx="50.5646" ry="15.5012" style="stroke:#181818;stroke-width:0.5;"/><text fill="#000000" font-family="sans-serif" font-size="14" lengthAdjust="spacing" textLength="55" x="698.0737" y="1389.5158">Itinerario</text></g><!--MD5=[ead2315695d9b848afe791b34d995778]
link UI to Usuario--><g id="link_UI_Usuario"><path d="M751.79,83.69 C759.26,98.46 767.96,115.67 776.11,131.81 " fill="none" id="UI-to-Usuario" style="stroke:#181818;stroke-width:1.0;"/><polygon fill="none" points="782.38,128.7,785.15,149.71,769.88,135.01,782.38,128.7" style="stroke:#181818;stroke-width:1.0;"/></g><!--MD5=[97fc12aa3738993530ac75da8ba13789]
link UL to Usuario--><g id="link_UL_Usuario"><path d="M857.21,83.69 C849.74,98.46 841.04,115.67 832.89,131.81 " fill="none" id="UL-to-Usuario" style="stroke:#181818;stroke-width:1.0;"/><polygon fill="none" points="839.12,135.01,823.85,149.71,826.62,128.7,839.12,135.01" style="stroke:#181818;stroke-width:1.0;"/></g><!--MD5=[d200522a99fe56ae2b787d89fcdc75fb]
link Mapa to Origen--><g id="link_Mapa_Origen"><path d="M388.99,562.18 C439.48,599.41 506.78,649.02 560.19,688.4 " fill="none" id="Mapa-to-Origen" style="stroke:#181818;stroke-width:1.0;stroke-dasharray:7.0,7.0;"/><polygon fill="#181818" points="564.34,691.45,559.486,682.8804,560.3212,688.4752,554.7263,689.3105,564.34,691.45" style="stroke:#181818;stroke-width:1.0;"/><text fill="#000000" font-family="sans-serif" font-size="13" lengthAdjust="spacing" textLength="60" x="482.5" y="631.9951">«extends»</text></g><!--MD5=[e411ae89ab6e4fe54148dc9757209fec]
reverse link Origen to Direccion--><g id="link_Origen_Direccion"><path d="M713.3,834.87 C740.74,868.48 769.97,904.28 785.74,923.6 " fill="none" id="Origen-backto-Direccion" style="stroke:#181818;stroke-width:1.0;stroke-dasharray:7.0,7.0;"/><polygon fill="#181818" points="709.96,830.78,712.548,840.2827,713.12,834.6549,718.7478,835.2268,709.96,830.78" style="stroke:#181818;stroke-width:1.0;"/><text fill="#000000" font-family="sans-serif" font-size="13" lengthAdjust="spacing" textLength="60" x="758.5" y="887.9951">«extends»</text></g><!--MD5=[16d9c1bc84920fd9187afb47421bb452]
reverse link Origen to Barrio--><g id="link_Origen_Barrio"><path d="M741.73,816.86 C769.35,835.07 799.66,855.07 827.5,873.5 C854.65,891.47 886.02,912.35 905.56,925.37 " fill="none" id="Origen-backto-Barrio" style="stroke:#181818;stroke-width:1.0;stroke-dasharray:7.0,7.0;"/><polygon fill="#181818" points="737.32,813.95,742.6424,822.2369,741.4978,816.697,747.0376,815.5524,737.32,813.95" style="stroke:#181818;stroke-width:1.0;"/><text fill="#000000" font-family="sans-serif" font-size="13" lengthAdjust="spacing" textLength="60" x="854.5" y="887.9951">«extends»</text></g><!--MD5=[bdcb80770984dbca1c1307d26e38c67f]
reverse link Origen to Detalle--><g id="link_Origen_Detalle"><path d="M549.56,811.06 C480.89,849.62 394.24,898.28 350.86,922.63 " fill="none" id="Origen-backto-Detalle" style="stroke:#181818;stroke-width:1.0;stroke-dasharray:7.0,7.0;"/><polygon fill="#181818" points="554.06,808.53,544.2545,809.453,549.7014,810.98,548.1744,816.4268,554.06,808.53" style="stroke:#181818;stroke-width:1.0;"/><text fill="#000000" font-family="sans-serif" font-size="13" lengthAdjust="spacing" textLength="60" x="438.5" y="887.9951">«extends»</text></g><!--MD5=[da6a3fd243d58885f84fb21966ce2b2d]
reverse link Origen to Evento--><g id="link_Origen_Evento"><path d="M586.16,836.18 C561.17,868.54 534.79,902.68 519.81,922.06 " fill="none" id="Origen-backto-Evento" style="stroke:#181818;stroke-width:1.0;stroke-dasharray:7.0,7.0;"/><polygon fill="#181818" points="589.52,831.84,580.8523,836.5167,586.4632,835.7967,587.1831,841.4076,589.52,831.84" style="stroke:#181818;stroke-width:1.0;"/><text fill="#000000" font-family="sans-serif" font-size="13" lengthAdjust="spacing" textLength="60" x="557.5" y="887.9951">«extends»</text></g><!--MD5=[9ad4e3f80e4d92ee4e9b2d7685694b4b]
reverse link Mapa to Acercar--><g id="link_Mapa_Acercar"><path d="M337.1,590.86 C351.15,644.75 368.2,710.15 375.68,738.83 " fill="none" id="Mapa-backto-Acercar" style="stroke:#181818;stroke-width:1.0;stroke-dasharray:7.0,7.0;"/><polygon fill="#181818" points="335.84,586.02,334.2366,595.7375,337.0998,590.8587,341.9786,593.7218,335.84,586.02" style="stroke:#181818;stroke-width:1.0;"/><text fill="#000000" font-family="sans-serif" font-size="13" lengthAdjust="spacing" textLength="60" x="348.5" y="631.9951">«extends»</text></g><!--MD5=[375714d75b14d0959cd9652c66f2d9eb]
link Alejar to Mapa--><g id="link_Alejar_Mapa"><path d="M315.5,337.21 C315.5,355.69 315.5,388.91 315.5,421.01 " fill="none" id="Alejar-to-Mapa" style="stroke:#181818;stroke-width:1.0;stroke-dasharray:7.0,7.0;"/><polygon fill="#181818" points="315.5,426.15,319.5,417.15,315.5,421.15,311.5,417.15,315.5,426.15" style="stroke:#181818;stroke-width:1.0;"/><text fill="#000000" font-family="sans-serif" font-size="13" lengthAdjust="spacing" textLength="60" x="316.5" y="392.9951">«extends»</text></g><!--MD5=[45d9c326bef4a413779e31cbb5708dd8]
link Desplazar to Mapa--><g id="link_Desplazar_Mapa"><path d="M119.28,507 C146.07,507 178.92,507 210.03,507 " fill="none" id="Desplazar-to-Mapa" style="stroke:#181818;stroke-width:1.0;stroke-dasharray:7.0,7.0;"/><polygon fill="#181818" points="215.4,507,206.4,503,210.4,507,206.4,511,215.4,507" style="stroke:#181818;stroke-width:1.0;"/><text fill="#000000" font-family="sans-serif" font-size="13" lengthAdjust="spacing" textLength="60" x="137.25" y="500.4951">«extends»</text></g><!--MD5=[1e6cba5e3f69f6748f61dda0fc0b05e5]
link MapaB to Mapa--><g id="link_MapaB_Mapa"><path d="M183.11,338.46 C200,359.83 231.04,399.12 258.83,434.28 " fill="none" id="MapaB-to-Mapa" style="stroke:#181818;stroke-width:1.0;stroke-dasharray:7.0,7.0;"/><polygon fill="#181818" points="262.2,438.55,259.7481,429.0112,259.0958,434.6304,253.4766,433.978,262.2,438.55" style="stroke:#181818;stroke-width:1.0;"/><text fill="#000000" font-family="sans-serif" font-size="13" lengthAdjust="spacing" textLength="60" x="226.5" y="392.9951">«extends»</text></g><!--MD5=[3743a64ea8ab7fa68c84aec481c0e3d3]
reverse link Mapa to Centrar--><g id="link_Mapa_Centrar"><path d="M283.34,588.41 C280.07,598.12 277.03,607.97 274.5,617.5 C263.03,660.73 256.58,713.37 253.93,738.61 " fill="none" id="Mapa-backto-Centrar" style="stroke:#181818;stroke-width:1.0;stroke-dasharray:7.0,7.0;"/><polygon fill="#181818" points="284.97,583.66,278.2768,590.885,283.3546,588.3919,285.8478,593.4697,284.97,583.66" style="stroke:#181818;stroke-width:1.0;"/><text fill="#000000" font-family="sans-serif" font-size="13" lengthAdjust="spacing" textLength="60" x="275.5" y="631.9951">«extends»</text></g><!--MD5=[f5e8cf6860c587de35498c325648cb53]
link Administrador to Modificar--><g id="link_Administrador_Modificar"><path d="M1523.23,73.82 C1569.22,103.61 1639.84,149.36 1676.16,172.88 " fill="none" id="Administrador-Modificar" style="stroke:#181818;stroke-width:1.0;"/></g><!--MD5=[e2dfd70658acf804faa49e5758d44c25]
link Administrador to Introducir--><g id="link_Administrador_Introducir"><path d="M1479.5,83.69 C1479.5,109.41 1479.5,142.52 1479.5,164.46 " fill="none" id="Administrador-Introducir" style="stroke:#181818;stroke-width:1.0;"/></g><!--MD5=[2401466f019859bccf78095c00a783c6]
link Administrador to Horarios--><g id="link_Administrador_Horarios"><path d="M1435.76,65.16 C1387.09,87.04 1307.33,122.89 1246.51,150.24 " fill="none" id="Administrador-Horarios" style="stroke:#181818;stroke-width:1.0;"/></g><!--MD5=[5e8b575bfca38a67008029b373a025f8]
link Usuario to Horarios--><g id="link_Usuario_Horarios"><path d="M825.51,149.82 C835.21,135.84 848.14,121.66 864,114 C939.66,77.45 1035,114.1 1097.29,147.81 " fill="none" id="Usuario-Horarios" style="stroke:#181818;stroke-width:1.0;"/></g><!--MD5=[c853f3741e9e2431065e53beab75eafb]
link Usuario to Consulta--><g id="link_Usuario_Consulta"><path d="M787.86,228.1 C776.95,253.07 763.22,284.51 754.91,303.53 " fill="none" id="Usuario-Consulta" style="stroke:#181818;stroke-width:1.0;"/></g><!--MD5=[4710737f3ff30db965c7c626cf3fec73]
link Usuario to Ayuda--><g id="link_Usuario_Ayuda"><path d="M828.82,216.33 C834.48,222.13 840.59,228.14 846.5,233.5 C873.57,258.02 906.68,283.67 929.46,300.72 " fill="none" id="Usuario-Ayuda" style="stroke:#181818;stroke-width:1.0;"/></g><!--MD5=[b34435f2e5eae71824c98807260ca75b]
link Subcontratado to Ayuda--><g id="link_Subcontratado_Ayuda"><path d="M923.93,228.1 C932.2,251.57 942.49,280.75 949.26,299.96 " fill="none" id="Subcontratado-Ayuda" style="stroke:#181818;stroke-width:1.0;"/></g><!--MD5=[c77cd8fc6dd71b652add793ad25417d1]
link Consulta to Parametros--><g id="link_Consulta_Parametros"><path d="M738.36,339.43 C723.97,366.12 695.47,418.93 674.41,457.97 " fill="none" id="Consulta-to-Parametros" style="stroke:#181818;stroke-width:1.0;stroke-dasharray:7.0,7.0;"/><polygon fill="#181818" points="671.88,462.66,679.6711,456.6352,674.2522,458.2586,672.6288,452.8396,671.88,462.66" style="stroke:#181818;stroke-width:1.0;"/><text fill="#000000" font-family="sans-serif" font-size="13" lengthAdjust="spacing" textLength="55" x="715.5" y="392.9951">«include»</text></g><!--MD5=[fc26830778756c9c294a1e2c0998e5ba]
link Parametros to Origen--><g id="link_Parametros_Origen"><path d="M648.5,552.17 C648.5,582.17 648.5,622.98 648.5,660.01 " fill="none" id="Parametros-to-Origen" style="stroke:#181818;stroke-width:1.0;stroke-dasharray:7.0,7.0;"/><polygon fill="#181818" points="648.5,665.44,652.5,656.44,648.5,660.44,644.5,656.44,648.5,665.44" style="stroke:#181818;stroke-width:1.0;"/><text fill="#000000" font-family="sans-serif" font-size="13" lengthAdjust="spacing" textLength="55" x="649.5" y="631.9951">«include»</text></g><!--MD5=[953f16c260990e34b3ec7d9baeac65d1]
link Potenciar to Parametros--><g id="link_Potenciar_Parametros"><path d="M529.98,348.4 C551.61,377.17 586.97,424.18 613.45,459.39 " fill="none" id="Potenciar-to-Parametros" style="stroke:#181818;stroke-width:1.0;stroke-dasharray:7.0,7.0;"/><polygon fill="#181818" points="616.63,463.62,614.3916,454.0289,613.614,459.632,608.0109,458.8545,616.63,463.62" style="stroke:#181818;stroke-width:1.0;"/><text fill="#000000" font-family="sans-serif" font-size="13" lengthAdjust="spacing" textLength="60" x="563.5" y="392.9951">«extends»</text></g><!--MD5=[be275021606b440c9be9fe986f16dd81]
link Origen to Solucion--><g id="link_Origen_Solucion"><path d="M652.53,843.6 C655.04,898.34 658.16,966.69 660.24,1012.09 " fill="none" id="Origen-to-Solucion" style="stroke:#181818;stroke-width:1.0;stroke-dasharray:7.0,7.0;"/><polygon fill="#181818" points="660.47,1017.24,664.0536,1008.0663,660.241,1012.2452,656.062,1008.4326,660.47,1017.24" style="stroke:#181818;stroke-width:1.0;"/><text fill="#000000" font-family="sans-serif" font-size="13" lengthAdjust="spacing" textLength="55" x="658.5" y="944.4951">«include»</text></g><!--MD5=[428179f9c0ff752b1b9505e181bcb897]
reverse link Solucion to MostrarInfoConsulta--><g id="link_Solucion_MostrarInfoConsulta"><path d="M681.01,1112.3 C691.09,1138.87 703.41,1171.37 712.98,1196.59 " fill="none" id="Solucion-backto-MostrarInfoConsulta" style="stroke:#181818;stroke-width:1.0;stroke-dasharray:7.0,7.0;"/><polygon fill="#181818" points="679.15,1107.41,678.601,1117.2435,680.9228,1112.0852,686.0812,1114.407,679.15,1107.41" style="stroke:#181818;stroke-width:1.0;"/><text fill="#000000" font-family="sans-serif" font-size="13" lengthAdjust="spacing" textLength="60" x="696.5" y="1151.9951">«extends»</text></g><!--MD5=[7300e2c1c8d32cc61e4e9c45fe4a6501]
reverse link Horarios to MostrarInfoList--><g id="link_Horarios_MostrarInfoList"><path d="M1136.29,238.03 C1125.51,262.07 1115.5,292.05 1115.5,320.5 C1115.5,320.5 1115.5,320.5 1115.5,1063.5 C1115.5,1104.43 1115.22,1150.78 1114.96,1185.35 " fill="none" id="Horarios-backto-MostrarInfoList" style="stroke:#181818;stroke-width:1.0;stroke-dasharray:7.0,7.0;"/><polygon fill="#181818" points="1138.45,233.31,1131.0596,239.8202,1136.3638,237.854,1138.33,243.1581,1138.45,233.31" style="stroke:#181818;stroke-width:1.0;"/><text fill="#000000" font-family="sans-serif" font-size="13" lengthAdjust="spacing" textLength="60" x="1116.5" y="759.9951">«extends»</text></g><!--MD5=[657cdc29e1e6375c4dcd57e91cce95b5]
link MostrarInfoConsulta to MostrarInfoList--><g id="link_MostrarInfoConsulta_MostrarInfoList"><path d="M904.54,1238.5 C911.3,1238.5 918.07,1238.5 924.84,1238.5 " fill="none" id="MostrarInfoConsulta-to-MostrarInfoList" style="stroke:#181818;stroke-width:1.0;"/><polygon fill="none" points="925.14,1231.5,945.14,1238.5,925.14,1245.5,925.14,1231.5" style="stroke:#181818;stroke-width:1.0;"/></g><!--MD5=[88ba1d2b8002687673c0c445d3cefb1c]
reverse link MostrarInfoList to Parada--><g id="link_MostrarInfoList_Parada"><path d="M1088.16,1295.93 C1084.44,1304.44 1080.77,1313.16 1077.5,1321.5 C1071.14,1337.7 1064.93,1356.69 1060.93,1369.46 " fill="none" id="MostrarInfoList-backto-Parada" style="stroke:#181818;stroke-width:1.0;stroke-dasharray:7.0,7.0;"/><polygon fill="#181818" points="1090.22,1291.22,1082.9306,1297.8431,1088.2039,1295.7955,1090.2515,1301.0688,1090.22,1291.22" style="stroke:#181818;stroke-width:1.0;"/><text fill="#000000" font-family="sans-serif" font-size="13" lengthAdjust="spacing" textLength="60" x="1078.5" y="1335.9951">«extends»</text></g><!--MD5=[b50bc771580fcd97782374f3ada3ff11]
reverse link MostrarInfoList to Linea--><g id="link_MostrarInfoList_Linea"><path d="M1136.87,1296.2 C1147.38,1322.85 1159.06,1352.47 1165.82,1369.6 " fill="none" id="MostrarInfoList-backto-Linea" style="stroke:#181818;stroke-width:1.0;stroke-dasharray:7.0,7.0;"/><polygon fill="#181818" points="1134.92,1291.26,1134.486,1301.0993,1136.7474,1295.9141,1141.9326,1298.1755,1134.92,1291.26" style="stroke:#181818;stroke-width:1.0;"/><text fill="#000000" font-family="sans-serif" font-size="13" lengthAdjust="spacing" textLength="60" x="1153.5" y="1335.9951">«extends»</text></g><!--MD5=[e443775cb77a4357668a0b302f821dd1]
reverse link MostrarInfoConsulta to Itinerario--><g id="link_MostrarInfoConsulta_Itinerario"><path d="M728.5,1285.83 C728.5,1314.67 728.5,1349.86 728.5,1369.31 " fill="none" id="MostrarInfoConsulta-backto-Itinerario" style="stroke:#181818;stroke-width:1.0;stroke-dasharray:7.0,7.0;"/><polygon fill="#181818" points="728.5,1280.52,724.5,1289.52,728.5,1285.52,732.5,1289.52,728.5,1280.52" style="stroke:#181818;stroke-width:1.0;"/><text fill="#000000" font-family="sans-serif" font-size="13" lengthAdjust="spacing" textLength="60" x="729.5" y="1335.9951">«extends»</text></g><!--MD5=[53eba6e1e572549b0db49214432a935c]
@startuml SIIT
actor UI as "Usuario invitado"
actor UL as "Usuario Logueado"
actor Usuario
actor Subcontratado
actor Administrador


usecase (Modificar) as "Modificar datos"
usecase (Introducir) as "Introduccion manual de datos"




UI- -|>Usuario
UL- -|>Usuario

usecase (Ayuda) as  "Obtener ayuda en linea"
usecase (Consulta) as "Realizar Consulta"
usecase Horarios as "Visualizar listado de horarios y lineas
- -
extension points
Visualizar Informacion Adicional"
usecase (Potenciar) as "Introducir Parametros a potenciar"
usecase Origen as "Introducir origen y destino
- -
extension points
Utilizar mapa
Direccion
Barrio
Detalle Paradas
Evento Cultural"


usecase (Direccion) as "Direccion"
usecase (Barrio) as "Barrio"
usecase (Detalle) as "Detalle Paradas"
usecase (Evento) as "Evento Cultural"
usecase Mapa as "Utilizar Mapa
- -
extension points
Acercar
Alejar
Desplazar
Ir a mapa base
Centrar
"

usecase (Acercar) as "Acercar"
usecase (Alejar) as "Alejar"
usecase (Desplazar) as "Desplazar"
usecase (MapaB) as "Ir a mapa base"
usecase (Centrar) as "Centrar"


(Origen)<.up.(Mapa) : <<extends>>
(Origen)<..(Direccion) : <<extends>>
(Origen)<..(Barrio) : <<extends>>
(Origen)<..(Detalle) : <<extends>>
(Origen)<..(Evento) : <<extends>>


(Mapa)<..(Acercar) : <<extends>>
(Mapa)<.up.(Alejar) : <<extends>>
(Mapa)<.left.(Desplazar) : <<extends>>
(Mapa)<.up.(MapaB) : <<extends>>
(Mapa)<..(Centrar) : <<extends>>



Administrador- -Modificar
Administrador- -Introducir
Administrador- -Horarios


usecase Parametros as "Introducir Parámetros
- -
extension points
Parametros a potenciar
"

Usuario-right-Horarios
Usuario- -Consulta
Usuario- -Ayuda
Subcontratado- -Ayuda

(Consulta)..>(Parametros) : <<include>> 
(Parametros)..>(Origen) : <<include>> 
(Parametros)<.up.(Potenciar) : <<extends>>



usecase Solucion as "Visualizar recorrido solución
- -
extension points
Visualizar Informacion Adicional"

usecase MostrarInfoList as "Visualizar Informacion Adicional Listado
- -
extension points
Parada
Linea"
usecase MostrarInfoConsulta as "Visualizar Informacion Adicional Consulta
- -
extensions points
Itinerario"


(Origen)...>(Solucion) : <<include>> 
(Solucion)<..MostrarInfoConsulta : <<extends>>
(Horarios)<.right.(MostrarInfoList) : <<extends>>


(MostrarInfoConsulta)-right-|>(MostrarInfoList)

(MostrarInfoList)<..(Parada) : <<extends>>
(MostrarInfoList)<..(Linea) : <<extends>>
(MostrarInfoConsulta)<..(Itinerario) : <<extends>>


@enduml

PlantUML version 1.2022.7(Mon Aug 22 19:01:30 CEST 2022)
(GPL source distribution)
Java Runtime: OpenJDK Runtime Environment
JVM: OpenJDK 64-Bit Server VM
Default Encoding: Cp1252
Language: es
Country: ES
--></g></svg>