<?xml version="1.0" encoding="UTF-8" standalone="no"?><svg xmlns="http://www.w3.org/2000/svg" xmlns:xlink="http://www.w3.org/1999/xlink" contentStyleType="text/css" height="1491px" preserveAspectRatio="none" style="width:1577px;height:1491px;background:#FFFFFF;" version="1.1" viewBox="0 0 1577 1491" width="1577px" zoomAndPan="magnify"><defs/><g><!--MD5=[c42ed81cef7fdd2e33758127945b9a5b]
entity UI--><g id="elem_UI"><ellipse cx="619.5" cy="14" fill="#F1F1F1" rx="8" ry="8" style="stroke:#181818;stroke-width:0.5;"/><path d="M619.5,22 L619.5,49 M606.5,30 L632.5,30 M619.5,49 L606.5,64 M619.5,49 L632.5,64 " fill="none" style="stroke:#181818;stroke-width:0.5;"/><text fill="#000000" font-family="sans-serif" font-size="14" lengthAdjust="spacing" textLength="101" x="569" y="80.0332">Usuario invitado</text></g><!--MD5=[c9884a940ca17747de6480392133742b]
entity UL--><g id="elem_UL"><ellipse cx="763.5" cy="14" fill="#F1F1F1" rx="8" ry="8" style="stroke:#181818;stroke-width:0.5;"/><path d="M763.5,22 L763.5,49 M750.5,30 L776.5,30 M763.5,49 L750.5,64 M763.5,49 L776.5,64 " fill="none" style="stroke:#181818;stroke-width:0.5;"/><text fill="#000000" font-family="sans-serif" font-size="14" lengthAdjust="spacing" textLength="116" x="705.5" y="80.0332">Usuario Logueado</text></g><!--MD5=[128f0757cf0ea77f14e95a88885fd9f7]
entity Usuario--><g id="elem_Usuario"><ellipse cx="691.5" cy="153" fill="#F1F1F1" rx="8" ry="8" style="stroke:#181818;stroke-width:0.5;"/><path d="M691.5,161 L691.5,188 M678.5,169 L704.5,169 M691.5,188 L678.5,203 M691.5,188 L704.5,203 " fill="none" style="stroke:#181818;stroke-width:0.5;"/><text fill="#000000" font-family="sans-serif" font-size="14" lengthAdjust="spacing" textLength="48" x="667.5" y="219.0332">Usuario</text></g><!--MD5=[edaad4393c221d383c5a8c3e381e0fe4]
entity Subcontratado--><g id="elem_Subcontratado"><ellipse cx="482.5" cy="153" fill="#F1F1F1" rx="8" ry="8" style="stroke:#181818;stroke-width:0.5;"/><path d="M482.5,161 L482.5,188 M469.5,169 L495.5,169 M482.5,188 L469.5,203 M482.5,188 L495.5,203 " fill="none" style="stroke:#181818;stroke-width:0.5;"/><text fill="#000000" font-family="sans-serif" font-size="14" lengthAdjust="spacing" textLength="93" x="436" y="219.0332">Subcontratado</text></g><!--MD5=[2e903384ba6a94be9c906ea46910cc3f]
entity Administrador--><g id="elem_Administrador"><ellipse cx="1240.5" cy="153" fill="#F1F1F1" rx="8" ry="8" style="stroke:#181818;stroke-width:0.5;"/><path d="M1240.5,161 L1240.5,188 M1227.5,169 L1253.5,169 M1240.5,188 L1227.5,203 M1240.5,188 L1253.5,203 " fill="none" style="stroke:#181818;stroke-width:0.5;"/><text fill="#000000" font-family="sans-serif" font-size="14" lengthAdjust="spacing" textLength="87" x="1197" y="219.0332">Administrador</text></g><!--MD5=[a46c3c6e38a726f7d5de49445d1f48e8]
entity Comun--><g id="elem_Comun"><ellipse cx="1109.5" cy="292" fill="#F1F1F1" rx="8" ry="8" style="stroke:#181818;stroke-width:0.5;"/><path d="M1109.5,300 L1109.5,327 M1096.5,308 L1122.5,308 M1109.5,327 L1096.5,342 M1109.5,327 L1122.5,342 " fill="none" style="stroke:#181818;stroke-width:0.5;"/><text fill="#000000" font-family="sans-serif" font-size="14" lengthAdjust="spacing" textLength="45" x="1087" y="358.0332">Comun</text></g><g id="elem_Modificar"><ellipse cx="1240.5109" cy="322.5022" fill="#F1F1F1" rx="73.0109" ry="17.0022" style="stroke:#181818;stroke-width:0.5;"/><text fill="#000000" font-family="sans-serif" font-size="14" lengthAdjust="spacing" textLength="96" x="1189.5109" y="327.0188">Modificar datos</text></g><g id="elem_Introducir"><ellipse cx="1460.347" cy="322.6694" fill="#F1F1F1" rx="111.347" ry="24.6694" style="stroke:#181818;stroke-width:0.5;"/><text fill="#000000" font-family="sans-serif" font-size="14" lengthAdjust="spacing" textLength="186" x="1367.347" y="326.3979">Introduccion manual de datos</text></g><g id="elem_Ayuda"><ellipse cx="482.2514" cy="322.3503" fill="#F1F1F1" rx="94.7514" ry="21.3503" style="stroke:#181818;stroke-width:0.5;"/><text fill="#000000" font-family="sans-serif" font-size="14" lengthAdjust="spacing" textLength="149" x="407.7514" y="326.0788">Obtener ayuda en linea</text></g><g id="elem_Consulta"><ellipse cx="691.6819" cy="322.6364" fill="#F1F1F1" rx="78.6819" ry="18.1364" style="stroke:#181818;stroke-width:0.5;"/><text fill="#000000" font-family="sans-serif" font-size="14" lengthAdjust="spacing" textLength="111" x="634.5947" y="326.8083">Realizar Consulta</text></g><g id="elem_Horarios"><ellipse cx="1107.6851" cy="675.1325" fill="#F1F1F1" rx="170.6851" ry="44.6325" style="stroke:#181818;stroke-width:0.5;"/><text fill="#000000" font-family="sans-serif" font-size="14" lengthAdjust="spacing" textLength="233" x="991.1851" y="659.2978">Visualizar listado de horarios y lineas</text><line style="stroke:#181818;stroke-width:1.0;" x1="945.1223" x2="1270.248" y1="662.374" y2="662.374"/><text fill="#000000" font-family="sans-serif" font-size="14" lengthAdjust="spacing" textLength="102" x="1056.6851" y="680.9072">extension points</text><text fill="#000000" font-family="sans-serif" font-size="14" lengthAdjust="spacing" textLength="198" x="1008.6851" y="698.5166">Visualizar Informacion Adicional</text></g><g id="elem_Potenciar"><ellipse cx="928.3762" cy="322.4752" fill="#F1F1F1" rx="122.8762" ry="26.9752" style="stroke:#181818;stroke-width:0.5;"/><text fill="#000000" font-family="sans-serif" font-size="14" lengthAdjust="spacing" textLength="211" x="822.8762" y="326.2038">Introducir Parametros a potenciar</text></g><g id="elem_Origen"><ellipse cx="701.3465" cy="838.5286" fill="#F1F1F1" rx="118.3465" ry="89.0286" style="stroke:#181818;stroke-width:0.5;"/><text fill="#000000" font-family="sans-serif" font-size="14" lengthAdjust="spacing" textLength="164" x="621.3773" y="793.7052">Introducir origen y destino</text><line style="stroke:#181818;stroke-width:1.0;" x1="597.818" x2="804.8749" y1="796.7814" y2="796.7814"/><text fill="#000000" font-family="sans-serif" font-size="14" lengthAdjust="spacing" textLength="102" x="652.3773" y="815.3146">extension points</text><text fill="#000000" font-family="sans-serif" font-size="14" lengthAdjust="spacing" textLength="80" x="663.3773" y="832.9239">Utilizar mapa</text><text fill="#000000" font-family="sans-serif" font-size="14" lengthAdjust="spacing" textLength="59" x="673.8773" y="850.5333">Direccion</text><text fill="#000000" font-family="sans-serif" font-size="14" lengthAdjust="spacing" textLength="38" x="684.3773" y="868.1427">Barrio</text><text fill="#000000" font-family="sans-serif" font-size="14" lengthAdjust="spacing" textLength="101" x="652.8773" y="885.7521">Detalle Paradas</text><text fill="#000000" font-family="sans-serif" font-size="14" lengthAdjust="spacing" textLength="97" x="654.8773" y="903.3614">Evento Cultural</text></g><g id="elem_Direccion"><ellipse cx="851.5193" cy="1023.0298" fill="#F1F1F1" rx="53.5193" ry="15.5298" style="stroke:#181818;stroke-width:0.5;"/><text fill="#000000" font-family="sans-serif" font-size="14" lengthAdjust="spacing" textLength="59" x="819.0193" y="1027.5464">Direccion</text></g><g id="elem_Barrio"><ellipse cx="978.3553" cy="1022.9517" fill="#F1F1F1" rx="38.3553" ry="15.4517" style="stroke:#181818;stroke-width:0.5;"/><text fill="#000000" font-family="sans-serif" font-size="14" lengthAdjust="spacing" textLength="38" x="959.3553" y="1026.6802">Barrio</text></g><g id="elem_Detalle"><ellipse cx="377.3525" cy="1022.8705" fill="#F1F1F1" rx="74.8525" ry="17.3705" style="stroke:#181818;stroke-width:0.5;"/><text fill="#000000" font-family="sans-serif" font-size="14" lengthAdjust="spacing" textLength="101" x="323.8525" y="1027.3871">Detalle Paradas</text></g><g id="elem_Evento"><ellipse cx="561.376" cy="1023.0752" fill="#F1F1F1" rx="73.376" ry="17.0752" style="stroke:#181818;stroke-width:0.5;"/><text fill="#000000" font-family="sans-serif" font-size="14" lengthAdjust="spacing" textLength="97" x="509.876" y="1027.5918">Evento Cultural</text></g><g id="elem_Mapa"><ellipse cx="315.3658" cy="519.9926" fill="#F1F1F1" rx="99.8658" ry="80.4926" style="stroke:#181818;stroke-width:0.5;"/><text fill="#000000" font-family="sans-serif" font-size="14" lengthAdjust="spacing" textLength="80" x="269.8658" y="466.893">Utilizar Mapa</text><line style="stroke:#181818;stroke-width:1.0;" x1="238.1268" x2="392.6047" y1="469.9692" y2="469.9692"/><text fill="#000000" font-family="sans-serif" font-size="14" lengthAdjust="spacing" textLength="102" x="258.8658" y="488.5024">extension points</text><text fill="#000000" font-family="sans-serif" font-size="14" lengthAdjust="spacing" textLength="49" x="285.3658" y="506.1118">Acercar</text><text fill="#000000" font-family="sans-serif" font-size="14" lengthAdjust="spacing" textLength="36" x="291.8658" y="523.7211">Alejar</text><text fill="#000000" font-family="sans-serif" font-size="14" lengthAdjust="spacing" textLength="63" x="278.3658" y="541.3305">Desplazar</text><text fill="#000000" font-family="sans-serif" font-size="14" lengthAdjust="spacing" textLength="94" x="262.8658" y="558.9399">Ir a mapa base</text><text fill="#000000" font-family="sans-serif" font-size="14" lengthAdjust="spacing" textLength="48" x="285.8658" y="576.5493">Centrar</text></g><g id="elem_Acercar"><ellipse cx="379.6812" cy="838.4655" fill="#F1F1F1" rx="46.1812" ry="15.4655" style="stroke:#181818;stroke-width:0.5;"/><text fill="#000000" font-family="sans-serif" font-size="14" lengthAdjust="spacing" textLength="49" x="353.7471" y="842.608">Acercar</text></g><g id="elem_Alejar"><ellipse cx="315.4411" cy="322.4517" fill="#F1F1F1" rx="36.9411" ry="15.4517" style="stroke:#181818;stroke-width:0.5;"/><text fill="#000000" font-family="sans-serif" font-size="14" lengthAdjust="spacing" textLength="36" x="297.4411" y="326.1802">Alejar</text></g><g id="elem_Desplazar"><ellipse cx="62.4744" cy="520.0553" fill="#F1F1F1" rx="56.4744" ry="15.5553" style="stroke:#181818;stroke-width:0.5;"/><text fill="#000000" font-family="sans-serif" font-size="14" lengthAdjust="spacing" textLength="63" x="27.9744" y="524.5719">Desplazar</text></g><g id="elem_MapaB"><ellipse cx="170.2859" cy="322.3572" fill="#F1F1F1" rx="72.2859" ry="16.8572" style="stroke:#181818;stroke-width:0.5;"/><text fill="#000000" font-family="sans-serif" font-size="14" lengthAdjust="spacing" textLength="94" x="120.2859" y="326.8738">Ir a mapa base</text></g><g id="elem_Centrar"><ellipse cx="252.4598" cy="838.4615" fill="#F1F1F1" rx="45.4598" ry="15.4615" style="stroke:#181818;stroke-width:0.5;"/><text fill="#000000" font-family="sans-serif" font-size="14" lengthAdjust="spacing" textLength="48" x="227.2695" y="842.5394">Centrar</text></g><g id="elem_Parametros"><ellipse cx="701.536" cy="520.2132" fill="#F1F1F1" rx="114.036" ry="45.2132" style="stroke:#181818;stroke-width:0.5;"/><text fill="#000000" font-family="sans-serif" font-size="14" lengthAdjust="spacing" textLength="136" x="630.536" y="502.3324">Introducir Parámetros</text><line style="stroke:#181818;stroke-width:1.0;" x1="594.7866" x2="808.2854" y1="505.4085" y2="505.4085"/><text fill="#000000" font-family="sans-serif" font-size="14" lengthAdjust="spacing" textLength="102" x="647.536" y="523.9417">extension points</text><text fill="#000000" font-family="sans-serif" font-size="14" lengthAdjust="spacing" textLength="148" x="624.536" y="541.5511">Parametros a potenciar</text></g><g id="elem_Solucion"><ellipse cx="713.3294" cy="1146.451" fill="#F1F1F1" rx="147.8294" ry="44.951" style="stroke:#181818;stroke-width:0.5;"/><text fill="#000000" font-family="sans-serif" font-size="14" lengthAdjust="spacing" textLength="177" x="619.0725" y="1128.7096">Visualizar recorrido solución</text><line style="stroke:#181818;stroke-width:1.0;" x1="574.5886" x2="852.0701" y1="1131.7858" y2="1131.7858"/><text fill="#000000" font-family="sans-serif" font-size="14" lengthAdjust="spacing" textLength="102" x="656.5725" y="1150.319">extension points</text><text fill="#000000" font-family="sans-serif" font-size="14" lengthAdjust="spacing" textLength="198" x="608.5725" y="1167.9283">Visualizar Informacion Adicional</text></g><g id="elem_MostrarInfo"><ellipse cx="1094.7163" cy="1323.1916" fill="#F1F1F1" rx="138.7163" ry="53.6916" style="stroke:#181818;stroke-width:0.5;"/><text fill="#000000" font-family="sans-serif" font-size="14" lengthAdjust="spacing" textLength="198" x="996.8653" y="1303.0903">Visualizar Informacion Adicional</text><line style="stroke:#181818;stroke-width:1.0;" x1="964.1584" x2="1225.2741" y1="1306.1665" y2="1306.1665"/><text fill="#000000" font-family="sans-serif" font-size="14" lengthAdjust="spacing" textLength="102" x="1044.8653" y="1324.6997">extension points</text><text fill="#000000" font-family="sans-serif" font-size="14" lengthAdjust="spacing" textLength="46" x="1072.8653" y="1342.3091">Parada</text><text fill="#000000" font-family="sans-serif" font-size="14" lengthAdjust="spacing" textLength="35" x="1078.3653" y="1359.9185">Linea</text></g><g id="elem_MostrarInfoConsulta"><ellipse cx="740.3877" cy="1322.9498" fill="#F1F1F1" rx="175.8877" ry="41.9498" style="stroke:#181818;stroke-width:0.5;"/><text fill="#000000" font-family="sans-serif" font-size="14" lengthAdjust="spacing" textLength="258" x="611.4313" y="1311.1382">Visualizar Informacion Adicional Consulta</text><line style="stroke:#181818;stroke-width:1.0;" x1="569.3556" x2="911.4197" y1="1314.2144" y2="1314.2144"/><text fill="#000000" font-family="sans-serif" font-size="14" lengthAdjust="spacing" textLength="109" x="685.9313" y="1332.7476">extensions points</text><text fill="#000000" font-family="sans-serif" font-size="14" lengthAdjust="spacing" textLength="55" x="712.9313" y="1350.357">Itinerario</text></g><g id="elem_Parada"><ellipse cx="1036.5247" cy="1469.9555" fill="#F1F1F1" rx="44.0247" ry="15.4555" style="stroke:#181818;stroke-width:0.5;"/><text fill="#000000" font-family="sans-serif" font-size="14" lengthAdjust="spacing" textLength="46" x="1012.8075" y="1473.9018">Parada</text></g><g id="elem_Linea"><ellipse cx="1151.734" cy="1469.9517" fill="#F1F1F1" rx="36.234" ry="15.4517" style="stroke:#181818;stroke-width:0.5;"/><text fill="#000000" font-family="sans-serif" font-size="14" lengthAdjust="spacing" textLength="35" x="1134.234" y="1473.6802">Linea</text></g><g id="elem_Itinerario"><ellipse cx="740.5646" cy="1470.0012" fill="#F1F1F1" rx="50.5646" ry="15.5012" style="stroke:#181818;stroke-width:0.5;"/><text fill="#000000" font-family="sans-serif" font-size="14" lengthAdjust="spacing" textLength="55" x="710.0737" y="1474.5158">Itinerario</text></g><!--MD5=[c0926daa81c6cb30fc37be7bb3f9b4c9]
link Usuario to Comun--><g id="link_Usuario_Comun"><path d="M715.61,186.62 C777.87,192.95 947.69,215.69 1069.5,283.5 C1069.98,283.77 1070.47,284.05 1070.95,284.33 " fill="none" id="Usuario-to-Comun" style="stroke:#181818;stroke-width:1.0;"/><polygon fill="none" points="1075.23,278.79,1086.99,296.42,1066.8,289.97,1075.23,278.79" style="stroke:#181818;stroke-width:1.0;"/></g><!--MD5=[5b6b7771fafa5d3e54b26030175fd4f9]
link Administrador to Comun--><g id="link_Administrador_Comun"><path d="M1204.01,222.66 C1185.94,241.56 1164.18,264.32 1146.09,283.23 " fill="none" id="Administrador-to-Comun" style="stroke:#181818;stroke-width:1.0;"/><polygon fill="none" points="1151.11,288.12,1132.22,297.73,1140.99,278.44,1151.11,288.12" style="stroke:#181818;stroke-width:1.0;"/></g><!--MD5=[ead2315695d9b848afe791b34d995778]
link UI to Usuario--><g id="link_UI_Usuario"><path d="M639.56,83.66 C646.44,96.76 654.3,111.72 661.79,125.97 " fill="none" id="UI-to-Usuario" style="stroke:#181818;stroke-width:1.0;"/><polygon fill="none" points="668.19,123.11,671.3,144.07,655.8,129.62,668.19,123.11" style="stroke:#181818;stroke-width:1.0;"/></g><!--MD5=[97fc12aa3738993530ac75da8ba13789]
link UL to Usuario--><g id="link_UL_Usuario"><path d="M743.44,83.66 C736.56,96.76 728.7,111.72 721.21,125.97 " fill="none" id="UL-to-Usuario" style="stroke:#181818;stroke-width:1.0;"/><polygon fill="none" points="727.2,129.62,711.7,144.07,714.81,123.11,727.2,129.62" style="stroke:#181818;stroke-width:1.0;"/></g><!--MD5=[d200522a99fe56ae2b787d89fcdc75fb]
link Mapa to Origen--><g id="link_Mapa_Origen"><path d="M384.95,577.95 C450.29,631.52 548.21,711.81 617.82,768.89 " fill="none" id="Mapa-to-Origen" style="stroke:#181818;stroke-width:1.0;stroke-dasharray:7.0,7.0;"/><polygon fill="#181818" points="621.95,772.27,617.5386,763.4643,618.0879,769.0945,612.4577,769.6438,621.95,772.27" style="stroke:#181818;stroke-width:1.0;"/><text fill="#000000" font-family="sans-serif" font-size="13" lengthAdjust="spacing" textLength="60" x="554.5" y="680.4951">«extends»</text></g><!--MD5=[e411ae89ab6e4fe54148dc9757209fec]
reverse link Origen to Direccion--><g id="link_Origen_Direccion"><path d="M766.52,918.61 C794.19,952.27 823.69,988.17 839.63,1007.55 " fill="none" id="Origen-backto-Direccion" style="stroke:#181818;stroke-width:1.0;stroke-dasharray:7.0,7.0;"/><polygon fill="#181818" points="763.16,914.52,765.769,924.017,766.3285,918.3879,771.9576,918.9474,763.16,914.52" style="stroke:#181818;stroke-width:1.0;"/><text fill="#000000" font-family="sans-serif" font-size="13" lengthAdjust="spacing" textLength="60" x="811.5" y="971.9951">«extends»</text></g><!--MD5=[16d9c1bc84920fd9187afb47421bb452]
reverse link Origen to Barrio--><g id="link_Origen_Barrio"><path d="M794.54,900.8 C853.89,939.9 925.78,987.26 959.41,1009.42 " fill="none" id="Origen-backto-Barrio" style="stroke:#181818;stroke-width:1.0;stroke-dasharray:7.0,7.0;"/><polygon fill="#181818" points="790.29,898,795.5926,906.2996,794.4612,900.757,800.0038,899.6256,790.29,898" style="stroke:#181818;stroke-width:1.0;"/><text fill="#000000" font-family="sans-serif" font-size="13" lengthAdjust="spacing" textLength="60" x="904.5" y="971.9951">«extends»</text></g><!--MD5=[bdcb80770984dbca1c1307d26e38c67f]
reverse link Origen to Detalle--><g id="link_Origen_Detalle"><path d="M602.43,895.3 C534,933.85 447.83,982.39 404.7,1006.68 " fill="none" id="Origen-backto-Detalle" style="stroke:#181818;stroke-width:1.0;stroke-dasharray:7.0,7.0;"/><polygon fill="#181818" points="606.91,892.78,597.1058,893.7167,602.5548,895.2361,601.0355,900.6851,606.91,892.78" style="stroke:#181818;stroke-width:1.0;"/><text fill="#000000" font-family="sans-serif" font-size="13" lengthAdjust="spacing" textLength="60" x="492.5" y="971.9951">«extends»</text></g><!--MD5=[da6a3fd243d58885f84fb21966ce2b2d]
reverse link Origen to Evento--><g id="link_Origen_Evento"><path d="M639.41,920.44 C614.63,952.75 588.51,986.79 573.68,1006.12 " fill="none" id="Origen-backto-Evento" style="stroke:#181818;stroke-width:1.0;stroke-dasharray:7.0,7.0;"/><polygon fill="#181818" points="642.74,916.1,634.0911,920.8113,639.699,920.069,640.4414,925.6769,642.74,916.1" style="stroke:#181818;stroke-width:1.0;"/><text fill="#000000" font-family="sans-serif" font-size="13" lengthAdjust="spacing" textLength="60" x="611.5" y="971.9951">«extends»</text></g><!--MD5=[9ad4e3f80e4d92ee4e9b2d7685694b4b]
reverse link Mapa to Acercar--><g id="link_Mapa_Acercar"><path d="M334.84,604.2 C336.8,613.07 338.72,621.96 340.5,630.5 C355.49,702.46 370.98,789.03 376.95,822.91 " fill="none" id="Mapa-backto-Acercar" style="stroke:#181818;stroke-width:1.0;stroke-dasharray:7.0,7.0;"/><polygon fill="#181818" points="333.75,599.28,331.8036,608.9346,334.8377,604.1603,339.612,607.1943,333.75,599.28" style="stroke:#181818;stroke-width:1.0;"/><text fill="#000000" font-family="sans-serif" font-size="13" lengthAdjust="spacing" textLength="60" x="357.5" y="680.4951">«extends»</text></g><!--MD5=[375714d75b14d0959cd9652c66f2d9eb]
link Alejar to Mapa--><g id="link_Alejar_Mapa"><path d="M315.5,338.19 C315.5,358.68 315.5,397.4 315.5,433.77 " fill="none" id="Alejar-to-Mapa" style="stroke:#181818;stroke-width:1.0;stroke-dasharray:7.0,7.0;"/><polygon fill="#181818" points="315.5,439.12,319.5,430.12,315.5,434.12,311.5,430.12,315.5,439.12" style="stroke:#181818;stroke-width:1.0;"/><text fill="#000000" font-family="sans-serif" font-size="13" lengthAdjust="spacing" textLength="60" x="316.5" y="405.9951">«extends»</text></g><!--MD5=[45d9c326bef4a413779e31cbb5708dd8]
link Desplazar to Mapa--><g id="link_Desplazar_Mapa"><path d="M119.28,520 C146.07,520 178.92,520 210.03,520 " fill="none" id="Desplazar-to-Mapa" style="stroke:#181818;stroke-width:1.0;stroke-dasharray:7.0,7.0;"/><polygon fill="#181818" points="215.4,520,206.4,516,210.4,520,206.4,524,215.4,520" style="stroke:#181818;stroke-width:1.0;"/><text fill="#000000" font-family="sans-serif" font-size="13" lengthAdjust="spacing" textLength="60" x="137.25" y="513.4951">«extends»</text></g><!--MD5=[1e6cba5e3f69f6748f61dda0fc0b05e5]
link MapaB to Mapa--><g id="link_MapaB_Mapa"><path d="M182.37,339.5 C199.59,362.73 232.63,407.27 261.48,446.17 " fill="none" id="MapaB-to-Mapa" style="stroke:#181818;stroke-width:1.0;stroke-dasharray:7.0,7.0;"/><polygon fill="#181818" points="264.62,450.4,262.4584,440.7913,261.636,446.388,256.0393,445.5657,264.62,450.4" style="stroke:#181818;stroke-width:1.0;"/><text fill="#000000" font-family="sans-serif" font-size="13" lengthAdjust="spacing" textLength="60" x="230.5" y="405.9951">«extends»</text></g><!--MD5=[3743a64ea8ab7fa68c84aec481c0e3d3]
reverse link Mapa to Centrar--><g id="link_Mapa_Centrar"><path d="M282.83,601.28 C279.65,611.02 276.77,620.91 274.5,630.5 C257.75,701.37 253.74,788.92 252.79,822.99 " fill="none" id="Mapa-backto-Centrar" style="stroke:#181818;stroke-width:1.0;stroke-dasharray:7.0,7.0;"/><polygon fill="#181818" points="284.42,596.52,277.7924,603.8052,282.8474,601.2663,285.3864,606.3213,284.42,596.52" style="stroke:#181818;stroke-width:1.0;"/><text fill="#000000" font-family="sans-serif" font-size="13" lengthAdjust="spacing" textLength="60" x="275.5" y="680.4951">«extends»</text></g><!--MD5=[f5e8cf6860c587de35498c325648cb53]
link Administrador to Modificar--><g id="link_Administrador_Modificar"><path d="M1240.5,222.66 C1240.5,249.9 1240.5,285.15 1240.5,305.36 " fill="none" id="Administrador-Modificar" style="stroke:#181818;stroke-width:1.0;"/></g><!--MD5=[e2dfd70658acf804faa49e5758d44c25]
link Administrador to Introducir--><g id="link_Administrador_Introducir"><path d="M1284.23,211.73 C1325.33,237.33 1386.11,275.18 1424.49,299.08 " fill="none" id="Administrador-Introducir" style="stroke:#181818;stroke-width:1.0;"/></g><!--MD5=[e84004b164eea9fb186d7280ded41f55]
link Comun to Horarios--><g id="link_Comun_Horarios"><path d="M1109.28,361.68 C1108.91,427.32 1108.14,561.2 1107.75,630.4 " fill="none" id="Comun-Horarios" style="stroke:#181818;stroke-width:1.0;"/></g><!--MD5=[c853f3741e9e2431065e53beab75eafb]
link Usuario to Consulta--><g id="link_Usuario_Consulta"><path d="M691.5,222.66 C691.5,249.42 691.5,283.93 691.5,304.29 " fill="none" id="Usuario-Consulta" style="stroke:#181818;stroke-width:1.0;"/></g><!--MD5=[4710737f3ff30db965c7c626cf3fec73]
link Usuario to Ayuda--><g id="link_Usuario_Ayuda"><path d="M667.12,200.48 C628.67,225.68 554.08,274.58 512.45,301.87 " fill="none" id="Usuario-Ayuda" style="stroke:#181818;stroke-width:1.0;"/></g><!--MD5=[b34435f2e5eae71824c98807260ca75b]
link Subcontratado to Ayuda--><g id="link_Subcontratado_Ayuda"><path d="M482.5,222.66 C482.5,248 482.5,280.27 482.5,300.92 " fill="none" id="Subcontratado-Ayuda" style="stroke:#181818;stroke-width:1.0;"/></g><!--MD5=[c77cd8fc6dd71b652add793ad25417d1]
link Consulta to Parametros--><g id="link_Consulta_Parametros"><path d="M692.37,340.51 C693.83,368.98 696.81,427.34 698.97,469.6 " fill="none" id="Consulta-to-Parametros" style="stroke:#181818;stroke-width:1.0;stroke-dasharray:7.0,7.0;"/><polygon fill="#181818" points="699.23,474.67,702.7611,465.4759,698.9725,469.6766,694.7717,465.888,699.23,474.67" style="stroke:#181818;stroke-width:1.0;"/><text fill="#000000" font-family="sans-serif" font-size="13" lengthAdjust="spacing" textLength="55" x="696.5" y="405.9951">«include»</text></g><!--MD5=[fc26830778756c9c294a1e2c0998e5ba]
link Parametros to Origen--><g id="link_Parametros_Origen"><path d="M701.5,565.01 C701.5,611.09 701.5,684.85 701.5,744.01 " fill="none" id="Parametros-to-Origen" style="stroke:#181818;stroke-width:1.0;stroke-dasharray:7.0,7.0;"/><polygon fill="#181818" points="701.5,749.33,705.5,740.33,701.5,744.33,697.5,740.33,701.5,749.33" style="stroke:#181818;stroke-width:1.0;"/><text fill="#000000" font-family="sans-serif" font-size="13" lengthAdjust="spacing" textLength="55" x="702.5" y="680.4951">«include»</text></g><!--MD5=[953f16c260990e34b3ec7d9baeac65d1]
link Potenciar to Parametros--><g id="link_Potenciar_Parametros"><path d="M898.82,349.06 C861.61,381.11 797.23,436.55 752.16,475.37 " fill="none" id="Potenciar-to-Parametros" style="stroke:#181818;stroke-width:1.0;stroke-dasharray:7.0,7.0;"/><polygon fill="#181818" points="748.13,478.84,757.555,475.9819,751.9132,475.5708,752.3243,469.9289,748.13,478.84" style="stroke:#181818;stroke-width:1.0;"/><text fill="#000000" font-family="sans-serif" font-size="13" lengthAdjust="spacing" textLength="60" x="849.5" y="405.9951">«extends»</text></g><!--MD5=[be275021606b440c9be9fe986f16dd81]
link Origen to Solucion--><g id="link_Origen_Solucion"><path d="M704.95,927.6 C707.1,982.34 709.78,1050.69 711.56,1096.09 " fill="none" id="Origen-to-Solucion" style="stroke:#181818;stroke-width:1.0;stroke-dasharray:7.0,7.0;"/><polygon fill="#181818" points="711.76,1101.24,715.3971,1092.0873,711.5602,1096.244,707.4035,1092.4071,711.76,1101.24" style="stroke:#181818;stroke-width:1.0;"/><text fill="#000000" font-family="sans-serif" font-size="13" lengthAdjust="spacing" textLength="55" x="709.5" y="1028.4951">«include»</text></g><!--MD5=[428179f9c0ff752b1b9505e181bcb897]
reverse link Solucion to MostrarInfoConsulta--><g id="link_Solucion_MostrarInfoConsulta"><path d="M721.12,1196.77 C725.24,1223.35 730.25,1255.78 734.15,1280.98 " fill="none" id="Solucion-backto-MostrarInfoConsulta" style="stroke:#181818;stroke-width:1.0;stroke-dasharray:7.0,7.0;"/><polygon fill="#181818" points="720.31,1191.53,717.7188,1201.0319,721.0671,1196.4724,725.6266,1199.8206,720.31,1191.53" style="stroke:#181818;stroke-width:1.0;"/><text fill="#000000" font-family="sans-serif" font-size="13" lengthAdjust="spacing" textLength="60" x="727.5" y="1235.9951">«extends»</text></g><!--MD5=[65952734a19c65a71b7d7a7fbf15a7e8]
reverse link Horarios to MostrarInfo--><g id="link_Horarios_MostrarInfo"><path d="M1106.96,724.75 C1106.37,782.28 1105.5,880.85 1105.5,965.5 C1105.5,965.5 1105.5,965.5 1105.5,1147.5 C1105.5,1188.48 1102.44,1234.77 1099.55,1269.37 " fill="none" id="Horarios-backto-MostrarInfo" style="stroke:#181818;stroke-width:1.0;stroke-dasharray:7.0,7.0;"/><polygon fill="#181818" points="1107.01,719.65,1102.9074,728.6037,1106.9529,724.6497,1110.9069,728.6951,1107.01,719.65" style="stroke:#181818;stroke-width:1.0;"/><text fill="#000000" font-family="sans-serif" font-size="13" lengthAdjust="spacing" textLength="60" x="1106.5" y="1028.4951">«extends»</text></g><!--MD5=[ab3aee5703323a3f6982d93043ae8c0e]
link MostrarInfoConsulta to MostrarInfo--><g id="link_MostrarInfoConsulta_MostrarInfo"><path d="M916.81,1323 C923.08,1323 929.36,1323 935.64,1323 " fill="none" id="MostrarInfoConsulta-to-MostrarInfo" style="stroke:#181818;stroke-width:1.0;"/><polygon fill="none" points="935.68,1316,955.68,1323,935.68,1330,935.68,1316" style="stroke:#181818;stroke-width:1.0;"/></g><!--MD5=[a5dfc29824370433ae7a9d42d41d1e37]
reverse link MostrarInfo to Parada--><g id="link_MostrarInfo_Parada"><path d="M1068.17,1380.78 C1064.45,1389.34 1060.78,1398.11 1057.5,1406.5 C1051.16,1422.7 1044.95,1441.7 1040.94,1454.46 " fill="none" id="MostrarInfo-backto-Parada" style="stroke:#181818;stroke-width:1.0;stroke-dasharray:7.0,7.0;"/><polygon fill="#181818" points="1070.24,1376.05,1062.9756,1382.7005,1068.2412,1380.6331,1070.3085,1385.8986,1070.24,1376.05" style="stroke:#181818;stroke-width:1.0;"/><text fill="#000000" font-family="sans-serif" font-size="13" lengthAdjust="spacing" textLength="60" x="1058.5" y="1420.9951">«extends»</text></g><!--MD5=[25ab5520e51599044e2785e24b3b8364]
reverse link MostrarInfo to Linea--><g id="link_MostrarInfo_Linea"><path d="M1116.87,1380.89 C1127.38,1407.64 1139.06,1437.36 1145.82,1454.55 " fill="none" id="MostrarInfo-backto-Linea" style="stroke:#181818;stroke-width:1.0;stroke-dasharray:7.0,7.0;"/><polygon fill="#181818" points="1114.92,1375.94,1114.486,1385.7793,1116.7474,1380.5941,1121.9326,1382.8555,1114.92,1375.94" style="stroke:#181818;stroke-width:1.0;"/><text fill="#000000" font-family="sans-serif" font-size="13" lengthAdjust="spacing" textLength="60" x="1133.5" y="1420.9951">«extends»</text></g><!--MD5=[e443775cb77a4357668a0b302f821dd1]
reverse link MostrarInfoConsulta to Itinerario--><g id="link_MostrarInfoConsulta_Itinerario"><path d="M740.5,1370.49 C740.5,1399.43 740.5,1434.74 740.5,1454.26 " fill="none" id="MostrarInfoConsulta-backto-Itinerario" style="stroke:#181818;stroke-width:1.0;stroke-dasharray:7.0,7.0;"/><polygon fill="#181818" points="740.5,1365.16,736.5,1374.16,740.5,1370.16,744.5,1374.16,740.5,1365.16" style="stroke:#181818;stroke-width:1.0;"/><text fill="#000000" font-family="sans-serif" font-size="13" lengthAdjust="spacing" textLength="60" x="741.5" y="1420.9951">«extends»</text></g><!--MD5=[e5774e3d4e84128a309b9956e5d7afa5]
@startuml SIIT
actor UI as "Usuario invitado"
actor UL as "Usuario Logueado"
actor Usuario
actor Subcontratado
actor Administrador
actor Comun

usecase (Modificar) as "Modificar datos"
usecase (Introducir) as "Introduccion manual de datos"


Usuario- -|>Comun
Administrador- -|>Comun

UI- -|>Usuario
UL- -|>Usuario

usecase (Ayuda) as  "Obtener ayuda en linea"
usecase (Consulta) as "Realizar Consulta"
usecase Horarios as "Visualizar listado de horarios y lineas
- -
extension points
Visualizar Informacion Adicional"
usecase (Potenciar) as "Introducir Parametros a potenciar"
usecase Origen as "Introducir origen y destino
- -
extension points
Utilizar mapa
Direccion
Barrio
Detalle Paradas
Evento Cultural"


usecase (Direccion) as "Direccion"
usecase (Barrio) as "Barrio"
usecase (Detalle) as "Detalle Paradas"
usecase (Evento) as "Evento Cultural"
usecase Mapa as "Utilizar Mapa
- -
extension points
Acercar
Alejar
Desplazar
Ir a mapa base
Centrar
"

usecase (Acercar) as "Acercar"
usecase (Alejar) as "Alejar"
usecase (Desplazar) as "Desplazar"
usecase (MapaB) as "Ir a mapa base"
usecase (Centrar) as "Centrar"


(Origen)<.up.(Mapa) : <<extends>>
(Origen)<..(Direccion) : <<extends>>
(Origen)<..(Barrio) : <<extends>>
(Origen)<..(Detalle) : <<extends>>
(Origen)<..(Evento) : <<extends>>


(Mapa)<..(Acercar) : <<extends>>
(Mapa)<.up.(Alejar) : <<extends>>
(Mapa)<.left.(Desplazar) : <<extends>>
(Mapa)<.up.(MapaB) : <<extends>>
(Mapa)<..(Centrar) : <<extends>>



Administrador- -Modificar
Administrador- -Introducir
Comun- -Horarios


usecase Parametros as "Introducir Parámetros
- -
extension points
Parametros a potenciar
"

Usuario- -Consulta
Usuario- -Ayuda
Subcontratado- -Ayuda

(Consulta)..>(Parametros) : <<include>> 
(Parametros)..>(Origen) : <<include>> 
(Parametros)<.up.(Potenciar) : <<extends>>



usecase Solucion as "Visualizar recorrido solución
- -
extension points
Visualizar Informacion Adicional"

usecase MostrarInfo as "Visualizar Informacion Adicional
- -
extension points
Parada
Linea"
usecase MostrarInfoConsulta as "Visualizar Informacion Adicional Consulta
- -
extensions points
Itinerario"


(Origen)...>(Solucion) : <<include>> 
(Solucion)<..MostrarInfoConsulta : <<extends>>
(Horarios)<.right.(MostrarInfo) : <<extends>>


(MostrarInfoConsulta)-right-|>(MostrarInfo)

(MostrarInfo)<..(Parada) : <<extends>>
(MostrarInfo)<..(Linea) : <<extends>>
(MostrarInfoConsulta)<..(Itinerario) : <<extends>>


@enduml

PlantUML version 1.2022.7(Mon Aug 22 19:01:30 CEST 2022)
(GPL source distribution)
Java Runtime: OpenJDK Runtime Environment
JVM: OpenJDK 64-Bit Server VM
Default Encoding: Cp1252
Language: es
Country: ES
--></g></svg>