<?xml version="1.0" encoding="UTF-8" standalone="no"?><svg xmlns="http://www.w3.org/2000/svg" xmlns:xlink="http://www.w3.org/1999/xlink" contentStyleType="text/css" height="700px" preserveAspectRatio="none" style="width:1262px;height:700px;background:#FFFFFF;" version="1.1" viewBox="0 0 1262 700" width="1262px" zoomAndPan="magnify"><defs/><g><!--MD5=[fda804f4b1e9f28a64af912045712f46]
entity Gestor--><g id="elem_Gestor"><ellipse cx="770.5" cy="333" fill="#F1F1F1" rx="8" ry="8" style="stroke:#181818;stroke-width:0.5;"/><path d="M770.5,341 L770.5,368 M757.5,349 L783.5,349 M770.5,368 L757.5,383 M770.5,368 L783.5,383 " fill="none" style="stroke:#181818;stroke-width:0.5;"/><text fill="#000000" font-family="sans-serif" font-size="14" lengthAdjust="spacing" textLength="43" x="749" y="399.0332">Gestor</text></g><!--MD5=[128f0757cf0ea77f14e95a88885fd9f7]
entity Usuario--><g id="elem_Usuario"><ellipse cx="478.5" cy="486.5" fill="#F1F1F1" rx="8" ry="8" style="stroke:#181818;stroke-width:0.5;"/><path d="M478.5,494.5 L478.5,521.5 M465.5,502.5 L491.5,502.5 M478.5,521.5 L465.5,536.5 M478.5,521.5 L491.5,536.5 " fill="none" style="stroke:#181818;stroke-width:0.5;"/><text fill="#000000" font-family="sans-serif" font-size="14" lengthAdjust="spacing" textLength="48" x="454.5" y="552.5332">Usuario</text></g><!--MD5=[d4df9ba3b0a137211828d4d66ada4284]
entity Abstracto--><g id="elem_Abstracto"><ellipse cx="740.5" cy="625.5" fill="#F1F1F1" rx="8" ry="8" style="stroke:#181818;stroke-width:0.5;"/><path d="M740.5,633.5 L740.5,660.5 M727.5,641.5 L753.5,641.5 M740.5,660.5 L727.5,675.5 M740.5,660.5 L753.5,675.5 " fill="none" style="stroke:#181818;stroke-width:0.5;"/><text fill="#000000" font-family="sans-serif" font-size="14" lengthAdjust="spacing" textLength="60" x="710.5" y="691.5332">Abstracto</text></g><g id="elem_Elaborar listas"><ellipse cx="975.3567" cy="177.0713" fill="#F1F1F1" rx="70.8567" ry="16.5713" style="stroke:#181818;stroke-width:0.5;"/><text fill="#000000" font-family="sans-serif" font-size="14" lengthAdjust="spacing" textLength="90" x="927.3567" y="181.5879">Elaborar listas</text></g><g id="elem_Elaborar estadisticas"><ellipse cx="1169.3923" cy="176.8785" fill="#F1F1F1" rx="87.3923" ry="19.8785" style="stroke:#181818;stroke-width:0.5;"/><text fill="#000000" font-family="sans-serif" font-size="14" lengthAdjust="spacing" textLength="132" x="1103.3923" y="180.607">Elaborar estadisticas</text></g><g id="elem_EC"><ellipse cx="770.6377" cy="176.7754" fill="#F1F1F1" rx="98.6377" ry="45.7754" style="stroke:#181818;stroke-width:0.5;"/><text fill="#000000" font-family="sans-serif" font-size="14" lengthAdjust="spacing" textLength="124" x="709.3877" y="158.8946">Elaborar calendario</text><line style="stroke:#181818;stroke-width:1.0;" x1="678.3012" x2="862.9741" y1="161.9708" y2="161.9708"/><text fill="#000000" font-family="sans-serif" font-size="14" lengthAdjust="spacing" textLength="103" x="719.8877" y="180.504">extension ponts:</text><text fill="#000000" font-family="sans-serif" font-size="14" lengthAdjust="spacing" textLength="121" x="710.8877" y="198.1133">Organizar jornadas</text></g><g id="elem_Organizar jornadas"><ellipse cx="770.2516" cy="24.9503" fill="#F1F1F1" rx="82.7516" ry="18.9503" style="stroke:#181818;stroke-width:0.5;"/><text fill="#000000" font-family="sans-serif" font-size="14" lengthAdjust="spacing" textLength="121" x="709.7516" y="28.6788">Organizar jornadas</text></g><g id="elem_Reg"><ellipse cx="348.6154" cy="363.3301" fill="#F1F1F1" rx="94.1154" ry="53.3301" style="stroke:#181818;stroke-width:0.5;"/><text fill="#000000" font-family="sans-serif" font-size="14" lengthAdjust="spacing" textLength="73" x="302.8341" y="334.4508">Registrarse</text><line style="stroke:#181818;stroke-width:1.0;" x1="267.2496" x2="429.9813" y1="337.5269" y2="337.5269"/><text fill="#000000" font-family="sans-serif" font-size="14" lengthAdjust="spacing" textLength="106" x="286.3341" y="356.0601">extension points:</text><text fill="#000000" font-family="sans-serif" font-size="14" lengthAdjust="spacing" textLength="130" x="274.3341" y="373.6695">Enviar notificaciones</text><text fill="#000000" font-family="sans-serif" font-size="14" lengthAdjust="spacing" textLength="112" x="283.3341" y="391.2789">Ver notificaciones</text></g><g id="elem_RegG"><ellipse cx="519.4442" cy="177.1902" fill="#F1F1F1" rx="117.4442" ry="55.1902" style="stroke:#181818;stroke-width:0.5;"/><text fill="#000000" font-family="sans-serif" font-size="14" lengthAdjust="spacing" textLength="160" x="440.8044" y="154.5954">Registrarse (vista gestor)</text><line style="stroke:#181818;stroke-width:1.0;" x1="410.59" x2="628.2984" y1="157.6716" y2="157.6716"/><text fill="#000000" font-family="sans-serif" font-size="14" lengthAdjust="spacing" textLength="106" x="467.8044" y="176.2048">extension points:</text><text fill="#000000" font-family="sans-serif" font-size="14" lengthAdjust="spacing" textLength="90" x="475.8044" y="193.8142">Subir archivos</text><text fill="#000000" font-family="sans-serif" font-size="14" lengthAdjust="spacing" textLength="113" x="464.3044" y="211.4235">Acceder a reports</text></g><g id="elem_Ver listas"><ellipse cx="740.2806" cy="517.0229" fill="#F1F1F1" rx="52.7806" ry="15.5229" style="stroke:#181818;stroke-width:0.5;"/><text fill="#000000" font-family="sans-serif" font-size="14" lengthAdjust="spacing" textLength="58" x="708.2806" y="521.5395">Ver listas</text></g><g id="elem_Ver calendario"><ellipse cx="900.5677" cy="517.2135" fill="#F1F1F1" rx="71.5677" ry="16.7135" style="stroke:#181818;stroke-width:0.5;"/><text fill="#000000" font-family="sans-serif" font-size="14" lengthAdjust="spacing" textLength="92" x="851.5677" y="521.7301">Ver calendario</text></g><g id="elem_Descargar archivos"><ellipse cx="1090.5873" cy="517.1175" fill="#F1F1F1" rx="83.5873" ry="19.1175" style="stroke:#181818;stroke-width:0.5;"/><text fill="#000000" font-family="sans-serif" font-size="14" lengthAdjust="spacing" textLength="123" x="1029.0873" y="520.846">Descargar archivos</text></g><g id="elem_Subir archivos"><ellipse cx="550.3567" cy="25.0713" fill="#F1F1F1" rx="70.8567" ry="16.5713" style="stroke:#181818;stroke-width:0.5;"/><text fill="#000000" font-family="sans-serif" font-size="14" lengthAdjust="spacing" textLength="90" x="502.3567" y="29.5879">Subir archivos</text></g><g id="elem_Acceder a reports"><ellipse cx="364.4775" cy="24.7955" fill="#F1F1F1" rx="79.4775" ry="18.2955" style="stroke:#181818;stroke-width:0.5;"/><text fill="#000000" font-family="sans-serif" font-size="14" lengthAdjust="spacing" textLength="113" x="306.756" y="28.8709">Acceder a reports</text></g><g id="elem_Enviar notificaciones"><ellipse cx="92.5408" cy="177.2082" fill="#F1F1F1" rx="86.5408" ry="19.7082" style="stroke:#181818;stroke-width:0.5;"/><text fill="#000000" font-family="sans-serif" font-size="14" lengthAdjust="spacing" textLength="130" x="27.5408" y="180.9367">Enviar notificaciones</text></g><g id="elem_Ver notificacines"><ellipse cx="290.4763" cy="177.0953" fill="#F1F1F1" rx="75.9763" ry="17.5953" style="stroke:#181818;stroke-width:0.5;"/><text fill="#000000" font-family="sans-serif" font-size="14" lengthAdjust="spacing" textLength="104" x="235.5467" y="181.5957">Ver notificacines</text></g><!--MD5=[c19aaf033f207a02844213abed1e09aa]
link Elaborar listas to Gestor--><g id="link_Elaborar listas_Gestor"><path d="M958.72,193.1 C921.72,226.4 833.12,306.14 792.06,343.09 " fill="none" id="Elaborar listas-Gestor" style="stroke:#181818;stroke-width:1.0;"/></g><!--MD5=[c426ee29e9c4ee187ba63d9429f78d00]
link Elaborar estadisticas to Gestor--><g id="link_Elaborar estadisticas_Gestor"><path d="M1136.17,195.76 C1115.65,206.54 1088.72,220.41 1064.5,232 C963.76,280.22 840.98,332.75 792.09,353.42 " fill="none" id="Elaborar estadisticas-Gestor" style="stroke:#181818;stroke-width:1.0;"/></g><!--MD5=[379713c4a3c2ff06c3682cb818064f3c]
link EC to Gestor--><g id="link_EC_Gestor"><path d="M770.5,223.13 C770.5,254.18 770.5,294.95 770.5,324.37 " fill="none" id="EC-Gestor" style="stroke:#181818;stroke-width:1.0;"/></g><!--MD5=[79867fbd0fdd9f64d23d0b9532212017]
link Organizar jornadas to EC--><g id="link_Organizar jornadas_EC"><path d="M770.5,44.09 C770.5,64.19 770.5,97.52 770.5,125.64 " fill="none" id="Organizar jornadas-to-EC" style="stroke:#181818;stroke-width:1.0;stroke-dasharray:7.0,7.0;"/><polygon fill="#181818" points="770.5,130.83,774.5,121.83,770.5,125.83,766.5,121.83,770.5,130.83" style="stroke:#181818;stroke-width:1.0;"/><text fill="#000000" font-family="sans-serif" font-size="13" lengthAdjust="spacing" textLength="53" x="771.5" y="88.4951">«extend»</text></g><!--MD5=[6799a7898c2dd8f7da05a29406547494]
link Gestor to Abstracto--><g id="link_Gestor_Abstracto"><path d="M748.93,380.48 C724.29,400.22 685.35,436.34 669.5,478 C657.17,510.4 658.89,523 669.5,556 C675.49,574.63 686.43,592.73 697.95,608.24 " fill="none" id="Gestor-to-Abstracto" style="stroke:#181818;stroke-width:1.0;"/><polygon fill="none" points="703.49,603.96,710.48,623.97,692.54,612.69,703.49,603.96" style="stroke:#181818;stroke-width:1.0;"/></g><!--MD5=[4642d3bc2a2c49ea2b5782acbb619043]
link Usuario to Abstracto--><g id="link_Usuario_Abstracto"><path d="M502.89,531.06 C528.98,545 571.59,567.7 608.5,587 C636.26,601.52 667.41,617.57 692.48,630.44 " fill="none" id="Usuario-to-Abstracto" style="stroke:#181818;stroke-width:1.0;"/><polygon fill="none" points="695.7,624.22,710.3,639.58,689.31,636.68,695.7,624.22" style="stroke:#181818;stroke-width:1.0;"/></g><!--MD5=[749bee52701d452c22c486298f27ae8d]
link Ver listas to Abstracto--><g id="link_Ver listas_Abstracto"><path d="M740.5,532.66 C740.5,552.61 740.5,589.02 740.5,616.95 " fill="none" id="Ver listas-Abstracto" style="stroke:#181818;stroke-width:1.0;"/></g><!--MD5=[9d150e6854145025b6c261b4e081c073]
link Ver calendario to Abstracto--><g id="link_Ver calendario_Abstracto"><path d="M882.77,533.18 C855.67,556.38 803.64,600.93 770.57,629.25 " fill="none" id="Ver calendario-Abstracto" style="stroke:#181818;stroke-width:1.0;"/></g><!--MD5=[ca09537bb041712ef7071e0d34313f1d]
link Descargar archivos to Abstracto--><g id="link_Descargar archivos_Abstracto"><path d="M1050.35,533.72 C979.43,561.48 833.52,618.59 770.53,643.24 " fill="none" id="Descargar archivos-Abstracto" style="stroke:#181818;stroke-width:1.0;"/></g><!--MD5=[15b0f1bebdb52e4481fb17ff94cabf06]
link Reg to Usuario--><g id="link_Reg_Usuario"><path d="M389.28,412.02 C410.57,436.84 435.92,466.37 454.14,487.61 " fill="none" id="Reg-Usuario" style="stroke:#181818;stroke-width:1.0;"/></g><!--MD5=[a32de681e14e3b07ad745c564c6b5718]
link RegG to Gestor--><g id="link_RegG_Gestor"><path d="M581.87,223.84 C636.31,263.86 712.19,319.64 748.91,346.63 " fill="none" id="RegG-Gestor" style="stroke:#181818;stroke-width:1.0;"/></g><!--MD5=[9fb7e295e85c950dcd8bd8d7c6cb034b]
link Subir archivos to RegG--><g id="link_Subir archivos_RegG"><path d="M547.3,41.49 C543.61,59.32 537.34,89.67 531.69,117.03 " fill="none" id="Subir archivos-to-RegG" style="stroke:#181818;stroke-width:1.0;stroke-dasharray:7.0,7.0;"/><polygon fill="#181818" points="530.64,122.1,536.3813,114.0976,531.6535,117.2038,528.5473,112.476,530.64,122.1" style="stroke:#181818;stroke-width:1.0;"/><text fill="#000000" font-family="sans-serif" font-size="13" lengthAdjust="spacing" textLength="53" x="541.5" y="88.4951">«extend»</text></g><!--MD5=[e1a119642126a662cac13567ed5aef6c]
link Acceder a reports to RegG--><g id="link_Acceder a reports_RegG"><path d="M382.28,43.21 C402.37,62.65 436.05,95.24 465.01,123.27 " fill="none" id="Acceder a reports-to-RegG" style="stroke:#181818;stroke-width:1.0;stroke-dasharray:7.0,7.0;"/><polygon fill="#181818" points="468.88,127.01,465.2148,117.8685,465.2948,123.5248,459.6385,123.6048,468.88,127.01" style="stroke:#181818;stroke-width:1.0;"/><text fill="#000000" font-family="sans-serif" font-size="13" lengthAdjust="spacing" textLength="53" x="429.5" y="88.4951">«extend»</text></g><!--MD5=[ba159a30bfc3c5a40486b26dd9aa9b0a]
link RegG to Reg--><g id="link_RegG_Reg"><path d="M473.22,227.93 C452.35,250.45 427.5,277.26 405.5,301 " fill="none" id="RegG-to-Reg" style="stroke:#181818;stroke-width:1.0;"/><polygon fill="none" points="410.6,305.79,391.87,315.7,400.33,296.28,410.6,305.79" style="stroke:#181818;stroke-width:1.0;"/></g><!--MD5=[6d077c4b681255c17d14092e360e9cfe]
link Enviar notificaciones to Reg--><g id="link_Enviar notificaciones_Reg"><path d="M117.51,196.03 C156.38,224.04 232.45,278.86 286.67,317.94 " fill="none" id="Enviar notificaciones-to-Reg" style="stroke:#181818;stroke-width:1.0;stroke-dasharray:7.0,7.0;"/><polygon fill="#181818" points="290.86,320.96,285.9037,312.4491,286.8059,318.0336,281.2214,318.9358,290.86,320.96" style="stroke:#181818;stroke-width:1.0;"/><text fill="#000000" font-family="sans-serif" font-size="13" lengthAdjust="spacing" textLength="53" x="229.5" y="276.4951">«extend»</text></g><!--MD5=[94afde305f401357ba4e50f0a0321273]
link Ver notificacines to Reg--><g id="link_Ver notificacines_Reg"><path d="M295.75,194.7 C303.54,219.49 318.54,267.21 330.56,305.44 " fill="none" id="Ver notificacines-to-Reg" style="stroke:#181818;stroke-width:1.0;stroke-dasharray:7.0,7.0;"/><polygon fill="#181818" points="332.16,310.53,333.2768,300.7447,330.6605,305.7601,325.645,303.1439,332.16,310.53" style="stroke:#181818;stroke-width:1.0;"/><text fill="#000000" font-family="sans-serif" font-size="13" lengthAdjust="spacing" textLength="53" x="322.5" y="276.4951">«extend»</text></g><!--MD5=[650924b3e28703af417e79711b26bbb8]
@startuml Actividad0
actor Gestor
actor Usuario
actor Abstracto
(Elaborar listas)- -Gestor
(Elaborar estadisticas)- -Gestor
usecase EC as "Elaborar calendario 
- -
 extension ponts: 
 Organizar jornadas"
 (EC)- -Gestor
 (Organizar jornadas)..>(EC) : <<extend>>
 usecase Reg as "Registrarse
 - -
 extension points:
 Enviar notificaciones
 Ver notificaciones"
 usecase RegG as "Registrarse (vista gestor)
 - -
 extension points:
 Subir archivos
 Acceder a reports"
 Gestor- -|>Abstracto
 Usuario- -|>Abstracto
 (Ver listas)- -Abstracto
 (Ver calendario)- -Abstracto
 (Descargar archivos)- -Abstracto
 (Reg)- -Usuario
 (RegG)- -Gestor
 (Subir archivos)..>RegG : <<extend>>
 (Acceder a reports)..>RegG : <<extend>>
(RegG)- -|>(Reg)
(Enviar notificaciones)..>(Reg) : <<extend>>
(Ver notificacines)..>(Reg) : <<extend>>
@end

PlantUML version 1.2022.7(Mon Aug 22 19:01:30 CEST 2022)
(GPL source distribution)
Java Runtime: OpenJDK Runtime Environment
JVM: OpenJDK 64-Bit Server VM
Default Encoding: Cp1252
Language: es
Country: ES
--></g></svg>