<?xml version="1.0" encoding="UTF-8" standalone="no"?><svg xmlns="http://www.w3.org/2000/svg" xmlns:xlink="http://www.w3.org/1999/xlink" contentStyleType="text/css" height="504px" preserveAspectRatio="none" style="width:1598px;height:504px;background:#FFFFFF;" version="1.1" viewBox="0 0 1598 504" width="1598px" zoomAndPan="magnify"><defs/><g><!--MD5=[fda804f4b1e9f28a64af912045712f46]
entity Gestor--><g id="elem_Gestor"><ellipse cx="893" cy="290.5" fill="#F1F1F1" rx="8" ry="8" style="stroke:#181818;stroke-width:0.5;"/><path d="M893,298.5 L893,325.5 M880,306.5 L906,306.5 M893,325.5 L880,340.5 M893,325.5 L906,340.5 " fill="none" style="stroke:#181818;stroke-width:0.5;"/><text fill="#000000" font-family="sans-serif" font-size="14" lengthAdjust="spacing" textLength="43" x="871.5" y="356.5332">Gestor</text></g><!--MD5=[128f0757cf0ea77f14e95a88885fd9f7]
entity Usuario--><g id="elem_Usuario"><ellipse cx="387" cy="290.5" fill="#F1F1F1" rx="8" ry="8" style="stroke:#181818;stroke-width:0.5;"/><path d="M387,298.5 L387,325.5 M374,306.5 L400,306.5 M387,325.5 L374,340.5 M387,325.5 L400,340.5 " fill="none" style="stroke:#181818;stroke-width:0.5;"/><text fill="#000000" font-family="sans-serif" font-size="14" lengthAdjust="spacing" textLength="48" x="363" y="356.5332">Usuario</text></g><!--MD5=[d4df9ba3b0a137211828d4d66ada4284]
entity Abstracto--><g id="elem_Abstracto"><ellipse cx="1003" cy="429.5" fill="#F1F1F1" rx="8" ry="8" style="stroke:#181818;stroke-width:0.5;"/><path d="M1003,437.5 L1003,464.5 M990,445.5 L1016,445.5 M1003,464.5 L990,479.5 M1003,464.5 L1016,479.5 " fill="none" style="stroke:#181818;stroke-width:0.5;"/><text fill="#000000" font-family="sans-serif" font-size="14" lengthAdjust="spacing" textLength="60" x="973" y="495.5332">Abstracto</text></g><g id="elem_Elaborar listas"><ellipse cx="1310.8567" cy="175.0713" fill="#F1F1F1" rx="70.8567" ry="16.5713" style="stroke:#181818;stroke-width:0.5;"/><text fill="#000000" font-family="sans-serif" font-size="14" lengthAdjust="spacing" textLength="90" x="1262.8567" y="179.5879">Elaborar listas</text></g><g id="elem_Elaborar estadisticas"><ellipse cx="1504.8923" cy="174.8785" fill="#F1F1F1" rx="87.3923" ry="19.8785" style="stroke:#181818;stroke-width:0.5;"/><text fill="#000000" font-family="sans-serif" font-size="14" lengthAdjust="spacing" textLength="132" x="1438.8923" y="178.607">Elaborar estadisticas</text></g><g id="elem_EC"><ellipse cx="1106.1377" cy="174.7754" fill="#F1F1F1" rx="98.6377" ry="45.7754" style="stroke:#181818;stroke-width:0.5;"/><text fill="#000000" font-family="sans-serif" font-size="14" lengthAdjust="spacing" textLength="124" x="1044.8877" y="156.8946">Elaborar calendario</text><line style="stroke:#181818;stroke-width:1.0;" x1="1013.8012" x2="1198.4741" y1="159.9708" y2="159.9708"/><text fill="#000000" font-family="sans-serif" font-size="14" lengthAdjust="spacing" textLength="103" x="1055.3877" y="178.504">extension ponts:</text><text fill="#000000" font-family="sans-serif" font-size="14" lengthAdjust="spacing" textLength="121" x="1046.3877" y="196.1133">Organizar jornadas</text></g><g id="elem_Organizar jornadas"><ellipse cx="1105.7516" cy="28.4503" fill="#F1F1F1" rx="82.7516" ry="18.9503" style="stroke:#181818;stroke-width:0.5;"/><text fill="#000000" font-family="sans-serif" font-size="14" lengthAdjust="spacing" textLength="121" x="1045.2516" y="32.1788">Organizar jornadas</text></g><g id="elem_Reg"><ellipse cx="256.8631" cy="175.109" fill="#F1F1F1" rx="63.8631" ry="15.609" style="stroke:#181818;stroke-width:0.5;"/><text fill="#000000" font-family="sans-serif" font-size="14" lengthAdjust="spacing" textLength="73" x="217.3631" y="179.6256">Registrarse</text></g><g id="elem_RegG"><ellipse cx="491.113" cy="28.3226" fill="#F1F1F1" rx="99.613" ry="22.3226" style="stroke:#181818;stroke-width:0.5;"/><text fill="#000000" font-family="sans-serif" font-size="14" lengthAdjust="spacing" textLength="160" x="411.113" y="32.0511">Registrarse (vista gestor)</text></g><g id="elem_Ver listas"><ellipse cx="1002.7806" cy="321.0229" fill="#F1F1F1" rx="52.7806" ry="15.5229" style="stroke:#181818;stroke-width:0.5;"/><text fill="#000000" font-family="sans-serif" font-size="14" lengthAdjust="spacing" textLength="58" x="970.7806" y="325.5395">Ver listas</text></g><g id="elem_Ver calendario"><ellipse cx="1163.0677" cy="321.2135" fill="#F1F1F1" rx="71.5677" ry="16.7135" style="stroke:#181818;stroke-width:0.5;"/><text fill="#000000" font-family="sans-serif" font-size="14" lengthAdjust="spacing" textLength="92" x="1114.0677" y="325.7301">Ver calendario</text></g><g id="elem_Descargar archivos"><ellipse cx="1353.0873" cy="321.1175" fill="#F1F1F1" rx="83.5873" ry="19.1175" style="stroke:#181818;stroke-width:0.5;"/><text fill="#000000" font-family="sans-serif" font-size="14" lengthAdjust="spacing" textLength="123" x="1291.5873" y="324.846">Descargar archivos</text></g><g id="elem_Subir archivos"><ellipse cx="706.8567" cy="175.0713" fill="#F1F1F1" rx="70.8567" ry="16.5713" style="stroke:#181818;stroke-width:0.5;"/><text fill="#000000" font-family="sans-serif" font-size="14" lengthAdjust="spacing" textLength="90" x="658.8567" y="179.5879">Subir archivos</text></g><g id="elem_Acceder a reports"><ellipse cx="892.9775" cy="174.7955" fill="#F1F1F1" rx="79.4775" ry="18.2955" style="stroke:#181818;stroke-width:0.5;"/><text fill="#000000" font-family="sans-serif" font-size="14" lengthAdjust="spacing" textLength="113" x="835.256" y="178.8709">Acceder a reports</text></g><g id="elem_Enviar notificaciones"><ellipse cx="443.0408" cy="175.2082" fill="#F1F1F1" rx="86.5408" ry="19.7082" style="stroke:#181818;stroke-width:0.5;"/><text fill="#000000" font-family="sans-serif" font-size="14" lengthAdjust="spacing" textLength="130" x="378.0408" y="178.9367">Enviar notificaciones</text></g><g id="elem_Ver notificacines"><ellipse cx="81.9763" cy="175.0953" fill="#F1F1F1" rx="75.9763" ry="17.5953" style="stroke:#181818;stroke-width:0.5;"/><text fill="#000000" font-family="sans-serif" font-size="14" lengthAdjust="spacing" textLength="104" x="27.0467" y="179.5957">Ver notificacines</text></g><!--MD5=[c19aaf033f207a02844213abed1e09aa]
link Elaborar listas to Gestor--><g id="link_Elaborar listas_Gestor"><path d="M1286.45,190.6 C1268.99,200.44 1244.7,213.02 1222,221 C1098.16,264.54 1049.2,220.93 933,282 C926.39,285.48 920.09,290.36 914.53,295.47 " fill="none" id="Elaborar listas-Gestor" style="stroke:#181818;stroke-width:1.0;"/></g><!--MD5=[c426ee29e9c4ee187ba63d9429f78d00]
link Elaborar estadisticas to Gestor--><g id="link_Elaborar estadisticas_Gestor"><path d="M1470.86,193.47 C1450.73,203.04 1424.48,214.29 1400,221 C1299.06,248.65 1027.47,236.97 933,282 C926.43,285.13 920.23,289.75 914.77,294.7 " fill="none" id="Elaborar estadisticas-Gestor" style="stroke:#181818;stroke-width:1.0;"/></g><!--MD5=[379713c4a3c2ff06c3682cb818064f3c]
link EC to Gestor--><g id="link_EC_Gestor"><path d="M1042.67,210.5 C1008.98,229.91 967.51,255.51 933,282 C926.77,286.78 920.43,292.4 914.68,297.83 " fill="none" id="EC-Gestor" style="stroke:#181818;stroke-width:1.0;"/></g><!--MD5=[79867fbd0fdd9f64d23d0b9532212017]
link Organizar jornadas to EC--><g id="link_Organizar jornadas_EC"><path d="M1106,47.51 C1106,66.45 1106,97.1 1106,123.49 " fill="none" id="Organizar jornadas-to-EC" style="stroke:#181818;stroke-width:1.0;stroke-dasharray:7.0,7.0;"/><polygon fill="#181818" points="1106,128.7,1110,119.7,1106,123.7,1102,119.7,1106,128.7" style="stroke:#181818;stroke-width:1.0;"/><text fill="#000000" font-family="sans-serif" font-size="13" lengthAdjust="spacing" textLength="53" x="1107" y="95.4951">«extend»</text></g><!--MD5=[6799a7898c2dd8f7da05a29406547494]
link Gestor to Abstracto--><g id="link_Gestor_Abstracto"><path d="M914.73,349.07 C927.74,365.27 944.73,386.43 960.33,405.86 " fill="none" id="Gestor-to-Abstracto" style="stroke:#181818;stroke-width:1.0;"/><polygon fill="none" points="965.92,401.64,972.99,421.62,955.01,410.41,965.92,401.64" style="stroke:#181818;stroke-width:1.0;"/></g><!--MD5=[4642d3bc2a2c49ea2b5782acbb619043]
link Usuario to Abstracto--><g id="link_Usuario_Abstracto"><path d="M411.15,327.37 C502.41,347.67 827.43,419.95 952.99,447.88 " fill="none" id="Usuario-to-Abstracto" style="stroke:#181818;stroke-width:1.0;"/><polygon fill="none" points="954.7,441.09,972.7,452.26,951.66,454.75,954.7,441.09" style="stroke:#181818;stroke-width:1.0;"/></g><!--MD5=[749bee52701d452c22c486298f27ae8d]
link Ver listas to Abstracto--><g id="link_Ver listas_Abstracto"><path d="M1003,336.66 C1003,356.61 1003,393.02 1003,420.95 " fill="none" id="Ver listas-Abstracto" style="stroke:#181818;stroke-width:1.0;"/></g><!--MD5=[9d150e6854145025b6c261b4e081c073]
link Ver calendario to Abstracto--><g id="link_Ver calendario_Abstracto"><path d="M1145.27,337.18 C1118.17,360.38 1066.14,404.93 1033.07,433.25 " fill="none" id="Ver calendario-Abstracto" style="stroke:#181818;stroke-width:1.0;"/></g><!--MD5=[ca09537bb041712ef7071e0d34313f1d]
link Descargar archivos to Abstracto--><g id="link_Descargar archivos_Abstracto"><path d="M1312.85,337.72 C1241.93,365.48 1096.02,422.59 1033.03,447.24 " fill="none" id="Descargar archivos-Abstracto" style="stroke:#181818;stroke-width:1.0;"/></g><!--MD5=[15b0f1bebdb52e4481fb17ff94cabf06]
link Reg to Usuario--><g id="link_Reg_Usuario"><path d="M269.94,190.33 C291.58,214.31 335.45,262.9 362.91,293.31 " fill="none" id="Reg-Usuario" style="stroke:#181818;stroke-width:1.0;"/></g><!--MD5=[a32de681e14e3b07ad745c564c6b5718]
link RegG to Gestor--><g id="link_RegG_Gestor"><path d="M503.01,51.12 C528.25,95.91 587.01,196.68 618,221 C698.24,283.97 822.01,309.09 871.48,316.97 " fill="none" id="RegG-Gestor" style="stroke:#181818;stroke-width:1.0;"/></g><!--MD5=[0c78f3ce888c0bc7139dcd5891d5844d]
link Subir archivos to Gestor--><g id="link_Subir archivos_Gestor"><path d="M726.55,191.14 C761.62,218.29 834.95,275.06 871.43,303.3 " fill="none" id="Subir archivos-Gestor" style="stroke:#181818;stroke-width:1.0;"/></g><!--MD5=[d3bb88b6e3731baae634be736de432b9]
link Acceder a reports to Gestor--><g id="link_Acceder a reports_Gestor"><path d="M893,193.66 C893,215.51 893,253.34 893,281.92 " fill="none" id="Acceder a reports-Gestor" style="stroke:#181818;stroke-width:1.0;"/></g><!--MD5=[ba159a30bfc3c5a40486b26dd9aa9b0a]
link RegG to Reg--><g id="link_RegG_Reg"><path d="M457.97,49.9 C415.44,76.16 341.61,121.75 296.25,149.76 " fill="none" id="RegG-to-Reg" style="stroke:#181818;stroke-width:1.0;"/><polygon fill="none" points="299.7,155.86,279.01,160.41,292.35,143.95,299.7,155.86" style="stroke:#181818;stroke-width:1.0;"/></g><!--MD5=[4098e50788692b16ff44934f1a8929a4]
link Enviar notificaciones to Usuario--><g id="link_Enviar notificaciones_Usuario"><path d="M435.79,194.53 C427.26,216.48 412.81,253.63 401.85,281.82 " fill="none" id="Enviar notificaciones-Usuario" style="stroke:#181818;stroke-width:1.0;"/></g><!--MD5=[33e58c70694ad463c7042a54ac21acde]
link Ver notificacines to Usuario--><g id="link_Ver notificacines_Usuario"><path d="M112.95,191.11 C131.01,199.89 154.26,211.14 175,221 C242.87,253.27 323.36,290.6 362.79,308.82 " fill="none" id="Ver notificacines-Usuario" style="stroke:#181818;stroke-width:1.0;"/></g><!--MD5=[7eb141f4896fa246b95aecbd399a2b65]
@startuml Actividad0
actor Gestor
actor Usuario
actor Abstracto
(Elaborar listas)- -Gestor
(Elaborar estadisticas)- -Gestor
usecase EC as "Elaborar calendario 
- -
 extension ponts: 
 Organizar jornadas"
 (EC)- -Gestor
 (Organizar jornadas)..>(EC) : <<extend>>
 usecase Reg as "Registrarse
 "
 usecase RegG as "Registrarse (vista gestor)
 "
 
 Gestor- -|>Abstracto
 Usuario- -|>Abstracto
 (Ver listas)- -Abstracto
 (Ver calendario)- -Abstracto
 (Descargar archivos)- -Abstracto
 (Reg)- -Usuario
 (RegG)- -Gestor
 (Subir archivos)- -Gestor
 (Acceder a reports)- -Gestor 
(RegG)- -|>(Reg)
(Enviar notificaciones)- - Usuario
(Ver notificacines)- -Usuario 
@enduml

PlantUML version 1.2022.7(Mon Aug 22 19:01:30 CEST 2022)
(GPL source distribution)
Java Runtime: OpenJDK Runtime Environment
JVM: OpenJDK 64-Bit Server VM
Default Encoding: Cp1252
Language: es
Country: ES
--></g></svg>