<?xml version="1.0" encoding="UTF-8" standalone="no"?><svg xmlns="http://www.w3.org/2000/svg" xmlns:xlink="http://www.w3.org/1999/xlink" contentStyleType="text/css" height="532px" preserveAspectRatio="none" style="width:2345px;height:532px;background:#FFFFFF;" version="1.1" viewBox="0 0 2345 532" width="2345px" zoomAndPan="magnify"><defs/><g><!--MD5=[9a762eefa6a5e3fba0376d4fc87b4ea8]
entity OA--><g id="elem_OA"><ellipse cx="1444.34" cy="171.5" fill="#F1F1F1" rx="8" ry="8" style="stroke:#181818;stroke-width:0.5;"/><path d="M1444.34,179.5 L1444.34,206.5 M1431.34,187.5 L1457.34,187.5 M1444.34,206.5 L1431.34,221.5 M1444.34,206.5 L1457.34,221.5 " fill="none" style="stroke:#181818;stroke-width:0.5;"/><text fill="#000000" font-family="sans-serif" font-size="14" lengthAdjust="spacing" textLength="146" x="1371.34" y="237.5332">Operador adjudicatario</text></g><!--MD5=[9544e8f9a50b6f5806c8e28b91970f7d]
entity Operador--><g id="elem_Operador"><ellipse cx="644.34" cy="171.5" fill="#F1F1F1" rx="8" ry="8" style="stroke:#181818;stroke-width:0.5;"/><path d="M644.34,179.5 L644.34,206.5 M631.34,187.5 L657.34,187.5 M644.34,206.5 L631.34,221.5 M644.34,206.5 L657.34,221.5 " fill="none" style="stroke:#181818;stroke-width:0.5;"/><text fill="#000000" font-family="sans-serif" font-size="14" lengthAdjust="spacing" textLength="61" x="613.84" y="237.5332">Operador</text></g><!--MD5=[6b408a1975284960d5de2ef41f0ce8fc]
entity UR--><g id="elem_UR"><ellipse cx="216.34" cy="171.5" fill="#F1F1F1" rx="8" ry="8" style="stroke:#181818;stroke-width:0.5;"/><path d="M216.34,179.5 L216.34,206.5 M203.34,187.5 L229.34,187.5 M216.34,206.5 L203.34,221.5 M216.34,206.5 L229.34,221.5 " fill="none" style="stroke:#181818;stroke-width:0.5;"/><text fill="#000000" font-family="sans-serif" font-size="14" lengthAdjust="spacing" textLength="111" x="160.84" y="237.5332">Usuario logueado</text></g><!--MD5=[2ef883c7bda54365519191918ae31df7]
entity UNR--><g id="elem_UNR"><ellipse cx="216.34" cy="14" fill="#F1F1F1" rx="8" ry="8" style="stroke:#181818;stroke-width:0.5;"/><path d="M216.34,22 L216.34,49 M203.34,30 L229.34,30 M216.34,49 L203.34,64 M216.34,49 L229.34,64 " fill="none" style="stroke:#181818;stroke-width:0.5;"/><text fill="#000000" font-family="sans-serif" font-size="14" lengthAdjust="spacing" textLength="131" x="150.84" y="80.0332">Usuario no logueado</text></g><g id="elem_VisualAct"><ellipse cx="1187.504" cy="201.8551" fill="#F1F1F1" rx="148.664" ry="40.3551" style="stroke:#181818;stroke-width:0.5;"/><text fill="#000000" font-family="sans-serif" font-size="14" lengthAdjust="spacing" textLength="60" x="1155.504" y="187.9743">Visualizar</text><text fill="#000000" font-family="sans-serif" font-size="14" lengthAdjust="spacing" textLength="190" x="1090.504" y="205.5836">la actividad de los operadores</text><text fill="#000000" font-family="sans-serif" font-size="14" lengthAdjust="spacing" textLength="103" x="1136.004" y="223.193">en la cartografía</text></g><g id="elem_Registrar situaciones puntuales"><ellipse cx="1377.1567" cy="44.3633" fill="#F1F1F1" rx="117.3167" ry="25.8633" style="stroke:#181818;stroke-width:0.5;"/><text fill="#000000" font-family="sans-serif" font-size="14" lengthAdjust="spacing" textLength="199" x="1277.6567" y="48.0919">Registrar situaciones puntuales</text></g><g id="elem_Registrar periodos continuos"><ellipse cx="1115.3626" cy="44.3045" fill="#F1F1F1" rx="109.5226" ry="24.3045" style="stroke:#181818;stroke-width:0.5;"/><text fill="#000000" font-family="sans-serif" font-size="14" lengthAdjust="spacing" textLength="182" x="1024.3626" y="48.033">Registrar periodos continuos</text></g><g id="elem_Visualizar alarmas UR"><ellipse cx="191.3417" cy="366.0003" fill="#F1F1F1" rx="93.0017" ry="21.0003" style="stroke:#181818;stroke-width:0.5;"/><text fill="#000000" font-family="sans-serif" font-size="14" lengthAdjust="spacing" textLength="145" x="118.8417" y="369.7289">Visualizar alarmas (UL)</text></g><g id="elem_Visualizar alarmas OA"><ellipse cx="1198.153" cy="365.7626" fill="#F1F1F1" rx="94.313" ry="21.2626" style="stroke:#181818;stroke-width:0.5;"/><text fill="#000000" font-family="sans-serif" font-size="14" lengthAdjust="spacing" textLength="148" x="1124.153" y="369.4911">Visualizar alarmas (OA)</text></g><g id="elem_Visualizar alarmas O"><ellipse cx="792.2374" cy="365.9795" fill="#F1F1F1" rx="90.3974" ry="20.4795" style="stroke:#181818;stroke-width:0.5;"/><text fill="#000000" font-family="sans-serif" font-size="14" lengthAdjust="spacing" textLength="139" x="722.7374" y="369.708">Visualizar alarmas (O)</text></g><g id="elem_Visualizar alarmas"><ellipse cx="342.2189" cy="507.8758" fill="#F1F1F1" rx="79.8789" ry="18.3758" style="stroke:#181818;stroke-width:0.5;"/><text fill="#000000" font-family="sans-serif" font-size="14" lengthAdjust="spacing" textLength="114" x="284.1773" y="511.9024">Visualizar alarmas</text></g><g id="elem_Recibir avisos"><ellipse cx="596.4931" cy="365.9306" fill="#F1F1F1" rx="70.1531" ry="16.4306" style="stroke:#181818;stroke-width:0.5;"/><text fill="#000000" font-family="sans-serif" font-size="14" lengthAdjust="spacing" textLength="88" x="549.4931" y="370.4472">Recibir avisos</text></g><g id="elem_DE"><ellipse cx="1940.2224" cy="365.8569" fill="#F1F1F1" rx="82.3824" ry="45.3569" style="stroke:#181818;stroke-width:0.5;"/><text fill="#000000" font-family="sans-serif" font-size="14" lengthAdjust="spacing" textLength="95" x="1890.9724" y="347.976">Definir eventos</text><line style="stroke:#181818;stroke-width:1.0;" x1="1863.3521" x2="2017.0927" y1="351.0522" y2="351.0522"/><text fill="#000000" font-family="sans-serif" font-size="14" lengthAdjust="spacing" textLength="102" x="1887.4724" y="369.5854">extension points</text><text fill="#000000" font-family="sans-serif" font-size="14" lengthAdjust="spacing" textLength="97" x="1889.9724" y="387.1947">Generar avisos</text></g><g id="elem_GA"><ellipse cx="1940.216" cy="508.0752" fill="#F1F1F1" rx="73.376" ry="17.0752" style="stroke:#181818;stroke-width:0.5;"/><text fill="#000000" font-family="sans-serif" font-size="14" lengthAdjust="spacing" textLength="97" x="1888.716" y="512.5918">Generar avisos</text></g><g id="elem_EX"><ellipse cx="993.4649" cy="365.8551" fill="#F1F1F1" rx="75.1249" ry="40.3551" style="stroke:#181818;stroke-width:0.5;"/><text fill="#000000" font-family="sans-serif" font-size="14" lengthAdjust="spacing" textLength="58" x="964.4649" y="351.9743">Examinar</text><text fill="#000000" font-family="sans-serif" font-size="14" lengthAdjust="spacing" textLength="86" x="950.4649" y="369.5836">la explotación</text><text fill="#000000" font-family="sans-serif" font-size="14" lengthAdjust="spacing" textLength="90" x="948.4649" y="387.193">en tiempo real</text></g><g id="elem_introducir variables"><ellipse cx="1904.1751" cy="201.867" fill="#F1F1F1" rx="82.3351" ry="18.867" style="stroke:#181818;stroke-width:0.5;"/><text fill="#000000" font-family="sans-serif" font-size="14" lengthAdjust="spacing" textLength="120" x="1844.1751" y="205.5955">introducir variables</text></g><g id="elem_Introducir condiciones"><ellipse cx="2112.3059" cy="201.8932" fill="#F1F1F1" rx="89.9659" ry="20.3932" style="stroke:#181818;stroke-width:0.5;"/><text fill="#000000" font-family="sans-serif" font-size="14" lengthAdjust="spacing" textLength="138" x="2043.3059" y="205.6217">Introducir condiciones</text></g><g id="elem_Introducir operador/es"><ellipse cx="841.1697" cy="202.0659" fill="#F1F1F1" rx="90.8297" ry="20.5659" style="stroke:#181818;stroke-width:0.5;"/><text fill="#000000" font-family="sans-serif" font-size="14" lengthAdjust="spacing" textLength="140" x="771.1697" y="205.7945">Introducir operador/es</text></g><g id="elem_Disparar alarmas"><ellipse cx="2262.3469" cy="44.4014" fill="#F1F1F1" rx="77.5069" ry="17.9014" style="stroke:#181818;stroke-width:0.5;"/><text fill="#000000" font-family="sans-serif" font-size="14" lengthAdjust="spacing" textLength="108" x="2206.1967" y="48.716">Disparar alarmas</text></g><!--MD5=[52ec6a8b74b13041fc2aa09119826c6e]
entity Sistema--><g id="elem_Sistema"><ellipse cx="2262.34" cy="171.5" fill="#F1F1F1" rx="8" ry="8" style="stroke:#181818;stroke-width:0.5;"/><path d="M2262.34,179.5 L2262.34,206.5 M2249.34,187.5 L2275.34,187.5 M2262.34,206.5 L2249.34,221.5 M2262.34,206.5 L2275.34,221.5 " fill="none" style="stroke:#181818;stroke-width:0.5;"/><text fill="#000000" font-family="sans-serif" font-size="14" lengthAdjust="spacing" textLength="50" x="2237.34" y="237.5332">Sistema</text></g><g id="elem_Suministrar datos al sistema"><ellipse cx="1435.0912" cy="365.8502" fill="#F1F1F1" rx="107.2512" ry="23.8502" style="stroke:#181818;stroke-width:0.5;"/><text fill="#000000" font-family="sans-serif" font-size="14" lengthAdjust="spacing" textLength="177" x="1346.5912" y="369.5788">Suministrar datos al sistema</text></g><g id="elem_PO"><ellipse cx="405.1098" cy="365.954" fill="#F1F1F1" rx="85.2698" ry="19.454" style="stroke:#181818;stroke-width:0.5;"/><text fill="#000000" font-family="sans-serif" font-size="14" lengthAdjust="spacing" textLength="127" x="341.6098" y="369.6825">Puntuar operadores</text></g><g id="elem_Seleccionar operador"><ellipse cx="405.445" cy="202.221" fill="#F1F1F1" rx="89.105" ry="20.221" style="stroke:#181818;stroke-width:0.5;"/><text fill="#000000" font-family="sans-serif" font-size="14" lengthAdjust="spacing" textLength="136" x="337.445" y="205.9495">Seleccionar operador</text></g><g id="elem_Medir rendimiento de operadores"><ellipse cx="1700.2513" cy="365.8823" fill="#F1F1F1" rx="122.4113" ry="26.8823" style="stroke:#181818;stroke-width:0.5;"/><text fill="#000000" font-family="sans-serif" font-size="14" lengthAdjust="spacing" textLength="210" x="1595.2513" y="369.6108">Medir rendimiento de operadores</text></g><!--MD5=[260e7e814f431ac5615ed6e43f2a9db0]
link VisualAct to OA--><g id="link_VisualAct_OA"><path d="M1335.92,202 C1347.63,202 1359.35,202 1371.07,202 " fill="none" id="VisualAct-OA" style="stroke:#181818;stroke-width:1.0;"/></g><!--MD5=[c93b629413035d1103819b04fe6c727b]
reverse link Registrar situaciones puntuales to VisualAct--><g id="link_Registrar situaciones puntuales_VisualAct"><path d="M1343.61,73.1 C1312.96,98.19 1267.46,135.42 1233.45,163.26 " fill="none" id="Registrar situaciones puntuales-backto-VisualAct" style="stroke:#181818;stroke-width:1.0;stroke-dasharray:7.0,7.0;"/><polygon fill="#181818" points="1347.65,69.8,1338.153,72.409,1343.7821,72.9685,1343.2226,78.5976,1347.65,69.8" style="stroke:#181818;stroke-width:1.0;"/><text fill="#000000" font-family="sans-serif" font-size="13" lengthAdjust="spacing" textLength="55" x="1295.34" y="127.9951">«include»</text></g><!--MD5=[22debd13126979c91c880d2068f54ad0]
reverse link Registrar periodos continuos to VisualAct--><g id="link_Registrar periodos continuos_VisualAct"><path d="M1128.48,73.88 C1139.87,98.49 1156.48,134.35 1169.15,161.71 " fill="none" id="Registrar periodos continuos-backto-VisualAct" style="stroke:#181818;stroke-width:1.0;stroke-dasharray:7.0,7.0;"/><polygon fill="#181818" points="1126.27,69.12,1126.4274,78.9676,1128.3735,73.656,1133.685,75.6021,1126.27,69.12" style="stroke:#181818;stroke-width:1.0;"/><text fill="#000000" font-family="sans-serif" font-size="13" lengthAdjust="spacing" textLength="55" x="1155.34" y="127.9951">«include»</text></g><!--MD5=[9a007773c35f4f55793a41069109f331]
link OA to Visualizar alarmas OA--><g id="link_OA_Visualizar alarmas OA"><path d="M1386.35,241.19 C1336.63,273.93 1267.03,319.76 1227.96,345.49 " fill="none" id="OA-Visualizar alarmas OA" style="stroke:#181818;stroke-width:1.0;"/></g><!--MD5=[4a5c5d3f9c34f66880069dae14e220f6]
link UR to Visualizar alarmas UR--><g id="link_UR_Visualizar alarmas UR"><path d="M210.41,241.39 C205.42,273.77 198.46,318.83 194.48,344.65 " fill="none" id="UR-Visualizar alarmas UR" style="stroke:#181818;stroke-width:1.0;"/></g><!--MD5=[d3ac7a8bfb85201f8b2f7fe96c006231]
link Operador to Visualizar alarmas O--><g id="link_Operador_Visualizar alarmas O"><path d="M675,236.57 C705.15,269.56 750.1,318.76 774.69,345.69 " fill="none" id="Operador-Visualizar alarmas O" style="stroke:#181818;stroke-width:1.0;"/></g><!--MD5=[f1114cb614525521b29353df789961de]
link Visualizar alarmas O to Visualizar alarmas--><g id="link_Visualizar alarmas O_Visualizar alarmas"><path d="M752.64,384.49 C732.15,393.18 706.64,403.51 683.34,411.5 C592.03,442.81 484.46,471.63 414.92,489.25 " fill="none" id="Visualizar alarmas O-to-Visualizar alarmas" style="stroke:#181818;stroke-width:1.0;"/><polygon fill="none" points="416.59,496.04,395.49,494.13,413.18,482.47,416.59,496.04" style="stroke:#181818;stroke-width:1.0;"/></g><!--MD5=[1826add5e0ef2de5b68ef0c0472ffbeb]
link Visualizar alarmas OA to Visualizar alarmas--><g id="link_Visualizar alarmas OA_Visualizar alarmas"><path d="M1158.35,385.55 C1137.08,394.69 1110.25,405.1 1085.34,411.5 C858.73,469.72 583.69,493.28 440.19,502.14 " fill="none" id="Visualizar alarmas OA-to-Visualizar alarmas" style="stroke:#181818;stroke-width:1.0;"/><polygon fill="none" points="440.38,509.14,420,503.34,439.55,495.16,440.38,509.14" style="stroke:#181818;stroke-width:1.0;"/></g><!--MD5=[35ef7e67739993bfbe98bfa4c0b8c6eb]
link Visualizar alarmas UR to Visualizar alarmas--><g id="link_Visualizar alarmas UR_Visualizar alarmas"><path d="M212.33,386.47 C237.36,409.67 279.49,448.73 308.99,476.08 " fill="none" id="Visualizar alarmas UR-to-Visualizar alarmas" style="stroke:#181818;stroke-width:1.0;"/><polygon fill="none" points="313.98,471.16,323.89,489.89,304.46,481.43,313.98,471.16" style="stroke:#181818;stroke-width:1.0;"/></g><!--MD5=[64c39802073af2ffba874545c4187d4e]
link Operador to Recibir avisos--><g id="link_Operador_Recibir avisos"><path d="M632.96,241.39 C622.76,275.82 608.3,324.62 600.98,349.34 " fill="none" id="Operador-Recibir avisos" style="stroke:#181818;stroke-width:1.0;"/></g><!--MD5=[9117ca9b0ea7d215f4d664cbd2c5ef15]
link OA to DE--><g id="link_OA_DE"><path d="M1517.53,221.65 C1597.72,242.79 1729.67,279.65 1840.34,320.5 C1852.73,325.07 1865.76,330.44 1878.17,335.84 " fill="none" id="OA-DE" style="stroke:#181818;stroke-width:1.0;"/></g><!--MD5=[df2c957083bf9c340cb636337ab0db7f]
reverse link introducir variables to DE--><g id="link_introducir variables_DE"><path d="M1909.51,226.27 C1914.96,250.81 1923.69,290.06 1930.46,320.56 " fill="none" id="introducir variables-backto-DE" style="stroke:#181818;stroke-width:1.0;stroke-dasharray:7.0,7.0;"/><polygon fill="#181818" points="1908.4,221.27,1906.4476,230.9234,1909.4847,226.1509,1914.2571,229.188,1908.4,221.27" style="stroke:#181818;stroke-width:1.0;"/><text fill="#000000" font-family="sans-serif" font-size="13" lengthAdjust="spacing" textLength="55" x="1925.34" y="286.9951">«include»</text></g><!--MD5=[3b04c7cc4fc8d53a15e1c6456e80a960]
reverse link Introducir condiciones to DE--><g id="link_Introducir condiciones_DE"><path d="M2087.98,225.94 C2060.27,252.05 2014.56,295.1 1981.33,326.39 " fill="none" id="Introducir condiciones-backto-DE" style="stroke:#181818;stroke-width:1.0;stroke-dasharray:7.0,7.0;"/><polygon fill="#181818" points="2091.93,222.22,2082.6347,225.4755,2088.289,225.6468,2088.1177,231.3011,2091.93,222.22" style="stroke:#181818;stroke-width:1.0;"/><text fill="#000000" font-family="sans-serif" font-size="13" lengthAdjust="spacing" textLength="55" x="2038.34" y="286.9951">«include»</text></g><!--MD5=[f7d570dad64aa7fce3bed4b5046e62f6]
reverse link DE to GA--><g id="link_DE_GA"><path d="M1940.34,416.82 C1940.34,442.79 1940.34,472.81 1940.34,490.83 " fill="none" id="DE-backto-GA" style="stroke:#181818;stroke-width:1.0;stroke-dasharray:7.0,7.0;"/><polygon fill="#181818" points="1940.34,411.68,1936.34,420.68,1940.34,416.68,1944.34,420.68,1940.34,411.68" style="stroke:#181818;stroke-width:1.0;"/><text fill="#000000" font-family="sans-serif" font-size="13" lengthAdjust="spacing" textLength="53" x="1941.34" y="455.9951">«extend»</text></g><!--MD5=[113b891baac7e9a087b19bbedef6bfb3]
link UNR to EX--><g id="link_UNR_EX"><path d="M282.07,46.71 C443.58,51.09 853.67,71.05 949.34,161.5 C993.86,203.59 998.71,279.16 996.91,325.42 " fill="none" id="UNR-EX" style="stroke:#181818;stroke-width:1.0;"/></g><!--MD5=[32fd379c93d151a3adc341235ca7864d]
reverse link VisualAct to EX--><g id="link_VisualAct_EX"><path d="M1126.11,254.13 C1095.79,279.45 1060.04,309.3 1033.28,331.65 " fill="none" id="VisualAct-backto-EX" style="stroke:#181818;stroke-width:1.0;"/><polygon fill="none" points="1122.02,248.43,1141.85,240.98,1130.99,259.17,1122.02,248.43" style="stroke:#181818;stroke-width:1.0;"/></g><!--MD5=[ecc35eb85ab835d4aefb349ff02b4440]
reverse link Introducir operador/es to EX--><g id="link_Introducir operador/es_EX"><path d="M855.57,227.07 C867.01,245.43 884.13,270.83 902.34,290.5 C916.35,305.63 933.47,320.42 949.06,332.78 " fill="none" id="Introducir operador/es-backto-EX" style="stroke:#181818;stroke-width:1.0;stroke-dasharray:7.0,7.0;"/><polygon fill="#181818" points="852.79,222.56,854.1148,232.3193,855.4169,226.8144,860.9218,228.1164,852.79,222.56" style="stroke:#181818;stroke-width:1.0;"/><text fill="#000000" font-family="sans-serif" font-size="13" lengthAdjust="spacing" textLength="55" x="903.34" y="286.9951">«include»</text></g><!--MD5=[9fed6ca1d88ab740fd542f51378d961c]
link UNR to Visualizar alarmas--><g id="link_UNR_Visualizar alarmas"><path d="M180.37,83.51 C118.64,153.5 6,305.29 80.34,411.5 C122.05,471.1 205.05,493.63 266.5,502.08 " fill="none" id="UNR-Visualizar alarmas" style="stroke:#181818;stroke-width:1.0;"/></g><!--MD5=[9201554961a300be6767a805f274963a]
reverse link UNR to UR--><g id="link_UNR_UR"><path d="M216.34,103.64 C216.34,123.42 216.34,145 216.34,162.81 " fill="none" id="UNR-backto-UR" style="stroke:#181818;stroke-width:1.0;"/><polygon fill="none" points="209.34,103.54,216.34,83.54,223.34,103.54,209.34,103.54" style="stroke:#181818;stroke-width:1.0;"/></g><!--MD5=[2032aa920d49b72f94966c9bdd90bd49]
link Disparar alarmas to Sistema--><g id="link_Disparar alarmas_Sistema"><path d="M2262.34,62.74 C2262.34,86.77 2262.34,131.01 2262.34,162.99 " fill="none" id="Disparar alarmas-Sistema" style="stroke:#181818;stroke-width:1.0;"/></g><!--MD5=[737c5a98fd0e45717991e8efa3fd9f21]
link OA to Suministrar datos al sistema--><g id="link_OA_Suministrar datos al sistema"><path d="M1442.21,241.39 C1440.47,272.64 1438.08,315.72 1436.62,341.9 " fill="none" id="OA-Suministrar datos al sistema" style="stroke:#181818;stroke-width:1.0;"/></g><!--MD5=[4689cd6f59ecc41fd67997279e4d8c2b]
link UR to PO--><g id="link_UR_PO"><path d="M261.13,241.39 C299.99,274.7 354.53,321.45 384.16,346.84 " fill="none" id="UR-PO" style="stroke:#181818;stroke-width:1.0;"/></g><!--MD5=[ccf0a30983d9e331aa2a860c5cd17257]
reverse link Seleccionar operador to PO--><g id="link_Seleccionar operador_PO"><path d="M405.34,227.22 C405.34,259.76 405.34,316.88 405.34,346.31 " fill="none" id="Seleccionar operador-backto-PO" style="stroke:#181818;stroke-width:1.0;stroke-dasharray:7.0,7.0;"/><polygon fill="#181818" points="405.34,222.22,401.34,231.22,405.34,227.22,409.34,231.22,405.34,222.22" style="stroke:#181818;stroke-width:1.0;"/><text fill="#000000" font-family="sans-serif" font-size="13" lengthAdjust="spacing" textLength="55" x="406.34" y="286.9951">«include»</text></g><!--MD5=[88b3f717c4ecba2380b97377806c0913]
link OA to Medir rendimiento de operadores--><g id="link_OA_Medir rendimiento de operadores"><path d="M1504.68,241.19 C1553.02,271.78 1619.42,313.8 1661.1,340.17 " fill="none" id="OA-Medir rendimiento de operadores" style="stroke:#181818;stroke-width:1.0;"/></g><!--MD5=[5fafdddea736b303676f0f402d1f9c2f]
@startuml Sistema de infirmacion
actor OA as "Operador adjudicatario"
actor Operador
actor UR as "Usuario logueado"
actor UNR as "Usuario no logueado"
usecase (Visualizar \nla actividad de los operadores \nen la cartografía) as VisualAct
OA-left-VisualAct
(Registrar situaciones puntuales)<..VisualAct : <<include>>
(Registrar periodos continuos)<..VisualAct : <<include>>
usecase (Visualizar alarmas UR) as "Visualizar alarmas (UL)"
usecase (Visualizar alarmas OA) as "Visualizar alarmas (OA)"
usecase (Visualizar alarmas O) as "Visualizar alarmas (O)"
usecase (Visualizar alarmas)
usecase (Recibir avisos)
usecase DE as "Definir eventos 
- -
extension points
Generar avisos"

usecase (Generar avisos) as GA
usecase EX as "Examinar 
la explotación
en tiempo real"
OA- -(Visualizar alarmas OA)
UR- -(Visualizar alarmas UR)
Operador- -(Visualizar alarmas O)
(Visualizar alarmas O)- -|>(Visualizar alarmas)
(Visualizar alarmas OA)- -|>(Visualizar alarmas)
(Visualizar alarmas UR)- -|>(Visualizar alarmas)
Operador- -(Recibir avisos)
OA- -DE
(introducir variables)<..DE : <<include>> 
(Introducir condiciones)<..DE : <<include>>
DE<..GA : <<extend>>
UNR- -EX
VisualAct<|- -EX
(Introducir operador/es)<..EX : <<include>>
UNR-right-(Visualizar alarmas)
UNR<|- -UR
(Disparar alarmas)- -Sistema
OA- -(Suministrar datos al sistema)
usecase PO as "Puntuar operadores"
UR- -PO
(Seleccionar operador)<..PO : <<include>>
OA- -(Medir rendimiento de operadores)
@enduml

PlantUML version 1.2022.7(Mon Aug 22 19:01:30 CEST 2022)
(GPL source distribution)
Java Runtime: OpenJDK Runtime Environment
JVM: OpenJDK 64-Bit Server VM
Default Encoding: Cp1252
Language: es
Country: ES
--></g></svg>