<?xml version="1.0" encoding="UTF-8" standalone="no"?><svg xmlns="http://www.w3.org/2000/svg" xmlns:xlink="http://www.w3.org/1999/xlink" contentStyleType="text/css" height="1120px" preserveAspectRatio="none" style="width:2027px;height:1120px;background:#FFFFFF;" version="1.1" viewBox="0 0 2027 1120" width="2027px" zoomAndPan="magnify"><defs/><g><!--MD5=[9ff840d49ca214a73f305757e42d4e15]
entity Tecnico--><g id="elem_Tecnico"><ellipse cx="559.5" cy="719" fill="#F1F1F1" rx="8" ry="8" style="stroke:#181818;stroke-width:0.5;"/><path d="M559.5,727 L559.5,754 M546.5,735 L572.5,735 M559.5,754 L546.5,769 M559.5,754 L572.5,769 " fill="none" style="stroke:#181818;stroke-width:0.5;"/><text fill="#000000" font-family="sans-serif" font-size="14" lengthAdjust="spacing" textLength="50" x="534.5" y="785.0332">Tecnico</text></g><!--MD5=[d4df9ba3b0a137211828d4d66ada4284]
entity Abstracto--><g id="elem_Abstracto"><ellipse cx="952.5" cy="858" fill="#F1F1F1" rx="8" ry="8" style="stroke:#181818;stroke-width:0.5;"/><path d="M952.5,866 L952.5,893 M939.5,874 L965.5,874 M952.5,893 L939.5,908 M952.5,893 L965.5,908 " fill="none" style="stroke:#181818;stroke-width:0.5;"/><text fill="#000000" font-family="sans-serif" font-size="14" lengthAdjust="spacing" textLength="60" x="922.5" y="924.0332">Abstracto</text></g><g id="elem_Realizar \ninformes"><ellipse cx="352.3762" cy="888.4034" fill="#F1F1F1" rx="50.3762" ry="27.9034" style="stroke:#181818;stroke-width:0.5;"/><text fill="#000000" font-family="sans-serif" font-size="14" lengthAdjust="spacing" textLength="51" x="324.8762" y="883.3272">Realizar</text><text fill="#000000" font-family="sans-serif" font-size="14" lengthAdjust="spacing" textLength="54" x="325.3762" y="900.9366">informes</text></g><g id="elem_DA"><ellipse cx="1010.6665" cy="1060.2182" fill="#F1F1F1" rx="78.1665" ry="54.7182" style="stroke:#181818;stroke-width:0.5;"/><text fill="#000000" font-family="sans-serif" font-size="14" lengthAdjust="spacing" textLength="70" x="967.6665" y="1033.5326">Dar de alta</text><text fill="#000000" font-family="sans-serif" font-size="14" lengthAdjust="spacing" textLength="70" x="967.6665" y="1051.142">incidencias</text><line style="stroke:#181818;stroke-width:1.0;" x1="933.9713" x2="1087.3616" y1="1054.2182" y2="1054.2182"/><text fill="#000000" font-family="sans-serif" font-size="14" lengthAdjust="spacing" textLength="102" x="951.6665" y="1072.7514">extension points</text><text fill="#000000" font-family="sans-serif" font-size="14" lengthAdjust="spacing" textLength="85" x="960.1665" y="1090.3607">Enviar correo</text></g><g id="elem_Enviar correo"><ellipse cx="807.6119" cy="888.7224" fill="#F1F1F1" rx="69.1119" ry="16.2224" style="stroke:#181818;stroke-width:0.5;"/><text fill="#000000" font-family="sans-serif" font-size="14" lengthAdjust="spacing" textLength="85" x="762.1119" y="893.239">Enviar correo</text></g><!--MD5=[61e605e578c0d220543bb083b27f6578]
entity SG--><g id="elem_SG"><ellipse cx="801.5" cy="1029.5" fill="#F1F1F1" rx="8" ry="8" style="stroke:#181818;stroke-width:0.5;"/><path d="M801.5,1037.5 L801.5,1064.5 M788.5,1045.5 L814.5,1045.5 M801.5,1064.5 L788.5,1079.5 M801.5,1064.5 L814.5,1079.5 " fill="none" style="stroke:#181818;stroke-width:0.5;"/><text fill="#000000" font-family="sans-serif" font-size="14" lengthAdjust="spacing" textLength="192" x="705.5" y="1095.5332">Sistema de gestion de correos</text></g><g id="elem_ALVT"><ellipse cx="559.5183" cy="888.6037" fill="#F1F1F1" rx="121.0183" ry="26.6037" style="stroke:#181818;stroke-width:0.5;"/><text fill="#000000" font-family="sans-serif" font-size="14" lengthAdjust="spacing" textLength="207" x="456.0183" y="892.3322">Atender llamadas (vista Tecnico)</text></g><g id="elem_Atender llamadas"><ellipse cx="295.2877" cy="1060.0575" fill="#F1F1F1" rx="78.2877" ry="18.0575" style="stroke:#181818;stroke-width:0.5;"/><text fill="#000000" font-family="sans-serif" font-size="14" lengthAdjust="spacing" textLength="110" x="238.5149" y="1064.2774">Atender llamadas</text></g><g id="elem_Comprobar datos de incidencia"><ellipse cx="553.3945" cy="1060.1789" fill="#F1F1F1" rx="116.3945" ry="25.6789" style="stroke:#181818;stroke-width:0.5;"/><text fill="#000000" font-family="sans-serif" font-size="14" lengthAdjust="spacing" textLength="197" x="454.8945" y="1063.9074">Comprobar datos de incidencia</text></g><!--MD5=[19d16784bb5a3b3b7f2ed42a6c2fedf0]
entity Actor--><g id="elem_Actor"><ellipse cx="559.5" cy="563" fill="#F1F1F1" rx="8" ry="8" style="stroke:#181818;stroke-width:0.5;"/><path d="M559.5,571 L559.5,598 M546.5,579 L572.5,579 M559.5,598 L546.5,613 M559.5,598 L572.5,613 " fill="none" style="stroke:#181818;stroke-width:0.5;"/><text fill="#000000" font-family="sans-serif" font-size="14" lengthAdjust="spacing" textLength="33" x="543" y="629.0332">Actor</text></g><g id="elem_CI"><ellipse cx="734.397" cy="431.8273" fill="#F1F1F1" rx="121.897" ry="44.3273" style="stroke:#181818;stroke-width:0.5;"/><text fill="#000000" font-family="sans-serif" font-size="14" lengthAdjust="spacing" textLength="135" x="659.897" y="413.9465">Consultar incidencias</text><line style="stroke:#181818;stroke-width:1.0;" x1="620.4995" x2="848.2945" y1="417.0226" y2="417.0226"/><text fill="#000000" font-family="sans-serif" font-size="14" lengthAdjust="spacing" textLength="102" x="676.397" y="435.5558">extension points</text><text fill="#000000" font-family="sans-serif" font-size="14" lengthAdjust="spacing" textLength="163" x="645.897" y="453.1652">Editar datos de incidencia</text></g><g id="elem_Editar datos de incidencia"><ellipse cx="723.4506" cy="593.5901" fill="#F1F1F1" rx="100.9506" ry="22.5901" style="stroke:#181818;stroke-width:0.5;"/><text fill="#000000" font-family="sans-serif" font-size="14" lengthAdjust="spacing" textLength="163" x="641.9506" y="597.3186">Editar datos de incidencia</text></g><g id="elem_CIVU"><ellipse cx="986.7437" cy="593.4034" fill="#F1F1F1" rx="126.7437" ry="27.9034" style="stroke:#181818;stroke-width:0.5;"/><text fill="#000000" font-family="sans-serif" font-size="14" lengthAdjust="spacing" textLength="135" x="917.2437" y="588.3272">Consultar incidencias</text><text fill="#000000" font-family="sans-serif" font-size="14" lengthAdjust="spacing" textLength="163" x="905.2437" y="605.9366">(vista de usuario invitado)</text></g><!--MD5=[c42ed81cef7fdd2e33758127945b9a5b]
entity UI--><g id="elem_UI"><ellipse cx="1270.5" cy="401.5" fill="#F1F1F1" rx="8" ry="8" style="stroke:#181818;stroke-width:0.5;"/><path d="M1270.5,409.5 L1270.5,436.5 M1257.5,417.5 L1283.5,417.5 M1270.5,436.5 L1257.5,451.5 M1270.5,436.5 L1283.5,451.5 " fill="none" style="stroke:#181818;stroke-width:0.5;"/><text fill="#000000" font-family="sans-serif" font-size="14" lengthAdjust="spacing" textLength="101" x="1220" y="467.5332">Usuario invitado</text></g><g id="elem_AH"><ellipse cx="1245.624" cy="593.4243" fill="#F1F1F1" rx="97.124" ry="27.9243" style="stroke:#181818;stroke-width:0.5;"/><text fill="#000000" font-family="sans-serif" font-size="14" lengthAdjust="spacing" textLength="121" x="1182.4015" y="589.069">Acceder a histórico</text><text fill="#000000" font-family="sans-serif" font-size="14" lengthAdjust="spacing" textLength="106" x="1189.9015" y="606.6784">de notificaciones</text></g><g id="elem_Registrarse"><ellipse cx="1441.3631" cy="593.609" fill="#F1F1F1" rx="63.8631" ry="15.609" style="stroke:#181818;stroke-width:0.5;"/><text fill="#000000" font-family="sans-serif" font-size="14" lengthAdjust="spacing" textLength="73" x="1401.8631" y="598.1256">Registrarse</text></g><g id="elem_II"><ellipse cx="1675.4202" cy="593.284" fill="#F1F1F1" rx="81.9202" ry="18.784" style="stroke:#181818;stroke-width:0.5;"/><text fill="#000000" font-family="sans-serif" font-size="14" lengthAdjust="spacing" textLength="119" x="1615.7512" y="597.0629">Informar incidencia</text></g><g id="elem_Subida de foto"><ellipse cx="1728.5677" cy="432.2135" fill="#F1F1F1" rx="71.5677" ry="16.7135" style="stroke:#181818;stroke-width:0.5;"/><text fill="#000000" font-family="sans-serif" font-size="14" lengthAdjust="spacing" textLength="92" x="1679.5677" y="436.7301">Subida de foto</text></g><g id="elem_DAL"><ellipse cx="1928.4382" cy="432.0876" fill="#F1F1F1" rx="93.4382" ry="21.0876" style="stroke:#181818;stroke-width:0.5;"/><text fill="#000000" font-family="sans-serif" font-size="14" lengthAdjust="spacing" textLength="146" x="1855.4382" y="435.8162">Dar de alta localización</text></g><g id="elem_EC"><ellipse cx="1514.7442" cy="431.9752" fill="#F1F1F1" rx="107.2442" ry="27.9752" style="stroke:#181818;stroke-width:0.5;"/><text fill="#000000" font-family="sans-serif" font-size="14" lengthAdjust="spacing" textLength="131" x="1444.2442" y="427.6871">Explicación completa</text><text fill="#000000" font-family="sans-serif" font-size="14" lengthAdjust="spacing" textLength="113" x="1455.2442" y="445.2965">en formato textual</text></g><!--MD5=[9544e8f9a50b6f5806c8e28b91970f7d]
entity Operador--><g id="elem_Operador"><ellipse cx="424.5" cy="401.5" fill="#F1F1F1" rx="8" ry="8" style="stroke:#181818;stroke-width:0.5;"/><path d="M424.5,409.5 L424.5,436.5 M411.5,417.5 L437.5,417.5 M424.5,436.5 L411.5,451.5 M424.5,436.5 L437.5,451.5 " fill="none" style="stroke:#181818;stroke-width:0.5;"/><text fill="#000000" font-family="sans-serif" font-size="14" lengthAdjust="spacing" textLength="61" x="394" y="467.5332">Operador</text></g><g id="elem_ALVO"><ellipse cx="184.7387" cy="593.3477" fill="#F1F1F1" rx="124.7387" ry="27.3477" style="stroke:#181818;stroke-width:0.5;"/><text fill="#000000" font-family="sans-serif" font-size="14" lengthAdjust="spacing" textLength="215" x="77.2387" y="597.0763">Atender llamadas (vista operador)</text></g><g id="elem_Introducir nuevos datos"><ellipse cx="100.313" cy="749.2626" fill="#F1F1F1" rx="94.313" ry="21.2626" style="stroke:#181818;stroke-width:0.5;"/><text fill="#000000" font-family="sans-serif" font-size="14" lengthAdjust="spacing" textLength="148" x="26.313" y="752.9911">Introducir nuevos datos</text></g><g id="elem_Marcar incidencias"><ellipse cx="425.5075" cy="593.7015" fill="#F1F1F1" rx="81.5075" ry="18.7015" style="stroke:#181818;stroke-width:0.5;"/><text fill="#000000" font-family="sans-serif" font-size="14" lengthAdjust="spacing" textLength="118" x="366.1675" y="597.5304">Marcar incidencias</text></g><g id="elem_Ordenar incidencias"><ellipse cx="420.2698" cy="305.954" fill="#F1F1F1" rx="85.2698" ry="19.454" style="stroke:#181818;stroke-width:0.5;"/><text fill="#000000" font-family="sans-serif" font-size="14" lengthAdjust="spacing" textLength="127" x="356.7698" y="309.6825">Ordenar incidencias</text></g><!--MD5=[2e903384ba6a94be9c906ea46910cc3f]
entity Administrador--><g id="elem_Administrador"><ellipse cx="559.5" cy="14" fill="#F1F1F1" rx="8" ry="8" style="stroke:#181818;stroke-width:0.5;"/><path d="M559.5,22 L559.5,49 M546.5,30 L572.5,30 M559.5,49 L546.5,64 M559.5,49 L572.5,64 " fill="none" style="stroke:#181818;stroke-width:0.5;"/><text fill="#000000" font-family="sans-serif" font-size="14" lengthAdjust="spacing" textLength="87" x="516" y="80.0332">Administrador</text></g><g id="elem_OI"><ellipse cx="359.4235" cy="176.1847" fill="#F1F1F1" rx="146.4235" ry="31.6847" style="stroke:#181818;stroke-width:0.5;"/><text fill="#000000" font-family="sans-serif" font-size="14" lengthAdjust="spacing" textLength="261" x="228.9235" y="179.9132">Ordenar incidencias (vista Administrador)</text></g><g id="elem_AC"><ellipse cx="208.3297" cy="306.0659" fill="#F1F1F1" rx="90.8297" ry="20.5659" style="stroke:#181818;stroke-width:0.5;"/><text fill="#000000" font-family="sans-serif" font-size="14" lengthAdjust="spacing" textLength="140" x="138.3297" y="309.7945">Adición de comentario</text></g><g id="elem_GCI"><ellipse cx="727.7229" cy="175.9034" fill="#F1F1F1" rx="114.7229" ry="27.9034" style="stroke:#181818;stroke-width:0.5;"/><text fill="#000000" font-family="sans-serif" font-size="14" lengthAdjust="spacing" textLength="69" x="691.2229" y="170.8272">Gestión de</text><text fill="#000000" font-family="sans-serif" font-size="14" lengthAdjust="spacing" textLength="146" x="654.7229" y="188.4366">categoría de incidencia</text></g><!--MD5=[5be93cd283e4aa56b651ba15235b3232]
link Tecnico to Realizar \ninformes--><g id="link_Tecnico_Realizar \ninformes"><path d="M534.12,767.3 C496.33,792.31 425.34,839.29 384.19,866.52 " fill="none" id="Tecnico-Realizar \ninformes" style="stroke:#181818;stroke-width:1.0;"/></g><!--MD5=[5dd34cf85f7dd7746e0ea638ecc6b8fe]
link Tecnico to Abstracto--><g id="link_Tecnico_Abstracto"><path d="M584.78,755.32 C641.88,766.78 784.44,798.53 894.5,849.5 C898.06,851.15 901.66,853 905.23,854.96 " fill="none" id="Tecnico-to-Abstracto" style="stroke:#181818;stroke-width:1.0;"/><polygon fill="none" points="909.01,849.07,922.47,865.44,901.74,861.04,909.01,849.07" style="stroke:#181818;stroke-width:1.0;"/></g><!--MD5=[f69de203e7a5040afa626199d8600af0]
link Abstracto to DA--><g id="link_Abstracto_DA"><path d="M965.52,927.54 C973.5,950.87 983.83,981.06 992.58,1006.63 " fill="none" id="Abstracto-DA" style="stroke:#181818;stroke-width:1.0;"/></g><!--MD5=[ec1533cd920914bb4c88cdd9ef457d1c]
link Enviar correo to DA--><g id="link_Enviar correo_DA"><path d="M825.16,904.25 C854.28,928.56 913.5,978 957.19,1014.49 " fill="none" id="Enviar correo-to-DA" style="stroke:#181818;stroke-width:1.0;stroke-dasharray:7.0,7.0;"/><polygon fill="#181818" points="961.11,1017.76,956.7535,1008.927,957.2677,1014.5605,951.6343,1015.0747,961.11,1017.76" style="stroke:#181818;stroke-width:1.0;"/><text fill="#000000" font-family="sans-serif" font-size="13" lengthAdjust="spacing" textLength="53" x="909.5" y="971.9951">«extend»</text></g><!--MD5=[1e63314c0f657f9b066c5c9cf116c5ed]
link Enviar correo to SG--><g id="link_Enviar correo_SG"><path d="M806.97,904.54 C806.05,930.39 804.16,983.99 802.85,1020.72 " fill="none" id="Enviar correo-SG" style="stroke:#181818;stroke-width:1.0;"/></g><!--MD5=[775461870f3c427d70f530f56ef5add6]
link Tecnico to ALVT--><g id="link_Tecnico_ALVT"><path d="M559.5,788.66 C559.5,811.94 559.5,841.07 559.5,861.66 " fill="none" id="Tecnico-ALVT" style="stroke:#181818;stroke-width:1.0;"/></g><!--MD5=[a0b8597c0fc0da364d7a0ff6ccd77fb9]
link ALVT to Atender llamadas--><g id="link_ALVT_Atender llamadas"><path d="M521.68,913.79 C472.91,945.09 388.38,999.37 337.62,1031.96 " fill="none" id="ALVT-to-Atender llamadas" style="stroke:#181818;stroke-width:1.0;"/><polygon fill="none" points="341.19,1037.99,320.57,1042.9,333.62,1026.21,341.19,1037.99" style="stroke:#181818;stroke-width:1.0;"/></g><!--MD5=[62f5dc0cfe625d1685ffdbcfe9c132d0]
link ALVT to Comprobar datos de incidencia--><g id="link_ALVT_Comprobar datos de incidencia"><path d="M558.59,915.24 C557.5,945.92 555.69,997.08 554.55,1029.38 " fill="none" id="ALVT-to-Comprobar datos de incidencia" style="stroke:#181818;stroke-width:1.0;stroke-dasharray:7.0,7.0;"/><polygon fill="#181818" points="554.37,1034.39,558.676,1025.5323,554.5413,1029.3929,550.6807,1025.2582,554.37,1034.39" style="stroke:#181818;stroke-width:1.0;"/><text fill="#000000" font-family="sans-serif" font-size="13" lengthAdjust="spacing" textLength="55" x="557.5" y="971.9951">«include»</text></g><!--MD5=[c3a42511f7bb7081078da1c2a168ffd2]
reverse link Actor to Tecnico--><g id="link_Actor_Tecnico"><path d="M559.5,652.61 C559.5,671.92 559.5,692.92 559.5,710.34 " fill="none" id="Actor-backto-Tecnico" style="stroke:#181818;stroke-width:1.0;"/><polygon fill="none" points="552.5,652.57,559.5,632.57,566.5,652.57,552.5,652.57" style="stroke:#181818;stroke-width:1.0;"/></g><!--MD5=[3dfad73462b9b7bbe9ec97533d010fd0]
link CI to Actor--><g id="link_CI_Actor"><path d="M689.89,473.66 C652.82,507.44 602.12,553.65 576.22,577.26 " fill="none" id="CI-Actor" style="stroke:#181818;stroke-width:1.0;"/></g><!--MD5=[73f2f0c8efca5c73437ef94f7c6ef553]
reverse link CI to Editar datos de incidencia--><g id="link_CI_Editar datos de incidencia"><path d="M731.14,481.69 C729.09,511.5 726.56,548.17 724.99,570.95 " fill="none" id="CI-backto-Editar datos de incidencia" style="stroke:#181818;stroke-width:1.0;stroke-dasharray:7.0,7.0;"/><polygon fill="#181818" points="731.49,476.58,726.8837,485.2853,731.1479,481.5683,734.8649,485.8326,731.49,476.58" style="stroke:#181818;stroke-width:1.0;"/><text fill="#000000" font-family="sans-serif" font-size="13" lengthAdjust="spacing" textLength="53" x="729.5" y="520.9951">«extend»</text></g><!--MD5=[04f8bbc851be33a271f3ca6a061ead2d]
reverse link CI to CIVU--><g id="link_CI_CIVU"><path d="M811.6,481.8 C855.86,509.82 909.66,543.86 945.8,566.74 " fill="none" id="CI-backto-CIVU" style="stroke:#181818;stroke-width:1.0;"/><polygon fill="none" points="807.7,487.61,794.54,471,815.18,475.78,807.7,487.61" style="stroke:#181818;stroke-width:1.0;"/></g><!--MD5=[110c1ebef39b22d77f95dfffdc3b6eda]
link UI to CIVU--><g id="link_UI_CIVU"><path d="M1219.73,461.52 C1166.28,491.53 1082.93,538.34 1031.68,567.12 " fill="none" id="UI-CIVU" style="stroke:#181818;stroke-width:1.0;"/></g><!--MD5=[eb4f377b0e9ea6b4425b092ff23368dc]
link UI to AH--><g id="link_UI_AH"><path d="M1264.51,471.2 C1259.98,500.14 1253.85,539.21 1249.8,565.09 " fill="none" id="UI-AH" style="stroke:#181818;stroke-width:1.0;"/></g><!--MD5=[9add806b539b3887275d074abc53f198]
link UI to Registrarse--><g id="link_UI_Registrarse"><path d="M1311.46,471.2 C1348.41,505.67 1400.77,554.51 1426.3,578.33 " fill="none" id="UI-Registrarse" style="stroke:#181818;stroke-width:1.0;"/></g><!--MD5=[4f5de994c783113dd10c310be4eb164a]
link UI to II--><g id="link_UI_II"><path d="M1321.38,453.04 C1403.07,485.21 1561.78,547.71 1635.75,576.85 " fill="none" id="UI-II" style="stroke:#181818;stroke-width:1.0;"/></g><!--MD5=[ee4e4cfed914aa085feca454616b653b]
reverse link Subida de foto to II--><g id="link_Subida de foto_II"><path d="M1721.74,453.36 C1711.33,484.66 1691.57,544.14 1681.59,574.18 " fill="none" id="Subida de foto-backto-II" style="stroke:#181818;stroke-width:1.0;stroke-dasharray:7.0,7.0;"/><polygon fill="#181818" points="1723.32,448.58,1716.6989,455.8712,1721.7517,453.3277,1724.2952,458.3805,1723.32,448.58" style="stroke:#181818;stroke-width:1.0;"/><text fill="#000000" font-family="sans-serif" font-size="13" lengthAdjust="spacing" textLength="55" x="1704.5" y="520.9951">«include»</text></g><!--MD5=[d103b5ad136abe1130b7a190c2a67074]
reverse link DAL to II--><g id="link_DAL_II"><path d="M1893.99,454.76 C1843,486.9 1748.61,546.41 1702.4,575.54 " fill="none" id="DAL-backto-II" style="stroke:#181818;stroke-width:1.0;stroke-dasharray:7.0,7.0;"/><polygon fill="#181818" points="1898.48,451.92,1888.7348,453.3452,1894.2529,454.5905,1893.0076,460.1086,1898.48,451.92" style="stroke:#181818;stroke-width:1.0;"/><text fill="#000000" font-family="sans-serif" font-size="13" lengthAdjust="spacing" textLength="55" x="1810.5" y="520.9951">«include»</text></g><!--MD5=[75320e3454ad35b8cb6ef226c76a9ec6]
reverse link EC to II--><g id="link_EC_II"><path d="M1545.04,463.25 C1578.21,496.12 1630.12,547.54 1657.38,574.55 " fill="none" id="EC-backto-II" style="stroke:#181818;stroke-width:1.0;stroke-dasharray:7.0,7.0;"/><polygon fill="#181818" points="1541.09,459.34,1544.6812,468.5108,1544.6469,462.854,1550.3036,462.8198,1541.09,459.34" style="stroke:#181818;stroke-width:1.0;"/><text fill="#000000" font-family="sans-serif" font-size="13" lengthAdjust="spacing" textLength="55" x="1605.5" y="520.9951">«include»</text></g><!--MD5=[cdc98430124d64fd3377d512b8bafb7f]
link Operador to Actor--><g id="link_Operador_Actor"><path d="M455.13,469.19 C477.47,495.58 507.57,531.15 529.71,557.3 " fill="none" id="Operador-to-Actor" style="stroke:#181818;stroke-width:1.0;"/><polygon fill="none" points="535.37,553.15,542.94,572.94,524.68,562.2,535.37,553.15" style="stroke:#181818;stroke-width:1.0;"/></g><!--MD5=[184db8a24ab39cc92c3205b933d46982]
link Operador to ALVO--><g id="link_Operador_ALVO"><path d="M393.62,453.53 C349.94,482.55 270.17,535.56 222.79,567.05 " fill="none" id="Operador-ALVO" style="stroke:#181818;stroke-width:1.0;"/></g><!--MD5=[fe16ec5e5a23bd5ab06411a99d53ac49]
link ALVO to Atender llamadas--><g id="link_ALVO_Atender llamadas"><path d="M195.71,620.98 C200.7,633.43 206.37,648.56 210.5,662.5 C248.96,792.25 277.59,950.71 289.47,1021.6 " fill="none" id="ALVO-to-Atender llamadas" style="stroke:#181818;stroke-width:1.0;"/><polygon fill="none" points="296.44,1020.89,292.78,1041.76,282.63,1023.16,296.44,1020.89" style="stroke:#181818;stroke-width:1.0;"/></g><!--MD5=[e33959aa6e52fa2c03a2752e6efadf95]
link ALVO to Introducir nuevos datos--><g id="link_ALVO_Introducir nuevos datos"><path d="M170.06,620.97 C154.45,649.59 129.75,694.87 114.37,723.07 " fill="none" id="ALVO-to-Introducir nuevos datos" style="stroke:#181818;stroke-width:1.0;stroke-dasharray:7.0,7.0;"/><polygon fill="#181818" points="111.8,727.79,119.6213,721.8043,114.1943,723.4005,112.5981,717.9735,111.8,727.79" style="stroke:#181818;stroke-width:1.0;"/><text fill="#000000" font-family="sans-serif" font-size="13" lengthAdjust="spacing" textLength="55" x="146.5" y="676.9951">«include»</text></g><!--MD5=[1ab28ce5d3e6b3f31511ce492b7c71f5]
link Operador to Marcar incidencias--><g id="link_Operador_Marcar incidencias"><path d="M424.74,471.2 C424.95,504.01 425.23,549.84 425.39,574.72 " fill="none" id="Operador-Marcar incidencias" style="stroke:#181818;stroke-width:1.0;"/></g><!--MD5=[c37b1ad81ca49ffd2772de09a948fbbc]
link Ordenar incidencias to Operador--><g id="link_Ordenar incidencias_Operador"><path d="M421.1,325.56 C421.67,343.27 422.55,370.46 423.27,392.8 " fill="none" id="Ordenar incidencias-Operador" style="stroke:#181818;stroke-width:1.0;"/></g><!--MD5=[d4fae50ff6170798c2a48d02ed830e49]
link Administrador to Actor--><g id="link_Administrador_Actor"><path d="M559.5,83.75 C559.5,109.53 559.5,144.31 559.5,175 C559.5,175 559.5,175 559.5,433 C559.5,466.59 559.5,504.15 559.5,534.38 " fill="none" id="Administrador-to-Actor" style="stroke:#181818;stroke-width:1.0;"/><polygon fill="none" points="566.5,534.47,559.5,554.47,552.5,534.47,566.5,534.47" style="stroke:#181818;stroke-width:1.0;"/></g><!--MD5=[2262d859d67fc99a935da1daa7d03671]
link Administrador to OI--><g id="link_Administrador_OI"><path d="M515.61,73.92 C482.61,95.29 437.55,124.46 404.33,145.97 " fill="none" id="Administrador-OI" style="stroke:#181818;stroke-width:1.0;"/></g><!--MD5=[ef538f4f8fa26bb5799fb12d3a8d8713]
link OI to Ordenar incidencias--><g id="link_OI_Ordenar incidencias"><path d="M374.11,207.66 C382.8,225.88 393.87,249.11 403.01,268.31 " fill="none" id="OI-to-Ordenar incidencias" style="stroke:#181818;stroke-width:1.0;"/><polygon fill="none" points="409.38,265.4,411.67,286.47,396.75,271.43,409.38,265.4" style="stroke:#181818;stroke-width:1.0;"/></g><!--MD5=[da40ff802bee1aae9f60054798ddf0f6]
link OI to AC--><g id="link_OI_AC"><path d="M324.48,206.69 C297.19,229.82 259.88,261.45 235.03,282.51 " fill="none" id="OI-to-AC" style="stroke:#181818;stroke-width:1.0;stroke-dasharray:7.0,7.0;"/><polygon fill="#181818" points="231.15,285.8,240.6038,283.0385,234.9664,282.5696,235.4352,276.9323,231.15,285.8" style="stroke:#181818;stroke-width:1.0;"/><text fill="#000000" font-family="sans-serif" font-size="13" lengthAdjust="spacing" textLength="55" x="284.5" y="251.9951">«include»</text></g><!--MD5=[a1adf6e57c3320e75b5104a4e08b0010]
link Administrador to GCI--><g id="link_Administrador_GCI"><path d="M603.2,79.19 C631.49,100.99 667.78,128.96 693.83,149.05 " fill="none" id="Administrador-GCI" style="stroke:#181818;stroke-width:1.0;"/></g><!--MD5=[4cff19b641bc3f70952fe77ed4f344bf]
@startuml GestionDeIncidencias
actor Tecnico
actor Abstracto
Tecnico- -(Realizar \ninformes)
Tecnico- -|>Abstracto
usecase DA as "Dar de alta 
incidencias
- -
extension points
Enviar correo"
Abstracto- -DA
(Enviar correo)..>DA : <<extend>>
actor SG as "Sistema de gestion de correos"
(Enviar correo)- -SG
usecase ALVT as "Atender llamadas (vista Tecnico)"
Tecnico- -(ALVT)
(ALVT)- -|>(Atender llamadas)
(ALVT)..>(Comprobar datos de incidencia) : <<include>>
actor Actor
Actor<|- -Tecnico
usecase CI as "Consultar incidencias
- -
extension points
Editar datos de incidencia"
CI- -Actor
CI<..(Editar datos de incidencia) : <<extend>>
usecase CIVU as "Consultar incidencias \n(vista de usuario invitado)"
CI<|- -(CIVU)
actor UI as "Usuario invitado"
UI- -(CIVU)
usecase AH as "Acceder a histórico\nde notificaciones"
UI- -AH
UI- -(Registrarse)
usecase II as "Informar incidencia"
UI- -II
(Subida de foto)<..(II) : <<include>>
usecase DAL as "Dar de alta localización"
(DAL)<..(II) : <<include>>
usecase EC as "Explicación completa \nen formato textual"
(EC)<..(II) : <<include>>
actor Operador
Operador- -|>Actor
usecase ALVO as "Atender llamadas (vista operador)"
Operador- -(ALVO)
(ALVO)- -|>(Atender llamadas)
(ALVO)..>(Introducir nuevos datos) : <<include>>
Operador- -(Marcar incidencias)
Operador-up-(Ordenar incidencias)
actor Administrador
Administrador- -|>Actor
usecase OI as "Ordenar incidencias (vista Administrador)"
Administrador- -(OI)
(OI)- -|>(Ordenar incidencias)
usecase AC as "Adición de comentario"
(OI)..>(AC) : <<include>>
usecase GCI as "Gestión de \ncategoría de incidencia"
Administrador- -(GCI)
@enduml

PlantUML version 1.2022.7(Mon Aug 22 19:01:30 CEST 2022)
(GPL source distribution)
Java Runtime: OpenJDK Runtime Environment
JVM: OpenJDK 64-Bit Server VM
Default Encoding: Cp1252
Language: es
Country: ES
--></g></svg>