<?xml version="1.0" encoding="UTF-8" standalone="no"?><svg xmlns="http://www.w3.org/2000/svg" xmlns:xlink="http://www.w3.org/1999/xlink" contentStyleType="text/css" height="581px" preserveAspectRatio="none" style="width:429px;height:581px;background:#FFFFFF;" version="1.1" viewBox="0 0 429 581" width="429px" zoomAndPan="magnify"><defs/><g><!--MD5=[9196e7f5424c8ba52e10312e1fe81956]
class Estudiante--><g id="elem_Estudiante"><rect codeLine="1" fill="#F1F1F1" height="118.4375" id="Estudiante" rx="2.5" ry="2.5" style="stroke:#181818;stroke-width:0.5;" width="121" x="260.5" y="456"/><ellipse cx="285.4" cy="472" fill="#ADD1B2" rx="11" ry="11" style="stroke:#181818;stroke-width:1.0;"/><path d="M288.1656,467.875 Q288.3219,467.6563 288.5094,467.5469 Q288.6969,467.4375 288.9156,467.4375 Q289.2906,467.4375 289.525,467.7031 Q289.7594,467.9531 289.7594,468.5625 L289.7594,470.0156 Q289.7594,470.625 289.525,470.8906 Q289.2906,471.1563 288.9156,471.1563 Q288.5719,471.1563 288.3688,470.9531 Q288.1656,470.7656 288.0563,470.25 Q288.0094,469.8906 287.8219,469.7031 Q287.4938,469.3281 286.8844,469.1094 Q286.275,468.8906 285.65,468.8906 Q284.8844,468.8906 284.2438,469.2188 Q283.6188,469.5469 283.1188,470.2969 Q282.6344,471.0469 282.6344,472.0781 L282.6344,473.1719 Q282.6344,474.4063 283.525,475.2344 Q284.4156,476.0469 286.0094,476.0469 Q286.9469,476.0469 287.6031,475.7969 Q287.9938,475.6406 288.4156,475.2031 Q288.6813,474.9375 288.8219,474.8594 Q288.9781,474.7813 289.1813,474.7813 Q289.5094,474.7813 289.7594,475.0469 Q290.025,475.2969 290.025,475.6406 Q290.025,475.9844 289.6813,476.3906 Q289.1813,476.9688 288.3844,477.2969 Q287.3063,477.75 286.0094,477.75 Q284.4938,477.75 283.2906,477.125 Q282.3063,476.625 281.6188,475.5625 Q280.9313,474.4844 280.9313,473.2031 L280.9313,472.0469 Q280.9313,470.7188 281.5406,469.5781 Q282.1656,468.4219 283.2594,467.8125 Q284.3531,467.1875 285.5875,467.1875 Q286.3219,467.1875 286.9625,467.3594 Q287.6188,467.5156 288.1656,467.875 Z " fill="#000000"/><text fill="#000000" font-family="sans-serif" font-size="14" lengthAdjust="spacing" textLength="67" x="301.6" y="477.7285">Estudiante</text><line style="stroke:#181818;stroke-width:0.5;" x1="261.5" x2="380.5" y1="488" y2="488"/><text fill="#000000" font-family="sans-serif" font-size="14" lengthAdjust="spacing" textLength="47" x="266.5" y="506.5332">DNI/NIE</text><text fill="#000000" font-family="sans-serif" font-size="14" lengthAdjust="spacing" textLength="109" x="266.5" y="524.1426">NombreCompleto</text><text fill="#000000" font-family="sans-serif" font-size="14" lengthAdjust="spacing" textLength="56" x="266.5" y="541.752">Telefono</text><text fill="#000000" font-family="sans-serif" font-size="14" lengthAdjust="spacing" textLength="31" x="266.5" y="559.3613">Sexo</text><line style="stroke:#181818;stroke-width:0.5;" x1="261.5" x2="380.5" y1="566.4375" y2="566.4375"/></g><!--MD5=[b4ad1b83a0bbbe5b274e4fd9e75e34c1]
class Horarios--><g id="elem_Horarios"><rect codeLine="7" fill="#F1F1F1" height="100.8281" id="Horarios" rx="2.5" ry="2.5" style="stroke:#181818;stroke-width:0.5;" width="129" x="256.5" y="277"/><ellipse cx="291.3" cy="293" fill="#ADD1B2" rx="11" ry="11" style="stroke:#181818;stroke-width:1.0;"/><path d="M294.0656,288.875 Q294.2219,288.6563 294.4094,288.5469 Q294.5969,288.4375 294.8156,288.4375 Q295.1906,288.4375 295.425,288.7031 Q295.6594,288.9531 295.6594,289.5625 L295.6594,291.0156 Q295.6594,291.625 295.425,291.8906 Q295.1906,292.1563 294.8156,292.1563 Q294.4719,292.1563 294.2688,291.9531 Q294.0656,291.7656 293.9563,291.25 Q293.9094,290.8906 293.7219,290.7031 Q293.3938,290.3281 292.7844,290.1094 Q292.175,289.8906 291.55,289.8906 Q290.7844,289.8906 290.1438,290.2188 Q289.5188,290.5469 289.0188,291.2969 Q288.5344,292.0469 288.5344,293.0781 L288.5344,294.1719 Q288.5344,295.4063 289.425,296.2344 Q290.3156,297.0469 291.9094,297.0469 Q292.8469,297.0469 293.5031,296.7969 Q293.8938,296.6406 294.3156,296.2031 Q294.5813,295.9375 294.7219,295.8594 Q294.8781,295.7813 295.0813,295.7813 Q295.4094,295.7813 295.6594,296.0469 Q295.925,296.2969 295.925,296.6406 Q295.925,296.9844 295.5813,297.3906 Q295.0813,297.9688 294.2844,298.2969 Q293.2063,298.75 291.9094,298.75 Q290.3938,298.75 289.1906,298.125 Q288.2063,297.625 287.5188,296.5625 Q286.8313,295.4844 286.8313,294.2031 L286.8313,293.0469 Q286.8313,291.7188 287.4406,290.5781 Q288.0656,289.4219 289.1594,288.8125 Q290.2531,288.1875 291.4875,288.1875 Q292.2219,288.1875 292.8625,288.3594 Q293.5188,288.5156 294.0656,288.875 Z " fill="#000000"/><text fill="#000000" font-family="sans-serif" font-size="14" lengthAdjust="spacing" textLength="53" x="309.7" y="298.7285">Horarios</text><line style="stroke:#181818;stroke-width:0.5;" x1="257.5" x2="384.5" y1="309" y2="309"/><text fill="#000000" font-family="sans-serif" font-size="14" lengthAdjust="spacing" textLength="117" x="262.5" y="327.5332">NombreAsignatura</text><text fill="#000000" font-family="sans-serif" font-size="14" lengthAdjust="spacing" textLength="105" x="262.5" y="345.1426">HorasAsignatura</text><text fill="#000000" font-family="sans-serif" font-size="14" lengthAdjust="spacing" textLength="89" x="262.5" y="362.752">DiaAsignatura</text><line style="stroke:#181818;stroke-width:0.5;" x1="257.5" x2="384.5" y1="369.8281" y2="369.8281"/></g><!--MD5=[82bd83a36b8e65dbb86a63e1a11596d9]
class DarAltaEstudiante--><g id="elem_DarAltaEstudiante"><rect codeLine="13" fill="#F1F1F1" height="83.2188" id="DarAltaEstudiante" rx="2.5" ry="2.5" style="stroke:#181818;stroke-width:0.5;" width="148" x="82" y="7"/><ellipse cx="97.9" cy="23" fill="#ADD1B2" rx="11" ry="11" style="stroke:#181818;stroke-width:1.0;"/><path d="M100.6656,18.875 Q100.8219,18.6563 101.0094,18.5469 Q101.1969,18.4375 101.4156,18.4375 Q101.7906,18.4375 102.025,18.7031 Q102.2594,18.9531 102.2594,19.5625 L102.2594,21.0156 Q102.2594,21.625 102.025,21.8906 Q101.7906,22.1563 101.4156,22.1563 Q101.0719,22.1563 100.8688,21.9531 Q100.6656,21.7656 100.5563,21.25 Q100.5094,20.8906 100.3219,20.7031 Q99.9938,20.3281 99.3844,20.1094 Q98.775,19.8906 98.15,19.8906 Q97.3844,19.8906 96.7438,20.2188 Q96.1188,20.5469 95.6188,21.2969 Q95.1344,22.0469 95.1344,23.0781 L95.1344,24.1719 Q95.1344,25.4063 96.025,26.2344 Q96.9156,27.0469 98.5094,27.0469 Q99.4469,27.0469 100.1031,26.7969 Q100.4938,26.6406 100.9156,26.2031 Q101.1813,25.9375 101.3219,25.8594 Q101.4781,25.7813 101.6813,25.7813 Q102.0094,25.7813 102.2594,26.0469 Q102.525,26.2969 102.525,26.6406 Q102.525,26.9844 102.1813,27.3906 Q101.6813,27.9688 100.8844,28.2969 Q99.8063,28.75 98.5094,28.75 Q96.9938,28.75 95.7906,28.125 Q94.8063,27.625 94.1188,26.5625 Q93.4313,25.4844 93.4313,24.2031 L93.4313,23.0469 Q93.4313,21.7188 94.0406,20.5781 Q94.6656,19.4219 95.7594,18.8125 Q96.8531,18.1875 98.0875,18.1875 Q98.8219,18.1875 99.4625,18.3594 Q100.1188,18.5156 100.6656,18.875 Z " fill="#000000"/><text fill="#000000" font-family="sans-serif" font-size="14" lengthAdjust="spacing" textLength="114" x="112.1" y="28.7285">DarAltaEstudiante</text><line style="stroke:#181818;stroke-width:0.5;" x1="83" x2="229" y1="39" y2="39"/><text fill="#000000" font-family="sans-serif" font-size="14" lengthAdjust="spacing" textLength="116" x="88" y="57.5332">NombreEstudiante</text><text fill="#000000" font-family="sans-serif" font-size="14" lengthAdjust="spacing" textLength="136" x="88" y="75.1426">AsignaturasCursadas</text><line style="stroke:#181818;stroke-width:0.5;" x1="83" x2="229" y1="82.2188" y2="82.2188"/></g><!--MD5=[c9adfff1edbca196486ac5da9e1683ec]
class PersonalPDI--><g id="elem_PersonalPDI"><rect fill="#F1F1F1" height="48" id="PersonalPDI" rx="2.5" ry="2.5" style="stroke:#181818;stroke-width:0.5;" width="110" x="7" y="303.5"/><ellipse cx="22" cy="319.5" fill="#ADD1B2" rx="11" ry="11" style="stroke:#181818;stroke-width:1.0;"/><path d="M24.7656,315.375 Q24.9219,315.1563 25.1094,315.0469 Q25.2969,314.9375 25.5156,314.9375 Q25.8906,314.9375 26.125,315.2031 Q26.3594,315.4531 26.3594,316.0625 L26.3594,317.5156 Q26.3594,318.125 26.125,318.3906 Q25.8906,318.6563 25.5156,318.6563 Q25.1719,318.6563 24.9688,318.4531 Q24.7656,318.2656 24.6563,317.75 Q24.6094,317.3906 24.4219,317.2031 Q24.0938,316.8281 23.4844,316.6094 Q22.875,316.3906 22.25,316.3906 Q21.4844,316.3906 20.8438,316.7188 Q20.2188,317.0469 19.7188,317.7969 Q19.2344,318.5469 19.2344,319.5781 L19.2344,320.6719 Q19.2344,321.9063 20.125,322.7344 Q21.0156,323.5469 22.6094,323.5469 Q23.5469,323.5469 24.2031,323.2969 Q24.5938,323.1406 25.0156,322.7031 Q25.2813,322.4375 25.4219,322.3594 Q25.5781,322.2813 25.7813,322.2813 Q26.1094,322.2813 26.3594,322.5469 Q26.625,322.7969 26.625,323.1406 Q26.625,323.4844 26.2813,323.8906 Q25.7813,324.4688 24.9844,324.7969 Q23.9063,325.25 22.6094,325.25 Q21.0938,325.25 19.8906,324.625 Q18.9063,324.125 18.2188,323.0625 Q17.5313,321.9844 17.5313,320.7031 L17.5313,319.5469 Q17.5313,318.2188 18.1406,317.0781 Q18.7656,315.9219 19.8594,315.3125 Q20.9531,314.6875 22.1875,314.6875 Q22.9219,314.6875 23.5625,314.8594 Q24.2188,315.0156 24.7656,315.375 Z " fill="#000000"/><text fill="#000000" font-family="sans-serif" font-size="14" lengthAdjust="spacing" textLength="78" x="36" y="325.2285">PersonalPDI</text><line style="stroke:#181818;stroke-width:0.5;" x1="8" x2="116" y1="335.5" y2="335.5"/><line style="stroke:#181818;stroke-width:0.5;" x1="8" x2="116" y1="343.5" y2="343.5"/></g><!--MD5=[02db5d10e61597e32ed558157bf408c4]
class PersonalPAS--><g id="elem_PersonalPAS"><rect fill="#F1F1F1" height="48" id="PersonalPAS" rx="2.5" ry="2.5" style="stroke:#181818;stroke-width:0.5;" width="115" x="263.5" y="151"/><ellipse cx="278.5" cy="167" fill="#ADD1B2" rx="11" ry="11" style="stroke:#181818;stroke-width:1.0;"/><path d="M281.2656,162.875 Q281.4219,162.6563 281.6094,162.5469 Q281.7969,162.4375 282.0156,162.4375 Q282.3906,162.4375 282.625,162.7031 Q282.8594,162.9531 282.8594,163.5625 L282.8594,165.0156 Q282.8594,165.625 282.625,165.8906 Q282.3906,166.1563 282.0156,166.1563 Q281.6719,166.1563 281.4688,165.9531 Q281.2656,165.7656 281.1563,165.25 Q281.1094,164.8906 280.9219,164.7031 Q280.5938,164.3281 279.9844,164.1094 Q279.375,163.8906 278.75,163.8906 Q277.9844,163.8906 277.3438,164.2188 Q276.7188,164.5469 276.2188,165.2969 Q275.7344,166.0469 275.7344,167.0781 L275.7344,168.1719 Q275.7344,169.4063 276.625,170.2344 Q277.5156,171.0469 279.1094,171.0469 Q280.0469,171.0469 280.7031,170.7969 Q281.0938,170.6406 281.5156,170.2031 Q281.7813,169.9375 281.9219,169.8594 Q282.0781,169.7813 282.2813,169.7813 Q282.6094,169.7813 282.8594,170.0469 Q283.125,170.2969 283.125,170.6406 Q283.125,170.9844 282.7813,171.3906 Q282.2813,171.9688 281.4844,172.2969 Q280.4063,172.75 279.1094,172.75 Q277.5938,172.75 276.3906,172.125 Q275.4063,171.625 274.7188,170.5625 Q274.0313,169.4844 274.0313,168.2031 L274.0313,167.0469 Q274.0313,165.7188 274.6406,164.5781 Q275.2656,163.4219 276.3594,162.8125 Q277.4531,162.1875 278.6875,162.1875 Q279.4219,162.1875 280.0625,162.3594 Q280.7188,162.5156 281.2656,162.875 Z " fill="#000000"/><text fill="#000000" font-family="sans-serif" font-size="14" lengthAdjust="spacing" textLength="83" x="292.5" y="172.7285">PersonalPAS</text><line style="stroke:#181818;stroke-width:0.5;" x1="264.5" x2="377.5" y1="183" y2="183"/><line style="stroke:#181818;stroke-width:0.5;" x1="264.5" x2="377.5" y1="191" y2="191"/></g><!--MD5=[2b05f4afa5075432514dba4c80908943]
link PersonalPDI to Estudiante--><g id="link_PersonalPDI_Estudiante"><path codeLine="18" d="M94.28,351.62 C131.5,378.28 193.97,423.02 243.92,458.79 " fill="none" id="PersonalPDI-to-Estudiante" style="stroke:#181818;stroke-width:1.0;"/><polygon fill="none" points="248.14,453.21,260.33,470.54,239.99,464.59,248.14,453.21" style="stroke:#181818;stroke-width:1.0;"/></g><!--MD5=[dcd5e2ca0a01ef1d88397ca0337e95d3]
reverse link Estudiante to PersonalPAS--><g id="link_Estudiante_PersonalPAS"><path codeLine="19" d="M378.93,438.88 C389.77,420.04 398.97,399.15 403,378 C415.52,312.37 422.32,283.02 383,229 C374.92,217.89 364.06,207.6 353.69,199.09 " fill="none" id="Estudiante-backto-PersonalPAS" style="stroke:#181818;stroke-width:1.0;"/><polygon fill="none" points="384.87,442.58,368.38,455.89,372.97,435.2,384.87,442.58" style="stroke:#181818;stroke-width:1.0;"/></g><!--MD5=[d818663ee5c8b736f48fac9242219d65]
reverse link Horarios to Estudiante--><g id="link_Horarios_Estudiante"><path codeLine="20" d="M321,383.33 C321,406.18 321,432.74 321,455.92 " fill="none" id="Horarios-backto-Estudiante" style="stroke:#181818;stroke-width:1.0;"/><polygon fill="#181818" points="321,378.21,317,387.21,321,383.21,325,387.21,321,378.21" style="stroke:#181818;stroke-width:1.0;"/><text fill="#000000" font-family="sans-serif" font-size="13" lengthAdjust="spacing" textLength="53" x="322" y="422.4951">consultar</text><text fill="#000000" font-family="sans-serif" font-size="13" lengthAdjust="spacing" textLength="20" x="299.7188" y="399.2609">1..*</text><text fill="#000000" font-family="sans-serif" font-size="13" lengthAdjust="spacing" textLength="7" x="313.5734" y="445.2345">1</text></g><!--MD5=[5631b959925e3f2a071d411cae8f52fa]
link PersonalPDI to Horarios--><g id="link_PersonalPDI_Horarios"><path codeLine="21" d="M117.24,327.5 C156.36,327.5 209.13,327.5 251.17,327.5 " fill="none" id="PersonalPDI-to-Horarios" style="stroke:#181818;stroke-width:1.0;"/><polygon fill="#181818" points="256.24,327.5,247.24,323.5,251.24,327.5,247.24,331.5,256.24,327.5" style="stroke:#181818;stroke-width:1.0;"/><text fill="#000000" font-family="sans-serif" font-size="13" lengthAdjust="spacing" textLength="103" x="135.25" y="320.9951">ProponerCambios</text><text fill="#000000" font-family="sans-serif" font-size="13" lengthAdjust="spacing" textLength="7" x="125.1332" y="323.9437">1</text><text fill="#000000" font-family="sans-serif" font-size="13" lengthAdjust="spacing" textLength="20" x="228.5304" y="341.8471">1..*</text></g><!--MD5=[618b6bef81b01a4d85e317bd74772759]
link PersonalPAS to Horarios--><g id="link_PersonalPAS_Horarios"><path codeLine="22" d="M321,199.19 C321,218.43 321,246.59 321,271.53 " fill="none" id="PersonalPAS-to-Horarios" style="stroke:#181818;stroke-width:1.0;"/><polygon fill="#181818" points="321,276.8,325,267.8,321,271.8,317,267.8,321,276.8" style="stroke:#181818;stroke-width:1.0;"/><text fill="#000000" font-family="sans-serif" font-size="13" lengthAdjust="spacing" textLength="52" x="322" y="243.4951">Modificar</text><text fill="#000000" font-family="sans-serif" font-size="13" lengthAdjust="spacing" textLength="7" x="313.1469" y="220.5743">1</text><text fill="#000000" font-family="sans-serif" font-size="13" lengthAdjust="spacing" textLength="20" x="299.5938" y="266.0772">1..*</text></g><!--MD5=[2589d99f278b8c304e749e715a1d1e33]
reverse link DarAltaEstudiante to PersonalPAS--><g id="link_DarAltaEstudiante_PersonalPAS"><path codeLine="23" d="M214.13,93.36 C239.87,112.78 269.09,134.83 290.46,150.96 " fill="none" id="DarAltaEstudiante-backto-PersonalPAS" style="stroke:#181818;stroke-width:1.0;"/><polygon fill="#181818" points="210.03,90.27,214.7955,98.8891,214.018,93.286,219.6211,92.5084,210.03,90.27" style="stroke:#181818;stroke-width:1.0;"/><text fill="#000000" font-family="sans-serif" font-size="13" lengthAdjust="spacing" textLength="20" x="197.0473" y="111.7078">1..*</text><text fill="#000000" font-family="sans-serif" font-size="13" lengthAdjust="spacing" textLength="7" x="274.7372" y="140.2899">1</text></g><!--MD5=[e05c88df44ec4377e76fb222e8b51910]
reverse link DarAltaEstudiante to PersonalPDI--><g id="link_DarAltaEstudiante_PersonalPDI"><path codeLine="24" d="M140.56,95.01 C120.27,154.8 85.39,257.56 69.86,303.33 " fill="none" id="DarAltaEstudiante-backto-PersonalPDI" style="stroke:#181818;stroke-width:1.0;"/><polygon fill="#181818" points="142.23,90.07,135.5564,97.3131,140.6274,94.8062,143.1343,99.8773,142.23,90.07" style="stroke:#181818;stroke-width:1.0;"/><text fill="#000000" font-family="sans-serif" font-size="13" lengthAdjust="spacing" textLength="20" x="118.2931" y="111.7861">1..*</text><text fill="#000000" font-family="sans-serif" font-size="13" lengthAdjust="spacing" textLength="7" x="63.9773" y="292.6266">1</text></g><!--MD5=[6e207c45a3b2b8c8ee502f7eb9581c78]
@startuml Horarios
Class Estudiante{
    DNI/NIE
    NombreCompleto
    Telefono
    Sexo
}
Class Horarios{
    NombreAsignatura
    HorasAsignatura
    DiaAsignatura

}
Class DarAltaEstudiante{
    NombreEstudiante
    AsignaturasCursadas
}

Estudiante<|-up-PersonalPDI
Estudiante<|-down-PersonalPAS
Horarios "1..*"<- -"1" Estudiante : consultar
Horarios "1..*"<-left-"1" PersonalPDI : ProponerCambios
Horarios "1..*"<-up-"1" PersonalPAS : Modificar
DarAltaEstudiante "1..*"<- -"1" PersonalPAS
DarAltaEstudiante "1..*"<- -"1" PersonalPDI
@end

PlantUML version 1.2022.7(Mon Aug 22 19:01:30 CEST 2022)
(GPL source distribution)
Java Runtime: OpenJDK Runtime Environment
JVM: OpenJDK 64-Bit Server VM
Default Encoding: Cp1252
Language: es
Country: ES
--></g></svg>