<?xml version="1.0" encoding="UTF-8" standalone="no"?><svg xmlns="http://www.w3.org/2000/svg" xmlns:xlink="http://www.w3.org/1999/xlink" contentStyleType="text/css" height="562px" preserveAspectRatio="none" style="width:312px;height:562px;background:#FFFFFF;" version="1.1" viewBox="0 0 312 562" width="312px" zoomAndPan="magnify"><defs/><g><!--MD5=[35a64b983c79880384a2fd9b61f0c24b]
class Usuario--><g id="elem_Usuario"><rect codeLine="1" fill="#F1F1F1" height="118.4375" id="Usuario" rx="2.5" ry="2.5" style="stroke:#181818;stroke-width:0.5;" width="121" x="20.5" y="294"/><ellipse cx="53.95" cy="310" fill="#ADD1B2" rx="11" ry="11" style="stroke:#181818;stroke-width:1.0;"/><path d="M56.7156,305.875 Q56.8719,305.6563 57.0594,305.5469 Q57.2469,305.4375 57.4656,305.4375 Q57.8406,305.4375 58.075,305.7031 Q58.3094,305.9531 58.3094,306.5625 L58.3094,308.0156 Q58.3094,308.625 58.075,308.8906 Q57.8406,309.1563 57.4656,309.1563 Q57.1219,309.1563 56.9188,308.9531 Q56.7156,308.7656 56.6063,308.25 Q56.5594,307.8906 56.3719,307.7031 Q56.0438,307.3281 55.4344,307.1094 Q54.825,306.8906 54.2,306.8906 Q53.4344,306.8906 52.7938,307.2188 Q52.1688,307.5469 51.6688,308.2969 Q51.1844,309.0469 51.1844,310.0781 L51.1844,311.1719 Q51.1844,312.4063 52.075,313.2344 Q52.9656,314.0469 54.5594,314.0469 Q55.4969,314.0469 56.1531,313.7969 Q56.5438,313.6406 56.9656,313.2031 Q57.2313,312.9375 57.3719,312.8594 Q57.5281,312.7813 57.7313,312.7813 Q58.0594,312.7813 58.3094,313.0469 Q58.575,313.2969 58.575,313.6406 Q58.575,313.9844 58.2313,314.3906 Q57.7313,314.9688 56.9344,315.2969 Q55.8563,315.75 54.5594,315.75 Q53.0438,315.75 51.8406,315.125 Q50.8563,314.625 50.1688,313.5625 Q49.4813,312.4844 49.4813,311.2031 L49.4813,310.0469 Q49.4813,308.7188 50.0906,307.5781 Q50.7156,306.4219 51.8094,305.8125 Q52.9031,305.1875 54.1375,305.1875 Q54.8719,305.1875 55.5125,305.3594 Q56.1688,305.5156 56.7156,305.875 Z " fill="#000000"/><text fill="#000000" font-family="sans-serif" font-size="14" lengthAdjust="spacing" textLength="48" x="72.05" y="315.7285">Usuario</text><line style="stroke:#181818;stroke-width:0.5;" x1="21.5" x2="140.5" y1="326" y2="326"/><text fill="#000000" font-family="sans-serif" font-size="14" lengthAdjust="spacing" textLength="47" x="26.5" y="344.5332">DNI/NIE</text><text fill="#000000" font-family="sans-serif" font-size="14" lengthAdjust="spacing" textLength="109" x="26.5" y="362.1426">NombreCompleto</text><text fill="#000000" font-family="sans-serif" font-size="14" lengthAdjust="spacing" textLength="56" x="26.5" y="379.752">Telefono</text><text fill="#000000" font-family="sans-serif" font-size="14" lengthAdjust="spacing" textLength="31" x="26.5" y="397.3613">Sexo</text><line style="stroke:#181818;stroke-width:0.5;" x1="21.5" x2="140.5" y1="404.4375" y2="404.4375"/></g><!--MD5=[347e7aef5a94730de2181062ec5fc448]
class ListaDeClase--><g id="elem_ListaDeClase"><rect codeLine="7" fill="#F1F1F1" height="83.2188" id="ListaDeClase" rx="2.5" ry="2.5" style="stroke:#181818;stroke-width:0.5;" width="129" x="176.5" y="311.5"/><ellipse cx="197.35" cy="327.5" fill="#ADD1B2" rx="11" ry="11" style="stroke:#181818;stroke-width:1.0;"/><path d="M200.1156,323.375 Q200.2719,323.1563 200.4594,323.0469 Q200.6469,322.9375 200.8656,322.9375 Q201.2406,322.9375 201.475,323.2031 Q201.7094,323.4531 201.7094,324.0625 L201.7094,325.5156 Q201.7094,326.125 201.475,326.3906 Q201.2406,326.6563 200.8656,326.6563 Q200.5219,326.6563 200.3188,326.4531 Q200.1156,326.2656 200.0063,325.75 Q199.9594,325.3906 199.7719,325.2031 Q199.4438,324.8281 198.8344,324.6094 Q198.225,324.3906 197.6,324.3906 Q196.8344,324.3906 196.1938,324.7188 Q195.5688,325.0469 195.0688,325.7969 Q194.5844,326.5469 194.5844,327.5781 L194.5844,328.6719 Q194.5844,329.9063 195.475,330.7344 Q196.3656,331.5469 197.9594,331.5469 Q198.8969,331.5469 199.5531,331.2969 Q199.9438,331.1406 200.3656,330.7031 Q200.6313,330.4375 200.7719,330.3594 Q200.9281,330.2813 201.1313,330.2813 Q201.4594,330.2813 201.7094,330.5469 Q201.975,330.7969 201.975,331.1406 Q201.975,331.4844 201.6313,331.8906 Q201.1313,332.4688 200.3344,332.7969 Q199.2563,333.25 197.9594,333.25 Q196.4438,333.25 195.2406,332.625 Q194.2563,332.125 193.5688,331.0625 Q192.8813,329.9844 192.8813,328.7031 L192.8813,327.5469 Q192.8813,326.2188 193.4906,325.0781 Q194.1156,323.9219 195.2094,323.3125 Q196.3031,322.6875 197.5375,322.6875 Q198.2719,322.6875 198.9125,322.8594 Q199.5688,323.0156 200.1156,323.375 Z " fill="#000000"/><text fill="#000000" font-family="sans-serif" font-size="14" lengthAdjust="spacing" textLength="84" x="212.65" y="333.2285">ListaDeClase</text><line style="stroke:#181818;stroke-width:0.5;" x1="177.5" x2="304.5" y1="343.5" y2="343.5"/><text fill="#000000" font-family="sans-serif" font-size="14" lengthAdjust="spacing" textLength="116" x="182.5" y="362.0332">NombreEstudiante</text><text fill="#000000" font-family="sans-serif" font-size="14" lengthAdjust="spacing" textLength="117" x="182.5" y="379.6426">NombreAsignatura</text><line style="stroke:#181818;stroke-width:0.5;" x1="177.5" x2="304.5" y1="386.7188" y2="386.7188"/></g><!--MD5=[b4ad1b83a0bbbe5b274e4fd9e75e34c1]
class Horarios--><g id="elem_Horarios"><rect codeLine="11" fill="#F1F1F1" height="100.8281" id="Horarios" rx="2.5" ry="2.5" style="stroke:#181818;stroke-width:0.5;" width="129" x="67.5" y="7"/><ellipse cx="102.3" cy="23" fill="#ADD1B2" rx="11" ry="11" style="stroke:#181818;stroke-width:1.0;"/><path d="M105.0656,18.875 Q105.2219,18.6563 105.4094,18.5469 Q105.5969,18.4375 105.8156,18.4375 Q106.1906,18.4375 106.425,18.7031 Q106.6594,18.9531 106.6594,19.5625 L106.6594,21.0156 Q106.6594,21.625 106.425,21.8906 Q106.1906,22.1563 105.8156,22.1563 Q105.4719,22.1563 105.2688,21.9531 Q105.0656,21.7656 104.9563,21.25 Q104.9094,20.8906 104.7219,20.7031 Q104.3938,20.3281 103.7844,20.1094 Q103.175,19.8906 102.55,19.8906 Q101.7844,19.8906 101.1438,20.2188 Q100.5188,20.5469 100.0188,21.2969 Q99.5344,22.0469 99.5344,23.0781 L99.5344,24.1719 Q99.5344,25.4063 100.425,26.2344 Q101.3156,27.0469 102.9094,27.0469 Q103.8469,27.0469 104.5031,26.7969 Q104.8938,26.6406 105.3156,26.2031 Q105.5813,25.9375 105.7219,25.8594 Q105.8781,25.7813 106.0813,25.7813 Q106.4094,25.7813 106.6594,26.0469 Q106.925,26.2969 106.925,26.6406 Q106.925,26.9844 106.5813,27.3906 Q106.0813,27.9688 105.2844,28.2969 Q104.2063,28.75 102.9094,28.75 Q101.3938,28.75 100.1906,28.125 Q99.2063,27.625 98.5188,26.5625 Q97.8313,25.4844 97.8313,24.2031 L97.8313,23.0469 Q97.8313,21.7188 98.4406,20.5781 Q99.0656,19.4219 100.1594,18.8125 Q101.2531,18.1875 102.4875,18.1875 Q103.2219,18.1875 103.8625,18.3594 Q104.5188,18.5156 105.0656,18.875 Z " fill="#000000"/><text fill="#000000" font-family="sans-serif" font-size="14" lengthAdjust="spacing" textLength="53" x="120.7" y="28.7285">Horarios</text><line style="stroke:#181818;stroke-width:0.5;" x1="68.5" x2="195.5" y1="39" y2="39"/><text fill="#000000" font-family="sans-serif" font-size="14" lengthAdjust="spacing" textLength="117" x="73.5" y="57.5332">NombreAsignatura</text><text fill="#000000" font-family="sans-serif" font-size="14" lengthAdjust="spacing" textLength="105" x="73.5" y="75.1426">HorasAsignatura</text><text fill="#000000" font-family="sans-serif" font-size="14" lengthAdjust="spacing" textLength="89" x="73.5" y="92.752">DiaAsignatura</text><line style="stroke:#181818;stroke-width:0.5;" x1="68.5" x2="195.5" y1="99.8281" y2="99.8281"/></g><!--MD5=[b461fef6a7ba6f6fc6681ac8d845c93a]
class Asignatura--><g id="elem_Asignatura"><rect codeLine="17" fill="#F1F1F1" height="65.6094" id="Asignatura" rx="2.5" ry="2.5" style="stroke:#181818;stroke-width:0.5;" width="100" x="134" y="168"/><ellipse cx="149" cy="184" fill="#ADD1B2" rx="11" ry="11" style="stroke:#181818;stroke-width:1.0;"/><path d="M151.7656,179.875 Q151.9219,179.6563 152.1094,179.5469 Q152.2969,179.4375 152.5156,179.4375 Q152.8906,179.4375 153.125,179.7031 Q153.3594,179.9531 153.3594,180.5625 L153.3594,182.0156 Q153.3594,182.625 153.125,182.8906 Q152.8906,183.1563 152.5156,183.1563 Q152.1719,183.1563 151.9688,182.9531 Q151.7656,182.7656 151.6563,182.25 Q151.6094,181.8906 151.4219,181.7031 Q151.0938,181.3281 150.4844,181.1094 Q149.875,180.8906 149.25,180.8906 Q148.4844,180.8906 147.8438,181.2188 Q147.2188,181.5469 146.7188,182.2969 Q146.2344,183.0469 146.2344,184.0781 L146.2344,185.1719 Q146.2344,186.4063 147.125,187.2344 Q148.0156,188.0469 149.6094,188.0469 Q150.5469,188.0469 151.2031,187.7969 Q151.5938,187.6406 152.0156,187.2031 Q152.2813,186.9375 152.4219,186.8594 Q152.5781,186.7813 152.7813,186.7813 Q153.1094,186.7813 153.3594,187.0469 Q153.625,187.2969 153.625,187.6406 Q153.625,187.9844 153.2813,188.3906 Q152.7813,188.9688 151.9844,189.2969 Q150.9063,189.75 149.6094,189.75 Q148.0938,189.75 146.8906,189.125 Q145.9063,188.625 145.2188,187.5625 Q144.5313,186.4844 144.5313,185.2031 L144.5313,184.0469 Q144.5313,182.7188 145.1406,181.5781 Q145.7656,180.4219 146.8594,179.8125 Q147.9531,179.1875 149.1875,179.1875 Q149.9219,179.1875 150.5625,179.3594 Q151.2188,179.5156 151.7656,179.875 Z " fill="#000000"/><text fill="#000000" font-family="sans-serif" font-size="14" lengthAdjust="spacing" textLength="68" x="163" y="189.7285">Asignatura</text><line style="stroke:#181818;stroke-width:0.5;" x1="135" x2="233" y1="200" y2="200"/><text fill="#000000" font-family="sans-serif" font-size="14" lengthAdjust="spacing" textLength="49" x="140" y="218.5332">Nombre</text><line style="stroke:#181818;stroke-width:0.5;" x1="135" x2="233" y1="225.6094" y2="225.6094"/></g><!--MD5=[34cc7a7d71388ba01b2ab9c2c48df15b]
class Alta--><g id="elem_Alta"><rect codeLine="20" fill="#F1F1F1" height="83.2188" id="Alta" rx="2.5" ry="2.5" style="stroke:#181818;stroke-width:0.5;" width="148" x="7" y="472"/><ellipse cx="64.75" cy="488" fill="#ADD1B2" rx="11" ry="11" style="stroke:#181818;stroke-width:1.0;"/><path d="M67.5156,483.875 Q67.6719,483.6563 67.8594,483.5469 Q68.0469,483.4375 68.2656,483.4375 Q68.6406,483.4375 68.875,483.7031 Q69.1094,483.9531 69.1094,484.5625 L69.1094,486.0156 Q69.1094,486.625 68.875,486.8906 Q68.6406,487.1563 68.2656,487.1563 Q67.9219,487.1563 67.7188,486.9531 Q67.5156,486.7656 67.4063,486.25 Q67.3594,485.8906 67.1719,485.7031 Q66.8438,485.3281 66.2344,485.1094 Q65.625,484.8906 65,484.8906 Q64.2344,484.8906 63.5938,485.2188 Q62.9688,485.5469 62.4688,486.2969 Q61.9844,487.0469 61.9844,488.0781 L61.9844,489.1719 Q61.9844,490.4063 62.875,491.2344 Q63.7656,492.0469 65.3594,492.0469 Q66.2969,492.0469 66.9531,491.7969 Q67.3438,491.6406 67.7656,491.2031 Q68.0313,490.9375 68.1719,490.8594 Q68.3281,490.7813 68.5313,490.7813 Q68.8594,490.7813 69.1094,491.0469 Q69.375,491.2969 69.375,491.6406 Q69.375,491.9844 69.0313,492.3906 Q68.5313,492.9688 67.7344,493.2969 Q66.6563,493.75 65.3594,493.75 Q63.8438,493.75 62.6406,493.125 Q61.6563,492.625 60.9688,491.5625 Q60.2813,490.4844 60.2813,489.2031 L60.2813,488.0469 Q60.2813,486.7188 60.8906,485.5781 Q61.5156,484.4219 62.6094,483.8125 Q63.7031,483.1875 64.9375,483.1875 Q65.6719,483.1875 66.3125,483.3594 Q66.9688,483.5156 67.5156,483.875 Z " fill="#000000"/><text fill="#000000" font-family="sans-serif" font-size="14" lengthAdjust="spacing" textLength="24" x="85.25" y="493.7285">Alta</text><line style="stroke:#181818;stroke-width:0.5;" x1="8" x2="154" y1="504" y2="504"/><text fill="#000000" font-family="sans-serif" font-size="14" lengthAdjust="spacing" textLength="116" x="13" y="522.5332">NombreEstudiante</text><text fill="#000000" font-family="sans-serif" font-size="14" lengthAdjust="spacing" textLength="136" x="13" y="540.1426">AsignaturasCursadas</text><line style="stroke:#181818;stroke-width:0.5;" x1="8" x2="154" y1="547.2188" y2="547.2188"/></g><!--MD5=[e4f412784756f2a787d13743f92d10c6]
link Horarios to Usuario--><g id="link_Horarios_Usuario"><path codeLine="26" d="M123.35,108.29 C114.42,159.64 100.52,239.67 91.1,293.89 " fill="none" id="Horarios-Usuario" style="stroke:#181818;stroke-width:1.0;"/><text fill="#000000" font-family="sans-serif" font-size="13" lengthAdjust="spacing" textLength="20" x="100.9605" y="129.3511">1..*</text><text fill="#000000" font-family="sans-serif" font-size="13" lengthAdjust="spacing" textLength="7" x="84.9044" y="283.2008">1</text></g><!--MD5=[523b5f6c0eb07c9794d2c5b3775241b5]
link Horarios to Asignatura--><g id="link_Horarios_Asignatura"><path codeLine="27" d="M150.33,108.39 C157.58,128.12 165.71,150.23 172.16,167.79 " fill="none" id="Horarios-Asignatura" style="stroke:#181818;stroke-width:1.0;"/><text fill="#000000" font-family="sans-serif" font-size="13" lengthAdjust="spacing" textLength="7" x="145.2301" y="129.4639">1</text><text fill="#000000" font-family="sans-serif" font-size="13" lengthAdjust="spacing" textLength="5" x="164.3368" y="157.245">*</text></g><!--MD5=[8f9867b039d75332a6a199ae08d61628]
link Asignatura to Usuario--><g id="link_Asignatura_Usuario"><path codeLine="28" d="M161.9,234.18 C149.96,251.57 134.85,273.58 120.93,293.85 " fill="none" id="Asignatura-Usuario" style="stroke:#181818;stroke-width:1.0;"/><text fill="#000000" font-family="sans-serif" font-size="13" lengthAdjust="spacing" textLength="20" x="136.1822" y="255.0764">1..*</text><text fill="#000000" font-family="sans-serif" font-size="13" lengthAdjust="spacing" textLength="7" x="118.3699" y="283.156">1</text></g><!--MD5=[8d4c5ecfc961a8bae0f3f014e0e49996]
link Usuario to Alta--><g id="link_Usuario_Alta"><path codeLine="29" d="M81,412.12 C81,431.91 81,453.6 81,471.73 " fill="none" id="Usuario-Alta" style="stroke:#181818;stroke-width:1.0;"/><text fill="#000000" font-family="sans-serif" font-size="13" lengthAdjust="spacing" textLength="7" x="73.5734" y="433.7901">1</text><text fill="#000000" font-family="sans-serif" font-size="13" lengthAdjust="spacing" textLength="20" x="59.3438" y="460.993">1..*</text></g><!--MD5=[297b897348b5f660f4ee3aad20fc8dd1]
link Asignatura to ListaDeClase--><g id="link_Asignatura_ListaDeClase"><path codeLine="30" d="M196.23,234.18 C204.8,256.73 216.32,287.06 225.53,311.29 " fill="none" id="Asignatura-ListaDeClase" style="stroke:#181818;stroke-width:1.0;"/><text fill="#000000" font-family="sans-serif" font-size="13" lengthAdjust="spacing" textLength="7" x="190.785" y="255.0764">1</text><text fill="#000000" font-family="sans-serif" font-size="13" lengthAdjust="spacing" textLength="7" x="215.3881" y="300.5629">1</text></g><!--MD5=[18a5f9ddcb7543578ad5e6e30bd4eaec]
@startuml Horarios
Class Usuario{
    DNI/NIE
    NombreCompleto
    Telefono
    Sexo
}
Class ListaDeClase{
    NombreEstudiante
    NombreAsignatura
}
Class Horarios{
    NombreAsignatura
    HorasAsignatura
    DiaAsignatura

}
Class Asignatura {
    Nombre
}
Class Alta{
    NombreEstudiante
    AsignaturasCursadas
}


Horarios "1..*"- -"1" Usuario
Horarios"1"- -"*"Asignatura
Asignatura"1..*"- -"1"Usuario
Usuario"1"- -"1..*"Alta
Asignatura"1"- -"1"ListaDeClase
@end

PlantUML version 1.2022.7(Mon Aug 22 19:01:30 CEST 2022)
(GPL source distribution)
Java Runtime: OpenJDK Runtime Environment
JVM: OpenJDK 64-Bit Server VM
Default Encoding: Cp1252
Language: es
Country: ES
--></g></svg>