<?xml version="1.0" encoding="UTF-8" standalone="no"?><svg xmlns="http://www.w3.org/2000/svg" xmlns:xlink="http://www.w3.org/1999/xlink" contentStyleType="text/css" height="639px" preserveAspectRatio="none" style="width:1170px;height:639px;background:#FFFFFF;" version="1.1" viewBox="0 0 1170 639" width="1170px" zoomAndPan="magnify"><defs/><g><g id="elem_VisualOf"><ellipse cx="847.5069" cy="325.9014" fill="#F1F1F1" rx="77.5069" ry="17.9014" style="stroke:#181818;stroke-width:0.5;"/><text fill="#000000" font-family="sans-serif" font-size="14" lengthAdjust="spacing" textLength="108" x="791.3567" y="330.216">Visualizar ofertas</text></g><g id="elem_ConsultDisponib"><ellipse cx="1062.2928" cy="325.8586" fill="#F1F1F1" rx="102.2928" ry="22.8586" style="stroke:#181818;stroke-width:0.5;"/><text fill="#000000" font-family="sans-serif" font-size="14" lengthAdjust="spacing" textLength="166" x="979.2928" y="329.5871">Consultar disponibilidades</text></g><!--MD5=[d9f75b78703733959770a1bae7362de0]
entity Cliente--><g id="elem_Cliente"><ellipse cx="847.5" cy="457.5" fill="#F1F1F1" rx="8" ry="8" style="stroke:#181818;stroke-width:0.5;"/><path d="M847.5,465.5 L847.5,492.5 M834.5,473.5 L860.5,473.5 M847.5,492.5 L834.5,507.5 M847.5,492.5 L860.5,507.5 " fill="none" style="stroke:#181818;stroke-width:0.5;"/><text fill="#000000" font-family="sans-serif" font-size="14" lengthAdjust="spacing" textLength="44" x="825.5" y="523.5332">Cliente</text></g><g id="elem_GestPet"><ellipse cx="589.5408" cy="613.7082" fill="#F1F1F1" rx="86.5408" ry="19.7082" style="stroke:#181818;stroke-width:0.5;"/><text fill="#000000" font-family="sans-serif" font-size="14" lengthAdjust="spacing" textLength="130" x="524.5408" y="617.4367">Gestionar peticiones</text></g><g id="elem_RealOf"><ellipse cx="384.6111" cy="613.7222" fill="#F1F1F1" rx="74.1111" ry="17.2222" style="stroke:#181818;stroke-width:0.5;"/><text fill="#000000" font-family="sans-serif" font-size="14" lengthAdjust="spacing" textLength="99" x="332.1111" y="618.2388">Realizar ofertas</text></g><g id="elem_ConsultRes"><ellipse cx="652.3351" cy="325.867" fill="#F1F1F1" rx="82.3351" ry="18.867" style="stroke:#181818;stroke-width:0.5;"/><text fill="#000000" font-family="sans-serif" font-size="14" lengthAdjust="spacing" textLength="120" x="592.3351" y="329.5955">Consultar reservas</text></g><!--MD5=[2e903384ba6a94be9c906ea46910cc3f]
entity Administrador--><g id="elem_Administrador"><ellipse cx="589.5" cy="457.5" fill="#F1F1F1" rx="8" ry="8" style="stroke:#181818;stroke-width:0.5;"/><path d="M589.5,465.5 L589.5,492.5 M576.5,473.5 L602.5,473.5 M589.5,492.5 L576.5,507.5 M589.5,492.5 L602.5,507.5 " fill="none" style="stroke:#181818;stroke-width:0.5;"/><text fill="#000000" font-family="sans-serif" font-size="14" lengthAdjust="spacing" textLength="87" x="546" y="523.5332">Administrador</text></g><g id="elem_MCalenda"><ellipse cx="1062.5075" cy="170.2015" fill="#F1F1F1" rx="81.5075" ry="18.7015" style="stroke:#181818;stroke-width:0.5;"/><text fill="#000000" font-family="sans-serif" font-size="14" lengthAdjust="spacing" textLength="118" x="1003.1675" y="174.0304">Mostrar calendario</text></g><g id="elem_Consultar"><ellipse cx="806.4968" cy="170.0429" fill="#F1F1F1" rx="54.9968" ry="15.5429" style="stroke:#181818;stroke-width:0.5;"/><text fill="#000000" font-family="sans-serif" font-size="14" lengthAdjust="spacing" textLength="61" x="772.9968" y="174.5595">Consultar</text></g><g id="elem_BuscaElem"><ellipse cx="806.4775" cy="29.2955" fill="#F1F1F1" rx="79.4775" ry="18.2955" style="stroke:#181818;stroke-width:0.5;"/><text fill="#000000" font-family="sans-serif" font-size="14" lengthAdjust="spacing" textLength="113" x="748.756" y="33.3709">Buscar elementos</text></g><!--MD5=[c5684aca041d1f33462d37a1b3ab5c59]
entity Comercial--><g id="elem_Comercial"><ellipse cx="503.5" cy="295.5" fill="#F1F1F1" rx="8" ry="8" style="stroke:#181818;stroke-width:0.5;"/><path d="M503.5,303.5 L503.5,330.5 M490.5,311.5 L516.5,311.5 M503.5,330.5 L490.5,345.5 M503.5,330.5 L516.5,345.5 " fill="none" style="stroke:#181818;stroke-width:0.5;"/><text fill="#000000" font-family="sans-serif" font-size="14" lengthAdjust="spacing" textLength="63" x="472" y="361.5332">Comercial</text></g><!--MD5=[3a6e2f76a10d1b1088633d7992ad5ac5]
entity Gestor de reservas--><g id="elem_Gestor de reservas"><ellipse cx="503.5" cy="139.5" fill="#F1F1F1" rx="8" ry="8" style="stroke:#181818;stroke-width:0.5;"/><path d="M503.5,147.5 L503.5,174.5 M490.5,155.5 L516.5,155.5 M503.5,174.5 L490.5,189.5 M503.5,174.5 L516.5,189.5 " fill="none" style="stroke:#181818;stroke-width:0.5;"/><text fill="#000000" font-family="sans-serif" font-size="14" lengthAdjust="spacing" textLength="122" x="442.5" y="205.5332">Gestor de reservas</text></g><g id="elem_GestNReser"><ellipse cx="503.5397" cy="29.3079" fill="#F1F1F1" rx="104.5397" ry="23.3079" style="stroke:#181818;stroke-width:0.5;"/><text fill="#000000" font-family="sans-serif" font-size="14" lengthAdjust="spacing" textLength="171" x="418.0397" y="33.0365">Gestionar nuevas reservas</text></g><g id="elem_ROfComercial"><ellipse cx="343.4629" cy="488.1229" fill="#F1F1F1" rx="153.9629" ry="45.1229" style="stroke:#181818;stroke-width:0.5;"/><text fill="#000000" font-family="sans-serif" font-size="14" lengthAdjust="spacing" textLength="206" x="240.6008" y="471.4728">Realizar ofertas {vista comercial}</text><line style="stroke:#181818;stroke-width:1.0;" x1="197.6314" x2="489.2943" y1="474.549" y2="474.549"/><text fill="#000000" font-family="sans-serif" font-size="14" lengthAdjust="spacing" textLength="102" x="292.6008" y="493.0822">extension points</text><text fill="#000000" font-family="sans-serif" font-size="14" lengthAdjust="spacing" textLength="183" x="250.1008" y="510.6916">Bloqueo temporal de reserva</text></g><g id="elem_Bloq"><ellipse cx="326.4781" cy="325.8956" fill="#F1F1F1" rx="109.9781" ry="24.3956" style="stroke:#181818;stroke-width:0.5;"/><text fill="#000000" font-family="sans-serif" font-size="14" lengthAdjust="spacing" textLength="183" x="234.9781" y="329.6241">Bloqueo temporal de reserva</text></g><g id="elem_Recalculo de precios"><ellipse cx="93.3923" cy="325.8785" fill="#F1F1F1" rx="87.3923" ry="19.8785" style="stroke:#181818;stroke-width:0.5;"/><text fill="#000000" font-family="sans-serif" font-size="14" lengthAdjust="spacing" textLength="132" x="27.3923" y="329.607">Recalculo de precios</text></g><!--MD5=[1aaafa1c598950e3623d3815cb699b3e]
link ConsultDisponib to Cliente--><g id="link_ConsultDisponib_Cliente"><path d="M1033.95,348.25 C990.54,380.55 908.86,441.33 869.63,470.53 " fill="none" id="ConsultDisponib-Cliente" style="stroke:#181818;stroke-width:1.0;"/></g><!--MD5=[6fd7c18a5d84b7068ed84aa8a32d3394]
link VisualOf to Cliente--><g id="link_VisualOf_Cliente"><path d="M847.5,344.12 C847.5,368.95 847.5,415.61 847.5,448.85 " fill="none" id="VisualOf-Cliente" style="stroke:#181818;stroke-width:1.0;"/></g><!--MD5=[f2315bf86c3a4349ec97cb6ab14b62d1]
link ConsultRes to Administrador--><g id="link_ConsultRes_Administrador"><path d="M645.4,345.04 C635.55,370.05 617.51,415.87 604.58,448.7 " fill="none" id="ConsultRes-Administrador" style="stroke:#181818;stroke-width:1.0;"/></g><!--MD5=[98222e8af08e040dd107b8b2898a469a]
link Administrador to GestPet--><g id="link_Administrador_GestPet"><path d="M589.5,527.06 C589.5,549.17 589.5,576.06 589.5,593.7 " fill="none" id="Administrador-GestPet" style="stroke:#181818;stroke-width:1.0;"/></g><!--MD5=[b8b1f9f5743abba74996f332e232611e]
link Administrador to RealOf--><g id="link_Administrador_RealOf"><path d="M545.77,515.34 C504.26,540.35 443.33,577.06 409.49,597.45 " fill="none" id="Administrador-RealOf" style="stroke:#181818;stroke-width:1.0;"/></g><!--MD5=[253821f82a6579ff117dc2c848caf15d]
link Administrador to Cliente--><g id="link_Administrador_Cliente"><path d="M633.09,488 C690.4,488 747.72,488 805.03,488 " fill="none" id="Administrador-to-Cliente" style="stroke:#181818;stroke-width:1.0;"/><polygon fill="none" points="805.31,481,825.3,488,805.3,495,805.31,481" style="stroke:#181818;stroke-width:1.0;"/></g><!--MD5=[faec2938657b47bb22cc0c877177b322]
reverse link MCalenda to ConsultDisponib--><g id="link_MCalenda_ConsultDisponib"><path d="M1062.5,193.89 C1062.5,223.25 1062.5,273.83 1062.5,302.84 " fill="none" id="MCalenda-backto-ConsultDisponib" style="stroke:#181818;stroke-width:1.0;stroke-dasharray:7.0,7.0;"/><polygon fill="#181818" points="1062.5,188.67,1058.5,197.67,1062.5,193.67,1066.5,197.67,1062.5,188.67" style="stroke:#181818;stroke-width:1.0;"/><text fill="#000000" font-family="sans-serif" font-size="13" lengthAdjust="spacing" textLength="55" x="1063.5" y="253.4951">«include»</text></g><!--MD5=[46a5f18226eb80b3b774d34e15c36ec8]
reverse link Consultar to ConsultDisponib--><g id="link_Consultar_ConsultDisponib"><path d="M846,194.76 C895.84,224.74 980.74,275.82 1028.06,304.28 " fill="none" id="Consultar-backto-ConsultDisponib" style="stroke:#181818;stroke-width:1.0;"/><polygon fill="none" points="842.3,200.71,828.77,184.4,849.52,188.71,842.3,200.71" style="stroke:#181818;stroke-width:1.0;"/></g><!--MD5=[f4e3a7b475006c516b190f269150c038]
reverse link Consultar to ConsultRes--><g id="link_Consultar_ConsultRes"><path d="M778.11,199.39 C746.66,230.84 696.89,280.61 670.43,307.07 " fill="none" id="Consultar-backto-ConsultRes" style="stroke:#181818;stroke-width:1.0;"/><polygon fill="none" points="773.2,194.4,792.29,185.21,783.1,204.3,773.2,194.4" style="stroke:#181818;stroke-width:1.0;"/></g><!--MD5=[8b4421bfd43da3eb6491e066b02c5110]
reverse link BuscaElem to Consultar--><g id="link_BuscaElem_Consultar"><path d="M806.5,53.13 C806.5,81.65 806.5,129.88 806.5,154.13 " fill="none" id="BuscaElem-backto-Consultar" style="stroke:#181818;stroke-width:1.0;stroke-dasharray:7.0,7.0;"/><polygon fill="#181818" points="806.5,48.04,802.5,57.04,806.5,53.04,810.5,57.04,806.5,48.04" style="stroke:#181818;stroke-width:1.0;"/><text fill="#000000" font-family="sans-serif" font-size="13" lengthAdjust="spacing" textLength="55" x="807.5" y="97.4951">«include»</text></g><!--MD5=[e3909dd237f61a3b361586c8427a85d4]
link Gestor de reservas to Comercial--><g id="link_Gestor de reservas_Comercial"><path d="M503.5,209.07 C503.5,226.47 503.5,247.47 503.5,266.78 " fill="none" id="Gestor de reservas-to-Comercial" style="stroke:#181818;stroke-width:1.0;"/><polygon fill="none" points="510.5,266.84,503.5,286.84,496.5,266.84,510.5,266.84" style="stroke:#181818;stroke-width:1.0;"/></g><!--MD5=[7588398c41db300024d4633a352beb85]
link Comercial to Administrador--><g id="link_Comercial_Administrador"><path d="M524.1,365.32 C534.68,385.02 547.78,409.38 559.47,431.12 " fill="none" id="Comercial-to-Administrador" style="stroke:#181818;stroke-width:1.0;"/><polygon fill="none" points="565.77,428.06,569.07,448.99,553.43,434.69,565.77,428.06" style="stroke:#181818;stroke-width:1.0;"/></g><!--MD5=[c62c50d7cef0c69468c2b1d1d82a07bf]
link GestNReser to Gestor de reservas--><g id="link_GestNReser_Gestor de reservas"><path d="M503.5,53.06 C503.5,74.06 503.5,105.79 503.5,130.75 " fill="none" id="GestNReser-Gestor de reservas" style="stroke:#181818;stroke-width:1.0;"/></g><!--MD5=[2c4d75adcb151d731853c2dfb9098f40]
link Comercial to ROfComercial--><g id="link_Comercial_ROfComercial"><path d="M471.89,358.61 C447.3,383.2 412.94,417.56 385.95,444.55 " fill="none" id="Comercial-ROfComercial" style="stroke:#181818;stroke-width:1.0;"/></g><!--MD5=[951d96f0228d5f89991f0fbd5e834071]
link ROfComercial to RealOf--><g id="link_ROfComercial_RealOf"><path d="M358.07,532.89 C362.87,547.36 368.15,563.26 372.72,577.02 " fill="none" id="ROfComercial-to-RealOf" style="stroke:#181818;stroke-width:1.0;"/><polygon fill="none" points="379.49,575.18,379.14,596.37,366.2,579.59,379.49,575.18" style="stroke:#181818;stroke-width:1.0;"/></g><!--MD5=[8b874d76cca6484556865a52257c8eff]
link Bloq to ROfComercial--><g id="link_Bloq_ROfComercial"><path d="M329.01,350.61 C331.43,373.36 335.16,408.49 338.23,437.4 " fill="none" id="Bloq-to-ROfComercial" style="stroke:#181818;stroke-width:1.0;stroke-dasharray:7.0,7.0;"/><polygon fill="#181818" points="338.79,442.72,341.816,433.3475,338.2614,437.748,333.8609,434.1933,338.79,442.72" style="stroke:#181818;stroke-width:1.0;"/><text fill="#000000" font-family="sans-serif" font-size="13" lengthAdjust="spacing" textLength="53" x="337.5" y="409.4951">«extend»</text></g><!--MD5=[ab249fb84c5f48f0c0c8010bacc66eed]
reverse link Recalculo de precios to ROfComercial--><g id="link_Recalculo de precios_ROfComercial"><path d="M126.32,348.01 C165.41,373.02 231.56,415.36 280.61,446.75 " fill="none" id="Recalculo de precios-backto-ROfComercial" style="stroke:#181818;stroke-width:1.0;stroke-dasharray:7.0,7.0;"/><polygon fill="#181818" points="121.69,345.04,127.1103,353.2632,125.9001,347.7373,131.4259,346.5271,121.69,345.04" style="stroke:#181818;stroke-width:1.0;"/><text fill="#000000" font-family="sans-serif" font-size="13" lengthAdjust="spacing" textLength="55" x="227.5" y="409.4951">«include»</text></g><!--MD5=[0cccced02c2564ce066147c163d9f4a7]
@startuml CompaniaHotelera

usecase (Visualizar ofertas) as VisualOf
"Consultar disponibilidades" as (ConsultDisponib)

actor Cliente
Cliente-up-(ConsultDisponib)
Cliente-up-(VisualOf)

usecase (Gestionar peticiones) as GestPet
usecase (Realizar ofertas) as RealOf
usecase (Consultar reservas) as ConsultRes

actor Administrador
Administrador-up-(ConsultRes)
Administrador- -(GestPet) 
Administrador-down-(RealOf) 

Administrador-right-|>Cliente

(Mostrar calendario) as (MCalenda)
(ConsultDisponib).up.>(MCalenda) : <<include>>

(Consultar)<|- -(ConsultDisponib)
(Consultar)<|- -(ConsultRes)

(Buscar elementos) as (BuscaElem)
(Consultar).up.>(BuscaElem): <<include>>

actor Comercial

Comercial<|-up- :Gestor de reservas:
Comercial-right-|> Administrador

usecase (Gestionar nuevas reservas) as GestNReser
:Gestor de reservas:-up-(GestNReser)

usecase ROfComercial as "Realizar ofertas {vista comercial}
- -
extension points
Bloqueo temporal de reserva "

Comercial- -(ROfComercial)
(ROfComercial)- -|>(RealOf)
usecase (Bloqueo temporal de reserva) as (Bloq)
(Bloq)..>(ROfComercial): <<extend>>
(Recalculo de precios)<..(ROfComercial): <<include>>


@enduml

PlantUML version 1.2022.7(Mon Aug 22 19:01:30 CEST 2022)
(GPL source distribution)
Java Runtime: OpenJDK Runtime Environment
JVM: OpenJDK 64-Bit Server VM
Default Encoding: Cp1252
Language: es
Country: ES
--></g></svg>