<?xml version="1.0" encoding="UTF-8" standalone="no"?><svg xmlns="http://www.w3.org/2000/svg" xmlns:xlink="http://www.w3.org/1999/xlink" contentStyleType="text/css" height="697px" preserveAspectRatio="none" style="width:2091px;height:697px;background:#FFFFFF;" version="1.1" viewBox="0 0 2091 697" width="2091px" zoomAndPan="magnify"><defs/><g><!--MD5=[b518afe29adc4be238f77772235dec2a]
entity Vendedor--><g id="elem_Vendedor"><ellipse cx="1124" cy="14" fill="#F1F1F1" rx="8" ry="8" style="stroke:#181818;stroke-width:0.5;"/><path d="M1124,22 L1124,49 M1111,30 L1137,30 M1124,49 L1111,64 M1124,49 L1137,64 " fill="none" style="stroke:#181818;stroke-width:0.5;"/><text fill="#000000" font-family="sans-serif" font-size="14" lengthAdjust="spacing" textLength="62" x="1093" y="80.0332">Vendedor</text></g><!--MD5=[d4df9ba3b0a137211828d4d66ada4284]
entity Abstracto--><g id="elem_Abstracto"><ellipse cx="799" cy="292" fill="#F1F1F1" rx="8" ry="8" style="stroke:#181818;stroke-width:0.5;"/><path d="M799,300 L799,327 M786,308 L812,308 M799,327 L786,342 M799,327 L812,342 " fill="none" style="stroke:#181818;stroke-width:0.5;"/><text fill="#000000" font-family="sans-serif" font-size="14" lengthAdjust="spacing" textLength="60" x="769" y="358.0332">Abstracto</text></g><!--MD5=[37c1e849c7fac2ab8f071c364d67cfa5]
entity Proveedor--><g id="elem_Proveedor"><ellipse cx="457" cy="153" fill="#F1F1F1" rx="8" ry="8" style="stroke:#181818;stroke-width:0.5;"/><path d="M457,161 L457,188 M444,169 L470,169 M457,188 L444,203 M457,188 L470,203 " fill="none" style="stroke:#181818;stroke-width:0.5;"/><text fill="#000000" font-family="sans-serif" font-size="14" lengthAdjust="spacing" textLength="66" x="424" y="219.0332">Proveedor</text></g><!--MD5=[2e903384ba6a94be9c906ea46910cc3f]
entity Administrador--><g id="elem_Administrador"><ellipse cx="940" cy="153" fill="#F1F1F1" rx="8" ry="8" style="stroke:#181818;stroke-width:0.5;"/><path d="M940,161 L940,188 M927,169 L953,169 M940,188 L927,203 M940,188 L953,203 " fill="none" style="stroke:#181818;stroke-width:0.5;"/><text fill="#000000" font-family="sans-serif" font-size="14" lengthAdjust="spacing" textLength="87" x="896.5" y="219.0332">Administrador</text></g><!--MD5=[4e73d3d21f99b8c64cc90bc67774afb7]
entity Comprador--><g id="elem_Comprador"><ellipse cx="1330" cy="153" fill="#F1F1F1" rx="8" ry="8" style="stroke:#181818;stroke-width:0.5;"/><path d="M1330,161 L1330,188 M1317,169 L1343,169 M1330,188 L1317,203 M1330,188 L1343,203 " fill="none" style="stroke:#181818;stroke-width:0.5;"/><text fill="#000000" font-family="sans-serif" font-size="14" lengthAdjust="spacing" textLength="71" x="1294.5" y="219.0332">Comprador</text></g><g id="elem_realizar"><ellipse cx="1784.8567" cy="322.5713" fill="#F1F1F1" rx="70.8567" ry="16.5713" style="stroke:#181818;stroke-width:0.5;"/><text fill="#000000" font-family="sans-serif" font-size="14" lengthAdjust="spacing" textLength="90" x="1736.8567" y="327.0879">Realizar venta</text></g><g id="elem_AcordarP"><ellipse cx="1641.1993" cy="481.3553" fill="#F1F1F1" rx="128.1993" ry="41.8553" style="stroke:#181818;stroke-width:0.5;"/><text fill="#000000" font-family="sans-serif" font-size="14" lengthAdjust="spacing" textLength="93" x="1584.0688" y="460.8906">Acordar precio</text><line style="stroke:#181818;stroke-width:1.0;" x1="1525.5869" x2="1756.8118" y1="463.9667" y2="463.9667"/><text fill="#000000" font-family="sans-serif" font-size="14" lengthAdjust="spacing" textLength="102" x="1579.5688" y="482.4999">extension points</text><text fill="#000000" font-family="sans-serif" font-size="14" lengthAdjust="spacing" textLength="184" x="1538.5688" y="500.1093">Consultar historico de ventas</text></g><g id="elem_consultarH"><ellipse cx="1565.1359" cy="322.6272" fill="#F1F1F1" rx="113.6359" ry="25.1272" style="stroke:#181818;stroke-width:0.5;"/><text fill="#000000" font-family="sans-serif" font-size="14" lengthAdjust="spacing" textLength="191" x="1469.6359" y="326.3557">Consultar historicos en ventas</text></g><g id="elem_finalizarC"><ellipse cx="1132.9763" cy="322.5953" fill="#F1F1F1" rx="75.9763" ry="17.5953" style="stroke:#181818;stroke-width:0.5;"/><text fill="#000000" font-family="sans-serif" font-size="14" lengthAdjust="spacing" textLength="104" x="1078.0467" y="327.0957">Finalizar compra</text></g><g id="elem_marcarP"><ellipse cx="1973.2192" cy="481.4438" fill="#F1F1F1" rx="112.7192" ry="24.9438" style="stroke:#181818;stroke-width:0.5;"/><text fill="#000000" font-family="sans-serif" font-size="14" lengthAdjust="spacing" textLength="189" x="1878.7192" y="485.1724">Marcar productos bloqueados</text></g><g id="elem_AgregarP"><ellipse cx="1973.0075" cy="322.7015" fill="#F1F1F1" rx="81.5075" ry="18.7015" style="stroke:#181818;stroke-width:0.5;"/><text fill="#000000" font-family="sans-serif" font-size="14" lengthAdjust="spacing" textLength="118" x="1913.6675" y="326.5304">Agregar productos</text></g><g id="elem_ConsultarProd"><ellipse cx="1330.1163" cy="322.6233" fill="#F1F1F1" rx="86.1163" ry="19.6233" style="stroke:#181818;stroke-width:0.5;"/><text fill="#000000" font-family="sans-serif" font-size="14" lengthAdjust="spacing" textLength="129" x="1265.6163" y="326.3518">Consultar Productos</text></g><g id="elem_BuscarProd"><ellipse cx="1120.0785" cy="646.7157" fill="#F1F1F1" rx="79.0785" ry="18.2157" style="stroke:#181818;stroke-width:0.5;"/><text fill="#000000" font-family="sans-serif" font-size="14" lengthAdjust="spacing" textLength="112" x="1062.6751" y="650.8395">Buscar Productos</text></g><g id="elem_VerificarDisp"><ellipse cx="1330.1965" cy="481.7393" fill="#F1F1F1" rx="91.6965" ry="20.7393" style="stroke:#181818;stroke-width:0.5;"/><text fill="#000000" font-family="sans-serif" font-size="14" lengthAdjust="spacing" textLength="142" x="1259.1965" y="485.4678">Verificar disponibilidad</text></g><g id="elem_ConsultarO"><ellipse cx="806.896" cy="481.4792" fill="#F1F1F1" rx="77.896" ry="17.9792" style="stroke:#181818;stroke-width:0.5;"/><text fill="#000000" font-family="sans-serif" font-size="14" lengthAdjust="spacing" textLength="109" x="750.4355" y="485.7466">Consultar ofertas</text></g><g id="elem_ConsultarPrec"><ellipse cx="1030.1819" cy="481.6364" fill="#F1F1F1" rx="78.6819" ry="18.1364" style="stroke:#181818;stroke-width:0.5;"/><text fill="#000000" font-family="sans-serif" font-size="14" lengthAdjust="spacing" textLength="111" x="973.0947" y="485.8083">Consultar precios</text></g><g id="elem_EliminarP"><ellipse cx="942.7877" cy="322.5575" fill="#F1F1F1" rx="78.2877" ry="18.0575" style="stroke:#181818;stroke-width:0.5;"/><text fill="#000000" font-family="sans-serif" font-size="14" lengthAdjust="spacing" textLength="110" x="886.0149" y="326.7774">Eliminar producto</text></g><g id="elem_AvisarFin"><ellipse cx="87.9202" cy="322.284" fill="#F1F1F1" rx="81.9202" ry="18.784" style="stroke:#181818;stroke-width:0.5;"/><text fill="#000000" font-family="sans-serif" font-size="14" lengthAdjust="spacing" textLength="119" x="28.2512" y="326.0629">Avisar fin de oferta</text></g><g id="elem_Avisar"><ellipse cx="188.0624" cy="481.4517" fill="#F1F1F1" rx="39.0624" ry="15.4517" style="stroke:#181818;stroke-width:0.5;"/><text fill="#000000" font-family="sans-serif" font-size="14" lengthAdjust="spacing" textLength="39" x="168.5624" y="485.1802">Avisar</text></g><g id="elem_Enviar Notificacion"><ellipse cx="188.1887" cy="646.5377" fill="#F1F1F1" rx="80.6887" ry="18.5377" style="stroke:#181818;stroke-width:0.5;"/><text fill="#000000" font-family="sans-serif" font-size="14" lengthAdjust="spacing" textLength="116" x="129.5015" y="650.4661">Enviar Notificacion</text></g><g id="elem_Eliminar oferta"><ellipse cx="333.2113" cy="322.6423" fill="#F1F1F1" rx="71.2113" ry="16.6423" style="stroke:#181818;stroke-width:0.5;"/><text fill="#000000" font-family="sans-serif" font-size="14" lengthAdjust="spacing" textLength="91" x="284.7113" y="327.1589">Eliminar oferta</text></g><g id="elem_AvisarNuevos"><ellipse cx="456.793" cy="646.5373" fill="#F1F1F1" rx="119.793" ry="45.0373" style="stroke:#181818;stroke-width:0.5;"/><text fill="#000000" font-family="sans-serif" font-size="14" lengthAdjust="spacing" textLength="157" x="379.0471" y="629.7694">Avisar Nuevos productos</text><line style="stroke:#181818;stroke-width:1.0;" x1="343.6699" x2="569.9161" y1="632.8456" y2="632.8456"/><text fill="#000000" font-family="sans-serif" font-size="14" lengthAdjust="spacing" textLength="102" x="406.5471" y="651.3788">extension points</text><text fill="#000000" font-family="sans-serif" font-size="14" lengthAdjust="spacing" textLength="141" x="387.0471" y="668.9881">Realizar incorporacion</text></g><g id="elem_RealizarIncorp"><ellipse cx="601.7628" cy="481.6526" fill="#F1F1F1" rx="91.2628" ry="20.6526" style="stroke:#181818;stroke-width:0.5;"/><text fill="#000000" font-family="sans-serif" font-size="14" lengthAdjust="spacing" textLength="141" x="531.2628" y="485.3811">Realizar incorporacion</text></g><!--MD5=[3553b11ad4161e3a23266514a7007971]
link Vendedor to Abstracto--><g id="link_Vendedor_Abstracto"><path d="M1092.87,50.4 C1041.99,59.92 940.55,85.4 879,144.5 C845.39,176.77 824.76,225.77 812.88,264.04 " fill="none" id="Vendedor-to-Abstracto" style="stroke:#181818;stroke-width:1.0;"/><polygon fill="none" points="819.55,266.18,807.31,283.47,806.1,262.31,819.55,266.18" style="stroke:#181818;stroke-width:1.0;"/></g><!--MD5=[0cc376851915bd30eebbfd4a66c21630]
link Proveedor to Abstracto--><g id="link_Proveedor_Abstracto"><path d="M490.1,197.76 C550.65,222.02 679.5,273.63 750.15,301.93 " fill="none" id="Proveedor-to-Abstracto" style="stroke:#181818;stroke-width:1.0;"/><polygon fill="none" points="752.88,295.48,768.84,309.42,747.67,308.48,752.88,295.48" style="stroke:#181818;stroke-width:1.0;"/></g><!--MD5=[a9bfa0eb4860d02d076b9d8c865c6bfd]
link Administrador to Abstracto--><g id="link_Administrador_Abstracto"><path d="M900.72,222.66 C883.03,239.86 862.04,260.25 843.74,278.03 " fill="none" id="Administrador-to-Abstracto" style="stroke:#181818;stroke-width:1.0;"/><polygon fill="none" points="848.35,283.31,829.13,292.23,838.59,273.27,848.35,283.31" style="stroke:#181818;stroke-width:1.0;"/></g><!--MD5=[a96e942af35f7a5180901848f4826f72]
link Comprador to Abstracto--><g id="link_Comprador_Abstracto"><path d="M1294.29,186.19 C1211.77,191.25 1002.96,210.85 847,283.5 C846.81,283.59 846.61,283.68 846.42,283.77 " fill="none" id="Comprador-to-Abstracto" style="stroke:#181818;stroke-width:1.0;"/><polygon fill="none" points="849.82,289.9,829.09,294.28,842.56,277.93,849.82,289.9" style="stroke:#181818;stroke-width:1.0;"/></g><!--MD5=[e72ed88cec89a36012d1bc52971bc3b0]
link Vendedor to realizar--><g id="link_Vendedor_realizar"><path d="M1155.29,56.89 C1204.18,74.81 1301.52,111.01 1383,144.5 C1523.18,202.11 1688,276.95 1754.71,307.55 " fill="none" id="Vendedor-realizar" style="stroke:#181818;stroke-width:1.0;"/></g><!--MD5=[e08d7c23e756bbd42e54440cc47e78e6]
link consultarH to AcordarP--><g id="link_consultarH_AcordarP"><path d="M1576.71,347.69 C1587.97,370.96 1605.28,406.71 1619.1,435.27 " fill="none" id="consultarH-to-AcordarP" style="stroke:#181818;stroke-width:1.0;stroke-dasharray:7.0,7.0;"/><polygon fill="#181818" points="1621.29,439.79,1620.9559,429.9468,1619.1055,435.2925,1613.7598,433.442,1621.29,439.79" style="stroke:#181818;stroke-width:1.0;"/><text fill="#000000" font-family="sans-serif" font-size="13" lengthAdjust="spacing" textLength="53" x="1606" y="405.9951">«extend»</text></g><!--MD5=[833cf49ca523e0fa13cbb1ee924e2a40]
link realizar to AcordarP--><g id="link_realizar_AcordarP"><path d="M1770.93,338.84 C1750.26,361.38 1710.88,404.31 1680.87,437.03 " fill="none" id="realizar-to-AcordarP" style="stroke:#181818;stroke-width:1.0;stroke-dasharray:7.0,7.0;"/><polygon fill="#181818" points="1677.26,440.97,1686.2943,437.048,1680.6425,437.2878,1680.4027,431.636,1677.26,440.97" style="stroke:#181818;stroke-width:1.0;"/><text fill="#000000" font-family="sans-serif" font-size="13" lengthAdjust="spacing" textLength="55" x="1722" y="405.9951">«include»</text></g><!--MD5=[115be53e9c273a530a21ff2297e70bb6]
link Comprador to realizar--><g id="link_Comprador_realizar"><path d="M1365.57,192.38 C1431.56,207.38 1577.06,242.25 1696,283.5 C1716,290.44 1737.87,299.75 1754.93,307.42 " fill="none" id="Comprador-realizar" style="stroke:#181818;stroke-width:1.0;"/></g><!--MD5=[ce3c1dc8ede03c56b54d30827c196d98]
link Comprador to finalizarC--><g id="link_Comprador_finalizarC"><path d="M1294.32,209.31 C1254.08,237.3 1189.81,281.99 1155.81,305.64 " fill="none" id="Comprador-finalizarC" style="stroke:#181818;stroke-width:1.0;"/></g><!--MD5=[cb83f0e9acc3c17efb5aba1d6581cb1d]
link AgregarP to marcarP--><g id="link_AgregarP_marcarP"><path d="M1973,341.2 C1973,368 1973,419.14 1973,451.45 " fill="none" id="AgregarP-to-marcarP" style="stroke:#181818;stroke-width:1.0;stroke-dasharray:7.0,7.0;"/><polygon fill="#181818" points="1973,456.46,1977,447.46,1973,451.46,1969,447.46,1973,456.46" style="stroke:#181818;stroke-width:1.0;"/><text fill="#000000" font-family="sans-serif" font-size="13" lengthAdjust="spacing" textLength="55" x="1974" y="405.9951">«include»</text></g><!--MD5=[eaef8394bf846570836a8e85f72d9393]
link Comprador to AgregarP--><g id="link_Comprador_AgregarP"><path d="M1365.52,188.63 C1453.09,199.32 1685.9,230.78 1874,283.5 C1895.27,289.46 1918.35,298.18 1936.88,305.77 " fill="none" id="Comprador-AgregarP" style="stroke:#181818;stroke-width:1.0;"/></g><!--MD5=[e661a0ad4e5382b5b9bc77e5548d8fc6]
link Comprador to ConsultarProd--><g id="link_Comprador_ConsultarProd"><path d="M1330,222.66 C1330,248.79 1330,282.3 1330,302.82 " fill="none" id="Comprador-ConsultarProd" style="stroke:#181818;stroke-width:1.0;"/></g><!--MD5=[a0c332207c29921e1f329d55c1df4f39]
link ConsultarProd to BuscarProd--><g id="link_ConsultarProd_BuscarProd"><path d="M1309.58,341.66 C1286.1,363.29 1247.41,401.32 1221,439.5 C1182.72,494.85 1150.98,566.87 1133.81,609.44 " fill="none" id="ConsultarProd-to-BuscarProd" style="stroke:#181818;stroke-width:1.0;"/><polygon fill="none" points="1140.24,612.23,1126.4,628.28,1127.21,607.11,1140.24,612.23" style="stroke:#181818;stroke-width:1.0;"/></g><!--MD5=[47291dd92bce8ca9cf90dc4c9c54b011]
link ConsultarProd to VerificarDisp--><g id="link_ConsultarProd_VerificarDisp"><path d="M1330,342.13 C1330,370.38 1330,424.12 1330,455.67 " fill="none" id="ConsultarProd-to-VerificarDisp" style="stroke:#181818;stroke-width:1.0;stroke-dasharray:7.0,7.0;"/><polygon fill="#181818" points="1330,460.91,1334,451.91,1330,455.91,1326,451.91,1330,460.91" style="stroke:#181818;stroke-width:1.0;"/><text fill="#000000" font-family="sans-serif" font-size="13" lengthAdjust="spacing" textLength="55" x="1331" y="405.9951">«include»</text></g><!--MD5=[4cfe59b65fbff03b59903306056faec1]
link Abstracto to ConsultarO--><g id="link_Abstracto_ConsultarO"><path d="M800.94,361.51 C802.59,393.99 804.9,439.23 806.13,463.5 " fill="none" id="Abstracto-ConsultarO" style="stroke:#181818;stroke-width:1.0;"/></g><!--MD5=[45057283a3866fd858cb76c8ddbff547]
link Abstracto to ConsultarPrec--><g id="link_Abstracto_ConsultarPrec"><path d="M829.14,348.06 C834.99,352.62 841.13,357.28 847,361.5 C901.32,400.53 967.73,442.31 1003.73,464.49 " fill="none" id="Abstracto-ConsultarPrec" style="stroke:#181818;stroke-width:1.0;"/></g><!--MD5=[ac4f605a90cdb346b8af096b99a11c34]
link ConsultarPrec to BuscarProd--><g id="link_ConsultarPrec_BuscarProd"><path d="M1039.46,499.64 C1055.98,529.55 1090.04,591.23 1108.12,623.98 " fill="none" id="ConsultarPrec-to-BuscarProd" style="stroke:#181818;stroke-width:1.0;stroke-dasharray:7.0,7.0;"/><polygon fill="#181818" points="1110.67,628.59,1109.8204,618.7779,1108.2527,624.2132,1102.8174,622.6455,1110.67,628.59" style="stroke:#181818;stroke-width:1.0;"/><text fill="#000000" font-family="sans-serif" font-size="13" lengthAdjust="spacing" textLength="55" x="1078" y="567.9951">«include»</text></g><!--MD5=[b711ff5a0b1b76643b4b14f5fdbf81ae]
link Administrador to EliminarP--><g id="link_Administrador_EliminarP"><path d="M940.84,222.66 C941.42,249.42 942.18,283.93 942.62,304.29 " fill="none" id="Administrador-EliminarP" style="stroke:#181818;stroke-width:1.0;"/></g><!--MD5=[8b7b0871508224ed1579338f11289fe2]
link Proveedor to AvisarFin--><g id="link_Proveedor_AvisarFin"><path d="M423.93,196.78 C356.53,221.8 203.42,278.65 129.48,306.1 " fill="none" id="Proveedor-AvisarFin" style="stroke:#181818;stroke-width:1.0;"/></g><!--MD5=[53d777ba8dc38f1609961cacb7eed792]
link AvisarFin to Avisar--><g id="link_AvisarFin_Avisar"><path d="M99.47,341.51 C116.2,367.78 147.54,416.98 168.09,449.24 " fill="none" id="AvisarFin-to-Avisar" style="stroke:#181818;stroke-width:1.0;"/><polygon fill="none" points="174.16,445.75,179,466.38,162.36,453.27,174.16,445.75" style="stroke:#181818;stroke-width:1.0;"/></g><!--MD5=[da75efc47e348684bca07a10296cf5c0]
link Avisar to Enviar Notificacion--><g id="link_Avisar_Enviar Notificacion"><path d="M188,497.25 C188,525.82 188,588.85 188,622.79 " fill="none" id="Avisar-to-Enviar Notificacion" style="stroke:#181818;stroke-width:1.0;stroke-dasharray:7.0,7.0;"/><polygon fill="#181818" points="188,627.98,192,618.98,188,622.98,184,618.98,188,627.98" style="stroke:#181818;stroke-width:1.0;"/><text fill="#000000" font-family="sans-serif" font-size="13" lengthAdjust="spacing" textLength="55" x="189" y="567.9951">«include»</text></g><!--MD5=[8ac42e6dae7c6e849f576d60ab70dbea]
link AvisarFin to Eliminar oferta--><g id="link_AvisarFin_Eliminar oferta"><path d="M170.26,322.5 C198.14,322.5 229.14,322.5 256.54,322.5 " fill="none" id="AvisarFin-to-Eliminar oferta" style="stroke:#181818;stroke-width:1.0;stroke-dasharray:7.0,7.0;"/><polygon fill="#181818" points="261.62,322.5,252.62,318.5,256.62,322.5,252.62,326.5,261.62,322.5" style="stroke:#181818;stroke-width:1.0;"/><text fill="#000000" font-family="sans-serif" font-size="13" lengthAdjust="spacing" textLength="55" x="188.5" y="315.9951">«include»</text></g><!--MD5=[c263a5faacf8fa6d7e48188248daca34]
link Proveedor to AvisarNuevos--><g id="link_Proveedor_AvisarNuevos"><path d="M457,222.62 C457,307.4 457,511.18 457,601.33 " fill="none" id="Proveedor-AvisarNuevos" style="stroke:#181818;stroke-width:1.0;"/></g><!--MD5=[7c8fa33db6a450c79e178197981fdea4]
reverse link Avisar to AvisarNuevos--><g id="link_Avisar_AvisarNuevos"><path d="M225.81,505.41 C269.72,532.02 342.79,576.3 395.03,607.95 " fill="none" id="Avisar-backto-AvisarNuevos" style="stroke:#181818;stroke-width:1.0;"/><polygon fill="none" points="222.14,511.37,208.66,495.02,229.39,499.4,222.14,511.37" style="stroke:#181818;stroke-width:1.0;"/></g><!--MD5=[69980b3449fbb0d0dd6219ebc025a298]
link RealizarIncorp to AvisarNuevos--><g id="link_RealizarIncorp_AvisarNuevos"><path d="M584.8,501.84 C563.46,525.82 526.39,567.5 497.65,599.8 " fill="none" id="RealizarIncorp-to-AvisarNuevos" style="stroke:#181818;stroke-width:1.0;stroke-dasharray:7.0,7.0;"/><polygon fill="#181818" points="494.19,603.7,503.1512,599.6138,497.5047,599.9567,497.1618,594.3102,494.19,603.7" style="stroke:#181818;stroke-width:1.0;"/><text fill="#000000" font-family="sans-serif" font-size="13" lengthAdjust="spacing" textLength="53" x="540" y="567.9951">«extend»</text></g><!--MD5=[ce33a24feeb2d8cdbb40c88c5ffb7c4c]
@startuml Sistema de compras 
:Vendedor:- - -|> Abstracto
:Proveedor: - -|> Abstracto
:Administrador: - -|> Abstracto
:Comprador: - -|> Abstracto
:Vendedor: - - (realizar)

usecase AcordarP as "
Acordar precio
- -
extension points
Consultar historico de ventas
"

"Consultar historicos en ventas" as (consultarH)


(consultarH)..>(AcordarP): <<extend>>

(realizar)..>(AcordarP): <<include>>

:Comprador: - - (realizar)
"Realizar venta" as (realizar)

:Comprador: - - (finalizarC)
"Finalizar compra" as (finalizarC)

"Marcar productos bloqueados" as (marcarP)
(AgregarP)..>(marcarP): <<include>>


:Comprador: - - (AgregarP)
"Agregar productos" as (AgregarP)

:Comprador: - - (ConsultarProd)
"Consultar Productos" as (ConsultarProd)

ConsultarProd - -|> (BuscarProd)
"Buscar Productos" as (BuscarProd)



"Verificar disponibilidad" as (VerificarDisp)

(ConsultarProd)..>(VerificarDisp): <<include>>



:Abstracto: - - (ConsultarO)
"Consultar ofertas" as (ConsultarO)

:Abstracto: - - (ConsultarPrec)
"Consultar precios" as (ConsultarPrec)


(ConsultarPrec)..>(BuscarProd): <<include>>


:Administrador: - - (EliminarP)
"Eliminar producto" as (EliminarP)



:Proveedor: - - (AvisarFin)
"Avisar fin de oferta" as (AvisarFin)

AvisarFin - -|> (Avisar)
"Avisar" as (Avisar)

(Avisar)..>(Enviar Notificacion): <<include>>
(AvisarFin).>(Eliminar oferta): <<include>>

usecase AvisarNuevos as "
Avisar Nuevos productos
- -
extension points
Realizar incorporacion
"

:Proveedor: - - (AvisarNuevos)

(AvisarNuevos)-up-|>(Avisar)


"Realizar incorporacion" as (RealizarIncorp)
(RealizarIncorp)..>(AvisarNuevos): <<extend>>





@enduml

PlantUML version 1.2022.7(Mon Aug 22 19:01:30 CEST 2022)
(GPL source distribution)
Java Runtime: OpenJDK Runtime Environment
JVM: OpenJDK 64-Bit Server VM
Default Encoding: Cp1252
Language: es
Country: ES
--></g></svg>