<?xml version="1.0" encoding="UTF-8" standalone="no"?><svg xmlns="http://www.w3.org/2000/svg" xmlns:xlink="http://www.w3.org/1999/xlink" contentStyleType="text/css" height="794px" preserveAspectRatio="none" style="width:1913px;height:794px;background:#FFFFFF;" version="1.1" viewBox="0 0 1913 794" width="1913px" zoomAndPan="magnify"><defs/><g><!--MD5=[c9884a940ca17747de6480392133742b]
entity UL--><g id="elem_UL"><ellipse cx="1145.5" cy="213" fill="#F1F1F1" rx="8" ry="8" style="stroke:#181818;stroke-width:0.5;"/><path d="M1145.5,221 L1145.5,248 M1132.5,229 L1158.5,229 M1145.5,248 L1132.5,263 M1145.5,248 L1158.5,263 " fill="none" style="stroke:#181818;stroke-width:0.5;"/><text fill="#000000" font-family="sans-serif" font-size="14" lengthAdjust="spacing" textLength="111" x="1090" y="279.0332">Usuario logueado</text></g><!--MD5=[b99535c0128fef87077296e3c7e19f50]
entity UNL--><g id="elem_UNL"><ellipse cx="1145.5" cy="419" fill="#F1F1F1" rx="8" ry="8" style="stroke:#181818;stroke-width:0.5;"/><path d="M1145.5,427 L1145.5,454 M1132.5,435 L1158.5,435 M1145.5,454 L1132.5,469 M1145.5,454 L1158.5,469 " fill="none" style="stroke:#181818;stroke-width:0.5;"/><text fill="#000000" font-family="sans-serif" font-size="14" lengthAdjust="spacing" textLength="131" x="1080" y="485.0332">Usuario no logueado</text></g><!--MD5=[2e903384ba6a94be9c906ea46910cc3f]
entity Administrador--><g id="elem_Administrador"><ellipse cx="867.5" cy="14" fill="#F1F1F1" rx="8" ry="8" style="stroke:#181818;stroke-width:0.5;"/><path d="M867.5,22 L867.5,49 M854.5,30 L880.5,30 M867.5,49 L854.5,64 M867.5,49 L880.5,64 " fill="none" style="stroke:#181818;stroke-width:0.5;"/><text fill="#000000" font-family="sans-serif" font-size="14" lengthAdjust="spacing" textLength="87" x="824" y="80.0332">Administrador</text></g><g id="elem_CrearPagina"><ellipse cx="1347.6112" cy="449.4347" fill="#F1F1F1" rx="101.1112" ry="45.9347" style="stroke:#181818;stroke-width:0.5;"/><text fill="#000000" font-family="sans-serif" font-size="14" lengthAdjust="spacing" textLength="126" x="1284.3612" y="431.5538">Crear nueva página</text><line style="stroke:#181818;stroke-width:1.0;" x1="1252.8955" x2="1442.327" y1="434.63" y2="434.63"/><text fill="#000000" font-family="sans-serif" font-size="14" lengthAdjust="spacing" textLength="96" x="1299.3612" y="453.1632">Extension point</text><text fill="#000000" font-family="sans-serif" font-size="14" lengthAdjust="spacing" textLength="127" x="1283.8612" y="470.7726">Previsualizar página</text></g><g id="elem_HExplotacion"><ellipse cx="1597.2812" cy="243.4959" fill="#F1F1F1" rx="103.7812" ry="81.9959" style="stroke:#181818;stroke-width:0.5;"/><text fill="#000000" font-family="sans-serif" font-size="14" lengthAdjust="spacing" textLength="129" x="1532.7256" y="199.6215">Usar herramienta de</text><text fill="#000000" font-family="sans-serif" font-size="14" lengthAdjust="spacing" textLength="124" x="1539.2256" y="217.2309">explotacion de Web</text><line style="stroke:#181818;stroke-width:1.0;" x1="1498.7366" x2="1695.8257" y1="220.3071" y2="220.3071"/><text fill="#000000" font-family="sans-serif" font-size="14" lengthAdjust="spacing" textLength="96" x="1551.2256" y="238.8403">Extension point</text><text fill="#000000" font-family="sans-serif" font-size="14" lengthAdjust="spacing" textLength="117" x="1540.7256" y="256.4496">Publicar contenido</text><text fill="#000000" font-family="sans-serif" font-size="14" lengthAdjust="spacing" textLength="116" x="1541.2256" y="274.059">Eliminar contenido</text><text fill="#000000" font-family="sans-serif" font-size="14" lengthAdjust="spacing" textLength="123" x="1537.7256" y="291.6684">Modificar contenido</text></g><g id="elem_Buscar"><ellipse cx="1572.726" cy="626.1732" fill="#F1F1F1" rx="96.726" ry="52.6732" style="stroke:#181818;stroke-width:0.5;"/><text fill="#000000" font-family="sans-serif" font-size="14" lengthAdjust="spacing" textLength="44" x="1548.3278" y="592.3219">Buscar</text><line style="stroke:#181818;stroke-width:1.0;" x1="1495.2268" x2="1650.2252" y1="595.3981" y2="595.3981"/><text fill="#000000" font-family="sans-serif" font-size="14" lengthAdjust="spacing" textLength="96" x="1522.3278" y="613.9313">Extension point</text><text fill="#000000" font-family="sans-serif" font-size="14" lengthAdjust="spacing" textLength="81" x="1529.8278" y="631.5407">Elegir idioma</text><text fill="#000000" font-family="sans-serif" font-size="14" lengthAdjust="spacing" textLength="136" x="1502.3278" y="649.15">Buscar por secciones</text></g><g id="elem_Editar la Web"><ellipse cx="691.6119" cy="243.7224" fill="#F1F1F1" rx="69.1119" ry="16.2224" style="stroke:#181818;stroke-width:0.5;"/><text fill="#000000" font-family="sans-serif" font-size="14" lengthAdjust="spacing" textLength="85" x="646.1119" y="248.239">Editar la Web</text></g><g id="elem_Emplear editor WYSIWYG"><ellipse cx="953.4506" cy="243.5901" fill="#F1F1F1" rx="100.9506" ry="22.5901" style="stroke:#181818;stroke-width:0.5;"/><text fill="#000000" font-family="sans-serif" font-size="14" lengthAdjust="spacing" textLength="163" x="871.9506" y="247.3186">Emplear editor WYSIWYG</text></g><g id="elem_Modificar diseño de la página"><ellipse cx="1347.3903" cy="243.5781" fill="#F1F1F1" rx="110.8903" ry="24.5781" style="stroke:#181818;stroke-width:0.5;"/><text fill="#000000" font-family="sans-serif" font-size="14" lengthAdjust="spacing" textLength="185" x="1254.8903" y="247.3066">Modificar diseño de la página</text></g><g id="elem_Publicar contenido"><ellipse cx="1411.597" cy="44.6194" fill="#F1F1F1" rx="81.097" ry="18.6194" style="stroke:#181818;stroke-width:0.5;"/><text fill="#000000" font-family="sans-serif" font-size="14" lengthAdjust="spacing" textLength="117" x="1352.5843" y="48.4982">Publicar contenido</text></g><g id="elem_Eliminar contenido"><ellipse cx="1608.6887" cy="44.5377" fill="#F1F1F1" rx="80.6887" ry="18.5377" style="stroke:#181818;stroke-width:0.5;"/><text fill="#000000" font-family="sans-serif" font-size="14" lengthAdjust="spacing" textLength="116" x="1550.0015" y="48.4661">Eliminar contenido</text></g><g id="elem_Modificar contenido"><ellipse cx="1807.5873" cy="44.6175" fill="#F1F1F1" rx="83.5873" ry="19.1175" style="stroke:#181818;stroke-width:0.5;"/><text fill="#000000" font-family="sans-serif" font-size="14" lengthAdjust="spacing" textLength="123" x="1746.0873" y="48.346">Modificar contenido</text></g><g id="elem_Visualizar estadísticas de \n acceso Vista Administrador"><ellipse cx="137.4309" cy="243.6862" fill="#F1F1F1" rx="131.4309" ry="28.6862" style="stroke:#181818;stroke-width:0.5;"/><text fill="#000000" font-family="sans-serif" font-size="14" lengthAdjust="spacing" textLength="158" x="56.4309" y="238.61">Visualizar estadísticas de</text><text fill="#000000" font-family="sans-serif" font-size="14" lengthAdjust="spacing" textLength="171" x="53.9309" y="256.2194">acceso Vista Administrador</text></g><g id="elem_Visualizar estadísticas \n de acceso"><ellipse cx="733.3049" cy="449.4973" fill="#F1F1F1" rx="112.3049" ry="27.9973" style="stroke:#181818;stroke-width:0.5;"/><text fill="#000000" font-family="sans-serif" font-size="14" lengthAdjust="spacing" textLength="138" x="659.3049" y="445.2092">Visualizar estadísticas</text><text fill="#000000" font-family="sans-serif" font-size="14" lengthAdjust="spacing" textLength="65" x="699.8049" y="462.8186">de acceso</text></g><g id="elem_Usar espacios de trabajo de compartido"><ellipse cx="445.6734" cy="243.7347" fill="#F1F1F1" rx="141.6734" ry="30.7347" style="stroke:#181818;stroke-width:0.5;"/><text fill="#000000" font-family="sans-serif" font-size="14" lengthAdjust="spacing" textLength="251" x="320.1734" y="247.4632">Usar espacios de trabajo de compartido</text></g><g id="elem_Previsualizar página"><ellipse cx="1822.2698" cy="243.454" fill="#F1F1F1" rx="85.2698" ry="19.454" style="stroke:#181818;stroke-width:0.5;"/><text fill="#000000" font-family="sans-serif" font-size="14" lengthAdjust="spacing" textLength="127" x="1758.7698" y="247.1825">Previsualizar página</text></g><g id="elem_Foros"><ellipse cx="1145.6482" cy="625.9517" fill="#F1F1F1" rx="37.6482" ry="15.4517" style="stroke:#181818;stroke-width:0.5;"/><text fill="#000000" font-family="sans-serif" font-size="14" lengthAdjust="spacing" textLength="37" x="1127.1482" y="629.6802">Foros</text></g><g id="elem_Blogs"><ellipse cx="1254.734" cy="625.9517" fill="#F1F1F1" rx="36.234" ry="15.4517" style="stroke:#181818;stroke-width:0.5;"/><text fill="#000000" font-family="sans-serif" font-size="14" lengthAdjust="spacing" textLength="35" x="1237.234" y="629.6802">Blogs</text></g><g id="elem_Cloud tag"><ellipse cx="1017.4968" cy="626.0429" fill="#F1F1F1" rx="54.9968" ry="15.5429" style="stroke:#181818;stroke-width:0.5;"/><text fill="#000000" font-family="sans-serif" font-size="14" lengthAdjust="spacing" textLength="61" x="983.9968" y="630.5595">Cloud tag</text></g><g id="elem_Utilizar herramientas Web 2.0"><ellipse cx="1145.3903" cy="764.0781" fill="#F1F1F1" rx="110.8903" ry="24.5781" style="stroke:#181818;stroke-width:0.5;"/><text fill="#000000" font-family="sans-serif" font-size="14" lengthAdjust="spacing" textLength="185" x="1052.8903" y="767.8066">Utilizar herramientas Web 2.0</text></g><g id="elem_Buscar por secciones"><ellipse cx="1572.605" cy="449.721" fill="#F1F1F1" rx="89.105" ry="20.221" style="stroke:#181818;stroke-width:0.5;"/><text fill="#000000" font-family="sans-serif" font-size="14" lengthAdjust="spacing" textLength="136" x="1504.605" y="453.4495">Buscar por secciones</text></g><g id="elem_Elegir idioma"><ellipse cx="1764.2517" cy="449.4503" fill="#F1F1F1" rx="67.7517" ry="15.9503" style="stroke:#181818;stroke-width:0.5;"/><text fill="#000000" font-family="sans-serif" font-size="14" lengthAdjust="spacing" textLength="81" x="1720.7517" y="453.9669">Elegir idioma</text></g><!--MD5=[cb096345e2b6ecd44332ace5f6d4de45]
link Administrador to UL--><g id="link_Administrador_UL"><path d="M911.24,65.12 C954.57,85.7 1021.62,120.68 1072.5,161.5 C1082.67,169.66 1092.66,179.3 1101.82,189.03 " fill="none" id="Administrador-to-UL" style="stroke:#181818;stroke-width:1.0;"/><polygon fill="none" points="1107.29,184.63,1115.45,204.18,1096.87,193.99,1107.29,184.63" style="stroke:#181818;stroke-width:1.0;"/></g><!--MD5=[f71c522bc50303db848c62497f06878b]
link UL to UNL--><g id="link_UL_UNL"><path d="M1145.5,282.87 C1145.5,313.07 1145.5,355.67 1145.5,390.1 " fill="none" id="UL-to-UNL" style="stroke:#181818;stroke-width:1.0;"/><polygon fill="none" points="1152.5,390.3,1145.5,410.3,1138.5,390.3,1152.5,390.3" style="stroke:#181818;stroke-width:1.0;"/></g><!--MD5=[4db0ec28addeb54d347e385d5b168c8a]
link Administrador to Editar la Web--><g id="link_Administrador_Editar la Web"><path d="M833.15,83.95 C793.93,127.84 731.73,197.46 704.73,227.69 " fill="none" id="Administrador-Editar la Web" style="stroke:#181818;stroke-width:1.0;"/></g><!--MD5=[3d309d1637f931f5293ef9a3a931a89f]
link Editar la Web to Emplear editor WYSIWYG--><g id="link_Editar la Web_Emplear editor WYSIWYG"><path d="M760.68,243.5 C787.19,243.5 818.09,243.5 847.28,243.5 " fill="none" id="Editar la Web-to-Emplear editor WYSIWYG" style="stroke:#181818;stroke-width:1.0;stroke-dasharray:7.0,7.0;"/><polygon fill="#181818" points="852.33,243.5,843.33,239.5,847.33,243.5,843.33,247.5,852.33,243.5" style="stroke:#181818;stroke-width:1.0;"/><text fill="#000000" font-family="sans-serif" font-size="13" lengthAdjust="spacing" textLength="55" x="779" y="236.9951">«include»</text></g><!--MD5=[c3578ccd316d4069e4527a936f1173f4]
link Administrador to Modificar diseño de la página--><g id="link_Administrador_Modificar diseño de la página"><path d="M911.2,56.29 C978.9,73.8 1112.38,111.55 1218.5,161.5 C1253.67,178.06 1290.99,202.31 1316.38,219.96 " fill="none" id="Administrador-Modificar diseño de la página" style="stroke:#181818;stroke-width:1.0;"/></g><!--MD5=[0896608ed567d66190c0fdb74e29963d]
link Administrador to HExplotacion--><g id="link_Administrador_HExplotacion"><path d="M911.27,47.85 C1013.76,54.61 1275.83,79.23 1476.5,161.5 C1492.29,167.97 1508.16,176.66 1522.98,185.95 " fill="none" id="Administrador-HExplotacion" style="stroke:#181818;stroke-width:1.0;"/></g><!--MD5=[e307111895903595346ed9bc6affae51]
link Publicar contenido to HExplotacion--><g id="link_Publicar contenido_HExplotacion"><path d="M1427.68,62.64 C1450.88,87.21 1494.94,133.88 1532.37,173.51 " fill="none" id="Publicar contenido-to-HExplotacion" style="stroke:#181818;stroke-width:1.0;stroke-dasharray:7.0,7.0;"/><polygon fill="#181818" points="1535.97,177.33,1532.7145,168.0347,1532.5432,173.689,1526.8889,173.5177,1535.97,177.33" style="stroke:#181818;stroke-width:1.0;"/><text fill="#000000" font-family="sans-serif" font-size="13" lengthAdjust="spacing" textLength="53" x="1488.5" y="127.9951">«extend»</text></g><!--MD5=[c480ca4565130539d9fd0aa2bd093616]
link Eliminar contenido to HExplotacion--><g id="link_Eliminar contenido_HExplotacion"><path d="M1607.5,63.33 C1606.32,84.54 1604.26,121.49 1602.31,156.34 " fill="none" id="Eliminar contenido-to-HExplotacion" style="stroke:#181818;stroke-width:1.0;stroke-dasharray:7.0,7.0;"/><polygon fill="#181818" points="1602.03,161.46,1606.5384,152.7036,1602.3161,156.4682,1598.5515,152.2459,1602.03,161.46" style="stroke:#181818;stroke-width:1.0;"/><text fill="#000000" font-family="sans-serif" font-size="13" lengthAdjust="spacing" textLength="53" x="1605.5" y="127.9951">«extend»</text></g><!--MD5=[bd703affe7b5d82b8ae268ce6ec1475b]
link Modificar contenido to HExplotacion--><g id="link_Modificar contenido_HExplotacion"><path d="M1788.49,63.33 C1761.44,88.7 1710.41,136.58 1667.89,176.47 " fill="none" id="Modificar contenido-to-HExplotacion" style="stroke:#181818;stroke-width:1.0;stroke-dasharray:7.0,7.0;"/><polygon fill="#181818" points="1664.07,180.05,1673.372,176.8139,1667.7181,176.6308,1667.9013,170.9769,1664.07,180.05" style="stroke:#181818;stroke-width:1.0;"/><text fill="#000000" font-family="sans-serif" font-size="13" lengthAdjust="spacing" textLength="53" x="1734.5" y="127.9951">«extend»</text></g><!--MD5=[e6c7cf0de30974d317dc6ebd91d48308]
link Administrador to Visualizar estadísticas de \n acceso Vista Administrador--><g id="link_Administrador_Visualizar estadísticas de \n acceso Vista Administrador"><path d="M823.66,49.71 C725.12,60.13 479.68,91.53 286.5,161.5 C247.74,175.54 206.81,198.45 177.68,216.33 " fill="none" id="Administrador-Visualizar estadísticas de \n acceso Vista Administrador" style="stroke:#181818;stroke-width:1.0;"/></g><!--MD5=[0a3eca59d1cf77787a3e3476008f45e7]
link Visualizar estadísticas de \n acceso Vista Administrador to Visualizar estadísticas \n de acceso--><g id="link_Visualizar estadísticas de \n acceso Vista Administrador_Visualizar estadísticas \n de acceso"><path d="M179.27,270.58 C208.46,287.96 248.82,310.31 286.5,325.5 C399.92,371.23 536.15,406 628.18,426.72 " fill="none" id="Visualizar estadísticas de \n acceso Vista Administrador-to-Visualizar estadísticas \n de acceso" style="stroke:#181818;stroke-width:1.0;"/><polygon fill="none" points="629.97,419.94,647.98,431.11,626.94,433.61,629.97,419.94" style="stroke:#181818;stroke-width:1.0;"/></g><!--MD5=[0493e20e7c0d910282f962ea9c8f0cb2]
link Administrador to Usar espacios de trabajo de compartido--><g id="link_Administrador_Usar espacios de trabajo de compartido"><path d="M823.61,64.11 C771.31,86.47 681.46,125.48 605.5,161.5 C569.35,178.64 529.18,198.98 498.13,214.99 " fill="none" id="Administrador-Usar espacios de trabajo de compartido" style="stroke:#181818;stroke-width:1.0;"/></g><!--MD5=[4106b8d8dd089f5dea8aeea6eca6a0a1]
link UL to CrearPagina--><g id="link_UL_CrearPagina"><path d="M1179.63,282.88 C1192,296.52 1206.2,311.86 1219.5,325.5 C1246.93,353.63 1278.79,384.25 1303.86,407.9 " fill="none" id="UL-CrearPagina" style="stroke:#181818;stroke-width:1.0;"/></g><!--MD5=[7f81390d51037a2263c1b2c9a503df3f]
link Previsualizar página to CrearPagina--><g id="link_Previsualizar página_CrearPagina"><path d="M1803.88,262.66 C1784.32,280.84 1751.94,308.5 1719.5,325.5 C1615.28,380.12 1577.81,365.34 1466.5,403.5 C1454.03,407.77 1440.91,412.5 1428.12,417.24 " fill="none" id="Previsualizar página-to-CrearPagina" style="stroke:#181818;stroke-width:1.0;stroke-dasharray:7.0,7.0;"/><polygon fill="#181818" points="1423.42,418.98,1433.2499,419.5915,1428.1063,417.2369,1430.4609,412.0934,1423.42,418.98" style="stroke:#181818;stroke-width:1.0;"/><text fill="#000000" font-family="sans-serif" font-size="13" lengthAdjust="spacing" textLength="53" x="1649.5" y="369.9951">«extend»</text></g><!--MD5=[d774f35c302b6aedc21ba9a993e5e591]
link UL to Visualizar estadísticas \n de acceso--><g id="link_UL_Visualizar estadísticas \n de acceso"><path d="M1117.86,282.55 C1105.39,297.58 1089.62,313.97 1072.5,325.5 C993.44,378.75 888.51,412.16 816.45,430.5 " fill="none" id="UL-Visualizar estadísticas \n de acceso" style="stroke:#181818;stroke-width:1.0;"/></g><!--MD5=[12e88a6d3c6837a2fca584be22e7a1d3]
link UNL to Foros--><g id="link_UNL_Foros"><path d="M1145.5,488.79 C1145.5,526.92 1145.5,583.48 1145.5,610.11 " fill="none" id="UNL-Foros" style="stroke:#181818;stroke-width:1.0;"/></g><!--MD5=[fff7c79745b32b1cf82c5ca2f44d9e98]
link UNL to Blogs--><g id="link_UNL_Blogs"><path d="M1169.42,488.79 C1193.48,527.32 1229.31,584.67 1245.72,610.94 " fill="none" id="UNL-Blogs" style="stroke:#181818;stroke-width:1.0;"/></g><!--MD5=[78f365d1df8e77a0ab98f790998229e5]
link UNL to Cloud tag--><g id="link_UNL_Cloud tag"><path d="M1117.41,488.79 C1089.3,527.12 1047.52,584.08 1028.12,610.53 " fill="none" id="UNL-Cloud tag" style="stroke:#181818;stroke-width:1.0;"/></g><!--MD5=[52a3cf48529fa11bfe540ad7669b6ca1]
link Foros to Utilizar herramientas Web 2.0--><g id="link_Foros_Utilizar herramientas Web 2.0"><path d="M1145.5,641.55 C1145.5,659.95 1145.5,692.46 1145.5,719.21 " fill="none" id="Foros-to-Utilizar herramientas Web 2.0" style="stroke:#181818;stroke-width:1.0;"/><polygon fill="none" points="1152.5,719.48,1145.5,739.48,1138.5,719.48,1152.5,719.48" style="stroke:#181818;stroke-width:1.0;"/></g><!--MD5=[2636e536def513d42b411de969280163]
link Blogs to Utilizar herramientas Web 2.0--><g id="link_Blogs_Utilizar herramientas Web 2.0"><path d="M1243.45,640.79 C1227.96,660.12 1199.18,696.03 1176.81,723.94 " fill="none" id="Blogs-to-Utilizar herramientas Web 2.0" style="stroke:#181818;stroke-width:1.0;"/><polygon fill="none" points="1182.17,728.44,1164.2,739.66,1171.25,719.68,1182.17,728.44" style="stroke:#181818;stroke-width:1.0;"/></g><!--MD5=[42235daaa124f143e4109ef07bb614fc]
link Cloud tag to Utilizar herramientas Web 2.0--><g id="link_Cloud tag_Utilizar herramientas Web 2.0"><path d="M1030.96,641.3 C1049.5,661 1083.59,697.22 1109.77,725.04 " fill="none" id="Cloud tag-to-Utilizar herramientas Web 2.0" style="stroke:#181818;stroke-width:1.0;"/><polygon fill="none" points="1115.12,720.51,1123.73,739.87,1104.92,730.1,1115.12,720.51" style="stroke:#181818;stroke-width:1.0;"/></g><!--MD5=[41a8e0570e5a1548255b88da0958565b]
link UNL to Buscar--><g id="link_UNL_Buscar"><path d="M1211.12,486.7 C1217.28,489.78 1223.47,492.76 1229.5,495.5 C1317.01,535.25 1420.62,573.16 1490.89,597.58 " fill="none" id="UNL-Buscar" style="stroke:#181818;stroke-width:1.0;"/></g><!--MD5=[278023f5754aeb81f95b92d1b4a0d2f8]
link Buscar por secciones to Buscar--><g id="link_Buscar por secciones_Buscar"><path d="M1572.5,469.51 C1572.5,492.98 1572.5,533.99 1572.5,568 " fill="none" id="Buscar por secciones-to-Buscar" style="stroke:#181818;stroke-width:1.0;stroke-dasharray:7.0,7.0;"/><polygon fill="#181818" points="1572.5,573.39,1576.5,564.39,1572.5,568.39,1568.5,564.39,1572.5,573.39" style="stroke:#181818;stroke-width:1.0;"/><text fill="#000000" font-family="sans-serif" font-size="13" lengthAdjust="spacing" textLength="60" x="1573.5" y="539.9951">«extends»</text></g><!--MD5=[afe85555f3d4a1652937ee5ca8b7c6c2]
link Elegir idioma to Buscar--><g id="link_Elegir idioma_Buscar"><path d="M1748.46,465.08 C1721.74,489.36 1666.98,539.13 1625.6,576.74 " fill="none" id="Elegir idioma-to-Buscar" style="stroke:#181818;stroke-width:1.0;stroke-dasharray:7.0,7.0;"/><polygon fill="#181818" points="1621.64,580.34,1630.9866,577.2349,1625.3358,576.9724,1625.5984,571.3216,1621.64,580.34" style="stroke:#181818;stroke-width:1.0;"/><text fill="#000000" font-family="sans-serif" font-size="13" lengthAdjust="spacing" textLength="60" x="1680.5" y="539.9951">«extends»</text></g><!--MD5=[ab12ec5c7cabb7b0f2c4725d7147d04f]
@startuml Portal
actor UL as "Usuario logueado"
actor UNL as "Usuario no logueado"
actor Administrador


usecase CrearPagina as "Crear nueva página
- - - -
Extension point
Previsualizar página"
usecase HExplotacion as "Usar herramienta de \n explotacion de Web
- - - -
Extension point
Publicar contenido
Eliminar contenido
Modificar contenido"

usecase Buscar as "Buscar
- - - -
Extension point
Elegir idioma
Buscar por secciones"

Administrador- -|>UL
UL- -|>UNL


Administrador- -(Editar la Web)
(Editar la Web).>(Emplear editor WYSIWYG) : <<include>>
Administrador- -(Modificar diseño de la página)
Administrador- -HExplotacion 
(Publicar contenido) ..>HExplotacion : <<extend>>
(Eliminar contenido) ..>HExplotacion : <<extend>>
(Modificar contenido) ..>HExplotacion : <<extend>>
Administrador- -(Visualizar estadísticas de \n acceso Vista Administrador) 
(Visualizar estadísticas de \n acceso Vista Administrador)- -|>(Visualizar estadísticas \n de acceso)
Administrador- -(Usar espacios de trabajo de compartido)


UL- -CrearPagina
(Previsualizar página)..>CrearPagina: <<extend>>
UL- -(Visualizar estadísticas \n de acceso)


UNL- -(Foros)
UNL- -(Blogs)
UNL- -(Cloud tag)
(Foros)- -|>(Utilizar herramientas Web 2.0)
(Blogs)- -|>(Utilizar herramientas Web 2.0)
(Cloud tag)- -|>(Utilizar herramientas Web 2.0)
UNL- -(Buscar)
(Buscar por secciones)..>(Buscar) : <<extends>>
(Elegir idioma)..>(Buscar) : <<extends>>

@enduml

PlantUML version 1.2022.7(Mon Aug 22 19:01:30 CEST 2022)
(GPL source distribution)
Java Runtime: OpenJDK Runtime Environment
JVM: OpenJDK 64-Bit Server VM
Default Encoding: Cp1252
Language: es
Country: ES
--></g></svg>