<?xml version="1.0" encoding="UTF-8" standalone="no"?><svg xmlns="http://www.w3.org/2000/svg" xmlns:xlink="http://www.w3.org/1999/xlink" contentStyleType="text/css" height="775px" preserveAspectRatio="none" style="width:1703px;height:775px;background:#FFFFFF;" version="1.1" viewBox="0 0 1703 775" width="1703px" zoomAndPan="magnify"><defs/><g><!--MD5=[c9884a940ca17747de6480392133742b]
entity UL--><g id="elem_UL"><ellipse cx="967.5" cy="213" fill="#F1F1F1" rx="8" ry="8" style="stroke:#181818;stroke-width:0.5;"/><path d="M967.5,221 L967.5,248 M954.5,229 L980.5,229 M967.5,248 L954.5,263 M967.5,248 L980.5,263 " fill="none" style="stroke:#181818;stroke-width:0.5;"/><text fill="#000000" font-family="sans-serif" font-size="14" lengthAdjust="spacing" textLength="111" x="912" y="279.0332">Usuario logueado</text></g><!--MD5=[b99535c0128fef87077296e3c7e19f50]
entity UNL--><g id="elem_UNL"><ellipse cx="967.5" cy="458" fill="#F1F1F1" rx="8" ry="8" style="stroke:#181818;stroke-width:0.5;"/><path d="M967.5,466 L967.5,493 M954.5,474 L980.5,474 M967.5,493 L954.5,508 M967.5,493 L980.5,508 " fill="none" style="stroke:#181818;stroke-width:0.5;"/><text fill="#000000" font-family="sans-serif" font-size="14" lengthAdjust="spacing" textLength="131" x="902" y="524.0332">Usuario no logueado</text></g><!--MD5=[2e903384ba6a94be9c906ea46910cc3f]
entity Administrador--><g id="elem_Administrador"><ellipse cx="689.5" cy="14" fill="#F1F1F1" rx="8" ry="8" style="stroke:#181818;stroke-width:0.5;"/><path d="M689.5,22 L689.5,49 M676.5,30 L702.5,30 M689.5,49 L676.5,64 M689.5,49 L702.5,64 " fill="none" style="stroke:#181818;stroke-width:0.5;"/><text fill="#000000" font-family="sans-serif" font-size="14" lengthAdjust="spacing" textLength="87" x="646" y="80.0332">Administrador</text></g><g id="elem_CrearPagina"><ellipse cx="1447.6112" cy="488.4347" fill="#F1F1F1" rx="101.1112" ry="45.9347" style="stroke:#181818;stroke-width:0.5;"/><text fill="#000000" font-family="sans-serif" font-size="14" lengthAdjust="spacing" textLength="126" x="1384.3612" y="470.5538">Crear nueva página</text><line style="stroke:#181818;stroke-width:1.0;" x1="1352.8955" x2="1542.327" y1="473.63" y2="473.63"/><text fill="#000000" font-family="sans-serif" font-size="14" lengthAdjust="spacing" textLength="96" x="1399.3612" y="492.1632">Extension point</text><text fill="#000000" font-family="sans-serif" font-size="14" lengthAdjust="spacing" textLength="127" x="1383.8612" y="509.7726">Previsualizar página</text></g><g id="elem_HExplotacion"><ellipse cx="1387.2812" cy="243.4959" fill="#F1F1F1" rx="103.7812" ry="81.9959" style="stroke:#181818;stroke-width:0.5;"/><text fill="#000000" font-family="sans-serif" font-size="14" lengthAdjust="spacing" textLength="129" x="1322.7256" y="199.6215">Usar herramienta de</text><text fill="#000000" font-family="sans-serif" font-size="14" lengthAdjust="spacing" textLength="124" x="1329.2256" y="217.2309">explotacion de Web</text><line style="stroke:#181818;stroke-width:1.0;" x1="1288.7366" x2="1485.8257" y1="220.3071" y2="220.3071"/><text fill="#000000" font-family="sans-serif" font-size="14" lengthAdjust="spacing" textLength="96" x="1341.2256" y="238.8403">Extension point</text><text fill="#000000" font-family="sans-serif" font-size="14" lengthAdjust="spacing" textLength="117" x="1330.7256" y="256.4496">Publicar contenido</text><text fill="#000000" font-family="sans-serif" font-size="14" lengthAdjust="spacing" textLength="116" x="1331.2256" y="274.059">Eliminar contenido</text><text fill="#000000" font-family="sans-serif" font-size="14" lengthAdjust="spacing" textLength="123" x="1327.7256" y="291.6684">Modificar contenido</text></g><g id="elem_Editar la Web"><ellipse cx="513.6119" cy="243.7224" fill="#F1F1F1" rx="69.1119" ry="16.2224" style="stroke:#181818;stroke-width:0.5;"/><text fill="#000000" font-family="sans-serif" font-size="14" lengthAdjust="spacing" textLength="85" x="468.1119" y="248.239">Editar la Web</text></g><g id="elem_Emplear editor WYSIWYG"><ellipse cx="775.4506" cy="243.5901" fill="#F1F1F1" rx="100.9506" ry="22.5901" style="stroke:#181818;stroke-width:0.5;"/><text fill="#000000" font-family="sans-serif" font-size="14" lengthAdjust="spacing" textLength="163" x="693.9506" y="247.3186">Emplear editor WYSIWYG</text></g><g id="elem_Modificar diseño página"><ellipse cx="1153.6904" cy="243.4381" fill="#F1F1F1" rx="95.1904" ry="21.4381" style="stroke:#181818;stroke-width:0.5;"/><text fill="#000000" font-family="sans-serif" font-size="14" lengthAdjust="spacing" textLength="150" x="1078.6904" y="247.1666">Modificar diseño página</text></g><g id="elem_Publicar contenido"><ellipse cx="1205.597" cy="44.6194" fill="#F1F1F1" rx="81.097" ry="18.6194" style="stroke:#181818;stroke-width:0.5;"/><text fill="#000000" font-family="sans-serif" font-size="14" lengthAdjust="spacing" textLength="117" x="1146.5843" y="48.4982">Publicar contenido</text></g><g id="elem_Eliminar contenido"><ellipse cx="1402.6887" cy="44.5377" fill="#F1F1F1" rx="80.6887" ry="18.5377" style="stroke:#181818;stroke-width:0.5;"/><text fill="#000000" font-family="sans-serif" font-size="14" lengthAdjust="spacing" textLength="116" x="1344.0015" y="48.4661">Eliminar contenido</text></g><g id="elem_Modificar contenido"><ellipse cx="1601.5873" cy="44.6175" fill="#F1F1F1" rx="83.5873" ry="19.1175" style="stroke:#181818;stroke-width:0.5;"/><text fill="#000000" font-family="sans-serif" font-size="14" lengthAdjust="spacing" textLength="123" x="1540.0873" y="48.346">Modificar contenido</text></g><g id="elem_Visualizar estadísticas de \n acceso Vista Administrador"><ellipse cx="137.4309" cy="384.1862" fill="#F1F1F1" rx="131.4309" ry="28.6862" style="stroke:#181818;stroke-width:0.5;"/><text fill="#000000" font-family="sans-serif" font-size="14" lengthAdjust="spacing" textLength="158" x="56.4309" y="379.11">Visualizar estadísticas de</text><text fill="#000000" font-family="sans-serif" font-size="14" lengthAdjust="spacing" textLength="171" x="53.9309" y="396.7194">acceso Vista Administrador</text></g><g id="elem_Visualizar estadísticas \n de acceso"><ellipse cx="516.3049" cy="623.4973" fill="#F1F1F1" rx="112.3049" ry="27.9973" style="stroke:#181818;stroke-width:0.5;"/><text fill="#000000" font-family="sans-serif" font-size="14" lengthAdjust="spacing" textLength="138" x="442.3049" y="619.2092">Visualizar estadísticas</text><text fill="#000000" font-family="sans-serif" font-size="14" lengthAdjust="spacing" textLength="65" x="482.8049" y="636.8186">de acceso</text></g><g id="elem_Usar espacios de trabajo de compartido"><ellipse cx="267.6734" cy="243.7347" fill="#F1F1F1" rx="141.6734" ry="30.7347" style="stroke:#181818;stroke-width:0.5;"/><text fill="#000000" font-family="sans-serif" font-size="14" lengthAdjust="spacing" textLength="251" x="142.1734" y="247.4632">Usar espacios de trabajo de compartido</text></g><g id="elem_Previsualizar página"><ellipse cx="1612.2698" cy="243.454" fill="#F1F1F1" rx="85.2698" ry="19.454" style="stroke:#181818;stroke-width:0.5;"/><text fill="#000000" font-family="sans-serif" font-size="14" lengthAdjust="spacing" textLength="127" x="1548.7698" y="247.1825">Previsualizar página</text></g><g id="elem_Visualizar estadísticas de \n acceso Vista Usuario registrado"><ellipse cx="675.3422" cy="488.3684" fill="#F1F1F1" rx="142.3422" ry="30.8684" style="stroke:#181818;stroke-width:0.5;"/><text fill="#000000" font-family="sans-serif" font-size="14" lengthAdjust="spacing" textLength="158" x="594.3422" y="483.2923">Visualizar estadísticas de</text><text fill="#000000" font-family="sans-serif" font-size="14" lengthAdjust="spacing" textLength="200" x="577.3422" y="500.9016">acceso Vista Usuario registrado</text></g><g id="elem_Utilizar herramientas Web 2.0"><ellipse cx="844.3903" cy="623.5781" fill="#F1F1F1" rx="110.8903" ry="24.5781" style="stroke:#181818;stroke-width:0.5;"/><text fill="#000000" font-family="sans-serif" font-size="14" lengthAdjust="spacing" textLength="185" x="751.8903" y="627.3066">Utilizar herramientas Web 2.0</text></g><g id="elem_Foros"><ellipse cx="814.6482" cy="749.4517" fill="#F1F1F1" rx="37.6482" ry="15.4517" style="stroke:#181818;stroke-width:0.5;"/><text fill="#000000" font-family="sans-serif" font-size="14" lengthAdjust="spacing" textLength="37" x="796.1482" y="753.1802">Foros</text></g><g id="elem_Blogs"><ellipse cx="923.734" cy="749.4517" fill="#F1F1F1" rx="36.234" ry="15.4517" style="stroke:#181818;stroke-width:0.5;"/><text fill="#000000" font-family="sans-serif" font-size="14" lengthAdjust="spacing" textLength="35" x="906.234" y="753.1802">Blogs</text></g><g id="elem_Cloud tag"><ellipse cx="686.4968" cy="749.5429" fill="#F1F1F1" rx="54.9968" ry="15.5429" style="stroke:#181818;stroke-width:0.5;"/><text fill="#000000" font-family="sans-serif" font-size="14" lengthAdjust="spacing" textLength="61" x="652.9968" y="754.0595">Cloud tag</text></g><g id="elem_Buscar"><ellipse cx="1062.5997" cy="623.4523" fill="#F1F1F1" rx="42.5997" ry="15.4523" style="stroke:#181818;stroke-width:0.5;"/><text fill="#000000" font-family="sans-serif" font-size="14" lengthAdjust="spacing" textLength="44" x="1040.3355" y="627.2639">Buscar</text></g><g id="elem_Buscar por secciones"><ellipse cx="1254.605" cy="749.721" fill="#F1F1F1" rx="89.105" ry="20.221" style="stroke:#181818;stroke-width:0.5;"/><text fill="#000000" font-family="sans-serif" font-size="14" lengthAdjust="spacing" textLength="136" x="1186.605" y="753.4495">Buscar por secciones</text></g><g id="elem_Elegir idioma"><ellipse cx="1062.2517" cy="749.4503" fill="#F1F1F1" rx="67.7517" ry="15.9503" style="stroke:#181818;stroke-width:0.5;"/><text fill="#000000" font-family="sans-serif" font-size="14" lengthAdjust="spacing" textLength="81" x="1018.7517" y="753.9669">Elegir idioma</text></g><!--MD5=[cb096345e2b6ecd44332ace5f6d4de45]
link Administrador to UL--><g id="link_Administrador_UL"><path d="M733.24,65.12 C776.57,85.7 843.62,120.68 894.5,161.5 C904.67,169.66 914.66,179.3 923.82,189.03 " fill="none" id="Administrador-to-UL" style="stroke:#181818;stroke-width:1.0;"/><polygon fill="none" points="929.29,184.63,937.45,204.18,918.87,193.99,929.29,184.63" style="stroke:#181818;stroke-width:1.0;"/></g><!--MD5=[f71c522bc50303db848c62497f06878b]
link UL to UNL--><g id="link_UL_UNL"><path d="M967.5,282.74 C967.5,322.08 967.5,383.87 967.5,429.29 " fill="none" id="UL-to-UNL" style="stroke:#181818;stroke-width:1.0;"/><polygon fill="none" points="974.5,429.49,967.5,449.49,960.5,429.49,974.5,429.49" style="stroke:#181818;stroke-width:1.0;"/></g><!--MD5=[4db0ec28addeb54d347e385d5b168c8a]
link Administrador to Editar la Web--><g id="link_Administrador_Editar la Web"><path d="M655.15,83.95 C615.93,127.84 553.73,197.46 526.73,227.69 " fill="none" id="Administrador-Editar la Web" style="stroke:#181818;stroke-width:1.0;"/></g><!--MD5=[3d309d1637f931f5293ef9a3a931a89f]
link Editar la Web to Emplear editor WYSIWYG--><g id="link_Editar la Web_Emplear editor WYSIWYG"><path d="M582.68,243.5 C609.19,243.5 640.09,243.5 669.28,243.5 " fill="none" id="Editar la Web-to-Emplear editor WYSIWYG" style="stroke:#181818;stroke-width:1.0;stroke-dasharray:7.0,7.0;"/><polygon fill="#181818" points="674.33,243.5,665.33,239.5,669.33,243.5,665.33,247.5,674.33,243.5" style="stroke:#181818;stroke-width:1.0;"/><text fill="#000000" font-family="sans-serif" font-size="13" lengthAdjust="spacing" textLength="55" x="601" y="236.9951">«include»</text></g><!--MD5=[7fad541daaef087e07717bffd60d00bd]
link Administrador to Modificar diseño página--><g id="link_Administrador_Modificar diseño página"><path d="M733.03,55.36 C801.07,71.76 935.67,108.18 1040.5,161.5 C1073.85,178.46 1108.24,204.58 1130.18,222.55 " fill="none" id="Administrador-Modificar diseño página" style="stroke:#181818;stroke-width:1.0;"/></g><!--MD5=[0896608ed567d66190c0fdb74e29963d]
link Administrador to HExplotacion--><g id="link_Administrador_HExplotacion"><path d="M733.16,48.46 C831.78,56.37 1077.81,83.02 1266.5,161.5 C1282.26,168.05 1298.11,176.78 1312.93,186.08 " fill="none" id="Administrador-HExplotacion" style="stroke:#181818;stroke-width:1.0;"/></g><!--MD5=[e307111895903595346ed9bc6affae51]
link Publicar contenido to HExplotacion--><g id="link_Publicar contenido_HExplotacion"><path d="M1221.65,62.98 C1244.32,87.52 1286.88,133.59 1323.21,172.91 " fill="none" id="Publicar contenido-to-HExplotacion" style="stroke:#181818;stroke-width:1.0;stroke-dasharray:7.0,7.0;"/><polygon fill="#181818" points="1326.7,176.69,1323.5392,167.3621,1323.3104,173.0143,1317.6582,172.7855,1326.7,176.69" style="stroke:#181818;stroke-width:1.0;"/><text fill="#000000" font-family="sans-serif" font-size="13" lengthAdjust="spacing" textLength="53" x="1280.5" y="127.9951">«extend»</text></g><!--MD5=[c480ca4565130539d9fd0aa2bd093616]
link Eliminar contenido to HExplotacion--><g id="link_Eliminar contenido_HExplotacion"><path d="M1401.14,63.33 C1399.53,84.54 1396.71,121.49 1394.06,156.34 " fill="none" id="Eliminar contenido-to-HExplotacion" style="stroke:#181818;stroke-width:1.0;stroke-dasharray:7.0,7.0;"/><polygon fill="#181818" points="1393.67,161.46,1398.3523,152.7953,1394.0557,156.4749,1390.3761,152.1783,1393.67,161.46" style="stroke:#181818;stroke-width:1.0;"/><text fill="#000000" font-family="sans-serif" font-size="13" lengthAdjust="spacing" textLength="53" x="1397.5" y="127.9951">«extend»</text></g><!--MD5=[bd703affe7b5d82b8ae268ce6ec1475b]
link Modificar contenido to HExplotacion--><g id="link_Modificar contenido_HExplotacion"><path d="M1582.13,63.33 C1554.47,88.8 1502.18,136.93 1458.76,176.9 " fill="none" id="Modificar contenido-to-HExplotacion" style="stroke:#181818;stroke-width:1.0;stroke-dasharray:7.0,7.0;"/><polygon fill="#181818" points="1454.86,180.49,1464.194,177.3473,1458.5422,177.1075,1458.782,171.4557,1454.86,180.49" style="stroke:#181818;stroke-width:1.0;"/><text fill="#000000" font-family="sans-serif" font-size="13" lengthAdjust="spacing" textLength="53" x="1526.5" y="127.9951">«extend»</text></g><!--MD5=[e6c7cf0de30974d317dc6ebd91d48308]
link Administrador to Visualizar estadísticas de \n acceso Vista Administrador--><g id="link_Administrador_Visualizar estadísticas de \n acceso Vista Administrador"><path d="M645.72,47.35 C522.42,53.55 176.82,78.19 108.5,161.5 C62.51,217.58 99.18,309.92 122.29,355.62 " fill="none" id="Administrador-Visualizar estadísticas de \n acceso Vista Administrador" style="stroke:#181818;stroke-width:1.0;"/></g><!--MD5=[0a3eca59d1cf77787a3e3476008f45e7]
link Visualizar estadísticas de \n acceso Vista Administrador to Visualizar estadísticas \n de acceso--><g id="link_Visualizar estadísticas de \n acceso Vista Administrador_Visualizar estadísticas \n de acceso"><path d="M179.14,411.1 C247.06,453.65 381.81,538.09 458.86,586.38 " fill="none" id="Visualizar estadísticas de \n acceso Vista Administrador-to-Visualizar estadísticas \n de acceso" style="stroke:#181818;stroke-width:1.0;"/><polygon fill="none" points="462.99,580.71,476.22,597.26,455.56,592.57,462.99,580.71" style="stroke:#181818;stroke-width:1.0;"/></g><!--MD5=[0493e20e7c0d910282f962ea9c8f0cb2]
link Administrador to Usar espacios de trabajo de compartido--><g id="link_Administrador_Usar espacios de trabajo de compartido"><path d="M645.61,64.11 C593.31,86.47 503.46,125.48 427.5,161.5 C391.35,178.64 351.18,198.98 320.13,214.99 " fill="none" id="Administrador-Usar espacios de trabajo de compartido" style="stroke:#181818;stroke-width:1.0;"/></g><!--MD5=[4106b8d8dd089f5dea8aeea6eca6a0a1]
link UL to CrearPagina--><g id="link_UL_CrearPagina"><path d="M996.14,282.68 C1008.77,297.55 1024.58,313.8 1041.5,325.5 C1141.05,394.35 1274.16,440.3 1360.36,465.15 " fill="none" id="UL-CrearPagina" style="stroke:#181818;stroke-width:1.0;"/></g><!--MD5=[7f81390d51037a2263c1b2c9a503df3f]
link Previsualizar página to CrearPagina--><g id="link_Previsualizar página_CrearPagina"><path d="M1599.83,263.16 C1574.38,300.64 1516.38,386.06 1479.74,440.02 " fill="none" id="Previsualizar página-to-CrearPagina" style="stroke:#181818;stroke-width:1.0;stroke-dasharray:7.0,7.0;"/><polygon fill="#181818" points="1476.92,444.17,1485.286,438.973,1479.7296,440.034,1478.6685,434.4776,1476.92,444.17" style="stroke:#181818;stroke-width:1.0;"/><text fill="#000000" font-family="sans-serif" font-size="13" lengthAdjust="spacing" textLength="53" x="1535.5" y="389.4951">«extend»</text></g><!--MD5=[770dd3863f03e6af75d653bed1a94cd5]
link UL to Visualizar estadísticas de \n acceso Vista Usuario registrado--><g id="link_UL_Visualizar estadísticas de \n acceso Vista Usuario registrado"><path d="M935.91,282.67 C923.57,296.72 908.94,312.39 894.5,325.5 C837.77,377 765.14,428.19 719.45,458.84 " fill="none" id="UL-Visualizar estadísticas de \n acceso Vista Usuario registrado" style="stroke:#181818;stroke-width:1.0;"/></g><!--MD5=[cfc7b2f4cc4494d3d4744e743d7f6be5]
link Visualizar estadísticas de \n acceso Vista Usuario registrado to Visualizar estadísticas \n de acceso--><g id="link_Visualizar estadísticas de \n acceso Vista Usuario registrado_Visualizar estadísticas \n de acceso"><path d="M640.61,518.69 C617.81,537.76 587.78,562.88 562.97,583.63 " fill="none" id="Visualizar estadísticas de \n acceso Vista Usuario registrado-to-Visualizar estadísticas \n de acceso" style="stroke:#181818;stroke-width:1.0;"/><polygon fill="none" points="567.38,589.07,547.55,596.53,558.4,578.33,567.38,589.07" style="stroke:#181818;stroke-width:1.0;"/></g><!--MD5=[a4c8ffd1a0f60f99582fa5e3aa35ef26]
link UNL to Utilizar herramientas Web 2.0--><g id="link_UNL_Utilizar herramientas Web 2.0"><path d="M932.25,527.61 C910.81,550.79 884.14,579.64 865.86,599.41 " fill="none" id="UNL-Utilizar herramientas Web 2.0" style="stroke:#181818;stroke-width:1.0;"/></g><!--MD5=[2a2e2a6f3357944f63030c4361cbdad4]
reverse link Utilizar herramientas Web 2.0 to Foros--><g id="link_Utilizar herramientas Web 2.0_Foros"><path d="M834.02,667.8 C828.45,690.86 821.95,717.72 818.03,733.9 " fill="none" id="Utilizar herramientas Web 2.0-backto-Foros" style="stroke:#181818;stroke-width:1.0;"/><polygon fill="none" points="827.28,665.91,838.79,648.12,840.89,669.2,827.28,665.91" style="stroke:#181818;stroke-width:1.0;"/></g><!--MD5=[62dd70025eece9da53fe885a22b18324]
reverse link Utilizar herramientas Web 2.0 to Blogs--><g id="link_Utilizar herramientas Web 2.0_Blogs"><path d="M870.18,664.81 C885.35,688.62 903.64,717.33 914.38,734.18 " fill="none" id="Utilizar herramientas Web 2.0-backto-Blogs" style="stroke:#181818;stroke-width:1.0;"/><polygon fill="none" points="864.2,668.45,859.36,647.82,876.01,660.93,864.2,668.45" style="stroke:#181818;stroke-width:1.0;"/></g><!--MD5=[ae8308466aa201da3eb1b6a8a673faa4]
reverse link Utilizar herramientas Web 2.0 to Cloud tag--><g id="link_Utilizar herramientas Web 2.0_Cloud tag"><path d="M799.43,659.87 C767.67,684.79 726.89,716.8 704.04,734.74 " fill="none" id="Utilizar herramientas Web 2.0-backto-Cloud tag" style="stroke:#181818;stroke-width:1.0;"/><polygon fill="none" points="795.47,654.08,815.52,647.24,804.11,665.1,795.47,654.08" style="stroke:#181818;stroke-width:1.0;"/></g><!--MD5=[41a8e0570e5a1548255b88da0958565b]
link UNL to Buscar--><g id="link_UNL_Buscar"><path d="M994.72,527.61 C1014.02,554.63 1038.82,589.35 1052.43,608.41 " fill="none" id="UNL-Buscar" style="stroke:#181818;stroke-width:1.0;"/></g><!--MD5=[00bc936a8adf46dd6cc759d7affd5db6]
link Buscar to Buscar por secciones--><g id="link_Buscar_Buscar por secciones"><path d="M1082.32,637.3 C1115.42,658.68 1182.22,701.82 1222.19,727.63 " fill="none" id="Buscar-to-Buscar por secciones" style="stroke:#181818;stroke-width:1.0;stroke-dasharray:7.0,7.0;"/><polygon fill="#181818" points="1226.45,730.38,1221.0622,722.1355,1222.2506,727.6661,1216.72,728.8545,1226.45,730.38" style="stroke:#181818;stroke-width:1.0;"/><text fill="#000000" font-family="sans-serif" font-size="13" lengthAdjust="spacing" textLength="55" x="1176.5" y="695.9951">«include»</text></g><!--MD5=[54aeb9dac9716dc73bfb250d2bee2c48]
link Buscar to Elegir idioma--><g id="link_Buscar_Elegir idioma"><path d="M1062.5,639.21 C1062.5,661.37 1062.5,703.38 1062.5,728.36 " fill="none" id="Buscar-to-Elegir idioma" style="stroke:#181818;stroke-width:1.0;stroke-dasharray:7.0,7.0;"/><polygon fill="#181818" points="1062.5,733.42,1066.5,724.42,1062.5,728.42,1058.5,724.42,1062.5,733.42" style="stroke:#181818;stroke-width:1.0;"/><text fill="#000000" font-family="sans-serif" font-size="13" lengthAdjust="spacing" textLength="55" x="1063.5" y="695.9951">«include»</text></g><!--MD5=[ecb2391a178af08307a7853907c488c6]
@startuml Portal
actor UL as "Usuario logueado"
actor UNL as "Usuario no logueado"
actor Administrador


usecase CrearPagina as "Crear nueva página
- - - -
Extension point
Previsualizar página"
usecase HExplotacion as "Usar herramienta de \n explotacion de Web
- - - -
Extension point
Publicar contenido
Eliminar contenido
Modificar contenido"

Administrador- -|>UL
UL- -|>UNL


Administrador- -(Editar la Web)
(Editar la Web).>(Emplear editor WYSIWYG) : <<include>>
Administrador- -(Modificar diseño página)
Administrador- -HExplotacion 
(Publicar contenido) ..>HExplotacion : <<extend>>
(Eliminar contenido) ..>HExplotacion : <<extend>>
(Modificar contenido) ..>HExplotacion : <<extend>>
Administrador- -(Visualizar estadísticas de \n acceso Vista Administrador) 
(Visualizar estadísticas de \n acceso Vista Administrador)- -|>(Visualizar estadísticas \n de acceso)
Administrador- -(Usar espacios de trabajo de compartido)


UL- -CrearPagina
(Previsualizar página)..>CrearPagina: <<extend>>
UL- -(Visualizar estadísticas de \n acceso Vista Usuario registrado)
(Visualizar estadísticas de \n acceso Vista Usuario registrado)- -|>(Visualizar estadísticas \n de acceso)

UNL- -(Utilizar herramientas Web 2.0)
(Utilizar herramientas Web 2.0)<|- -(Foros)
(Utilizar herramientas Web 2.0)<|- -(Blogs) 
(Utilizar herramientas Web 2.0)<|- -(Cloud tag)
UNL- -(Buscar)
(Buscar)..>(Buscar por secciones) : <<include>>
(Buscar)..>(Elegir idioma) : <<include>>

@enduml

PlantUML version 1.2022.7(Mon Aug 22 19:01:30 CEST 2022)
(GPL source distribution)
Java Runtime: OpenJDK Runtime Environment
JVM: OpenJDK 64-Bit Server VM
Default Encoding: Cp1252
Language: es
Country: ES
--></g></svg>