<?xml version="1.0" encoding="UTF-8" standalone="no"?><svg xmlns="http://www.w3.org/2000/svg" xmlns:xlink="http://www.w3.org/1999/xlink" contentStyleType="text/css" height="526px" preserveAspectRatio="none" style="width:776px;height:526px;background:#FFFFFF;" version="1.1" viewBox="0 0 776 526" width="776px" zoomAndPan="magnify"><defs/><g><!--MD5=[b3fed880fe33e1395404e2a133ef8753]
class Proovedor--><g id="elem_Proovedor"><rect codeLine="2" fill="#F1F1F1" height="83.2188" id="Proovedor" rx="2.5" ry="2.5" style="stroke:#181818;stroke-width:0.5;" width="176" x="7" y="58.76"/><ellipse cx="57.75" cy="74.76" fill="#ADD1B2" rx="11" ry="11" style="stroke:#181818;stroke-width:1.0;"/><path d="M60.5156,70.635 Q60.6719,70.4162 60.8594,70.3069 Q61.0469,70.1975 61.2656,70.1975 Q61.6406,70.1975 61.875,70.4631 Q62.1094,70.7131 62.1094,71.3225 L62.1094,72.7756 Q62.1094,73.385 61.875,73.6506 Q61.6406,73.9162 61.2656,73.9162 Q60.9219,73.9162 60.7188,73.7131 Q60.5156,73.5256 60.4063,73.01 Q60.3594,72.6506 60.1719,72.4631 Q59.8438,72.0881 59.2344,71.8694 Q58.625,71.6506 58,71.6506 Q57.2344,71.6506 56.5938,71.9787 Q55.9688,72.3069 55.4688,73.0569 Q54.9844,73.8069 54.9844,74.8381 L54.9844,75.9319 Q54.9844,77.1662 55.875,77.9944 Q56.7656,78.8069 58.3594,78.8069 Q59.2969,78.8069 59.9531,78.5569 Q60.3438,78.4006 60.7656,77.9631 Q61.0313,77.6975 61.1719,77.6194 Q61.3281,77.5412 61.5313,77.5412 Q61.8594,77.5412 62.1094,77.8069 Q62.375,78.0569 62.375,78.4006 Q62.375,78.7444 62.0313,79.1506 Q61.5313,79.7287 60.7344,80.0569 Q59.6563,80.51 58.3594,80.51 Q56.8438,80.51 55.6406,79.885 Q54.6563,79.385 53.9688,78.3225 Q53.2813,77.2444 53.2813,75.9631 L53.2813,74.8069 Q53.2813,73.4787 53.8906,72.3381 Q54.5156,71.1819 55.6094,70.5725 Q56.7031,69.9475 57.9375,69.9475 Q58.6719,69.9475 59.3125,70.1194 Q59.9688,70.2756 60.5156,70.635 Z " fill="#000000"/><text fill="#000000" font-family="sans-serif" font-size="14" lengthAdjust="spacing" textLength="66" x="78.25" y="80.4885">Proovedor</text><line style="stroke:#181818;stroke-width:0.5;" x1="8" x2="182" y1="90.76" y2="90.76"/><text fill="#000000" font-family="sans-serif" font-size="14" lengthAdjust="spacing" textLength="156" x="13" y="109.2932">Avisar nuevos productos</text><text fill="#000000" font-family="sans-serif" font-size="14" lengthAdjust="spacing" textLength="164" x="13" y="126.9026">Avisar fin -&gt; elimina oferta</text><line style="stroke:#181818;stroke-width:0.5;" x1="8" x2="182" y1="133.9788" y2="133.9788"/></g><!--MD5=[9231e5b138909734b576f3545e846cfa]
class Productos--><g id="elem_Productos"><rect codeLine="8" fill="#F1F1F1" height="65.6094" id="Productos" rx="2.5" ry="2.5" style="stroke:#181818;stroke-width:0.5;" width="96" x="218" y="67.26"/><ellipse cx="233" cy="83.26" fill="#ADD1B2" rx="11" ry="11" style="stroke:#181818;stroke-width:1.0;"/><path d="M235.7656,79.135 Q235.9219,78.9162 236.1094,78.8069 Q236.2969,78.6975 236.5156,78.6975 Q236.8906,78.6975 237.125,78.9631 Q237.3594,79.2131 237.3594,79.8225 L237.3594,81.2756 Q237.3594,81.885 237.125,82.1506 Q236.8906,82.4162 236.5156,82.4162 Q236.1719,82.4162 235.9688,82.2131 Q235.7656,82.0256 235.6563,81.51 Q235.6094,81.1506 235.4219,80.9631 Q235.0938,80.5881 234.4844,80.3694 Q233.875,80.1506 233.25,80.1506 Q232.4844,80.1506 231.8438,80.4787 Q231.2188,80.8069 230.7188,81.5569 Q230.2344,82.3069 230.2344,83.3381 L230.2344,84.4319 Q230.2344,85.6662 231.125,86.4944 Q232.0156,87.3069 233.6094,87.3069 Q234.5469,87.3069 235.2031,87.0569 Q235.5938,86.9006 236.0156,86.4631 Q236.2813,86.1975 236.4219,86.1194 Q236.5781,86.0412 236.7813,86.0412 Q237.1094,86.0412 237.3594,86.3069 Q237.625,86.5569 237.625,86.9006 Q237.625,87.2444 237.2813,87.6506 Q236.7813,88.2287 235.9844,88.5569 Q234.9063,89.01 233.6094,89.01 Q232.0938,89.01 230.8906,88.385 Q229.9063,87.885 229.2188,86.8225 Q228.5313,85.7444 228.5313,84.4631 L228.5313,83.3069 Q228.5313,81.9787 229.1406,80.8381 Q229.7656,79.6819 230.8594,79.0725 Q231.9531,78.4475 233.1875,78.4475 Q233.9219,78.4475 234.5625,78.6194 Q235.2188,78.7756 235.7656,79.135 Z " fill="#000000"/><text fill="#000000" font-family="sans-serif" font-size="14" lengthAdjust="spacing" textLength="64" x="247" y="88.9885">Productos</text><line style="stroke:#181818;stroke-width:0.5;" x1="219" x2="313" y1="99.26" y2="99.26"/><text fill="#000000" font-family="sans-serif" font-size="14" lengthAdjust="spacing" textLength="44" x="224" y="117.7932">Estado</text><line style="stroke:#181818;stroke-width:0.5;" x1="219" x2="313" y1="124.8694" y2="124.8694"/></g><!--MD5=[4668456ee0d5bf931cf805ae22408c96]
class Oferta--><g id="elem_Oferta"><rect codeLine="11" fill="#F1F1F1" height="48" id="Oferta" rx="2.5" ry="2.5" style="stroke:#181818;stroke-width:0.5;" width="72" x="542" y="76.26"/><ellipse cx="557" cy="92.26" fill="#ADD1B2" rx="11" ry="11" style="stroke:#181818;stroke-width:1.0;"/><path d="M559.7656,88.135 Q559.9219,87.9162 560.1094,87.8069 Q560.2969,87.6975 560.5156,87.6975 Q560.8906,87.6975 561.125,87.9631 Q561.3594,88.2131 561.3594,88.8225 L561.3594,90.2756 Q561.3594,90.885 561.125,91.1506 Q560.8906,91.4162 560.5156,91.4162 Q560.1719,91.4162 559.9688,91.2131 Q559.7656,91.0256 559.6563,90.51 Q559.6094,90.1506 559.4219,89.9631 Q559.0938,89.5881 558.4844,89.3694 Q557.875,89.1506 557.25,89.1506 Q556.4844,89.1506 555.8438,89.4787 Q555.2188,89.8069 554.7188,90.5569 Q554.2344,91.3069 554.2344,92.3381 L554.2344,93.4319 Q554.2344,94.6662 555.125,95.4944 Q556.0156,96.3069 557.6094,96.3069 Q558.5469,96.3069 559.2031,96.0569 Q559.5938,95.9006 560.0156,95.4631 Q560.2813,95.1975 560.4219,95.1194 Q560.5781,95.0412 560.7813,95.0412 Q561.1094,95.0412 561.3594,95.3069 Q561.625,95.5569 561.625,95.9006 Q561.625,96.2444 561.2813,96.6506 Q560.7813,97.2287 559.9844,97.5569 Q558.9063,98.01 557.6094,98.01 Q556.0938,98.01 554.8906,97.385 Q553.9063,96.885 553.2188,95.8225 Q552.5313,94.7444 552.5313,93.4631 L552.5313,92.3069 Q552.5313,90.9787 553.1406,89.8381 Q553.7656,88.6819 554.8594,88.0725 Q555.9531,87.4475 557.1875,87.4475 Q557.9219,87.4475 558.5625,87.6194 Q559.2188,87.7756 559.7656,88.135 Z " fill="#000000"/><text fill="#000000" font-family="sans-serif" font-size="14" lengthAdjust="spacing" textLength="40" x="571" y="97.9885">Oferta</text><line style="stroke:#181818;stroke-width:0.5;" x1="543" x2="613" y1="108.26" y2="108.26"/><line style="stroke:#181818;stroke-width:0.5;" x1="543" x2="613" y1="116.26" y2="116.26"/></g><!--MD5=[15e9b30b2ef5e94ac5c226f45dfb44fa]
class RealizarVenta--><g id="elem_RealizarVenta"><rect codeLine="14" fill="#F1F1F1" height="48" id="RealizarVenta" rx="2.5" ry="2.5" style="stroke:#181818;stroke-width:0.5;" width="120" x="649" y="76.26"/><ellipse cx="664" cy="92.26" fill="#ADD1B2" rx="11" ry="11" style="stroke:#181818;stroke-width:1.0;"/><path d="M666.7656,88.135 Q666.9219,87.9162 667.1094,87.8069 Q667.2969,87.6975 667.5156,87.6975 Q667.8906,87.6975 668.125,87.9631 Q668.3594,88.2131 668.3594,88.8225 L668.3594,90.2756 Q668.3594,90.885 668.125,91.1506 Q667.8906,91.4162 667.5156,91.4162 Q667.1719,91.4162 666.9688,91.2131 Q666.7656,91.0256 666.6563,90.51 Q666.6094,90.1506 666.4219,89.9631 Q666.0938,89.5881 665.4844,89.3694 Q664.875,89.1506 664.25,89.1506 Q663.4844,89.1506 662.8438,89.4787 Q662.2188,89.8069 661.7188,90.5569 Q661.2344,91.3069 661.2344,92.3381 L661.2344,93.4319 Q661.2344,94.6662 662.125,95.4944 Q663.0156,96.3069 664.6094,96.3069 Q665.5469,96.3069 666.2031,96.0569 Q666.5938,95.9006 667.0156,95.4631 Q667.2813,95.1975 667.4219,95.1194 Q667.5781,95.0412 667.7813,95.0412 Q668.1094,95.0412 668.3594,95.3069 Q668.625,95.5569 668.625,95.9006 Q668.625,96.2444 668.2813,96.6506 Q667.7813,97.2287 666.9844,97.5569 Q665.9063,98.01 664.6094,98.01 Q663.0938,98.01 661.8906,97.385 Q660.9063,96.885 660.2188,95.8225 Q659.5313,94.7444 659.5313,93.4631 L659.5313,92.3069 Q659.5313,90.9787 660.1406,89.8381 Q660.7656,88.6819 661.8594,88.0725 Q662.9531,87.4475 664.1875,87.4475 Q664.9219,87.4475 665.5625,87.6194 Q666.2188,87.7756 666.7656,88.135 Z " fill="#000000"/><text fill="#000000" font-family="sans-serif" font-size="14" lengthAdjust="spacing" textLength="88" x="678" y="97.9885">RealizarVenta</text><line style="stroke:#181818;stroke-width:0.5;" x1="650" x2="768" y1="108.26" y2="108.26"/><line style="stroke:#181818;stroke-width:0.5;" x1="650" x2="768" y1="116.26" y2="116.26"/></g><!--MD5=[e0abbd9070b521e31286504acc171f60]
class ConsultarHistoricoVenta--><g id="elem_ConsultarHistoricoVenta"><rect codeLine="17" fill="#F1F1F1" height="48" id="ConsultarHistoricoVenta" rx="2.5" ry="2.5" style="stroke:#181818;stroke-width:0.5;" width="184" x="486" y="219.76"/><ellipse cx="501" cy="235.76" fill="#ADD1B2" rx="11" ry="11" style="stroke:#181818;stroke-width:1.0;"/><path d="M503.7656,231.635 Q503.9219,231.4163 504.1094,231.3069 Q504.2969,231.1975 504.5156,231.1975 Q504.8906,231.1975 505.125,231.4631 Q505.3594,231.7131 505.3594,232.3225 L505.3594,233.7756 Q505.3594,234.385 505.125,234.6506 Q504.8906,234.9163 504.5156,234.9163 Q504.1719,234.9163 503.9688,234.7131 Q503.7656,234.5256 503.6563,234.01 Q503.6094,233.6506 503.4219,233.4631 Q503.0938,233.0881 502.4844,232.8694 Q501.875,232.6506 501.25,232.6506 Q500.4844,232.6506 499.8438,232.9788 Q499.2188,233.3069 498.7188,234.0569 Q498.2344,234.8069 498.2344,235.8381 L498.2344,236.9319 Q498.2344,238.1663 499.125,238.9944 Q500.0156,239.8069 501.6094,239.8069 Q502.5469,239.8069 503.2031,239.5569 Q503.5938,239.4006 504.0156,238.9631 Q504.2813,238.6975 504.4219,238.6194 Q504.5781,238.5413 504.7813,238.5413 Q505.1094,238.5413 505.3594,238.8069 Q505.625,239.0569 505.625,239.4006 Q505.625,239.7444 505.2813,240.1506 Q504.7813,240.7288 503.9844,241.0569 Q502.9063,241.51 501.6094,241.51 Q500.0938,241.51 498.8906,240.885 Q497.9063,240.385 497.2188,239.3225 Q496.5313,238.2444 496.5313,236.9631 L496.5313,235.8069 Q496.5313,234.4788 497.1406,233.3381 Q497.7656,232.1819 498.8594,231.5725 Q499.9531,230.9475 501.1875,230.9475 Q501.9219,230.9475 502.5625,231.1194 Q503.2188,231.2756 503.7656,231.635 Z " fill="#000000"/><text fill="#000000" font-family="sans-serif" font-size="14" lengthAdjust="spacing" textLength="152" x="515" y="241.4885">ConsultarHistoricoVenta</text><line style="stroke:#181818;stroke-width:0.5;" x1="487" x2="669" y1="251.76" y2="251.76"/><line style="stroke:#181818;stroke-width:0.5;" x1="487" x2="669" y1="259.76" y2="259.76"/></g><!--MD5=[ff4ee7c548b4e3b0c36f635dcbd8d015]
class Compras--><g id="elem_Compras"><rect fill="#F1F1F1" height="48" id="Compras" rx="2.5" ry="2.5" style="stroke:#181818;stroke-width:0.5;" width="89" x="290.5" y="345.76"/><ellipse cx="305.5" cy="361.76" fill="#ADD1B2" rx="11" ry="11" style="stroke:#181818;stroke-width:1.0;"/><path d="M308.2656,357.635 Q308.4219,357.4163 308.6094,357.3069 Q308.7969,357.1975 309.0156,357.1975 Q309.3906,357.1975 309.625,357.4631 Q309.8594,357.7131 309.8594,358.3225 L309.8594,359.7756 Q309.8594,360.385 309.625,360.6506 Q309.3906,360.9163 309.0156,360.9163 Q308.6719,360.9163 308.4688,360.7131 Q308.2656,360.5256 308.1563,360.01 Q308.1094,359.6506 307.9219,359.4631 Q307.5938,359.0881 306.9844,358.8694 Q306.375,358.6506 305.75,358.6506 Q304.9844,358.6506 304.3438,358.9788 Q303.7188,359.3069 303.2188,360.0569 Q302.7344,360.8069 302.7344,361.8381 L302.7344,362.9319 Q302.7344,364.1663 303.625,364.9944 Q304.5156,365.8069 306.1094,365.8069 Q307.0469,365.8069 307.7031,365.5569 Q308.0938,365.4006 308.5156,364.9631 Q308.7813,364.6975 308.9219,364.6194 Q309.0781,364.5413 309.2813,364.5413 Q309.6094,364.5413 309.8594,364.8069 Q310.125,365.0569 310.125,365.4006 Q310.125,365.7444 309.7813,366.1506 Q309.2813,366.7288 308.4844,367.0569 Q307.4063,367.51 306.1094,367.51 Q304.5938,367.51 303.3906,366.885 Q302.4063,366.385 301.7188,365.3225 Q301.0313,364.2444 301.0313,362.9631 L301.0313,361.8069 Q301.0313,360.4788 301.6406,359.3381 Q302.2656,358.1819 303.3594,357.5725 Q304.4531,356.9475 305.6875,356.9475 Q306.4219,356.9475 307.0625,357.1194 Q307.7188,357.2756 308.2656,357.635 Z " fill="#000000"/><text fill="#000000" font-family="sans-serif" font-size="14" lengthAdjust="spacing" textLength="57" x="319.5" y="367.4885">Compras</text><line style="stroke:#181818;stroke-width:0.5;" x1="291.5" x2="378.5" y1="377.76" y2="377.76"/><line style="stroke:#181818;stroke-width:0.5;" x1="291.5" x2="378.5" y1="385.76" y2="385.76"/></g><!--MD5=[42ab3172323ec0cd54427087d08fabe5]
class Comprador--><g id="elem_Comprador"><rect fill="#F1F1F1" height="48" id="Comprador" rx="2.5" ry="2.5" style="stroke:#181818;stroke-width:0.5;" width="103" x="274.5" y="219.76"/><ellipse cx="289.5" cy="235.76" fill="#ADD1B2" rx="11" ry="11" style="stroke:#181818;stroke-width:1.0;"/><path d="M292.2656,231.635 Q292.4219,231.4163 292.6094,231.3069 Q292.7969,231.1975 293.0156,231.1975 Q293.3906,231.1975 293.625,231.4631 Q293.8594,231.7131 293.8594,232.3225 L293.8594,233.7756 Q293.8594,234.385 293.625,234.6506 Q293.3906,234.9163 293.0156,234.9163 Q292.6719,234.9163 292.4688,234.7131 Q292.2656,234.5256 292.1563,234.01 Q292.1094,233.6506 291.9219,233.4631 Q291.5938,233.0881 290.9844,232.8694 Q290.375,232.6506 289.75,232.6506 Q288.9844,232.6506 288.3438,232.9788 Q287.7188,233.3069 287.2188,234.0569 Q286.7344,234.8069 286.7344,235.8381 L286.7344,236.9319 Q286.7344,238.1663 287.625,238.9944 Q288.5156,239.8069 290.1094,239.8069 Q291.0469,239.8069 291.7031,239.5569 Q292.0938,239.4006 292.5156,238.9631 Q292.7813,238.6975 292.9219,238.6194 Q293.0781,238.5413 293.2813,238.5413 Q293.6094,238.5413 293.8594,238.8069 Q294.125,239.0569 294.125,239.4006 Q294.125,239.7444 293.7813,240.1506 Q293.2813,240.7288 292.4844,241.0569 Q291.4063,241.51 290.1094,241.51 Q288.5938,241.51 287.3906,240.885 Q286.4063,240.385 285.7188,239.3225 Q285.0313,238.2444 285.0313,236.9631 L285.0313,235.8069 Q285.0313,234.4788 285.6406,233.3381 Q286.2656,232.1819 287.3594,231.5725 Q288.4531,230.9475 289.6875,230.9475 Q290.4219,230.9475 291.0625,231.1194 Q291.7188,231.2756 292.2656,231.635 Z " fill="#000000"/><text fill="#000000" font-family="sans-serif" font-size="14" lengthAdjust="spacing" textLength="71" x="303.5" y="241.4885">Comprador</text><line style="stroke:#181818;stroke-width:0.5;" x1="275.5" x2="376.5" y1="251.76" y2="251.76"/><line style="stroke:#181818;stroke-width:0.5;" x1="275.5" x2="376.5" y1="259.76" y2="259.76"/></g><!--MD5=[f1bb1dd1304d20aae45885461e08742c]
class Ofertas--><g id="elem_Ofertas"><rect fill="#F1F1F1" height="48" id="Ofertas" rx="2.5" ry="2.5" style="stroke:#181818;stroke-width:0.5;" width="79" x="158.5" y="345.76"/><ellipse cx="173.5" cy="361.76" fill="#ADD1B2" rx="11" ry="11" style="stroke:#181818;stroke-width:1.0;"/><path d="M176.2656,357.635 Q176.4219,357.4163 176.6094,357.3069 Q176.7969,357.1975 177.0156,357.1975 Q177.3906,357.1975 177.625,357.4631 Q177.8594,357.7131 177.8594,358.3225 L177.8594,359.7756 Q177.8594,360.385 177.625,360.6506 Q177.3906,360.9163 177.0156,360.9163 Q176.6719,360.9163 176.4688,360.7131 Q176.2656,360.5256 176.1563,360.01 Q176.1094,359.6506 175.9219,359.4631 Q175.5938,359.0881 174.9844,358.8694 Q174.375,358.6506 173.75,358.6506 Q172.9844,358.6506 172.3438,358.9788 Q171.7188,359.3069 171.2188,360.0569 Q170.7344,360.8069 170.7344,361.8381 L170.7344,362.9319 Q170.7344,364.1663 171.625,364.9944 Q172.5156,365.8069 174.1094,365.8069 Q175.0469,365.8069 175.7031,365.5569 Q176.0938,365.4006 176.5156,364.9631 Q176.7813,364.6975 176.9219,364.6194 Q177.0781,364.5413 177.2813,364.5413 Q177.6094,364.5413 177.8594,364.8069 Q178.125,365.0569 178.125,365.4006 Q178.125,365.7444 177.7813,366.1506 Q177.2813,366.7288 176.4844,367.0569 Q175.4063,367.51 174.1094,367.51 Q172.5938,367.51 171.3906,366.885 Q170.4063,366.385 169.7188,365.3225 Q169.0313,364.2444 169.0313,362.9631 L169.0313,361.8069 Q169.0313,360.4788 169.6406,359.3381 Q170.2656,358.1819 171.3594,357.5725 Q172.4531,356.9475 173.6875,356.9475 Q174.4219,356.9475 175.0625,357.1194 Q175.7188,357.2756 176.2656,357.635 Z " fill="#000000"/><text fill="#000000" font-family="sans-serif" font-size="14" lengthAdjust="spacing" textLength="47" x="187.5" y="367.4885">Ofertas</text><line style="stroke:#181818;stroke-width:0.5;" x1="159.5" x2="236.5" y1="377.76" y2="377.76"/><line style="stroke:#181818;stroke-width:0.5;" x1="159.5" x2="236.5" y1="385.76" y2="385.76"/></g><!--MD5=[5309a96cdd996ef96cbc3c9ac6102b67]
class Precios--><g id="elem_Precios"><rect fill="#F1F1F1" height="48" id="Precios" rx="2.5" ry="2.5" style="stroke:#181818;stroke-width:0.5;" width="79" x="349.5" y="76.26"/><ellipse cx="364.5" cy="92.26" fill="#ADD1B2" rx="11" ry="11" style="stroke:#181818;stroke-width:1.0;"/><path d="M367.2656,88.135 Q367.4219,87.9162 367.6094,87.8069 Q367.7969,87.6975 368.0156,87.6975 Q368.3906,87.6975 368.625,87.9631 Q368.8594,88.2131 368.8594,88.8225 L368.8594,90.2756 Q368.8594,90.885 368.625,91.1506 Q368.3906,91.4162 368.0156,91.4162 Q367.6719,91.4162 367.4688,91.2131 Q367.2656,91.0256 367.1563,90.51 Q367.1094,90.1506 366.9219,89.9631 Q366.5938,89.5881 365.9844,89.3694 Q365.375,89.1506 364.75,89.1506 Q363.9844,89.1506 363.3438,89.4787 Q362.7188,89.8069 362.2188,90.5569 Q361.7344,91.3069 361.7344,92.3381 L361.7344,93.4319 Q361.7344,94.6662 362.625,95.4944 Q363.5156,96.3069 365.1094,96.3069 Q366.0469,96.3069 366.7031,96.0569 Q367.0938,95.9006 367.5156,95.4631 Q367.7813,95.1975 367.9219,95.1194 Q368.0781,95.0412 368.2813,95.0412 Q368.6094,95.0412 368.8594,95.3069 Q369.125,95.5569 369.125,95.9006 Q369.125,96.2444 368.7813,96.6506 Q368.2813,97.2287 367.4844,97.5569 Q366.4063,98.01 365.1094,98.01 Q363.5938,98.01 362.3906,97.385 Q361.4063,96.885 360.7188,95.8225 Q360.0313,94.7444 360.0313,93.4631 L360.0313,92.3069 Q360.0313,90.9787 360.6406,89.8381 Q361.2656,88.6819 362.3594,88.0725 Q363.4531,87.4475 364.6875,87.4475 Q365.4219,87.4475 366.0625,87.6194 Q366.7188,87.7756 367.2656,88.135 Z " fill="#000000"/><text fill="#000000" font-family="sans-serif" font-size="14" lengthAdjust="spacing" textLength="47" x="378.5" y="97.9885">Precios</text><line style="stroke:#181818;stroke-width:0.5;" x1="350.5" x2="427.5" y1="108.26" y2="108.26"/><line style="stroke:#181818;stroke-width:0.5;" x1="350.5" x2="427.5" y1="116.26" y2="116.26"/></g><!--MD5=[e363550a3c76349e2d25d63e24111731]
class Vendedor--><g id="elem_Vendedor"><rect fill="#F1F1F1" height="48" id="Vendedor" rx="2.5" ry="2.5" style="stroke:#181818;stroke-width:0.5;" width="94" x="278" y="471.76"/><ellipse cx="293" cy="487.76" fill="#ADD1B2" rx="11" ry="11" style="stroke:#181818;stroke-width:1.0;"/><path d="M295.7656,483.635 Q295.9219,483.4163 296.1094,483.3069 Q296.2969,483.1975 296.5156,483.1975 Q296.8906,483.1975 297.125,483.4631 Q297.3594,483.7131 297.3594,484.3225 L297.3594,485.7756 Q297.3594,486.385 297.125,486.6506 Q296.8906,486.9163 296.5156,486.9163 Q296.1719,486.9163 295.9688,486.7131 Q295.7656,486.5256 295.6563,486.01 Q295.6094,485.6506 295.4219,485.4631 Q295.0938,485.0881 294.4844,484.8694 Q293.875,484.6506 293.25,484.6506 Q292.4844,484.6506 291.8438,484.9788 Q291.2188,485.3069 290.7188,486.0569 Q290.2344,486.8069 290.2344,487.8381 L290.2344,488.9319 Q290.2344,490.1663 291.125,490.9944 Q292.0156,491.8069 293.6094,491.8069 Q294.5469,491.8069 295.2031,491.5569 Q295.5938,491.4006 296.0156,490.9631 Q296.2813,490.6975 296.4219,490.6194 Q296.5781,490.5413 296.7813,490.5413 Q297.1094,490.5413 297.3594,490.8069 Q297.625,491.0569 297.625,491.4006 Q297.625,491.7444 297.2813,492.1506 Q296.7813,492.7288 295.9844,493.0569 Q294.9063,493.51 293.6094,493.51 Q292.0938,493.51 290.8906,492.885 Q289.9063,492.385 289.2188,491.3225 Q288.5313,490.2444 288.5313,488.9631 L288.5313,487.8069 Q288.5313,486.4788 289.1406,485.3381 Q289.7656,484.1819 290.8594,483.5725 Q291.9531,482.9475 293.1875,482.9475 Q293.9219,482.9475 294.5625,483.1194 Q295.2188,483.2756 295.7656,483.635 Z " fill="#000000"/><text fill="#000000" font-family="sans-serif" font-size="14" lengthAdjust="spacing" textLength="62" x="307" y="493.4885">Vendedor</text><line style="stroke:#181818;stroke-width:0.5;" x1="279" x2="371" y1="503.76" y2="503.76"/><line style="stroke:#181818;stroke-width:0.5;" x1="279" x2="371" y1="511.76" y2="511.76"/></g><!--MD5=[d20768d34e4e8467ac91302bf7ce0d3f]
link Comprador to Compras--><g id="link_Comprador_Compras"><path codeLine="21" d="M327.67,267.79 C328.85,283.96 330.45,306.07 331.86,325.48 " fill="none" id="Comprador-to-Compras" style="stroke:#181818;stroke-width:1.0;"/><polygon fill="none" points="338.84,324.98,333.31,345.43,324.88,325.99,338.84,324.98" style="stroke:#181818;stroke-width:1.0;"/><text fill="#000000" font-family="sans-serif" font-size="13" lengthAdjust="spacing" textLength="49" x="333" y="312.2551">Finalizar</text></g><!--MD5=[ae038c0d206b3314b9bd8e5e96d8d824]
link Comprador to Ofertas--><g id="link_Comprador_Ofertas"><path codeLine="22" d="M298.16,267.94 C287.57,277.02 275.53,287.66 265,297.76 C254.24,308.09 242.96,319.71 232.78,330.51 " fill="none" id="Comprador-to-Ofertas" style="stroke:#181818;stroke-width:1.0;"/><polygon fill="none" points="237.6,335.61,218.87,345.5,227.34,326.08,237.6,335.61" style="stroke:#181818;stroke-width:1.0;"/><text fill="#000000" font-family="sans-serif" font-size="13" lengthAdjust="spacing" textLength="55" x="266" y="312.2551">Consultar</text><text fill="#000000" font-family="sans-serif" font-size="13" lengthAdjust="spacing" textLength="20" x="201.6554" y="334.7735">1..*</text></g><!--MD5=[53ad0cc2ef6a32f6ea59a50508fb06c1]
reverse link Precios to Comprador--><g id="link_Precios_Comprador"><path codeLine="23" d="M364.72,142.24 C359.53,151.76 354.31,161.98 350,171.76 C343.12,187.35 336.99,205.58 332.66,219.66 " fill="none" id="Precios-backto-Comprador" style="stroke:#181818;stroke-width:1.0;"/><polygon fill="none" points="358.79,138.5,374.74,124.54,370.97,145.4,358.79,138.5" style="stroke:#181818;stroke-width:1.0;"/><text fill="#000000" font-family="sans-serif" font-size="13" lengthAdjust="spacing" textLength="55" x="351" y="186.2551">Consultar</text></g><!--MD5=[cff3c82f54c258799cccda1fc53f98e0]
reverse link Productos to Comprador--><g id="link_Productos_Comprador"><path codeLine="24" d="M257.39,138.39 C255.39,154.83 255.65,173.97 263,189.76 C268.43,201.42 277.83,211.43 287.73,219.52 " fill="none" id="Productos-backto-Comprador" style="stroke:#181818;stroke-width:1.0;"/><polygon fill="#181818" points="258.08,133.38,252.9082,141.7617,257.4089,138.3348,260.8358,142.8354,258.08,133.38" style="stroke:#181818;stroke-width:1.0;"/><text fill="#000000" font-family="sans-serif" font-size="13" lengthAdjust="spacing" textLength="45" x="264" y="186.2551">Agregar</text><text fill="#000000" font-family="sans-serif" font-size="13" lengthAdjust="spacing" textLength="20" x="234.888" y="154.2657">1..*</text><text fill="#000000" font-family="sans-serif" font-size="13" lengthAdjust="spacing" textLength="7" x="270.0264" y="208.7987">1</text></g><!--MD5=[268cd9e7c89642762d4c2e7f0b9d21c1]
link Proovedor to Precios--><g id="link_Proovedor_Precios"><path codeLine="25" d="M147.65,58.63 C187.71,32.18 244.32,6 294.5,23.76 C321.69,33.39 346.78,54.54 364.27,72.16 " fill="none" id="Proovedor-to-Precios" style="stroke:#181818;stroke-width:1.0;"/><polygon fill="#181818" points="368.1,76.1,364.6575,66.8724,364.6004,72.5289,358.9438,72.4718,368.1,76.1" style="stroke:#181818;stroke-width:1.0;"/><text fill="#000000" font-family="sans-serif" font-size="13" lengthAdjust="spacing" textLength="55" x="238.5" y="25.2551">Consultar</text><text fill="#000000" font-family="sans-serif" font-size="13" lengthAdjust="spacing" textLength="7" x="148.7905" y="47.9161">1</text><text fill="#000000" font-family="sans-serif" font-size="13" lengthAdjust="spacing" textLength="20" x="340.1819" y="65.3992">1..*</text></g><!--MD5=[9883091d7127910f8023c892882e1d40]
link Proovedor to Ofertas--><g id="link_Proovedor_Ofertas"><path codeLine="26" d="M110.64,141.89 C131.81,196.85 169.01,293.48 187.27,340.91 " fill="none" id="Proovedor-to-Ofertas" style="stroke:#181818;stroke-width:1.0;"/><polygon fill="#181818" points="189.09,345.61,189.5764,335.7732,187.2874,340.9462,182.1144,338.6573,189.09,345.61" style="stroke:#181818;stroke-width:1.0;"/><text fill="#000000" font-family="sans-serif" font-size="13" lengthAdjust="spacing" textLength="55" x="160" y="249.2551">Consultar</text><text fill="#000000" font-family="sans-serif" font-size="13" lengthAdjust="spacing" textLength="7" x="105.6507" y="163.6161">1</text><text fill="#000000" font-family="sans-serif" font-size="13" lengthAdjust="spacing" textLength="20" x="164.2443" y="334.9117">1..*</text></g><!--MD5=[778a4712bb417aa70406fa58042cbdf4]
reverse link Ofertas to Proovedor--><g id="link_Ofertas_Proovedor"><path codeLine="27" d="M153.94,348.03 C123.64,331.13 85.78,304.09 68,267.76 C48.5,227.91 61.53,176.92 75.43,141.92 " fill="none" id="Ofertas-backto-Proovedor" style="stroke:#181818;stroke-width:1.0;"/><polygon fill="#181818" points="158.35,350.45,152.3751,342.6206,153.9638,348.0497,148.5346,349.6385,158.35,350.45" style="stroke:#181818;stroke-width:1.0;"/><text fill="#000000" font-family="sans-serif" font-size="13" lengthAdjust="spacing" textLength="64" x="69" y="249.2551">Incoorporar</text><text fill="#000000" font-family="sans-serif" font-size="13" lengthAdjust="spacing" textLength="20" x="130.437" y="343.6206">1..*</text><text fill="#000000" font-family="sans-serif" font-size="13" lengthAdjust="spacing" textLength="7" x="64.7532" y="163.3403">1</text></g><!--MD5=[2074ddc396b7e6ee2376ecc2efdb117a]
link Precios to Vendedor--><g id="link_Precios_Vendedor"><path codeLine="28" d="M402.45,136.99 C405.95,147.98 409.24,160.23 411,171.76 C421.15,238.37 493.11,125.41 397,393.76 C388.04,418.79 355.0191,462.4929 355.0191,462.4929 " fill="none" id="Precios-Vendedor" style="stroke:#181818;stroke-width:1.0;"/><polygon fill="#181818" points="347.24,471.63,354.1752,469.6545,355.0191,462.4929,348.0838,464.4684,347.24,471.63" style="stroke:#181818;stroke-width:1.0;"/><polygon fill="#181818" points="398.15,124.34,397.249,134.1476,399.7542,129.0757,404.8261,131.5808,398.15,124.34" style="stroke:#181818;stroke-width:1.0;"/><line style="stroke:#181818;stroke-width:1.0;" x1="399.7542" x2="402.33" y1="129.0757" y2="136.65"/><text fill="#000000" font-family="sans-serif" font-size="13" lengthAdjust="spacing" textLength="55" x="431" y="312.2551">Consultar</text><text fill="#000000" font-family="sans-serif" font-size="13" lengthAdjust="spacing" textLength="7" x="345.0421" y="460.9368">1</text></g><!--MD5=[85b7bb01aa6d9f7dd0f364e77e7a9036]
reverse link Ofertas to Vendedor--><g id="link_Ofertas_Vendedor"><path codeLine="29" d="M225.41,397.52 C247.95,419.53 279.58,450.41 301.11,471.43 " fill="none" id="Ofertas-backto-Vendedor" style="stroke:#181818;stroke-width:1.0;"/><polygon fill="#181818" points="221.59,393.79,225.2552,402.9315,225.1752,397.2752,230.8315,397.1952,221.59,393.79" style="stroke:#181818;stroke-width:1.0;"/><text fill="#000000" font-family="sans-serif" font-size="13" lengthAdjust="spacing" textLength="55" x="271" y="438.2551">Consultar</text><text fill="#000000" font-family="sans-serif" font-size="13" lengthAdjust="spacing" textLength="20" x="204.9026" y="415.1353">1..*</text><text fill="#000000" font-family="sans-serif" font-size="13" lengthAdjust="spacing" textLength="7" x="287.4337" y="461.0875">1</text></g><!--MD5=[b7b5d5abd1e86f3dd83c32d0a03bd960]
@startuml Sistema

Class Proovedor{
    Avisar nuevos productos
    Avisar fin -> elimina oferta

}

Class Productos{
    Estado
}
Class Oferta{
}

Class RealizarVenta{
    
}
Class ConsultarHistoricoVenta{
    
}

Compras <|-up-Comprador : Finalizar
Ofertas "1..*"<|-up-Comprador : Consultar
Precios <|-down-Comprador : Consultar
Productos "1..*"<- -"1" Comprador : Agregar
Precios "1..*"<-left-"1" Proovedor : Consultar
Ofertas "1..*"<-up-"1" Proovedor : Consultar
Ofertas "1..*"<- -"1" Proovedor : Incoorporar
Precios <- -*"1" Vendedor : Consultar
Ofertas "1..*"<- -"1" Vendedor : Consultar
@enduml

PlantUML version 1.2022.7(Mon Aug 22 19:01:30 CEST 2022)
(GPL source distribution)
Java Runtime: OpenJDK Runtime Environment
JVM: OpenJDK 64-Bit Server VM
Default Encoding: Cp1252
Language: es
Country: ES
--></g></svg>