<?xml version="1.0" encoding="UTF-8" standalone="no"?><svg xmlns="http://www.w3.org/2000/svg" xmlns:xlink="http://www.w3.org/1999/xlink" contentStyleType="text/css" height="705px" preserveAspectRatio="none" style="width:520px;height:705px;background:#FFFFFF;" version="1.1" viewBox="0 0 520 705" width="520px" zoomAndPan="magnify"><defs/><g><!--MD5=[35a64b983c79880384a2fd9b61f0c24b]
class Usuario--><g id="elem_Usuario"><rect codeLine="2" fill="#F1F1F1" height="118.4375" id="Usuario" rx="2.5" ry="2.5" style="stroke:#181818;stroke-width:0.5;" width="121" x="96.4" y="437"/><ellipse cx="129.85" cy="453" fill="#ADD1B2" rx="11" ry="11" style="stroke:#181818;stroke-width:1.0;"/><path d="M132.6156,448.875 Q132.7719,448.6563 132.9594,448.5469 Q133.1469,448.4375 133.3656,448.4375 Q133.7406,448.4375 133.975,448.7031 Q134.2094,448.9531 134.2094,449.5625 L134.2094,451.0156 Q134.2094,451.625 133.975,451.8906 Q133.7406,452.1563 133.3656,452.1563 Q133.0219,452.1563 132.8188,451.9531 Q132.6156,451.7656 132.5063,451.25 Q132.4594,450.8906 132.2719,450.7031 Q131.9438,450.3281 131.3344,450.1094 Q130.725,449.8906 130.1,449.8906 Q129.3344,449.8906 128.6938,450.2188 Q128.0688,450.5469 127.5688,451.2969 Q127.0844,452.0469 127.0844,453.0781 L127.0844,454.1719 Q127.0844,455.4063 127.975,456.2344 Q128.8656,457.0469 130.4594,457.0469 Q131.3969,457.0469 132.0531,456.7969 Q132.4438,456.6406 132.8656,456.2031 Q133.1313,455.9375 133.2719,455.8594 Q133.4281,455.7813 133.6313,455.7813 Q133.9594,455.7813 134.2094,456.0469 Q134.475,456.2969 134.475,456.6406 Q134.475,456.9844 134.1313,457.3906 Q133.6313,457.9688 132.8344,458.2969 Q131.7563,458.75 130.4594,458.75 Q128.9438,458.75 127.7406,458.125 Q126.7563,457.625 126.0688,456.5625 Q125.3813,455.4844 125.3813,454.2031 L125.3813,453.0469 Q125.3813,451.7188 125.9906,450.5781 Q126.6156,449.4219 127.7094,448.8125 Q128.8031,448.1875 130.0375,448.1875 Q130.7719,448.1875 131.4125,448.3594 Q132.0688,448.5156 132.6156,448.875 Z " fill="#000000"/><text fill="#000000" font-family="sans-serif" font-size="14" lengthAdjust="spacing" textLength="48" x="147.95" y="458.7285">Usuario</text><line style="stroke:#181818;stroke-width:0.5;" x1="97.4" x2="216.4" y1="469" y2="469"/><text fill="#000000" font-family="sans-serif" font-size="14" lengthAdjust="spacing" textLength="109" x="102.4" y="487.5332">NombreCompleto</text><text fill="#000000" font-family="sans-serif" font-size="14" lengthAdjust="spacing" textLength="56" x="102.4" y="505.1426">Telefono</text><text fill="#000000" font-family="sans-serif" font-size="14" lengthAdjust="spacing" textLength="34" x="102.4" y="522.752">Email</text><text fill="#000000" font-family="sans-serif" font-size="14" lengthAdjust="spacing" textLength="95" x="102.4" y="540.3613">NumeroCuenta</text><line style="stroke:#181818;stroke-width:0.5;" x1="97.4" x2="216.4" y1="547.4375" y2="547.4375"/></g><!--MD5=[9884e166d189446fe4825863c8acf943]
class Producto--><g id="elem_Producto"><rect codeLine="9" fill="#F1F1F1" height="65.6094" id="Producto" rx="2.5" ry="2.5" style="stroke:#181818;stroke-width:0.5;" width="89" x="90.4" y="150"/><ellipse cx="105.4" cy="166" fill="#ADD1B2" rx="11" ry="11" style="stroke:#181818;stroke-width:1.0;"/><path d="M108.1656,161.875 Q108.3219,161.6563 108.5094,161.5469 Q108.6969,161.4375 108.9156,161.4375 Q109.2906,161.4375 109.525,161.7031 Q109.7594,161.9531 109.7594,162.5625 L109.7594,164.0156 Q109.7594,164.625 109.525,164.8906 Q109.2906,165.1563 108.9156,165.1563 Q108.5719,165.1563 108.3688,164.9531 Q108.1656,164.7656 108.0563,164.25 Q108.0094,163.8906 107.8219,163.7031 Q107.4938,163.3281 106.8844,163.1094 Q106.275,162.8906 105.65,162.8906 Q104.8844,162.8906 104.2438,163.2188 Q103.6188,163.5469 103.1188,164.2969 Q102.6344,165.0469 102.6344,166.0781 L102.6344,167.1719 Q102.6344,168.4063 103.525,169.2344 Q104.4156,170.0469 106.0094,170.0469 Q106.9469,170.0469 107.6031,169.7969 Q107.9938,169.6406 108.4156,169.2031 Q108.6813,168.9375 108.8219,168.8594 Q108.9781,168.7813 109.1813,168.7813 Q109.5094,168.7813 109.7594,169.0469 Q110.025,169.2969 110.025,169.6406 Q110.025,169.9844 109.6813,170.3906 Q109.1813,170.9688 108.3844,171.2969 Q107.3063,171.75 106.0094,171.75 Q104.4938,171.75 103.2906,171.125 Q102.3063,170.625 101.6188,169.5625 Q100.9313,168.4844 100.9313,167.2031 L100.9313,166.0469 Q100.9313,164.7188 101.5406,163.5781 Q102.1656,162.4219 103.2594,161.8125 Q104.3531,161.1875 105.5875,161.1875 Q106.3219,161.1875 106.9625,161.3594 Q107.6188,161.5156 108.1656,161.875 Z " fill="#000000"/><text fill="#000000" font-family="sans-serif" font-size="14" lengthAdjust="spacing" textLength="57" x="119.4" y="171.7285">Producto</text><line style="stroke:#181818;stroke-width:0.5;" x1="91.4" x2="178.4" y1="182" y2="182"/><text fill="#000000" font-family="sans-serif" font-size="14" lengthAdjust="spacing" textLength="70" x="96.4" y="200.5332">ProductoID</text><line style="stroke:#181818;stroke-width:0.5;" x1="91.4" x2="178.4" y1="207.6094" y2="207.6094"/></g><!--MD5=[b757b6e529b763f8ad1e01e238f23ef8]
class Aviso--><g id="elem_Aviso"><rect codeLine="13" fill="#F1F1F1" height="83.2188" id="Aviso" rx="2.5" ry="2.5" style="stroke:#181818;stroke-width:0.5;" width="109" x="80.4" y="7"/><ellipse cx="114.75" cy="23" fill="#ADD1B2" rx="11" ry="11" style="stroke:#181818;stroke-width:1.0;"/><path d="M117.5156,18.875 Q117.6719,18.6563 117.8594,18.5469 Q118.0469,18.4375 118.2656,18.4375 Q118.6406,18.4375 118.875,18.7031 Q119.1094,18.9531 119.1094,19.5625 L119.1094,21.0156 Q119.1094,21.625 118.875,21.8906 Q118.6406,22.1563 118.2656,22.1563 Q117.9219,22.1563 117.7188,21.9531 Q117.5156,21.7656 117.4063,21.25 Q117.3594,20.8906 117.1719,20.7031 Q116.8438,20.3281 116.2344,20.1094 Q115.625,19.8906 115,19.8906 Q114.2344,19.8906 113.5938,20.2188 Q112.9688,20.5469 112.4688,21.2969 Q111.9844,22.0469 111.9844,23.0781 L111.9844,24.1719 Q111.9844,25.4063 112.875,26.2344 Q113.7656,27.0469 115.3594,27.0469 Q116.2969,27.0469 116.9531,26.7969 Q117.3438,26.6406 117.7656,26.2031 Q118.0313,25.9375 118.1719,25.8594 Q118.3281,25.7813 118.5313,25.7813 Q118.8594,25.7813 119.1094,26.0469 Q119.375,26.2969 119.375,26.6406 Q119.375,26.9844 119.0313,27.3906 Q118.5313,27.9688 117.7344,28.2969 Q116.6563,28.75 115.3594,28.75 Q113.8438,28.75 112.6406,28.125 Q111.6563,27.625 110.9688,26.5625 Q110.2813,25.4844 110.2813,24.2031 L110.2813,23.0469 Q110.2813,21.7188 110.8906,20.5781 Q111.5156,19.4219 112.6094,18.8125 Q113.7031,18.1875 114.9375,18.1875 Q115.6719,18.1875 116.3125,18.3594 Q116.9688,18.5156 117.5156,18.875 Z " fill="#000000"/><text fill="#000000" font-family="sans-serif" font-size="14" lengthAdjust="spacing" textLength="34" x="133.05" y="28.7285">Aviso</text><line style="stroke:#181818;stroke-width:0.5;" x1="81.4" x2="188.4" y1="39" y2="39"/><text fill="#000000" font-family="sans-serif" font-size="14" lengthAdjust="spacing" textLength="97" x="86.4" y="57.5332">NuevoProducto</text><text fill="#000000" font-family="sans-serif" font-size="14" lengthAdjust="spacing" textLength="71" x="86.4" y="75.1426">FinalOferta</text><line style="stroke:#181818;stroke-width:0.5;" x1="81.4" x2="188.4" y1="82.2188" y2="82.2188"/></g><!--MD5=[865d49c7700bdf0707f08249e19d5f65]
class Precio--><g id="elem_Precio"><rect codeLine="18" fill="#F1F1F1" height="83.2188" id="Precio" rx="2.5" ry="2.5" style="stroke:#181818;stroke-width:0.5;" width="109" x="80.4" y="285"/><ellipse cx="112.05" cy="301" fill="#ADD1B2" rx="11" ry="11" style="stroke:#181818;stroke-width:1.0;"/><path d="M114.8156,296.875 Q114.9719,296.6563 115.1594,296.5469 Q115.3469,296.4375 115.5656,296.4375 Q115.9406,296.4375 116.175,296.7031 Q116.4094,296.9531 116.4094,297.5625 L116.4094,299.0156 Q116.4094,299.625 116.175,299.8906 Q115.9406,300.1563 115.5656,300.1563 Q115.2219,300.1563 115.0188,299.9531 Q114.8156,299.7656 114.7063,299.25 Q114.6594,298.8906 114.4719,298.7031 Q114.1438,298.3281 113.5344,298.1094 Q112.925,297.8906 112.3,297.8906 Q111.5344,297.8906 110.8938,298.2188 Q110.2688,298.5469 109.7688,299.2969 Q109.2844,300.0469 109.2844,301.0781 L109.2844,302.1719 Q109.2844,303.4063 110.175,304.2344 Q111.0656,305.0469 112.6594,305.0469 Q113.5969,305.0469 114.2531,304.7969 Q114.6438,304.6406 115.0656,304.2031 Q115.3313,303.9375 115.4719,303.8594 Q115.6281,303.7813 115.8313,303.7813 Q116.1594,303.7813 116.4094,304.0469 Q116.675,304.2969 116.675,304.6406 Q116.675,304.9844 116.3313,305.3906 Q115.8313,305.9688 115.0344,306.2969 Q113.9563,306.75 112.6594,306.75 Q111.1438,306.75 109.9406,306.125 Q108.9563,305.625 108.2688,304.5625 Q107.5813,303.4844 107.5813,302.2031 L107.5813,301.0469 Q107.5813,299.7188 108.1906,298.5781 Q108.8156,297.4219 109.9094,296.8125 Q111.0031,296.1875 112.2375,296.1875 Q112.9719,296.1875 113.6125,296.3594 Q114.2688,296.5156 114.8156,296.875 Z " fill="#000000"/><text fill="#000000" font-family="sans-serif" font-size="14" lengthAdjust="spacing" textLength="40" x="129.75" y="306.7285">Precio</text><line style="stroke:#181818;stroke-width:0.5;" x1="81.4" x2="188.4" y1="317" y2="317"/><text fill="#000000" font-family="sans-serif" font-size="14" lengthAdjust="spacing" textLength="70" x="86.4" y="335.5332">ProductoID</text><text fill="#000000" font-family="sans-serif" font-size="14" lengthAdjust="spacing" textLength="97" x="86.4" y="353.1426">PrecioProducto</text><line style="stroke:#181818;stroke-width:0.5;" x1="81.4" x2="188.4" y1="360.2188" y2="360.2188"/></g><!--MD5=[57c2e996059519ec12a1a51bd5c8dbcd]
class Compra--><g id="elem_Compra"><rect codeLine="22" fill="#F1F1F1" height="100.8281" id="Compra" rx="2.5" ry="2.5" style="stroke:#181818;stroke-width:0.5;" width="131" x="382.4" y="276"/><ellipse cx="419.45" cy="292" fill="#ADD1B2" rx="11" ry="11" style="stroke:#181818;stroke-width:1.0;"/><path d="M422.2156,287.875 Q422.3719,287.6563 422.5594,287.5469 Q422.7469,287.4375 422.9656,287.4375 Q423.3406,287.4375 423.575,287.7031 Q423.8094,287.9531 423.8094,288.5625 L423.8094,290.0156 Q423.8094,290.625 423.575,290.8906 Q423.3406,291.1563 422.9656,291.1563 Q422.6219,291.1563 422.4188,290.9531 Q422.2156,290.7656 422.1063,290.25 Q422.0594,289.8906 421.8719,289.7031 Q421.5438,289.3281 420.9344,289.1094 Q420.325,288.8906 419.7,288.8906 Q418.9344,288.8906 418.2938,289.2188 Q417.6688,289.5469 417.1688,290.2969 Q416.6844,291.0469 416.6844,292.0781 L416.6844,293.1719 Q416.6844,294.4063 417.575,295.2344 Q418.4656,296.0469 420.0594,296.0469 Q420.9969,296.0469 421.6531,295.7969 Q422.0438,295.6406 422.4656,295.2031 Q422.7313,294.9375 422.8719,294.8594 Q423.0281,294.7813 423.2313,294.7813 Q423.5594,294.7813 423.8094,295.0469 Q424.075,295.2969 424.075,295.6406 Q424.075,295.9844 423.7313,296.3906 Q423.2313,296.9688 422.4344,297.2969 Q421.3563,297.75 420.0594,297.75 Q418.5438,297.75 417.3406,297.125 Q416.3563,296.625 415.6688,295.5625 Q414.9813,294.4844 414.9813,293.2031 L414.9813,292.0469 Q414.9813,290.7188 415.5906,289.5781 Q416.2156,288.4219 417.3094,287.8125 Q418.4031,287.1875 419.6375,287.1875 Q420.3719,287.1875 421.0125,287.3594 Q421.6688,287.5156 422.2156,287.875 Z " fill="#000000"/><text fill="#000000" font-family="sans-serif" font-size="14" lengthAdjust="spacing" textLength="50" x="438.35" y="297.7285">Compra</text><line style="stroke:#181818;stroke-width:0.5;" x1="383.4" x2="512.4" y1="308" y2="308"/><text fill="#000000" font-family="sans-serif" font-size="14" lengthAdjust="spacing" textLength="119" x="388.4" y="326.5332">ReferenciaCompra</text><text fill="#000000" font-family="sans-serif" font-size="14" lengthAdjust="spacing" textLength="90" x="388.4" y="344.1426">FechaCompra</text><text fill="#000000" font-family="sans-serif" font-size="14" lengthAdjust="spacing" textLength="98" x="388.4" y="361.752">DestinoCompra</text><line style="stroke:#181818;stroke-width:0.5;" x1="383.4" x2="512.4" y1="368.8281" y2="368.8281"/></g><!--MD5=[4668456ee0d5bf931cf805ae22408c96]
class Oferta--><g id="elem_Oferta"><rect codeLine="28" fill="#F1F1F1" height="100.8281" id="Oferta" rx="2.5" ry="2.5" style="stroke:#181818;stroke-width:0.5;" width="123" x="224.4" y="276"/><ellipse cx="262.35" cy="292" fill="#ADD1B2" rx="11" ry="11" style="stroke:#181818;stroke-width:1.0;"/><path d="M265.1156,287.875 Q265.2719,287.6563 265.4594,287.5469 Q265.6469,287.4375 265.8656,287.4375 Q266.2406,287.4375 266.475,287.7031 Q266.7094,287.9531 266.7094,288.5625 L266.7094,290.0156 Q266.7094,290.625 266.475,290.8906 Q266.2406,291.1563 265.8656,291.1563 Q265.5219,291.1563 265.3188,290.9531 Q265.1156,290.7656 265.0063,290.25 Q264.9594,289.8906 264.7719,289.7031 Q264.4438,289.3281 263.8344,289.1094 Q263.225,288.8906 262.6,288.8906 Q261.8344,288.8906 261.1938,289.2188 Q260.5688,289.5469 260.0688,290.2969 Q259.5844,291.0469 259.5844,292.0781 L259.5844,293.1719 Q259.5844,294.4063 260.475,295.2344 Q261.3656,296.0469 262.9594,296.0469 Q263.8969,296.0469 264.5531,295.7969 Q264.9438,295.6406 265.3656,295.2031 Q265.6313,294.9375 265.7719,294.8594 Q265.9281,294.7813 266.1313,294.7813 Q266.4594,294.7813 266.7094,295.0469 Q266.975,295.2969 266.975,295.6406 Q266.975,295.9844 266.6313,296.3906 Q266.1313,296.9688 265.3344,297.2969 Q264.2563,297.75 262.9594,297.75 Q261.4438,297.75 260.2406,297.125 Q259.2563,296.625 258.5688,295.5625 Q257.8813,294.4844 257.8813,293.2031 L257.8813,292.0469 Q257.8813,290.7188 258.4906,289.5781 Q259.1156,288.4219 260.2094,287.8125 Q261.3031,287.1875 262.5375,287.1875 Q263.2719,287.1875 263.9125,287.3594 Q264.5688,287.5156 265.1156,287.875 Z " fill="#000000"/><text fill="#000000" font-family="sans-serif" font-size="14" lengthAdjust="spacing" textLength="40" x="281.45" y="297.7285">Oferta</text><line style="stroke:#181818;stroke-width:0.5;" x1="225.4" x2="346.4" y1="308" y2="308"/><text fill="#000000" font-family="sans-serif" font-size="14" lengthAdjust="spacing" textLength="68" x="230.4" y="326.5332">Descuento</text><text fill="#000000" font-family="sans-serif" font-size="14" lengthAdjust="spacing" textLength="70" x="230.4" y="344.1426">ProductoID</text><text fill="#000000" font-family="sans-serif" font-size="14" lengthAdjust="spacing" textLength="111" x="230.4" y="361.752">FechaFinalOferta</text><line style="stroke:#181818;stroke-width:0.5;" x1="225.4" x2="346.4" y1="368.8281" y2="368.8281"/></g><!--MD5=[0c56601acba229c6f2f0fcc708006f10]
class Destino--><g id="elem_Destino"><rect codeLine="34" fill="#F1F1F1" height="65.6094" id="Destino" rx="2.5" ry="2.5" style="stroke:#181818;stroke-width:0.5;" width="110" x="392.9" y="463"/><ellipse cx="421.4" cy="479" fill="#ADD1B2" rx="11" ry="11" style="stroke:#181818;stroke-width:1.0;"/><path d="M424.1656,474.875 Q424.3219,474.6563 424.5094,474.5469 Q424.6969,474.4375 424.9156,474.4375 Q425.2906,474.4375 425.525,474.7031 Q425.7594,474.9531 425.7594,475.5625 L425.7594,477.0156 Q425.7594,477.625 425.525,477.8906 Q425.2906,478.1563 424.9156,478.1563 Q424.5719,478.1563 424.3688,477.9531 Q424.1656,477.7656 424.0563,477.25 Q424.0094,476.8906 423.8219,476.7031 Q423.4938,476.3281 422.8844,476.1094 Q422.275,475.8906 421.65,475.8906 Q420.8844,475.8906 420.2438,476.2188 Q419.6188,476.5469 419.1188,477.2969 Q418.6344,478.0469 418.6344,479.0781 L418.6344,480.1719 Q418.6344,481.4063 419.525,482.2344 Q420.4156,483.0469 422.0094,483.0469 Q422.9469,483.0469 423.6031,482.7969 Q423.9938,482.6406 424.4156,482.2031 Q424.6813,481.9375 424.8219,481.8594 Q424.9781,481.7813 425.1813,481.7813 Q425.5094,481.7813 425.7594,482.0469 Q426.025,482.2969 426.025,482.6406 Q426.025,482.9844 425.6813,483.3906 Q425.1813,483.9688 424.3844,484.2969 Q423.3063,484.75 422.0094,484.75 Q420.4938,484.75 419.2906,484.125 Q418.3063,483.625 417.6188,482.5625 Q416.9313,481.4844 416.9313,480.2031 L416.9313,479.0469 Q416.9313,477.7188 417.5406,476.5781 Q418.1656,475.4219 419.2594,474.8125 Q420.3531,474.1875 421.5875,474.1875 Q422.3219,474.1875 422.9625,474.3594 Q423.6188,474.5156 424.1656,474.875 Z " fill="#000000"/><text fill="#000000" font-family="sans-serif" font-size="14" lengthAdjust="spacing" textLength="48" x="438.4" y="484.7285">Destino</text><line style="stroke:#181818;stroke-width:0.5;" x1="393.9" x2="501.9" y1="495" y2="495"/><text fill="#000000" font-family="sans-serif" font-size="14" lengthAdjust="spacing" textLength="98" x="398.9" y="513.5332">DestinoCompra</text><line style="stroke:#181818;stroke-width:0.5;" x1="393.9" x2="501.9" y1="520.6094" y2="520.6094"/></g><!--MD5=[124e30f484251e3111fd4b8d73f66f34]
class HistoricoVentas--><g id="elem_HistoricoVentas"><rect codeLine="38" fill="#F1F1F1" height="83.2188" id="HistoricoVentas" rx="2.5" ry="2.5" style="stroke:#181818;stroke-width:0.5;" width="130" x="91.9" y="615"/><ellipse cx="106.9" cy="631" fill="#ADD1B2" rx="11" ry="11" style="stroke:#181818;stroke-width:1.0;"/><path d="M109.6656,626.875 Q109.8219,626.6563 110.0094,626.5469 Q110.1969,626.4375 110.4156,626.4375 Q110.7906,626.4375 111.025,626.7031 Q111.2594,626.9531 111.2594,627.5625 L111.2594,629.0156 Q111.2594,629.625 111.025,629.8906 Q110.7906,630.1563 110.4156,630.1563 Q110.0719,630.1563 109.8688,629.9531 Q109.6656,629.7656 109.5563,629.25 Q109.5094,628.8906 109.3219,628.7031 Q108.9938,628.3281 108.3844,628.1094 Q107.775,627.8906 107.15,627.8906 Q106.3844,627.8906 105.7438,628.2188 Q105.1188,628.5469 104.6188,629.2969 Q104.1344,630.0469 104.1344,631.0781 L104.1344,632.1719 Q104.1344,633.4063 105.025,634.2344 Q105.9156,635.0469 107.5094,635.0469 Q108.4469,635.0469 109.1031,634.7969 Q109.4938,634.6406 109.9156,634.2031 Q110.1813,633.9375 110.3219,633.8594 Q110.4781,633.7813 110.6813,633.7813 Q111.0094,633.7813 111.2594,634.0469 Q111.525,634.2969 111.525,634.6406 Q111.525,634.9844 111.1813,635.3906 Q110.6813,635.9688 109.8844,636.2969 Q108.8063,636.75 107.5094,636.75 Q105.9938,636.75 104.7906,636.125 Q103.8063,635.625 103.1188,634.5625 Q102.4313,633.4844 102.4313,632.2031 L102.4313,631.0469 Q102.4313,629.7188 103.0406,628.5781 Q103.6656,627.4219 104.7594,626.8125 Q105.8531,626.1875 107.0875,626.1875 Q107.8219,626.1875 108.4625,626.3594 Q109.1188,626.5156 109.6656,626.875 Z " fill="#000000"/><text fill="#000000" font-family="sans-serif" font-size="14" lengthAdjust="spacing" textLength="98" x="120.9" y="636.7285">HistoricoVentas</text><line style="stroke:#181818;stroke-width:0.5;" x1="92.9" x2="220.9" y1="647" y2="647"/><text fill="#000000" font-family="sans-serif" font-size="14" lengthAdjust="spacing" textLength="97" x="97.9" y="665.5332">NombreUsuario</text><text fill="#000000" font-family="sans-serif" font-size="14" lengthAdjust="spacing" textLength="66" x="97.9" y="683.1426">Contrseña</text><line style="stroke:#181818;stroke-width:0.5;" x1="92.9" x2="220.9" y1="690.2188" y2="690.2188"/></g><!--MD5=[19fd45c84f5430d95667254c6d717398]
link Compra to Usuario--><g id="link_Compra_Usuario"><path codeLine="43" d="M382.28,366.81 C376.41,370.27 370.56,373.71 364.9,377 C315.56,405.71 259.21,437.62 217.62,461.01 " fill="none" id="Compra-Usuario" style="stroke:#181818;stroke-width:1.0;"/><text fill="#000000" font-family="sans-serif" font-size="13" lengthAdjust="spacing" textLength="20" x="355.3412" y="368.0571">1..*</text><text fill="#000000" font-family="sans-serif" font-size="13" lengthAdjust="spacing" textLength="7" x="225.4468" y="453.2605">1</text></g><!--MD5=[d75691e1ab29efdb5d195c9c21b0a782]
link Oferta to Usuario--><g id="link_Oferta_Usuario"><path codeLine="44" d="M247.54,377.3 C233.14,396.01 216.63,417.44 201.69,436.84 " fill="none" id="Oferta-Usuario" style="stroke:#181818;stroke-width:1.0;"/><text fill="#000000" font-family="sans-serif" font-size="13" lengthAdjust="spacing" textLength="20" x="221.3439" y="398.3624">1..*</text><text fill="#000000" font-family="sans-serif" font-size="13" lengthAdjust="spacing" textLength="7" x="199.7222" y="426.1448">1</text></g><!--MD5=[6852102a00e237c2bc667ae81bef5f84]
link Usuario to HistoricoVentas--><g id="link_Usuario_HistoricoVentas"><path codeLine="45" d="M156.9,555.12 C156.9,574.91 156.9,596.6 156.9,614.73 " fill="none" id="Usuario-HistoricoVentas" style="stroke:#181818;stroke-width:1.0;"/><text fill="#000000" font-family="sans-serif" font-size="13" lengthAdjust="spacing" textLength="7" x="149.4734" y="576.7901">1</text><text fill="#000000" font-family="sans-serif" font-size="13" lengthAdjust="spacing" textLength="7" x="149.3203" y="603.993">1</text></g><!--MD5=[77ec58af4cf03aa1969707638924b253]
link Producto to Usuario--><g id="link_Producto_Usuario"><path codeLine="46" d="M101.11,216.07 C86.34,232.42 70.63,253.57 62.9,276 C48.27,318.44 48.08,334.63 62.9,377 C70.42,398.51 83.69,419.03 97.92,436.74 " fill="none" id="Producto-Usuario" style="stroke:#181818;stroke-width:1.0;"/><text fill="#000000" font-family="sans-serif" font-size="13" lengthAdjust="spacing" textLength="20" x="73.0362" y="237.2058">1..*</text><text fill="#000000" font-family="sans-serif" font-size="13" lengthAdjust="spacing" textLength="7" x="83.3053" y="426.0326">1</text></g><!--MD5=[ac5987c2394c39d1139c191282d09a85]
link Aviso to Usuario--><g id="link_Aviso_Usuario"><path codeLine="47" d="M105.44,90.41 C93.88,108.04 81.38,129.33 72.9,150 C34.28,244.09 6,282.62 43.9,377 C54.89,404.37 75.6,428.98 96.32,448.55 " fill="none" id="Aviso-Usuario" style="stroke:#181818;stroke-width:1.0;"/><text fill="#000000" font-family="sans-serif" font-size="13" lengthAdjust="spacing" textLength="20" x="79.3977" y="111.5578">1..*</text><text fill="#000000" font-family="sans-serif" font-size="13" lengthAdjust="spacing" textLength="7" x="81.5103" y="457.2319">1</text></g><!--MD5=[acac690e22f4b98a6aadf6ac18edd52a]
link Compra to Destino--><g id="link_Compra_Destino"><path codeLine="48" d="M447.9,377.3 C447.9,404.98 447.9,438.61 447.9,462.82 " fill="none" id="Compra-Destino" style="stroke:#181818;stroke-width:1.0;"/><text fill="#000000" font-family="sans-serif" font-size="13" lengthAdjust="spacing" textLength="7" x="440.4516" y="398.3624">1</text><text fill="#000000" font-family="sans-serif" font-size="13" lengthAdjust="spacing" textLength="7" x="440.1781" y="451.8983">1</text></g><!--MD5=[976e32195a5644eb0816b4a9a74e24fd]
link Producto to Oferta--><g id="link_Producto_Oferta"><path codeLine="49" d="M169.16,216.11 C187.96,233.72 211.67,255.94 232.81,275.75 " fill="none" id="Producto-Oferta" style="stroke:#181818;stroke-width:1.0;"/><text fill="#000000" font-family="sans-serif" font-size="13" lengthAdjust="spacing" textLength="7" x="167.6391" y="236.9939">1</text><text fill="#000000" font-family="sans-serif" font-size="13" lengthAdjust="spacing" textLength="7" x="217.852" y="265.0202">1</text></g><!--MD5=[86a6147d4621ee33ea795f46624e4839]
link Producto to Precio--><g id="link_Producto_Precio"><path codeLine="50" d="M134.9,216.11 C134.9,236.49 134.9,263.05 134.9,284.9 " fill="none" id="Producto-Precio" style="stroke:#181818;stroke-width:1.0;"/><text fill="#000000" font-family="sans-serif" font-size="13" lengthAdjust="spacing" textLength="7" x="127.2766" y="236.9939">1</text><text fill="#000000" font-family="sans-serif" font-size="13" lengthAdjust="spacing" textLength="7" x="127.3203" y="274.1911">1</text></g><!--MD5=[1a2a3cfea883701f79c29dec8798ace6]
link Aviso to Oferta--><g id="link_Aviso_Oferta"><path codeLine="51" d="M161.02,90.11 C172.4,108.23 185.67,129.97 196.9,150 C220.29,191.72 244.72,240.29 262.05,275.75 " fill="none" id="Aviso-Oferta" style="stroke:#181818;stroke-width:1.0;"/><text fill="#000000" font-family="sans-serif" font-size="13" lengthAdjust="spacing" textLength="7" x="157.7664" y="111.8328">1</text><text fill="#000000" font-family="sans-serif" font-size="13" lengthAdjust="spacing" textLength="7" x="251.2039" y="265.0202">1</text></g><!--MD5=[668d216d703c3eae62fd2394075d879e]
link Aviso to Producto--><g id="link_Aviso_Producto"><path codeLine="52" d="M134.9,90.34 C134.9,109.5 134.9,132 134.9,149.92 " fill="none" id="Aviso-Producto" style="stroke:#181818;stroke-width:1.0;"/><text fill="#000000" font-family="sans-serif" font-size="13" lengthAdjust="spacing" textLength="7" x="127.3422" y="111.789">1</text><text fill="#000000" font-family="sans-serif" font-size="13" lengthAdjust="spacing" textLength="7" x="127.1781" y="139.0189">1</text></g><!--MD5=[c13db534fc78014ee2090dfb483c1e60]
@startuml Sistema

Class Usuario{
    NombreCompleto
    Telefono
    Email
    NumeroCuenta
}

Class Producto{
    ProductoID
}

Class Aviso{
    NuevoProducto
    FinalOferta
}

class Precio {
    ProductoID
    PrecioProducto
}
class Compra{
    ReferenciaCompra
    FechaCompra
    DestinoCompra
}

class Oferta {
    Descuento
    ProductoID
    FechaFinalOferta
}

class Destino{
    DestinoCompra
}

class HistoricoVentas{
    NombreUsuario
    Contrseña
}

Compra "1..*"- -"1"Usuario 
Oferta "1..*"- -"1"Usuario 
HistoricoVentas "1"-up-"1"Usuario
Producto "1..*"- -"1" Usuario 
Aviso"1..*"- -"1" Usuario 
Compra "1"- -"1"Destino
Producto "1"- -"1" Oferta
Producto "1"- -"1" Precio
Aviso "1"- -"1" Oferta
Aviso "1"- -"1" Producto
@enduml

PlantUML version 1.2022.7(Mon Aug 22 19:01:30 CEST 2022)
(GPL source distribution)
Java Runtime: OpenJDK Runtime Environment
JVM: OpenJDK 64-Bit Server VM
Default Encoding: Cp1252
Language: es
Country: ES
--></g></svg>