<?xml version="1.0" encoding="UTF-8" standalone="no"?><svg xmlns="http://www.w3.org/2000/svg" xmlns:xlink="http://www.w3.org/1999/xlink" contentStyleType="text/css" height="812px" preserveAspectRatio="none" style="width:1471px;height:812px;background:#FFFFFF;" version="1.1" viewBox="0 0 1471 812" width="1471px" zoomAndPan="magnify"><defs/><g><!--MD5=[d4df9ba3b0a137211828d4d66ada4284]
entity Abstracto--><g id="elem_Abstracto"><ellipse cx="830" cy="131.5" fill="#F1F1F1" rx="8" ry="8" style="stroke:#181818;stroke-width:0.5;"/><path d="M830,139.5 L830,166.5 M817,147.5 L843,147.5 M830,166.5 L817,181.5 M830,166.5 L843,181.5 " fill="none" style="stroke:#181818;stroke-width:0.5;"/><text fill="#000000" font-family="sans-serif" font-size="14" lengthAdjust="spacing" textLength="60" x="800" y="197.5332">Abstracto</text></g><g id="elem_ver\nofertas"><ellipse cx="830.098" cy="33.9034" fill="#F1F1F1" rx="42.598" ry="27.9034" style="stroke:#181818;stroke-width:0.5;"/><text fill="#000000" font-family="sans-serif" font-size="14" lengthAdjust="spacing" textLength="20" x="820.098" y="28.8272">ver</text><text fill="#000000" font-family="sans-serif" font-size="14" lengthAdjust="spacing" textLength="44" x="808.098" y="46.4366">ofertas</text></g><!--MD5=[7321ed2f41089b8b34eb43cba94ee4c8]
entity Clientes--><g id="elem_Clientes"><ellipse cx="937" cy="131.5" fill="#F1F1F1" rx="8" ry="8" style="stroke:#181818;stroke-width:0.5;"/><path d="M937,139.5 L937,166.5 M924,147.5 L950,147.5 M937,166.5 L924,181.5 M937,166.5 L950,181.5 " fill="none" style="stroke:#181818;stroke-width:0.5;"/><text fill="#000000" font-family="sans-serif" font-size="14" lengthAdjust="spacing" textLength="51" x="911.5" y="197.5332">Clientes</text></g><g id="elem_Llevar a cabo\nconsultas"><ellipse cx="980.7965" cy="322.9034" fill="#F1F1F1" rx="72.2965" ry="27.9034" style="stroke:#181818;stroke-width:0.5;"/><text fill="#000000" font-family="sans-serif" font-size="14" lengthAdjust="spacing" textLength="86" x="937.7965" y="317.8272">Llevar a cabo</text><text fill="#000000" font-family="sans-serif" font-size="14" lengthAdjust="spacing" textLength="60" x="950.7965" y="335.4366">consultas</text></g><g id="elem_Vfoto"><ellipse cx="1003.1745" cy="472.7123" fill="#F1F1F1" rx="81.1745" ry="44.7123" style="stroke:#181818;stroke-width:0.5;"/><text fill="#000000" font-family="sans-serif" font-size="14" lengthAdjust="spacing" textLength="88" x="955.6745" y="454.8315">Visualizar foto</text><line style="stroke:#181818;stroke-width:1.0;" x1="927.5789" x2="1078.7701" y1="457.9077" y2="457.9077"/><text fill="#000000" font-family="sans-serif" font-size="14" lengthAdjust="spacing" textLength="102" x="948.6745" y="476.4409">extension points</text><text fill="#000000" font-family="sans-serif" font-size="14" lengthAdjust="spacing" textLength="93" x="951.1745" y="494.0502">Denunciar foto</text></g><g id="elem_Denunciar foto"><ellipse cx="813.9259" cy="633.7852" fill="#F1F1F1" rx="71.9259" ry="16.7852" style="stroke:#181818;stroke-width:0.5;"/><text fill="#000000" font-family="sans-serif" font-size="14" lengthAdjust="spacing" textLength="93" x="764.4259" y="638.3018">Denunciar foto</text></g><g id="elem_Introducir \nexplicacion"><ellipse cx="813.7756" cy="778.9034" fill="#F1F1F1" rx="60.2756" ry="27.9034" style="stroke:#181818;stroke-width:0.5;"/><text fill="#000000" font-family="sans-serif" font-size="14" lengthAdjust="spacing" textLength="59" x="782.2756" y="773.8272">Introducir</text><text fill="#000000" font-family="sans-serif" font-size="14" lengthAdjust="spacing" textLength="69" x="779.2756" y="791.4366">explicacion</text></g><!--MD5=[106ffc32608b066760e390059c1d0722]
entity Gestores--><g id="elem_Gestores"><ellipse cx="672" cy="131.5" fill="#F1F1F1" rx="8" ry="8" style="stroke:#181818;stroke-width:0.5;"/><path d="M672,139.5 L672,166.5 M659,147.5 L685,147.5 M672,166.5 L659,181.5 M672,166.5 L685,181.5 " fill="none" style="stroke:#181818;stroke-width:0.5;"/><text fill="#000000" font-family="sans-serif" font-size="14" lengthAdjust="spacing" textLength="58" x="643" y="197.5332">Gestores</text></g><g id="elem_Bloquear ofertas"><ellipse cx="671.855" cy="34.171" fill="#F1F1F1" rx="76.355" ry="17.671" style="stroke:#181818;stroke-width:0.5;"/><text fill="#000000" font-family="sans-serif" font-size="14" lengthAdjust="spacing" textLength="105" x="616.6233" y="38.6255">Bloquear ofertas</text></g><g id="elem_Emitir \nfacturas"><ellipse cx="817.0477" cy="322.9034" fill="#F1F1F1" rx="47.5477" ry="27.9034" style="stroke:#181818;stroke-width:0.5;"/><text fill="#000000" font-family="sans-serif" font-size="14" lengthAdjust="spacing" textLength="35" x="797.5477" y="317.8272">Emitir</text><text fill="#000000" font-family="sans-serif" font-size="14" lengthAdjust="spacing" textLength="51" x="791.5477" y="335.4366">facturas</text></g><g id="elem_Editar facturas"><ellipse cx="663.0677" cy="323.2135" fill="#F1F1F1" rx="71.5677" ry="16.7135" style="stroke:#181818;stroke-width:0.5;"/><text fill="#000000" font-family="sans-serif" font-size="14" lengthAdjust="spacing" textLength="92" x="614.0677" y="327.7301">Editar facturas</text></g><g id="elem_Editar"><ellipse cx="567.1482" cy="472.4517" fill="#F1F1F1" rx="37.6482" ry="15.4517" style="stroke:#181818;stroke-width:0.5;"/><text fill="#000000" font-family="sans-serif" font-size="14" lengthAdjust="spacing" textLength="37" x="548.6482" y="476.1802">Editar</text></g><!--MD5=[6f2751dc95cdd3c7ed6bb6a70136758f]
entity SF--><g id="elem_SF"><ellipse cx="812" cy="442" fill="#F1F1F1" rx="8" ry="8" style="stroke:#181818;stroke-width:0.5;"/><path d="M812,450 L812,477 M799,458 L825,458 M812,477 L799,492 M812,477 L825,492 " fill="none" style="stroke:#181818;stroke-width:0.5;"/><text fill="#000000" font-family="sans-serif" font-size="14" lengthAdjust="spacing" textLength="149" x="737.5" y="508.0332">Software de facturacion</text></g><!--MD5=[2e903384ba6a94be9c906ea46910cc3f]
entity Administrador--><g id="elem_Administrador"><ellipse cx="363" cy="131.5" fill="#F1F1F1" rx="8" ry="8" style="stroke:#181818;stroke-width:0.5;"/><path d="M363,139.5 L363,166.5 M350,147.5 L376,147.5 M363,166.5 L350,181.5 M363,166.5 L376,181.5 " fill="none" style="stroke:#181818;stroke-width:0.5;"/><text fill="#000000" font-family="sans-serif" font-size="14" lengthAdjust="spacing" textLength="87" x="319.5" y="197.5332">Administrador</text></g><g id="elem_Editar usuario"><ellipse cx="486.1531" cy="322.9306" fill="#F1F1F1" rx="70.1531" ry="16.4306" style="stroke:#181818;stroke-width:0.5;"/><text fill="#000000" font-family="sans-serif" font-size="14" lengthAdjust="spacing" textLength="88" x="439.1531" y="327.4472">Editar usuario</text></g><g id="elem_Crear usuarios"><ellipse cx="307.7859" cy="322.8572" fill="#F1F1F1" rx="72.2859" ry="16.8572" style="stroke:#181818;stroke-width:0.5;"/><text fill="#000000" font-family="sans-serif" font-size="14" lengthAdjust="spacing" textLength="94" x="257.7859" y="327.3738">Crear usuarios</text></g><g id="elem_Enviar correo"><ellipse cx="75.1119" cy="323.2224" fill="#F1F1F1" rx="69.1119" ry="16.2224" style="stroke:#181818;stroke-width:0.5;"/><text fill="#000000" font-family="sans-serif" font-size="14" lengthAdjust="spacing" textLength="85" x="29.6119" y="327.739">Enviar correo</text></g><!--MD5=[eef3f094aa25142ce89e2590d2eee39c]
entity GC--><g id="elem_GC"><ellipse cx="75" cy="442" fill="#F1F1F1" rx="8" ry="8" style="stroke:#181818;stroke-width:0.5;"/><path d="M75,450 L75,477 M62,458 L88,458 M75,477 L62,492 M75,477 L88,492 " fill="none" style="stroke:#181818;stroke-width:0.5;"/><text fill="#000000" font-family="sans-serif" font-size="14" lengthAdjust="spacing" textLength="108" x="21" y="508.0332">Gestor de correo</text></g><g id="elem_Indicar revision \nde foto"><ellipse cx="1002.9889" cy="633.9034" fill="#F1F1F1" rx="81.4889" ry="27.9034" style="stroke:#181818;stroke-width:0.5;"/><text fill="#000000" font-family="sans-serif" font-size="14" lengthAdjust="spacing" textLength="95" x="953.4889" y="628.8272">Indicar revision</text><text fill="#000000" font-family="sans-serif" font-size="14" lengthAdjust="spacing" textLength="44" x="980.9889" y="646.4366">de foto</text></g><!--MD5=[911c5fc8bfd933753805c901074b8a3b]
entity Controladores--><g id="elem_Controladores"><ellipse cx="1165" cy="603.5" fill="#F1F1F1" rx="8" ry="8" style="stroke:#181818;stroke-width:0.5;"/><path d="M1165,611.5 L1165,638.5 M1152,619.5 L1178,619.5 M1165,638.5 L1152,653.5 M1165,638.5 L1178,653.5 " fill="none" style="stroke:#181818;stroke-width:0.5;"/><text fill="#000000" font-family="sans-serif" font-size="14" lengthAdjust="spacing" textLength="90" x="1120" y="669.5332">Controladores</text></g><g id="elem_Editar informacion \nde foto"><ellipse cx="1164.9654" cy="778.9147" fill="#F1F1F1" rx="94.9654" ry="27.9147" style="stroke:#181818;stroke-width:0.5;"/><text fill="#000000" font-family="sans-serif" font-size="14" lengthAdjust="spacing" textLength="114" x="1104.0113" y="774.3679">Editar informacion</text><text fill="#000000" font-family="sans-serif" font-size="14" lengthAdjust="spacing" textLength="44" x="1141.0113" y="791.9773">de foto</text></g><!--MD5=[b518afe29adc4be238f77772235dec2a]
entity Vendedor--><g id="elem_Vendedor"><ellipse cx="1240" cy="292.5" fill="#F1F1F1" rx="8" ry="8" style="stroke:#181818;stroke-width:0.5;"/><path d="M1240,300.5 L1240,327.5 M1227,308.5 L1253,308.5 M1240,327.5 L1227,342.5 M1240,327.5 L1253,342.5 " fill="none" style="stroke:#181818;stroke-width:0.5;"/><text fill="#000000" font-family="sans-serif" font-size="14" lengthAdjust="spacing" textLength="62" x="1209" y="358.5332">Vendedor</text></g><g id="elem_Buscar detalles \nen la foto"><ellipse cx="1239.9031" cy="472.4034" fill="#F1F1F1" rx="82.9031" ry="27.9034" style="stroke:#181818;stroke-width:0.5;"/><text fill="#000000" font-family="sans-serif" font-size="14" lengthAdjust="spacing" textLength="97" x="1189.4031" y="467.3272">Buscar detalles</text><text fill="#000000" font-family="sans-serif" font-size="14" lengthAdjust="spacing" textLength="59" x="1210.4031" y="484.9366">en la foto</text></g><g id="elem_Verificar datos"><ellipse cx="1316.2113" cy="634.1423" fill="#F1F1F1" rx="71.2113" ry="16.6423" style="stroke:#181818;stroke-width:0.5;"/><text fill="#000000" font-family="sans-serif" font-size="14" lengthAdjust="spacing" textLength="91" x="1267.7113" y="638.6589">Verificar datos</text></g><g id="elem_HF"><ellipse cx="1385.9853" cy="322.811" fill="#F1F1F1" rx="79.4853" ry="43.811" style="stroke:#181818;stroke-width:0.5;"/><text fill="#000000" font-family="sans-serif" font-size="14" lengthAdjust="spacing" textLength="78" x="1340.9853" y="304.9302">Hacer oferta</text><line style="stroke:#181818;stroke-width:1.0;" x1="1312.1758" x2="1459.7948" y1="308.0063" y2="308.0063"/><text fill="#000000" font-family="sans-serif" font-size="14" lengthAdjust="spacing" textLength="102" x="1328.9853" y="326.5395">extension points</text><text fill="#000000" font-family="sans-serif" font-size="14" lengthAdjust="spacing" textLength="92" x="1333.9853" y="344.1489">Reducir precio</text></g><g id="elem_Reducir precio"><ellipse cx="1386.0677" cy="162.2135" fill="#F1F1F1" rx="71.5677" ry="16.7135" style="stroke:#181818;stroke-width:0.5;"/><text fill="#000000" font-family="sans-serif" font-size="14" lengthAdjust="spacing" textLength="92" x="1337.0677" y="166.7301">Reducir precio</text></g><!--MD5=[814c9d146bfd3181d228cb31a0b99474]
link ver\nofertas to Abstracto--><g id="link_ver\nofertas_Abstracto"><path d="M830,62.03 C830,79.67 830,102.98 830,122.54 " fill="none" id="ver\nofertas-Abstracto" style="stroke:#181818;stroke-width:1.0;"/></g><!--MD5=[15042692cf9dd1c3fc3d2bcb2c83410f]
reverse link Abstracto to Clientes--><g id="link_Abstracto_Clientes"><path d="M880.16,162 C890.6,162 901.03,162 911.46,162 " fill="none" id="Abstracto-backto-Clientes" style="stroke:#181818;stroke-width:1.0;"/><polygon fill="none" points="880.09,169,860.09,162,880.09,155,880.09,169" style="stroke:#181818;stroke-width:1.0;"/></g><!--MD5=[f3d8357b35e19e8b60b269b5722f5e14]
link Clientes to Llevar a cabo\nconsultas--><g id="link_Clientes_Llevar a cabo\nconsultas"><path d="M947.54,201.08 C955.52,229.93 966.3,268.87 973.44,294.68 " fill="none" id="Clientes-Llevar a cabo\nconsultas" style="stroke:#181818;stroke-width:1.0;"/></g><!--MD5=[b8adf0bdfe46eca8221de612ef4a0c47]
link Llevar a cabo\nconsultas to Vfoto--><g id="link_Llevar a cabo\nconsultas_Vfoto"><path d="M985.04,351.05 C988.25,372.59 992.81,403.16 996.53,428.11 " fill="none" id="Llevar a cabo\nconsultas-Vfoto" style="stroke:#181818;stroke-width:1.0;"/></g><!--MD5=[a7a1b739b0e0255a953b4d69caee8a53]
reverse link Vfoto to Denunciar foto--><g id="link_Vfoto_Denunciar foto"><path d="M955.35,513.72 C915.51,547.33 860.81,593.49 832.56,617.33 " fill="none" id="Vfoto-backto-Denunciar foto" style="stroke:#181818;stroke-width:1.0;stroke-dasharray:7.0,7.0;"/><polygon fill="#181818" points="959.64,510.09,950.1862,512.8515,955.8236,513.3204,955.3548,518.9577,959.64,510.09" style="stroke:#181818;stroke-width:1.0;"/><text fill="#000000" font-family="sans-serif" font-size="13" lengthAdjust="spacing" textLength="53" x="916" y="561.4951">«extend»</text></g><!--MD5=[b620267670e9ff8bc1718b4c25ccbd97]
link Denunciar foto to Introducir \nexplicacion--><g id="link_Denunciar foto_Introducir \nexplicacion"><path d="M814,651.13 C814,673.96 814,716.19 814,745.63 " fill="none" id="Denunciar foto-to-Introducir \nexplicacion" style="stroke:#181818;stroke-width:1.0;stroke-dasharray:7.0,7.0;"/><polygon fill="#181818" points="814,750.97,818,741.97,814,745.97,810,741.97,814,750.97" style="stroke:#181818;stroke-width:1.0;"/><text fill="#000000" font-family="sans-serif" font-size="13" lengthAdjust="spacing" textLength="55" x="815" y="717.4951">«include»</text></g><!--MD5=[14ffe9e9a8a589b3e4c5a56a18452e12]
link Gestores to Abstracto--><g id="link_Gestores_Abstracto"><path d="M701.01,162 C727.24,162 753.47,162 779.71,162 " fill="none" id="Gestores-to-Abstracto" style="stroke:#181818;stroke-width:1.0;"/><polygon fill="none" points="779.77,155,799.77,162,779.77,169,779.77,155" style="stroke:#181818;stroke-width:1.0;"/></g><!--MD5=[9f3ac50d0c5baa60b37d11022422692b]
link Bloquear ofertas to Gestores--><g id="link_Bloquear ofertas_Gestores"><path d="M672,51.73 C672,69.81 672,99.2 672,122.96 " fill="none" id="Bloquear ofertas-Gestores" style="stroke:#181818;stroke-width:1.0;"/></g><!--MD5=[35cf08cf7087f001c0a469b4c7b402c2]
link Gestores to Emitir \nfacturas--><g id="link_Gestores_Emitir \nfacturas"><path d="M701.34,195.18 C728.98,225.48 769.78,270.22 794.8,297.66 " fill="none" id="Gestores-Emitir \nfacturas" style="stroke:#181818;stroke-width:1.0;"/></g><!--MD5=[9a32a32b92a6495edf5e970cb4b764f3]
link Gestores to Editar facturas--><g id="link_Gestores_Editar facturas"><path d="M669.84,201.08 C667.94,234.71 665.26,282.05 663.89,306.31 " fill="none" id="Gestores-Editar facturas" style="stroke:#181818;stroke-width:1.0;"/></g><!--MD5=[b8b29d976496b6794d3ae8c61b82c919]
link Editar facturas to Editar--><g id="link_Editar facturas_Editar"><path d="M652.91,339.51 C637.44,363.27 607.55,409.19 587.44,440.1 " fill="none" id="Editar facturas-to-Editar" style="stroke:#181818;stroke-width:1.0;"/><polygon fill="none" points="593.17,444.13,576.39,457.07,581.43,436.49,593.17,444.13" style="stroke:#181818;stroke-width:1.0;"/></g><!--MD5=[4233f7f24760a532bca866704e279ffa]
link Emitir \nfacturas to SF--><g id="link_Emitir \nfacturas_SF"><path d="M816.08,351.05 C815.3,374.09 814.17,407.46 813.3,433.23 " fill="none" id="Emitir \nfacturas-SF" style="stroke:#181818;stroke-width:1.0;"/></g><!--MD5=[9498056302276ecdc60703d3bbcebb75]
link Administrador to Gestores--><g id="link_Administrador_Gestores"><path d="M406.75,162 C478.73,162 550.71,162 622.69,162 " fill="none" id="Administrador-to-Gestores" style="stroke:#181818;stroke-width:1.0;"/><polygon fill="none" points="622.99,155,642.99,162,622.99,169,622.99,155" style="stroke:#181818;stroke-width:1.0;"/></g><!--MD5=[b2015c47a9d4e7deff141015d43f4496]
link Administrador to Editar usuario--><g id="link_Administrador_Editar usuario"><path d="M392.46,201.08 C418.62,234.89 455.5,282.57 474.17,306.71 " fill="none" id="Administrador-Editar usuario" style="stroke:#181818;stroke-width:1.0;"/></g><!--MD5=[f045326716be509285329034b9247d90]
link Editar usuario to Editar--><g id="link_Editar usuario_Editar"><path d="M494.52,339.51 C507.44,363.05 532.31,408.33 549.27,439.22 " fill="none" id="Editar usuario-to-Editar" style="stroke:#181818;stroke-width:1.0;"/><polygon fill="none" points="555.59,436.17,559.08,457.07,543.32,442.91,555.59,436.17" style="stroke:#181818;stroke-width:1.0;"/></g><!--MD5=[62397339247245b0c4b1663801e4cf3d]
link Crear usuarios to Administrador--><g id="link_Crear usuarios_Administrador"><path d="M313.56,305.91 C322,281.53 338.26,234.53 349.83,201.08 " fill="none" id="Crear usuarios-Administrador" style="stroke:#181818;stroke-width:1.0;"/></g><!--MD5=[d630e6be95789df89d15ad54e637a3a9]
link Administrador to Enviar correo--><g id="link_Administrador_Enviar correo"><path d="M319.26,187.15 C258.2,220.86 149.41,280.92 100.3,308.03 " fill="none" id="Administrador-Enviar correo" style="stroke:#181818;stroke-width:1.0;"/></g><!--MD5=[c0e67964f8b1176e891af1ce6c734ee2]
reverse link Enviar correo to Crear usuarios--><g id="link_Enviar correo_Crear usuarios"><path d="M149.37,323 C176.87,323 208,323 235.35,323 " fill="none" id="Enviar correo-backto-Crear usuarios" style="stroke:#181818;stroke-width:1.0;stroke-dasharray:7.0,7.0;"/><polygon fill="#181818" points="144.28,323,153.28,327,149.28,323,153.28,319,144.28,323" style="stroke:#181818;stroke-width:1.0;"/><text fill="#000000" font-family="sans-serif" font-size="13" lengthAdjust="spacing" textLength="55" x="162.25" y="316.4951">«include»</text></g><!--MD5=[02c0e20adf172dc994515a7ca541aef8]
link Enviar correo to GC--><g id="link_Enviar correo_GC"><path d="M75,339.23 C75,361.24 75,402.65 75,433.3 " fill="none" id="Enviar correo-GC" style="stroke:#181818;stroke-width:1.0;"/></g><!--MD5=[995975e8ed8586e3be6d17ae7b4a74c2]
link Denunciar foto to Indicar revision \nde foto--><g id="link_Denunciar foto_Indicar revision \nde foto"><path d="M886.35,634 C891.38,634 896.4,634 901.43,634 " fill="none" id="Denunciar foto-to-Indicar revision \nde foto" style="stroke:#181818;stroke-width:1.0;"/><polygon fill="none" points="901.44,627,921.44,634,901.44,641,901.44,627" style="stroke:#181818;stroke-width:1.0;"/></g><!--MD5=[6c78407cf6137428ea5a22008dc23a00]
link Indicar revision \nde foto to Controladores--><g id="link_Indicar revision \nde foto_Controladores"><path d="M1084.63,634 C1096.35,634 1108.07,634 1119.79,634 " fill="none" id="Indicar revision \nde foto-Controladores" style="stroke:#181818;stroke-width:1.0;"/></g><!--MD5=[ae70f257da7b2344dd256d8628b16e94]
link Controladores to Editar informacion \nde foto--><g id="link_Controladores_Editar informacion \nde foto"><path d="M1165,673.32 C1165,697.81 1165,728.97 1165,750.9 " fill="none" id="Controladores-Editar informacion \nde foto" style="stroke:#181818;stroke-width:1.0;"/></g><!--MD5=[e5c8ce65c423267efce9a5ea336a4ea7]
link Vendedor to Buscar detalles \nen la foto--><g id="link_Vendedor_Buscar detalles \nen la foto"><path d="M1240,362.37 C1240,388.15 1240,421.48 1240,444.49 " fill="none" id="Vendedor-Buscar detalles \nen la foto" style="stroke:#181818;stroke-width:1.0;"/></g><!--MD5=[00e1a4201e5b48ff2f94cc186dc58611]
reverse link Vfoto to Buscar detalles \nen la foto--><g id="link_Vfoto_Buscar detalles \nen la foto"><path d="M1104.2,472.5 C1121.74,472.5 1139.28,472.5 1156.82,472.5 " fill="none" id="Vfoto-backto-Buscar detalles \nen la foto" style="stroke:#181818;stroke-width:1.0;"/><polygon fill="none" points="1104.01,479.5,1084.01,472.5,1104.01,465.5,1104.01,479.5" style="stroke:#181818;stroke-width:1.0;"/></g><!--MD5=[7c56b1103b3fe76e6053296e4593dfd0]
link Buscar detalles \nen la foto to Verificar datos--><g id="link_Buscar detalles \nen la foto_Verificar datos"><path d="M1252.72,500.2 C1267.82,531.89 1292.67,584.03 1306.3,612.64 " fill="none" id="Buscar detalles \nen la foto-to-Verificar datos" style="stroke:#181818;stroke-width:1.0;stroke-dasharray:7.0,7.0;"/><polygon fill="#181818" points="1308.55,617.36,1308.2787,607.5149,1306.3942,612.8486,1301.0605,610.9641,1308.55,617.36" style="stroke:#181818;stroke-width:1.0;"/><text fill="#000000" font-family="sans-serif" font-size="13" lengthAdjust="spacing" textLength="55" x="1284" y="561.4951">«include»</text></g><!--MD5=[0412800ca8ceb9ad55903668b31ec57b]
link Vendedor to HF--><g id="link_Vendedor_HF"><path d="M1271.08,323 C1282.75,323 1294.42,323 1306.1,323 " fill="none" id="Vendedor-HF" style="stroke:#181818;stroke-width:1.0;"/></g><!--MD5=[2cb89f3c6b4dd9a8b92cbd0634de43a0]
link Reducir precio to HF--><g id="link_Reducir precio_HF"><path d="M1386,178.54 C1386,200.42 1386,241.28 1386,273.81 " fill="none" id="Reducir precio-to-HF" style="stroke:#181818;stroke-width:1.0;stroke-dasharray:7.0,7.0;"/><polygon fill="#181818" points="1386,278.96,1390,269.96,1386,273.96,1382,269.96,1386,278.96" style="stroke:#181818;stroke-width:1.0;"/><text fill="#000000" font-family="sans-serif" font-size="13" lengthAdjust="spacing" textLength="53" x="1387" y="245.4951">«extend»</text></g><!--MD5=[9ac56cc3293e7f5c94fe1dfca5c4f3d5]
@startuml
actor Abstracto
Abstracto-up-(ver\nofertas)
Clientes-left-|>Abstracto
Clientes- -(Llevar a cabo\nconsultas)
usecase Vfoto as "Visualizar foto
- -
extension points
Denunciar foto "
Vfoto-up-(Llevar a cabo\nconsultas)
(Denunciar foto).up.>Vfoto : <<extend>>
(Denunciar foto)..>(Introducir \nexplicacion) : <<include>>
actor Gestores 
Gestores-right-|>Abstracto
Gestores-up-(Bloquear ofertas)
Gestores- -(Emitir \nfacturas)
Gestores-down-(Editar facturas)
(Editar facturas)- -|>(Editar)
actor "Software de facturacion" as SF
SF-up-(Emitir \nfacturas)
actor Administrador
Administrador-right-|>Gestores
Administrador- -(Editar usuario)
(Editar usuario)- -|>(Editar)
Administrador-up-(Crear usuarios)
Administrador- -(Enviar correo)
(Crear usuarios).left.>(Enviar correo) : <<include>>
actor "Gestor de correo" as GC 
GC-up-(Enviar correo)
(Denunciar foto)-right-|>(Indicar revision \nde foto)
actor Controladores
Controladores-left-(Indicar revision \nde foto)
Controladores- -(Editar informacion \nde foto)
actor Vendedor
Vendedor- -(Buscar detalles \nen la foto)
Vfoto<|-right-(Buscar detalles \nen la foto)
(Buscar detalles \nen la foto)..>(Verificar datos) : <<include>>
usecase HF as "Hacer oferta
- -
extension points
Reducir precio"
Vendedor-right-HF
(Reducir precio)..>HF : <<extend>>
@enduml

PlantUML version 1.2022.7(Mon Aug 22 19:01:30 CEST 2022)
(GPL source distribution)
Java Runtime: OpenJDK Runtime Environment
JVM: OpenJDK 64-Bit Server VM
Default Encoding: Cp1252
Language: es
Country: ES
--></g></svg>